<svg xmlns="http://www.w3.org/2000/svg" width="232.005" height="219.36" viewBox="0 0 232.005 219.36"><defs><style>.a,.z{fill:#c8c8c8;}.a{mix-blend-mode:multiply;isolation:isolate;}.b{fill:#f0f0f0;}.c{opacity:0.3;}.d{fill:#e4e4e4;}.e{fill:#e1e1e1;}.f{fill:#e7e7e7;}.g{fill:#d7d7d7;}.h{fill:#ededed;}.i{fill:#c7c7c7;}.j{fill:#dcdcdc;}.k{fill:#e8e8e8;}.l{fill:#efefef;}.m{fill:#dbdbdb;}.n{fill:#e3e3e3;}.o{fill:#f2f2f2;}.p{fill:#e2e2e2;}.q{fill:#f1f1f1;}.r{fill:#eee;}.s{fill:#dedede;}.t{fill:#e6e6e6;}.u{fill:#ddd;}.v{fill:#cdcdcd;}.w{fill:#e9e9e9;}.x{fill:#d0d0d0;}.y{fill:#cecece;}</style></defs><g transform="translate(-33.522 -26.982)"><g transform="translate(33.522 27.804)"><path class="a" d="M407.611,454.185c1.722,2.329,2.434,5.333,2.4,9.029.031-3.7-.68-6.7-2.4-9.029,8.856,29.441,8.546,67.821,10.1,98.9,1.672,33.413-7.038,75.112-2.366,107.239,35.728,1.811,71.74-6.49,107.907-8.319,35.548-1.8,69.479,5.609,104.355,4.95,3.546-69.883,1.651-133.522-1.862-202.773C550.824,450.385,407.2,452.83,407.611,454.185Z" transform="translate(-407.61 -442.045)"/><path class="b" d="M413.391,448.4c1.726,2.329,2.434,5.335,2.4,9.029.03-3.694-.678-6.7-2.4-9.029,8.858,29.441.855,69.2,2.413,100.276,1.67,33.417-4.4,73.742.273,105.868,35.73,1.811,73.427.245,109.59-1.582,35.548-1.8,72.85,2.241,107.726,1.582,3.546-69.883,1.651-136.889-1.862-206.146C556.607,444.6,412.983,447.05,413.391,448.4Z" transform="translate(-403.284 -446.372)"/></g><g class="c" transform="translate(43.634 26.983)"><path class="d" d="M540.593,482c-6.464-2.416-6.719-5.189-.549-8.407-3.682.294-8.755-3.731-10.737.852-1.96,4.511,3.633,6.91,6.516,9.59,3.609,3.355,8.209,5.422,11.6,9.3.126.145.259.264.388.392-.065-2.126-.14-4.258-.21-6.387-.22-.264-.442-.535-.659-.834A13.385,13.385,0,0,0,540.593,482Z" transform="translate(-326.94 -426.189)"/><path class="b" d="M527.6,527.02c4.99-.287,9.26,2.7,14.1,3.093a49.48,49.48,0,0,0,8.776.932q.021-9.119-.037-18.222c-9.295.544-16.413,5.653-23.048,11.7C526.459,525.362,526.395,526.282,527.6,527.02Z" transform="translate(-328.592 -395.815)"/><path class="e" d="M540.345,473.092c-1.054,0-2.105,0-3.159,0-6.17,3.217-5.915,5.99.549,8.407a13.385,13.385,0,0,1,6.352,4.5c.217.3.439.57.659.834q-.231-6.958-.5-13.928l-.752.072C542.456,473.088,541.4,473.059,540.345,473.092Z" transform="translate(-324.082 -425.688)"/><path class="e" d="M546.892,476.532c2.562,1.628,5.237,3.081,7.809,4.689q-.2-4.611-.4-9.223c-5.1-4.091-10.347-8.011-16.913-10.131-7.211-2.325-11.442-8.393-14.072-15.386-1.714-.045-3.437-.091-5.184-.133.78,1.684,1.554,3.361,2.4,4.974C526.577,462.9,536.445,469.886,546.892,476.532Z" transform="translate(-334.996 -445.568)"/><path class="e" d="M541.724,450.307c-.051-1.032-.1-2.054-.152-3.086-2.581-.131-5.251-.254-7.983-.369a26.083,26.083,0,0,1,2.378,1.776C537.634,450.032,539.549,451.452,541.724,450.307Z" transform="translate(-323.431 -445.191)"/><path class="f" d="M549.314,496.984c-2.883-2.68-8.477-5.079-6.517-9.59,1.983-4.583,7.055-.558,10.737-.852,1.054,0,2.105,0,3.159,0,3-2.574,6-5.772.955-8.543-12.444-6.842-22.279-18.125-36.84-21.4-3.308-.745-6.518-1.715-9.935-1.654.71,4.025,3.659,4.656,7.052,4.721,2.875.054,5.772-.042,8.48,1.308,7.258,3.619,7.6,8.148.927,12.739-7.155,4.918-6.775,7.812-.495,14.094,8.219,8.228,17.686,14.346,27.9,19.553,1.64.836,3.716,1.714,3.277,3.882-.46,2.266-2.8,2.1-4.577,2.068-5.5-.1-11.431.881-16.4-.845-7.5-2.607-13.351,4.306-20.476,2.047-1.376-.434-1.684,1.624-.939,2.964,1.014,1.82,2.095,3.6,3.147,5.4,3.9.448,7.791.927,11.694,1.329,1.8.182,4.508,1.03,5.284.185,8.76-9.555,14.963,1.633,22.324,2.682,2.1.3,2.89,2.993,1.983,5.258-.97,2.418-3.077,2.834-5.242,1.986a29.966,29.966,0,0,0-12.351-1.944h0l0,0c.937,1.264,1.937,2.492,2.8,3.806,5.808,8.826,5.293,7.4,14.852,4.025q.973-.344,1.956-.656-.262-16.431-.769-32.873c-.129-.128-.262-.247-.388-.392C557.523,502.406,552.923,500.34,549.314,496.984ZM538.5,478.945c-.647-.175-1.481-.706-.654-1.411.393-.334,1.383-.1,2.046.079.271.073.388.7.719,1.369A8.754,8.754,0,0,1,538.5,478.945Z" transform="translate(-340.431 -439.137)"/><path class="g" d="M535.044,553.979h0l7.882-.012h0a4.522,4.522,0,0,1,1.784-3.367q.094-3.171.178-6.34c-3.055,1.38-6.071,2.878-9.141,4.207C532.513,549.868,533.14,551.867,535.044,553.979Z" transform="translate(-323.52 -372.286)"/><path class="h" d="M572.318,504.234c-.865-1.315-1.866-2.542-2.8-3.806l0,0c-2.047-.386-4.271-.383-6.1-1.231-6.366-2.95-11.031-1.983-14.054,4.838-3.088,6.962-9.8,6.8-15.6,6.3-9.77-.831-19.644-1.189-28.376-7.478-5.415-3.9-12.58-2.9-19.123-1.7-3.861.71-7.686,1.607-11.528,2.416q0,1.574,0,3.151c1.054,0,2.1.007,3.156.007,4.967,0,9.933-.025,14.9.009,4.366.028,8.578-.678,10.486,5.424,1.145,3.646,6.211,3.357,9.714,3.882,8.594,1.283,16.011,4.57,21.784,11.206a7.653,7.653,0,0,1,6.289,3.229l-.005,0h.005l.01-.039c3.525,0,7.081-.1,9.489,3.2,5.177,2.021,9.861,5.707,15.93,4.745-1.2-.738-1.138-1.658-.21-2.5,6.635-6.046,13.753-11.155,23.048-11.7q-.06-8.3-.2-16.6-.983.312-1.956.656C577.611,511.634,578.127,513.061,572.318,504.234Z" transform="translate(-367.483 -407.193)"/><path class="i" d="M553.651,524.345c-6.069.962-10.753-2.724-15.93-4.745a19.286,19.286,0,0,1-9.489-3.2l-.01.039h-.005c-7.887.953-15.6,3.245-23.624,3.131a4.692,4.692,0,0,1-.914.465c-2.724,1.243-5.681,1.067-8.6,1.1q-1.6.779-3.191,1.561h0c5.988,4.81,12.937,6.412,20.474,6.343,8.589-.077,17.259-.563,25.4,3.119q5.521.021,11.045.039c9.381.588,18.474,3.084,27.689,4.77.017-2.17.019-4.334.028-6.5-2.944-.855-5.847-1.894-8.767-3.025C562.911,527.048,558.641,524.058,553.651,524.345Z" transform="translate(-354.645 -393.14)"/><path class="j" d="M544.041,525.736q.005-1.047.009-2.093a49.487,49.487,0,0,1-8.776-.932C538.194,523.842,541.1,524.881,544.041,525.736Z" transform="translate(-322.168 -388.413)"/><path class="k" d="M417.733,452.077a16.762,16.762,0,0,0-4.048-3.894c.4,1.47.785,2.95,1.109,4.466C415.774,452.467,416.755,452.285,417.733,452.077Z" transform="translate(-413.174 -444.195)"/><path class="k" d="M429.55,458.543a172.656,172.656,0,0,0,25.493-3.684c2.033-.49,5.074-.456,5.894-1.764,8.08-12.911,18.147-1.121,27.071-2.446,12.967-1.262,25.8-5.66,39-1.28,2.341.776,4.786-.867,6.5-2.326a4.107,4.107,0,0,0,.953-1.074c-28.615-.171-57.351,0-80.769.318a19.33,19.33,0,0,0-1.609,1.273C445.683,453.21,436.857,454.427,429.55,458.543Z" transform="translate(-401.299 -445.902)"/><path class="l" d="M596.364,559.244q-3.931,4.983-7.882.012h0c-3.245-.359-7.1.524-7.908-4.411-.232-1.439-1.843-1.609-3.14-1.878-14.636-3.065-27.853-10.187-41.965-14.761-2.862-.928-5.321-1.691-8.183.016-5.656,3.373-12.439,3.355-18.3,2.819-5.356-.49-10.222.544-15.3.841q-10.265,4.744-20.536,9.484c-3.389,2.275-6.634,4.882-11.059,4.738q-.005,1.576-.012,3.156c15.084.776,29.682,4.266,44.3,7.742a64.45,64.45,0,0,1,9.006,2.551c6.356,2.514,12.472,3.058,18.684-1.077,6.98-4.647,14.953-3.992,22.833-2.882,12.657.614,25.022,4.049,38.057,1.923a10.92,10.92,0,0,1,2.794-.075c.112-2.965.224-5.932.318-8.893a5.837,5.837,0,0,0-1.708.694Z" transform="translate(-376.955 -377.563)"/><path class="d" d="M519.111,455.413c-2.238.773-4.6,1.234-6.756,2.172s-6.807.059-5.74,3.513c1.079,3.49,4.908,1.061,7.564.385,3.416-.061,6.627.909,9.935,1.654,14.561,3.275,24.4,14.558,36.84,21.4,5.041,2.771,2.047,5.969-.955,8.543,1.051-.033,2.11,0,3.153-.11l.752-.072q-.22-5.78-.463-11.57c-2.572-1.609-5.247-3.062-7.809-4.689-10.447-6.646-20.315-13.628-26.358-25.209-.845-1.614-1.619-3.291-2.4-4.974-3.74-.091-7.553-.173-11.412-.246a38.654,38.654,0,0,1,4.658,2.563C523.713,451.44,523.594,453.86,519.111,455.413Z" transform="translate(-343.736 -445.674)"/><path class="m" d="M535.172,461.811c6.566,2.119,11.811,6.039,16.913,10.131q-.477-10.627-1.014-21.314c-2.175,1.145-4.09-.275-5.758-1.678a26.112,26.112,0,0,0-2.378-1.776c-6.866-.294-14.189-.54-21.835-.748C523.73,453.418,527.961,459.485,535.172,461.811Z" transform="translate(-332.777 -445.512)"/><path class="h" d="M535.709,448.415c-1.647,4.272-6.118-.171-9.269-1.1-2.409-.715-4.051-.227-5.483,1.647-5.943,4.23-13.332,6.083-19.833,7.713-8.7,2.182-14.145,7.962-20.759,12.411-4.632,3.112-9.057,6.009-14.656,6.711,10.821,6.329,23.277,9.844,32.539,18.843,1.4,1.355,4.216,2.079,3.362,4.723-.673,2.086-3.114,1.472-4.8,1.979-5.557,1.661-11.026,3.432-15.463,7.483-2.635,2.406-5.048,4.854-4.016,8.753a8.479,8.479,0,0,0,7.176,6.583c8.811.909,15.462,5.962,22.737,10.173,11.3,6.541,23.012,2,34.434-.334,3.784-.771,7.277-2.964,10.9-4.506-1.053-1.8-2.133-3.577-3.147-5.4-.745-1.339-.437-3.4.939-2.964,7.125,2.259,12.979-4.654,20.476-2.047,4.969,1.726,10.9.747,16.4.845,1.776.031,4.118.2,4.577-2.068.439-2.168-1.637-3.046-3.277-3.882-10.218-5.207-19.684-11.325-27.9-19.553-6.281-6.282-6.66-9.176.495-14.094,6.676-4.592,6.331-9.12-.927-12.739-2.708-1.35-5.606-1.254-8.48-1.308-3.392-.065-6.342-.7-7.052-4.721-2.656.677-6.485,3.105-7.564-.385-1.067-3.453,3.593-2.581,5.74-3.513s4.518-1.4,6.756-2.172c4.483-1.553,4.6-3.972,1.009-6.642a38.654,38.654,0,0,0-4.658-2.563q-5.432-.1-10.986-.184A1.865,1.865,0,0,1,535.709,448.415Z" transform="translate(-374.235 -445.752)"/><path class="e" d="M485.593,518.931a42.29,42.29,0,0,0,14.629,2.7c3.57-.016,6.954.983,8.772,4.291,2.569,4.668,6.254,5.022,10.7,3.506,3.841-.81,7.667-1.707,11.528-2.416,6.543-1.2,13.708-2.2,19.123,1.7,8.732,6.289,18.605,6.648,28.376,7.478,5.8.495,12.509.659,15.6-6.3,3.023-6.821,7.688-7.788,14.054-4.838,1.833.848,4.056.844,6.1,1.231h0a29.966,29.966,0,0,1,12.351,1.944c2.164.848,4.271.432,5.242-1.986.907-2.264.114-4.959-1.983-5.258-7.361-1.049-13.565-12.238-22.324-2.682-.776.845-3.487,0-5.284-.185-3.9-.4-7.8-.881-11.694-1.329-3.625,1.542-7.118,3.735-10.9,4.506-11.423,2.336-23.13,6.875-34.434.334-7.275-4.21-13.927-9.263-22.737-10.173a8.479,8.479,0,0,1-7.176-6.583c-1.032-3.9,1.381-6.347,4.016-8.753,4.438-4.051,9.907-5.822,15.463-7.483,1.689-.507,4.13.107,4.8-1.979.853-2.644-1.965-3.368-3.362-4.723-9.262-9-21.718-12.514-32.539-18.843-9.1,1.1-18.235,2.011-27.3,3.362-4.983.741-12.232,3.375-11.286,7.564,1.275,5.639,8.167,2.967,12.888,1.831a46.676,46.676,0,0,1,5.324-1.385c3.3-.39,6.588.126,8.01,3.57,1.593,3.852-.448,7.057-3.737,8.482-6.114,2.645-10.592,5.259-2.477,12.86-6.541-.743-8.938-4.334-11.07-7.518s-4.627-4.864-8.3-5.078c-4.626,5.032-10.965,4.653-16.728,4.364-11.01-.553-22.24,1.39-33.077-1.53q-.1,2.038-.2,4.072a19.171,19.171,0,0,1,2.29.729c-.792.787-1.612,1.5-2.443,2.179-.519,9.6-1.068,19.083-1.135,28.086,5.574-2,11.127-4.1,16.964-5.279C449.67,515.761,467.533,512.412,485.593,518.931Z" transform="translate(-412.439 -433.043)"/><path class="h" d="M528.495,468.014c-.663-.182-1.652-.413-2.046-.079-.827.7.007,1.236.654,1.411a8.755,8.755,0,0,0,2.11.037C528.883,468.717,528.766,468.088,528.495,468.014Z" transform="translate(-329.032 -429.538)"/><path class="n" d="M557.584,525.448h0q-5.523-.018-11.045-.038c-9.44,2.481-17.312,8.522-26.487,11.643-4.271,1.455-8.492,2.771-13.051,2.588-10.653-1.672-18.362,5.015-26.858,9.464,0,.539.009,1.072.012,1.609,5.083-.3,9.949-1.331,15.3-.841,5.859.537,12.641.554,18.3-2.819,2.862-1.706,5.321-.944,8.183-.016,14.112,4.574,27.328,11.7,41.965,14.761,1.3.269,2.908.439,3.14,1.878.81,4.936,4.663,4.053,7.908,4.411-1.9-2.112-2.532-4.111.7-5.513,3.07-1.329,6.086-2.827,9.141-4.207q.218-8.495.346-16.955c-.418.107-.838.206-1.257.325C574.1,544.548,560.893,535.863,557.584,525.448Z" transform="translate(-363.431 -386.394)"/><path class="n" d="M538.878,551.253a5.837,5.837,0,0,1,1.708-.694c.03-.893.051-1.78.075-2.673A4.521,4.521,0,0,0,538.878,551.253Z" transform="translate(-319.471 -369.572)"/><path class="n" d="M542.253,549.811l-7.882.012Q538.321,554.786,542.253,549.811Z" transform="translate(-322.844 -368.13)"/><path class="k" d="M421.626,519.689c18.784-1.544,36.728,5.667,55.446,5.193,6.387-.161,10.438,5.6,15.729,8.342,5.34,2.761,10.556,5.756,15.825,8.648,0-.537.009-1.072.014-1.61q-4.451-3.737-8.9-7.476c8.653-.227,17.051.149,23.568,6.331,5.766,5.476,16.4,6.214,23.228,1.166-4.833-.7-8.748-3.175-12.638-5.988-4.878-3.525-10.092-6.581-15.136-9.881-6.695-4.38-13.386-5.357-20.609-.939-3.964,2.422-8.375,2.962-12.612-.045.423-2.841,3.077-3.135,4.747-3.448,10.258-1.934,18.439-10.075,29.4-9.723q0-1.576,0-3.151c-4.441,1.516-8.127,1.163-10.7-3.506-1.818-3.308-5.2-4.306-8.772-4.291a42.289,42.289,0,0,1-14.629-2.7c-18.06-6.518-35.922-3.17-53.963.462-5.836,1.175-11.39,3.282-16.964,5.279-.026,3.644.016,7.223.187,10.678.061,1.24.094,2.506.135,3.763a11.445,11.445,0,0,1,.808,1.467C416.687,520.211,419.582,519.855,421.626,519.689Z" transform="translate(-412.442 -410.721)"/><path class="e" d="M522.531,531.289a8.983,8.983,0,0,1,.923-.486c2.714-1.273,5.67-1.072,8.594-1.079a9.314,9.314,0,0,1-.913.465,4.693,4.693,0,0,0,.914-.465c8.027.114,15.736-2.178,23.624-3.131l.005,0a7.653,7.653,0,0,0-6.289-3.229c-2.913.021-5.716.285-8.176,2.18-3.109,2.4-7.016,4.1-9.844.682-3.394-4.107,2.923-5.1,3.938-8.7-4.453-1.4-7.081,1.547-10.1,3.682-6.912,4.887-12.757,4.24-18.215-1.551-2.693-2.855-3.681-5.74-1.07-9.05,3.9-4.95,1.537-6.214-3.455-6.186-3.392.021-6.845.243-9.959-1.577-1.053,0-2.1,0-3.156-.007-10.965-.351-19.146,7.789-29.4,9.723-1.67.313-4.324.607-4.747,3.448,4.237,3.007,8.648,2.467,12.612.045,7.223-4.418,13.914-3.441,20.609.939,5.044,3.3,10.258,6.356,15.136,9.881,3.89,2.813,7.805,5.291,12.638,5.989l3.145-.009Q520.934,532.069,522.531,531.289Z" transform="translate(-382.102 -403.298)"/><path class="k" d="M486.5,504.415c4.992-.028,7.359,1.236,3.455,6.186-2.61,3.31-1.623,6.195,1.07,9.05,5.459,5.791,11.3,6.438,18.215,1.551,3.02-2.135,5.648-5.083,10.1-3.682-1.014,3.6-7.331,4.593-3.937,8.7,2.827,3.42,6.735,1.719,9.844-.682,2.46-1.9,5.263-2.159,8.176-2.18-5.773-6.635-13.19-9.923-21.784-11.206-3.5-.525-8.569-.236-9.714-3.882-1.908-6.1-6.12-5.4-10.486-5.424-4.966-.033-9.931-.009-14.9-.009C479.65,504.658,483.1,504.436,486.5,504.415Z" transform="translate(-366.132 -403.294)"/><path class="k" d="M512.672,516.4a19.285,19.285,0,0,0,9.489,3.2C519.753,516.293,516.2,516.395,512.672,516.4Z" transform="translate(-339.085 -393.14)"/><path class="j" d="M487,531.239c7.5,3.537,15.509,4.889,23.094,7.756,6.789.283,12.794-3.486,20.273-4.284-2.088,6.149-7.111,8.6-10.772,12.2,4.558.184,8.779-1.133,13.051-2.588,9.176-3.121,17.047-9.162,26.487-11.643-8.137-3.682-16.808-3.2-25.4-3.119-7.538.068-14.486-1.533-20.474-6.343h0l-3.145.009c-6.83,5.048-17.462,4.31-23.228-1.166-6.517-6.182-14.914-6.559-23.568-6.331q4.448,3.74,8.9,7.476C478.773,522.733,481.869,528.821,487,531.239Z" transform="translate(-376.024 -393.67)"/><path class="o" d="M524.435,525.431c3.308,10.416,16.514,19.1,26.3,16.29.42-.119.839-.219,1.257-.325q.081-5.6.129-11.2c-9.214-1.686-18.308-4.182-27.689-4.77Z" transform="translate(-330.281 -386.378)"/><path class="j" d="M494.631,519.291a8.985,8.985,0,0,0-.923.486c2.923-.033,5.88.143,8.6-1.1a9.313,9.313,0,0,0,.913-.465C500.3,518.219,497.345,518.018,494.631,519.291Z" transform="translate(-353.279 -391.786)"/><path class="p" d="M430.4,467.771c1.2-1.843,3.485-7.618,7.406-1.778,12.182-4.824,25.136-6.552,37.8-9.461,1.789-.409,3.918-1.787,5.272-1.226,7.662,3.172,12.827-1.776,18.529-5.123-8.924,1.325-18.992-10.465-27.071,2.446-.82,1.308-3.861,1.275-5.894,1.764a172.662,172.662,0,0,1-25.493,3.684c-8.386.841-15.773-3.282-23.692-4.759-.977.208-1.958.39-2.939.572a119.6,119.6,0,0,1,2.325,18.434C422.8,475.655,426.733,473.4,430.4,467.771Z" transform="translate(-412.699 -445.436)"/><path class="j" d="M539.6,447.015c-1.714,1.458-4.158,3.1-6.5,2.325-13.2-4.38-26.038.017-39,1.28-5.7,3.347-10.867,8.295-18.529,5.123-1.353-.561-3.483.817-5.272,1.226-12.661,2.909-25.615,4.637-37.8,9.461-5.679,5.156-5.008,14.031-11.092,18.946,16.824-5.413,27.432,6.436,39.5,14.226,3.677.213,6.167,1.888,8.3,5.078s4.529,6.775,11.07,7.518c-8.115-7.6-3.637-10.214,2.478-12.86,3.289-1.425,5.329-4.63,3.736-8.482-1.421-3.444-4.705-3.96-8.01-3.57a46.675,46.675,0,0,0-5.324,1.385c-4.721,1.137-11.613,3.808-12.888-1.831-.946-4.189,6.3-6.823,11.286-7.564,9.066-1.352,18.2-2.266,27.3-3.362,5.6-.7,10.024-3.6,14.656-6.711,6.614-4.448,12.057-10.229,20.759-12.411,6.5-1.63,13.89-3.483,19.833-7.713a12.159,12.159,0,0,1-4.34-3.07q-4.6-.042-9.216-.068A4.108,4.108,0,0,1,539.6,447.015Z" transform="translate(-407.391 -445.873)"/><path class="q" d="M499.165,449.05c1.432-1.874,3.074-2.362,5.483-1.647,3.151.932,7.622,5.375,9.269,1.1a1.865,1.865,0,0,0-.733-2.313c-6.05-.091-12.187-.161-18.359-.213A12.159,12.159,0,0,0,499.165,449.05Z" transform="translate(-352.443 -445.844)"/><path class="r" d="M417.951,453.619c7.919,1.477,15.306,5.6,23.692,4.759,7.307-4.116,16.133-5.333,22.538-10.982a19.318,19.318,0,0,1,1.609-1.273c-30.913.425-52.555,1.117-52.4,1.645.192.638.336,1.308.511,1.957A16.763,16.763,0,0,1,417.951,453.619Z" transform="translate(-413.392 -445.737)"/><path class="s" d="M541.637,563.651c-.231-.089-.462-.177-.694-.276q-2.4,1.435-4.8,2.834c1.8-.01,3.6-.023,5.382-.058C541.565,565.318,541.6,564.487,541.637,563.651Z" transform="translate(-321.52 -357.978)"/><path class="s" d="M468.408,562.47c.456,1.142.916,2.292,1.4,3.492q6.032-.281,12.016-.584c-1.864-.887-3.714-1.824-5.534-2.882C473.653,564.264,471.029,563.64,468.408,562.47Z" transform="translate(-372.215 -358.655)"/><path class="s" d="M466.472,577.3c2.13-2.574,3.728-4.5,5.324-6.436-3.072-2.738.059-2.986,1.549-4.058,3.621-2.6,7.324-4.107,6.067-10.778-.958-5.088,5.987-3.5,9.711-4.177q.008-1.579.012-3.156-.8-.8-1.6-1.6c-13.867,4.492-28.454,2.287-42.577,4.55a29.878,29.878,0,0,1-19.023-2.953c2.383,4.563,2.383,4.563,18.03,9.318-1.2,2.558-3.609,1.486-5.453,1.8-5.42.928-9.669,2.4-5.4,9.055.416.649,1.161,1.832.99,2-4.345,4.336-2.918,6.482-.4,8.232,16.551.147,33.32-.254,50-.886C478.194,576.749,472.6,575.8,466.472,577.3Z" transform="translate(-404.004 -370.159)"/><path class="t" d="M576.888,567.743c-2.833-5.277-9.213-6.688-12.012-11.589-7.88-1.11-15.853-1.766-22.833,2.882-6.212,4.135-12.328,3.591-18.684,1.077a64.449,64.449,0,0,0-9.006-2.551c-14.621-3.476-29.219-6.966-44.3-7.742-3.724.673-10.669-.911-9.711,4.177,1.257,6.67-2.446,8.176-6.067,10.778-1.49,1.072-4.621,1.32-1.549,4.058,9.708-1.175,19.359-1.825,28.4,3.105,2.621,1.17,5.245,1.794,7.879.026-1.736-1.357-5.114-1.885-3.973-4.922.907-2.42,4.027-2.525,6.232-2.513,19.889.094,39.865-2.626,59.637,1.857,5.1,1.154,10.353,1.619,15.533,2.4C569.73,568.5,573.136,569.41,576.888,567.743Z" transform="translate(-384.93 -368.123)"/><path class="t" d="M498,550.086a27.929,27.929,0,0,0-2.981.855c-2.256.937-2.983,4.883-6.378,3.453-1.7-.715-1.95-2.423-1.231-4.021,1.331-2.962,1.511-6.824,6.149-7.148,3.493-.247,7.233.623,11.264-1.715-5.446-4.077-11.349-2.619-16.766-2.971.4-3.507,3.152-3.424,4.481-4.875v0c-7.209-.526-13.594,3.831-20.927,3.25-6.406-.505-12.617-.852-17.59-5.579-1.616-1.537-3.883-2.8-5.726-1.694-7.017,4.224-16.3,5.058-20.557,13.479,1.035.164,2.574-.051,3.021.551,5.978,7.959,14.75,5.1,22.317,5.259,8.307.18,16.273,3.455,24.818,1.792,3.705-.724,4.745,3.338,5.139,6.63l3.152,3.133q.8.8,1.6,1.6c4.425.143,7.671-2.464,11.059-4.738C492.034,555.992,498.874,552.74,498,550.086Z" transform="translate(-402.655 -383.543)"/><path class="u" d="M554.366,555.366c-13.035,2.126-25.4-1.31-38.057-1.923,2.8,4.9,9.179,6.312,12.012,11.589-3.752,1.666-7.158.759-10.458,1.042,10.314,2.453,20.705,1.2,31.058.481,2.614-.182,5.214-.549,7.81-.956q.234-5.162.428-10.307A10.917,10.917,0,0,0,554.366,555.366Z" transform="translate(-336.363 -365.412)"/><path class="s" d="M481.052,533.536l.011.04.009-.039Z" transform="translate(-362.752 -380.311)"/><path class="s" d="M462.676,536.641c5.417.351,11.32-1.107,16.766,2.971-4.03,2.338-7.77,1.469-11.264,1.715-4.639.323-4.819,4.186-6.149,7.148-.719,1.6-.474,3.306,1.231,4.021,3.4,1.43,4.123-2.516,6.378-3.453a27.957,27.957,0,0,1,2.981-.855c.872,2.654-5.968,5.906.845,7.26q10.27-4.742,20.536-9.484c0-.537-.009-1.07-.012-1.609-1.913-.238-4.532.829-5.452-1.42-.949-2.31,1.449-3.413,3-4.653,1.372-1.1,2.7-2.247,4.049-3.373-1.051-.005-2.105-.011-3.156-.018-5.289-.33-10.741,1.025-15.808-1.553a20.954,20.954,0,0,0-9.463-1.575v0C465.829,533.218,463.077,533.134,462.676,536.641Z" transform="translate(-377.273 -381.646)"/><path class="l" d="M425.724,477.7c6.085-4.915,5.413-13.79,11.092-18.946-3.922-5.84-6.2-.065-7.407,1.778-3.672,5.627-7.6,7.884-13.76,4.553.355,6.429.35,13.05.159,19.74.178-.061.353-.126.546-.185C419.856,483.559,422.625,480.091,425.724,477.7Z" transform="translate(-411.704 -438.193)"/><path class="l" d="M415.467,480.581c-.049.97-.1,1.941-.152,2.908.831-.678,1.651-1.392,2.443-2.179A19.176,19.176,0,0,0,415.467,480.581Z" transform="translate(-411.954 -419.946)"/><path class="k" d="M448.6,487.671c5.763.288,12.1.668,16.728-4.364-12.07-7.789-22.678-19.639-39.5-14.226-3.1,2.4-5.868,5.863-9.37,6.94-.192.059-.367.124-.546.185q-.142,4.954-.388,9.935C426.355,489.061,437.585,487.119,448.6,487.671Z" transform="translate(-411.802 -429.579)"/><path class="v" d="M477.119,546.817c.92,2.249,3.539,1.182,5.452,1.42,8.5-4.45,16.2-11.136,26.858-9.464,3.661-3.607,8.685-6.055,10.772-12.2-7.48.8-13.484,4.567-20.273,4.284-6.19.757-8.751,8.755-15.752,7.9l-.009.039c-1.346,1.126-2.677,2.275-4.049,3.373C478.569,543.4,476.17,544.507,477.119,546.817Z" transform="translate(-365.857 -385.527)"/><path class="q" d="M424.762,563.047c1.273-2.034,2.191-4.179,5.079-4.308,2.621-.117,6.371-.323,4.882-4-1.369-3.392-4.058-7.015-9.129-5.366-3.873,1.261-7.726,2.614-11.662,3.616.082,4.567.28,9.048.617,13.425.236.089.472.177.708.271C418.948,568.154,422.557,566.565,424.762,563.047Z" transform="translate(-412.989 -368.767)"/><path class="q" d="M427.009,572.723c-1.385-5.5.708-8.681,6.34-9.5q2.371-1.576,4.745-3.147c4.254-8.421,13.54-9.255,20.557-13.479,1.843-1.11,4.111.157,5.726,1.694,4.973,4.728,11.183,5.074,17.59,5.579,7.333.58,13.719-3.777,20.927-3.25a20.955,20.955,0,0,1,9.463,1.575c5.287.33,10.739-1.018,15.808,1.553,1.051.007,2.105.012,3.156.017l-.011-.04c2.81-2.931-.573-4.307-1.575-6.279-8.263-.818-15.9-2.5-17.38-12.645l-3.161-3.151c-5.27-2.892-10.486-5.887-15.825-8.648-5.291-2.738-9.342-8.5-15.729-8.342-18.717.474-36.662-6.737-55.446-5.193-2.044.166-4.939.523-5.828-1.432a11.447,11.447,0,0,0-.808-1.467c.068,2.11.117,4.24.135,6.4a57.771,57.771,0,0,1,12,6.008c4.967,3.333,9.531,6.333,8.1,13.633-.845,4.3,2.532,7.842,3.939,11.738s.635,6.567-3.137,8.414c-7.155,3.5-13.383,7.88-16.68,15.673-1.128,2.672-3.535,2.843-5.936,2.266q-.076,3.861-.08,7.671c4.48-1.032,9.2-1.269,13.145-4.076C427.031,573.766,427.019,573.244,427.009,572.723Z" transform="translate(-413.01 -400.497)"/><path class="f" d="M506.29,535.786c-7.585-2.868-15.595-4.219-23.094-7.756-5.132-2.418-8.228-8.506-14.78-8.029-.005.539-.011,1.074-.014,1.61l3.161,3.151c6.013,3.915,13.972,5.149,17.38,12.645,1,1.972,4.385,3.348,1.575,6.279l.019,0C497.539,544.541,500.1,536.544,506.29,535.786Z" transform="translate(-372.219 -390.461)"/><path class="w" d="M443.109,572.221c.171-.17-.573-1.353-.99-2-4.27-6.655-.021-8.127,5.4-9.055,1.845-.315,4.254.757,5.453-1.8-15.647-4.754-15.647-4.754-18.03-9.318-2.859-1.2-4.368-4.653-7.893-4.747-3.943,2.806-8.665,3.044-13.145,4.076q-.008,3.2.049,6.354c3.936-1,7.789-2.355,11.662-3.616,5.071-1.649,7.76,1.974,9.129,5.366,1.49,3.679-2.261,3.885-4.882,4-2.888.13-3.806,2.275-5.079,4.308-2.2,3.518-5.814,5.107-9.5,3.635-.236-.094-.472-.182-.708-.271.276,3.584.629,7.111,1.126,10.529.084,0,.168.005.252.01,1.053-.273,2.1-.546,3.152-.827a21.816,21.816,0,0,1,15.247,1.437c2.784.058,5.56.128,8.358.15C440.191,578.7,438.764,576.557,443.109,572.221Z" transform="translate(-413.01 -371.508)"/><path class="x" d="M587.977,564.927c1.532-.334,2.182,1.093,2.088,2.61.233.1.463.187.694.276.091-1.831.171-3.658.252-5.487-2.6.407-5.2.775-7.81.956-10.353.724-20.744,1.972-31.058-.481-5.181-.78-10.437-1.245-15.533-2.4-19.772-4.483-39.748-1.762-59.637-1.857-2.2-.012-5.324.093-6.232,2.513-1.142,3.037,2.236,3.565,3.973,4.922,1.82,1.058,3.67,1.995,5.534,2.881l2.672-.129c27.523-1.393,56.092.706,83.778,1.423.1-.079.208-.138.308-.219C573.353,564.746,580.978,566.462,587.977,564.927Z" transform="translate(-370.642 -362.14)"/><path class="y" d="M458.118,545.39c-8.361,3.628-18.165.194-27.014,3.154-2.063.692-5.037-.418-5.168,3.247a29.878,29.878,0,0,0,19.023,2.953c14.122-2.262,28.71-.058,42.577-4.55l-3.152-3.133C475.874,542.781,467.612,541.271,458.118,545.39Z" transform="translate(-404.004 -373.254)"/><path class="z" d="M546.8,561.9c-7,1.535-14.624-.18-20.973,5.011-.1.08-.208.14-.308.219,6.242.161,12.437.252,18.565.215q2.407-1.4,4.8-2.834C548.985,563,548.334,561.569,546.8,561.9Z" transform="translate(-329.468 -359.116)"/><path class="y" d="M454.444,561.052c-1.6,1.932-3.194,3.862-5.324,6.436,6.125-1.506,11.722-.556,17.222.913q8.975-.341,17.9-.752c-.481-1.2-.941-2.35-1.4-3.492C473.8,559.226,464.152,559.877,454.444,561.052Z" transform="translate(-386.652 -360.342)"/><path class="s" d="M434.5,552.883c8.849-2.96,18.653.474,27.014-3.154,9.494-4.119,17.756-2.609,26.265,1.672-.393-3.292-1.434-7.354-5.139-6.63-8.545,1.663-16.511-1.612-24.818-1.792-7.567-.161-16.339,2.7-22.317-5.259-.448-.6-1.986-.386-3.021-.551q-2.371,1.574-4.745,3.147c-1.152,3.808-3.756,6.649-6.34,9.5.011.521.023,1.044.04,1.565,3.525.094,5.034,3.546,7.893,4.747C429.463,552.465,432.437,553.576,434.5,552.883Z" transform="translate(-407.4 -377.593)"/><path class="t" d="M486.02,534.242c-5.069-2.57-10.521-1.222-15.808-1.553C475.279,535.266,480.731,533.911,486.02,534.242Z" transform="translate(-370.865 -380.994)"/><path class="k" d="M419.886,565.689c3.3-7.793,9.526-12.171,16.68-15.673,3.771-1.846,4.542-4.521,3.137-8.414s-4.784-7.434-3.939-11.738c1.428-7.3-3.135-10.3-8.1-13.633a57.77,57.77,0,0,0-12-6.008c.17,18.476-1.32,38.471-1.708,57.731C416.351,568.532,418.758,568.36,419.886,565.689Z" transform="translate(-412.975 -397.759)"/><path class="k" d="M470.211,522.713c1.479,10.143,9.116,11.827,17.38,12.645C484.183,527.862,476.224,526.628,470.211,522.713Z" transform="translate(-370.866 -388.412)"/><path class="t" d="M421.576,548.471c2.584-2.854,5.188-5.695,6.34-9.5C422.284,539.79,420.191,542.97,421.576,548.471Z" transform="translate(-407.577 -376.246)"/><path class="s" d="M418.226,564.825c-1.049.282-2.1.554-3.152.827,6.079.306,12.225.484,18.4.61A21.815,21.815,0,0,0,418.226,564.825Z" transform="translate(-412.135 -357.468)"/></g></g></svg>