<svg xmlns="http://www.w3.org/2000/svg" xmlns:xlink="http://www.w3.org/1999/xlink" width="19.92" height="20.16" viewBox="0 0 19.92 20.16"><defs><style>.a{fill:#065be7;}.b{clip-path:url(#a);}</style><clipPath id="a"><path class="a" d="M5.19,5.885H3.561V11.76H1.147V5.885H0V3.808H1.147V2.465A2.279,2.279,0,0,1,3.583,0L5.371.007V2.023h-1.3a.494.494,0,0,0-.512.566v1.22H5.4Z" transform="translate(0 0)"/></clipPath></defs><g transform="translate(7.47 4.2)"><path class="a" d="M5.19,5.885H3.561V11.76H1.147V5.885H0V3.808H1.147V2.465A2.279,2.279,0,0,1,3.583,0L5.371.007V2.023h-1.3a.494.494,0,0,0-.512.566v1.22H5.4Z" transform="translate(0 0)"/><g class="b"><g transform="translate(-7.47 -4.2)"><path class="a" d="M0,0H19.92V20.16H0Z"/></g></g></g></svg>