<svg xmlns="http://www.w3.org/2000/svg" width="103.834" height="42.324" viewBox="0 0 103.834 42.324"><defs><style>.a{fill:#fff;}</style></defs><g transform="translate(17858.857 -6537)"><g transform="translate(-17858.857 6537)"><g transform="translate(16.273 5.597)"><g transform="translate(0 6.261)"><path class="a" d="M2577.447,362.254a.765.765,0,0,0,.516.691l3.341.983a.382.382,0,0,0,.517-.387V340.774a.764.764,0,0,0-.517-.69l-3.341-.983a.381.381,0,0,0-.516.387Z" transform="translate(-2577.447 -339.08)"/></g><g transform="translate(0 0.086)"><path class="a" d="M2577.447,298.9a.765.765,0,0,0,.516.69l3.341.983a.381.381,0,0,0,.517-.386v-3.169a.764.764,0,0,0-.517-.69l-3.341-.983a.381.381,0,0,0-.516.387Z" transform="translate(-2577.447 -295.325)"/></g><g transform="translate(5.403 25.859)"><path class="a" d="M2615.732,479.635a.765.765,0,0,1,.516-.69l3.342-.983a.381.381,0,0,1,.517.386v3.169a.765.765,0,0,1-.517.691l-3.342.983a.382.382,0,0,1-.516-.387Z" transform="translate(-2615.732 -477.941)"/></g><g transform="translate(5.415)"><path class="a" d="M2619.148,318.667a.786.786,0,0,0,.529-.69l.488-22.853a.371.371,0,0,0-.5-.386l-3.342.983a.743.743,0,0,0-.5.689l.487,22.553a.391.391,0,0,0,.528.386Z" transform="translate(-2615.813 -294.717)"/></g></g><path class="a" d="M2483.3,255.056a21.162,21.162,0,1,0,21.162,21.162A21.162,21.162,0,0,0,2483.3,255.056Zm0,39.634a18.471,18.471,0,1,1,18.471-18.471A18.492,18.492,0,0,1,2483.3,294.69Z" transform="translate(-2462.142 -255.056)"/></g><g transform="translate(-17807.838 6548.714)"><g transform="translate(0 0)"><path class="a" d="M2826.1,331.322a1.093,1.093,0,0,1-.1.47,1.338,1.338,0,0,1-.271.387,1.249,1.249,0,0,1-.392.266,1.172,1.172,0,0,1-.475.1,1.14,1.14,0,0,1-.469-.1,1.288,1.288,0,0,1-.654-.653,1.138,1.138,0,0,1-.1-.47,1.2,1.2,0,0,1,.1-.479,1.23,1.23,0,0,1,.266-.4,1.271,1.271,0,0,1,.387-.266,1.14,1.14,0,0,1,.469-.1,1.172,1.172,0,0,1,.475.1,1.249,1.249,0,0,1,.392.266,1.3,1.3,0,0,1,.271.4A1.157,1.157,0,0,1,2826.1,331.322Zm-.388,3.08v9.811h-1.723V334.4Z" transform="translate(-2823.64 -330.082)"/><path class="a" d="M2853.01,369.556v-9.811h1.027a.439.439,0,0,1,.464.358l.126,1.008a5.015,5.015,0,0,1,1.215-1.095,2.864,2.864,0,0,1,1.564-.426,2.323,2.323,0,0,1,1.612.552,3.107,3.107,0,0,1,.887,1.491,3.074,3.074,0,0,1,.538-.92,3.116,3.116,0,0,1,.75-.639,3.166,3.166,0,0,1,.886-.368,3.945,3.945,0,0,1,.954-.117,3.627,3.627,0,0,1,1.38.247,2.736,2.736,0,0,1,1.026.722,3.21,3.21,0,0,1,.644,1.167,5.161,5.161,0,0,1,.223,1.583v6.247h-1.724v-6.247a2.642,2.642,0,0,0-.5-1.748,1.809,1.809,0,0,0-1.462-.6,2.2,2.2,0,0,0-.809.15,1.956,1.956,0,0,0-.673.441,2.079,2.079,0,0,0-.46.732,2.828,2.828,0,0,0-.17,1.021v6.247h-1.724v-6.247a2.748,2.748,0,0,0-.475-1.762,1.684,1.684,0,0,0-1.385-.581,2.186,2.186,0,0,0-1.186.344,3.868,3.868,0,0,0-1,.934v7.313Z" transform="translate(-2848.865 -355.425)"/><path class="a" d="M2958.832,372.761V359.628h1.027a.44.44,0,0,1,.465.358l.145,1.163a5.244,5.244,0,0,1,1.438-1.23,3.676,3.676,0,0,1,1.865-.465,3.54,3.54,0,0,1,1.531.325,3.157,3.157,0,0,1,1.171.959,4.606,4.606,0,0,1,.746,1.574,8.1,8.1,0,0,1,.261,2.16,6.767,6.767,0,0,1-.291,2.02,4.931,4.931,0,0,1-.833,1.617,3.886,3.886,0,0,1-1.332,1.075,3.933,3.933,0,0,1-1.777.392,3.666,3.666,0,0,1-1.555-.3,3.511,3.511,0,0,1-1.138-.853v4.339Zm4.368-11.913a2.783,2.783,0,0,0-1.477.387,4.266,4.266,0,0,0-1.167,1.094v4.746a2.775,2.775,0,0,0,1.042.9,2.979,2.979,0,0,0,1.264.261,2.472,2.472,0,0,0,2.1-.978,4.568,4.568,0,0,0,.736-2.789,6.946,6.946,0,0,0-.17-1.647,3.205,3.205,0,0,0-.489-1.128,1.9,1.9,0,0,0-.784-.644A2.608,2.608,0,0,0,2963.2,360.848Z" transform="translate(-2939.752 -355.308)"/><path class="a" d="M3027.81,360.69v6.256a2.6,2.6,0,0,0,.514,1.724,1.91,1.91,0,0,0,1.55.61,2.966,2.966,0,0,0,1.424-.358,4.431,4.431,0,0,0,1.229-1V360.69h1.724V370.5h-1.027a.438.438,0,0,1-.465-.358l-.136-1.056a5.4,5.4,0,0,1-1.433,1.138,3.759,3.759,0,0,1-1.82.431,3.544,3.544,0,0,1-1.419-.267,2.8,2.8,0,0,1-1.032-.75,3.187,3.187,0,0,1-.625-1.172,5.209,5.209,0,0,1-.208-1.521V360.69Z" transform="translate(-2997.514 -356.37)"/><path class="a" d="M3094.145,351.262a2.364,2.364,0,0,1-1.786-.649,2.589,2.589,0,0,1-.625-1.87v-6h-1.182a.389.389,0,0,1-.262-.092.36.36,0,0,1-.106-.286v-.688l1.608-.2.4-3.032a.366.366,0,0,1,.126-.237.4.4,0,0,1,.271-.092h.872v3.381h2.809v1.25h-2.809v5.888a1.25,1.25,0,0,0,.3.92,1.05,1.05,0,0,0,.775.3,1.372,1.372,0,0,0,.47-.073,1.988,1.988,0,0,0,.344-.16c.1-.058.179-.111.247-.16a.323.323,0,0,1,.179-.073.3.3,0,0,1,.242.165l.5.823a3.188,3.188,0,0,1-1.075.654A3.651,3.651,0,0,1,3094.145,351.262Z" transform="translate(-3052.566 -336.976)"/><path class="a" d="M3141.155,359.59a4.368,4.368,0,0,1,1.626.3,3.65,3.65,0,0,1,1.289.852,3.885,3.885,0,0,1,.847,1.375,5.309,5.309,0,0,1,.306,1.865,1.119,1.119,0,0,1-.087.542.362.362,0,0,1-.33.136h-6.528a5.439,5.439,0,0,0,.251,1.617,3.314,3.314,0,0,0,.64,1.148,2.559,2.559,0,0,0,.968.688,3.331,3.331,0,0,0,1.259.227,3.7,3.7,0,0,0,1.119-.15,5.331,5.331,0,0,0,.809-.324,6.274,6.274,0,0,0,.567-.324.753.753,0,0,1,.393-.151.382.382,0,0,1,.329.164l.484.63a3.276,3.276,0,0,1-.765.673,4.779,4.779,0,0,1-.954.47,6.105,6.105,0,0,1-1.051.276,6.4,6.4,0,0,1-1.074.092,4.988,4.988,0,0,1-1.875-.344,4.106,4.106,0,0,1-1.481-1.007,4.606,4.606,0,0,1-.973-1.642,6.672,6.672,0,0,1-.349-2.247,5.715,5.715,0,0,1,.315-1.918,4.5,4.5,0,0,1,.906-1.545,4.161,4.161,0,0,1,1.442-1.026A4.731,4.731,0,0,1,3141.155,359.59Zm.038,1.269a2.646,2.646,0,0,0-1.966.722,3.39,3.39,0,0,0-.891,2h5.336a3.515,3.515,0,0,0-.164-1.1,2.474,2.474,0,0,0-.485-.862,2.174,2.174,0,0,0-.78-.562A2.637,2.637,0,0,0,3141.193,360.859Z" transform="translate(-3092.408 -355.425)"/></g><path class="a" d="M2880.407,444.184a231.521,231.521,0,0,0-26.973-1.99c-15.26,0-24.285,2.412-24.285,2.412s8.5-3.109,24.195-3.109C2869.882,441.5,2880.407,444.184,2880.407,444.184Z" transform="translate(-2828.371 -425.772)"/></g></g></svg>