<svg xmlns="http://www.w3.org/2000/svg" width="327.947" height="368.795" viewBox="0 0 327.947 368.795"><defs><style>.a{fill:#d47a77;}.b{fill:#cb5459;}.c{fill:#4c2220;font-size:34px;font-family:SegoeUI, Segoe UI;}.d,.e{stroke:none;}.e{fill:#f8f8f8;}</style></defs><path class="a" d="M554.727,403.493c-2.04-13.8-7.152-26.829-13.866-39-6.35-11.508-13.776-23.124-23.989-31.593-18.943-15.707-43.787-20.289-67.432-23.942-7.062-1.091-14.181-2.239-21.341-1.556-1.988.19-4.182,1.34-4.614,3.514-1.49,7.5-3.732,15.49-9.273,21.078-4.434,4.473-11.525,7.443-17.628,4.655a16.294,16.294,0,0,1-6.681-6.025c-2.038-3.135-2.613-7.336-5.085-10.116-6.765-7.6-14.071-1.494-15.766,6.536a38.494,38.494,0,0,1-14.4,14.949,39.882,39.882,0,0,1-14,5.047,32.519,32.519,0,0,1-7.1.253c-2.81-.186-5.656-1.228-8.458-.469-3.576.971-5.211,4.133-6.767,7.174q-2.188,4.277-4.126,8.674a175.569,175.569,0,0,0-14.545,56.414c-2.309,25.233.657,51.578,9.644,75.338,4.655,12.312,11.163,23.807,20.526,33.164,9.3,9.293,20.646,16.567,32.222,22.692A126.2,126.2,0,0,0,399.136,563.5a121.741,121.741,0,0,0,36.342.9,131.8,131.8,0,0,0,66.809-28.58C540.169,504.957,561.909,452.055,554.727,403.493Z" transform="translate(-264.207 -226.28)"/><path class="b" d="M524.587,473.183c-17.964,10.652-43.492,19.948-64.461,21.329-26.9,1.774-62.681-1.091-84.861-17.7-15.336-11.49-31.693-26.457-41.778-43.051-10.857-17.862-12.9-40.415-13.8-60.8-.441-10.046-1.755-20.092-1.128-30.266a61.261,61.261,0,0,1,2.679-13.051,22.522,22.522,0,0,0-2.91,4.672q-2.188,4.277-4.126,8.674A175.569,175.569,0,0,0,299.661,399.4c-2.309,25.234.657,51.578,9.644,75.338,4.655,12.312,11.163,23.807,20.526,33.164,9.3,9.293,20.646,16.567,32.222,22.692a126.2,126.2,0,0,0,37.084,13.215,121.741,121.741,0,0,0,36.342.9,131.8,131.8,0,0,0,66.809-28.58c18.549-15.114,33.213-35.516,42.521-58.1A121.812,121.812,0,0,1,524.587,473.183Z" transform="translate(-264.207 -206.594)"/><path d="M355.49,314.473a29.757,29.757,0,0,0-8.5-16.314c-5.252-5.089-12.9-8.451-20.248-6.7-24.486,5.847-28.068,45.829-7.756,58.109,6.573,3.976,14.459,4.3,20.839-.2a38.42,38.42,0,0,0,12.653-14.882A34.048,34.048,0,0,0,355.49,314.473Zm-16.877,8.467c-.39,7.157-11.392,12.353-16.721,6.2-5.451-6.292,2.97-22.8,11.493-17.981.415.235.8.507,1.207.756l.092.053c.028.03.051.054.086.09.464.458.918.92,1.37,1.389a5.455,5.455,0,0,1,.4.494,14.569,14.569,0,0,1,.728,1.291c-.105-.175.355.845.409,1.012q.256.8.441,1.626A18.813,18.813,0,0,1,338.613,322.94Z" transform="translate(-258.17 -240.493)"/><g transform="translate(-280.422 -242.116)"><path class="d" d="M 439.9554748535156 609.4114379882813 C 439.9548645019531 609.4114379882813 439.9554138183594 609.4114379882813 439.9548034667969 609.4114379882813 C 430.2684631347656 609.411376953125 420.462158203125 608.550048828125 410.8083190917969 606.8514404296875 C 396.6973266601563 604.3680419921875 382.9677429199219 599.9313354492188 370.0008850097656 593.6646118164063 C 356.9342956542969 587.3496704101563 344.9521789550781 579.3243408203125 334.3873291015625 569.8114624023438 C 324.4298400878906 560.8453369140625 315.566650390625 550.4900512695313 308.0440063476563 539.033203125 C 300.6077880859375 527.7080078125 294.5877075195313 515.4713745117188 290.1510009765625 502.663330078125 C 285.6206970214844 489.5853271484375 282.9307556152344 475.7906494140625 282.1559143066406 461.6625671386719 C 281.3928833007813 447.7498168945313 282.4959411621094 433.7267761230469 285.4345397949219 419.98291015625 C 288.3452453613281 406.3676147460938 293.15283203125 393.01416015625 299.7237854003906 380.2934265136719 C 302.8029479980469 374.3306579589844 306.3909912109375 368.4671630859375 310.388427734375 362.8656616210938 C 312.5162353515625 359.8843994140625 314.8111267089844 356.8884887695313 317.2091674804688 353.961181640625 C 319.2369689941406 351.4851989746094 321.7587585449219 349.3073425292969 324.197509765625 347.2012634277344 L 324.5811767578125 346.8698425292969 C 325.359619140625 346.19677734375 326.236083984375 345.8410949707031 327.1159057617188 345.8410949707031 C 327.8360900878906 345.8410949707031 328.5210876464844 346.0801391601563 329.1518859863281 346.5516357421875 C 330.3237915039063 347.4272766113281 331.0032043457031 349.5274963378906 330.0894470214844 350.8224487304688 C 329.2852172851563 351.9642639160156 328.5046997070313 353.1521911621094 327.7499084472656 354.301025390625 C 326.69580078125 355.9054260253906 325.6057434082031 357.5644836425781 324.4754638671875 359.0550231933594 C 322.5912170410156 361.5411987304688 320.75 364.1396789550781 319.0027465820313 366.7786560058594 C 311.6589965820313 377.8724060058594 305.7906799316406 389.7955322265625 301.5606994628906 402.2169799804688 C 297.2201232910156 414.9659118652344 294.5854187011719 427.93798828125 293.7297058105469 440.7729797363281 C 293.274169921875 447.5926818847656 293.2818603515625 454.4794921875 293.7525939941406 461.2419128417969 C 293.8689270019531 462.9393005371094 294.0202331542969 464.6716613769531 294.215087890625 466.5362854003906 C 294.3014831542969 467.3392333984375 294.3958740234375 468.1325378417969 294.4767761230469 468.8032836914063 L 294.477294921875 468.8070983886719 L 294.4777526855469 468.8109741210938 L 294.5321350097656 469.2426452636719 L 294.5332336425781 469.2515563964844 L 294.5344848632813 469.2604370117188 L 294.5815124511719 469.6026611328125 C 294.6269226074219 469.9336547851563 294.6575012207031 470.1559143066406 294.6679992675781 470.2268981933594 C 295.1141662597656 473.2681884765625 295.6757202148438 476.3821411132813 296.3366088867188 479.4800720214844 C 297.6954040527344 485.8522338867188 299.4686584472656 492.1618041992188 301.6070251464844 498.2334289550781 C 302.1587524414063 499.8025207519531 302.7500305175781 501.3978271484375 303.3642883300781 502.9742431640625 C 303.6350708007813 503.6708068847656 303.9051208496094 504.3495483398438 304.1666564941406 504.9905700683594 C 304.1987609863281 505.0701293945313 304.2310791015625 505.1497192382813 304.2635192871094 505.2293090820313 C 304.282470703125 505.2962646484375 304.3064270019531 505.3650512695313 304.3359985351563 505.4355163574219 C 304.3476257324219 505.4631958007813 304.3657836914063 505.5060119628906 304.3919067382813 505.5672607421875 C 304.4412536621094 505.6828308105469 304.5206298828125 505.86767578125 304.640380859375 506.1453552246094 C 305.916748046875 509.0911865234375 307.2508850097656 511.94921875 308.6066589355469 514.6424560546875 C 311.5120544433594 520.411865234375 314.8200073242188 526.073974609375 318.4387512207031 531.4718017578125 C 320.1141357421875 533.9720458984375 321.8992614746094 536.4716796875 323.89599609375 539.1131591796875 L 323.8988342285156 539.1168823242188 L 323.9017333984375 539.1206665039063 C 323.9537048339844 539.1885375976563 323.9858703613281 539.23193359375 324.0182800292969 539.2756958007813 L 324.0777893066406 539.3556518554688 L 324.1055908203125 539.3927612304688 L 324.1356506347656 539.4281616210938 L 324.1421508789063 539.435791015625 C 324.1635131835938 539.4608764648438 324.1736145019531 539.4728393554688 324.21044921875 539.5178833007813 L 324.207275390625 539.5140380859375 C 324.3279113769531 539.6627197265625 324.4461975097656 539.81396484375 324.5715026855469 539.9740600585938 C 324.6686096191406 540.0982055664063 324.7658386230469 540.222412109375 324.8644104003906 540.3458862304688 C 325.2785339355469 540.866455078125 325.7239685058594 541.4172973632813 326.2245483398438 542.02783203125 C 327.2171630859375 543.2388305664063 328.2361755371094 544.4447021484375 329.2531127929688 545.6117553710938 C 333.529541015625 550.518798828125 338.1364440917969 555.1804809570313 342.9459228515625 559.467529296875 C 345.3726501464844 561.630615234375 347.8802185058594 563.7392578125 350.3988342285156 565.7348022460938 C 350.6188354492188 565.9085693359375 350.8370666503906 566.0796508789063 351.0564575195313 566.2515869140625 L 351.1837768554688 566.3514404296875 L 351.2083435058594 566.3706665039063 L 351.2336120605469 566.388916015625 L 351.32666015625 566.455810546875 C 351.6431884765625 566.6861572265625 351.9657897949219 566.9293212890625 352.2778625488281 567.16455078125 C 352.5227355957031 567.3490600585938 352.7759094238281 567.5399169921875 353.0296630859375 567.727294921875 C 354.2820739746094 568.648193359375 355.56982421875 569.563232421875 356.8595886230469 570.4488525390625 C 362.4732055664063 574.3027954101563 368.418212890625 577.7975463867188 374.529541015625 580.8363037109375 C 376.1748352050781 581.6532592773438 377.8357543945313 582.4415283203125 379.4668273925781 583.1796875 C 380.123291015625 583.477294921875 380.7916259765625 583.7706298828125 381.4379577636719 584.0543823242188 L 381.6033020019531 584.126953125 L 381.6065673828125 584.12841796875 L 381.60986328125 584.1298828125 C 381.7696533203125 584.1990966796875 381.8743591308594 584.2457885742188 381.9494934082031 584.2792358398438 L 382.0270385742188 584.3136596679688 L 382.0539245605469 584.3255004882813 L 382.0812377929688 584.3363037109375 L 382.1209411621094 584.3519897460938 C 382.1990051269531 584.3827514648438 382.3135375976563 584.4279174804688 382.5142211914063 584.5088500976563 C 385.9840698242188 585.9144897460938 389.2147827148438 587.1092529296875 392.3890075683594 588.1605834960938 C 399.0222473144531 590.3579711914063 405.8867797851563 592.126220703125 412.7919006347656 593.4163818359375 C 414.6056823730469 593.7560424804688 416.4183044433594 594.0625 418.1787414550781 594.3271484375 C 418.3099670410156 594.3475341796875 418.6114501953125 594.3907470703125 418.9603881835938 594.4407958984375 C 419.2789001464844 594.4865112304688 419.6103210449219 594.5340576171875 419.78662109375 594.5606689453125 L 419.8120727539063 594.5645141601563 L 419.8376770019531 594.5675048828125 C 420.048583984375 594.592041015625 420.4013671875 594.6351928710938 420.7210693359375 594.6742553710938 C 421.0154113769531 594.7102661132813 421.2825317382813 594.742919921875 421.3936767578125 594.7555541992188 C 424.8819274902344 595.1608276367188 428.4169006347656 595.4522705078125 431.8967895507813 595.621337890625 C 434.4427795410156 595.7449951171875 437.0216674804688 595.8078002929688 439.5617370605469 595.8077392578125 C 444.0345458984375 595.8077392578125 448.5433044433594 595.6135864257813 452.9627380371094 595.230712890625 C 454.8984985351563 595.0630493164063 456.7924499511719 594.8507080078125 458.3898315429688 594.6651611328125 C 458.628173828125 594.6382446289063 458.7579956054688 594.6235961914063 458.845703125 594.6144409179688 L 458.8887939453125 594.6099243164063 L 458.9315490722656 594.6029663085938 C 459.0101928710938 594.590087890625 459.1116943359375 594.5756225585938 459.2695007324219 594.5533447265625 L 459.2738342285156 594.552734375 L 459.2781677246094 594.5521240234375 L 459.3101196289063 594.5474243164063 C 460.0563049316406 594.4375 460.8277893066406 594.3237915039063 461.5885314941406 594.2020874023438 C 465.0604858398438 593.6498413085938 468.5400695800781 592.9717407226563 471.9293212890625 592.1868286132813 C 478.9323425292969 590.5650024414063 485.9534606933594 588.382080078125 492.7976379394531 585.6986694335938 C 493.7435913085938 585.3260498046875 494.6672973632813 584.953369140625 495.5452575683594 584.5901489257813 L 495.5634155273438 584.5826416015625 L 495.5813598632813 584.5746459960938 L 495.6389770507813 584.5490112304688 C 496.164306640625 584.3235473632813 496.7005310058594 584.0888671875 497.2329711914063 583.8512573242188 C 498.7858276367188 583.163330078125 500.3837890625 582.4239501953125 501.9788818359375 581.6552124023438 C 505.4664611816406 579.97119140625 508.9696350097656 578.1259765625 512.3919677734375 576.1702880859375 C 518.054931640625 572.931884765625 523.5941772460938 569.3134765625 528.8562622070313 565.415283203125 C 529.4202270507813 564.996826171875 529.9840087890625 564.5697021484375 530.5291748046875 564.1566772460938 L 530.7535400390625 563.9866333007813 L 530.76513671875 563.9778442382813 L 530.776611328125 563.9688110351563 C 530.9019775390625 563.8699951171875 531.0276489257813 563.771484375 531.1533203125 563.6729125976563 C 531.3490600585938 563.5194702148438 531.5448608398438 563.3658447265625 531.739990234375 563.2108764648438 C 532.8470458984375 562.330078125 533.9772338867188 561.4069213867188 535.1002197265625 560.46630859375 C 537.572998046875 558.3968505859375 540.0299682617188 556.2163696289063 542.4024658203125 553.9857788085938 C 547.1265869140625 549.54833984375 551.651123046875 544.7880859375 555.8499755859375 539.8378295898438 C 556.8703002929688 538.6343383789063 557.8766479492188 537.4151611328125 558.84130859375 536.2140502929688 C 558.903564453125 536.1362915039063 559.1019287109375 535.8861083984375 559.3220825195313 535.6084594726563 C 559.5657348632813 535.30126953125 559.8363037109375 534.9600830078125 559.9727172851563 534.7891235351563 L 559.9757690429688 534.7852783203125 L 559.9788208007813 534.7813720703125 C 560.0668334960938 534.6695556640625 560.1619262695313 534.547119140625 560.1954956054688 534.5026245117188 C 560.2755737304688 534.396728515625 560.35791015625 534.2882080078125 560.4403076171875 534.1796264648438 C 560.5755004882813 534.0015258789063 560.7108154296875 533.8231201171875 560.8455200195313 533.64404296875 C 562.7946166992188 531.0527954101563 564.6925048828125 528.3751220703125 566.486328125 525.685546875 C 570.0924682617188 520.276123046875 573.412109375 514.62060546875 576.3531494140625 508.8758239746094 C 577.7713012695313 506.105224609375 579.1300048828125 503.2546081542969 580.3915405273438 500.403076171875 C 580.4879150390625 500.185302734375 580.6825561523438 499.7276611328125 580.8543090820313 499.3238525390625 C 580.8919677734375 499.2352905273438 580.9324951171875 499.1399230957031 580.9713134765625 499.0487670898438 L 580.9848022460938 499.0542602539063 C 581.0735473632813 498.8368225097656 581.1627197265625 498.6195373535156 581.2518310546875 498.4023132324219 C 581.4243774414063 497.9817810058594 581.602783203125 497.5469360351563 581.7760620117188 497.1163024902344 C 582.3619384765625 495.6525268554688 582.9278564453125 494.1791076660156 583.459228515625 492.7343139648438 C 585.70947265625 486.6142272949219 587.591552734375 480.3314514160156 589.05322265625 474.0602722167969 C 589.782470703125 470.9321594238281 590.4208984375 467.74267578125 590.9508056640625 464.5804748535156 C 591.1177368164063 463.5804443359375 591.2764282226563 462.572021484375 591.4227294921875 461.5823059082031 L 591.4232177734375 461.5787353515625 L 591.4237670898438 461.5751037597656 L 591.476318359375 461.2060241699219 L 591.5307006835938 460.8243103027344 L 591.5335083007813 460.8046569824219 L 591.5357666015625 460.7849426269531 C 591.5733032226563 460.4616394042969 591.6112670898438 460.1385192871094 591.649169921875 459.8154907226563 C 591.7976684570313 458.5511169433594 591.951171875 457.2437438964844 592.0740966796875 455.946533203125 C 592.7144775390625 449.1906127929688 592.9191284179688 442.3073425292969 592.6824340820313 435.4879760742188 C 592.56982421875 432.2349548339844 592.3530883789063 428.9245300292969 592.0382690429688 425.6488037109375 C 591.8795166015625 423.9970703125 591.6804809570313 422.3496398925781 591.50634765625 420.9351806640625 L 591.5048828125 420.9231567382813 L 591.5032348632813 420.9111938476563 C 591.49169921875 420.8287658691406 591.4722290039063 420.6858520507813 591.4490966796875 420.5162048339844 C 591.3927001953125 420.1029968261719 591.3155517578125 419.5370178222656 591.2757568359375 419.2719421386719 C 591.1505737304688 418.4452209472656 591.0339965820313 417.7096862792969 590.9191284179688 417.0215148925781 C 589.8302612304688 410.4284973144531 588.3162231445313 403.8433532714844 586.41943359375 397.4515991210938 C 585.4566040039063 394.2013549804688 584.3733520507813 390.9351806640625 583.2000732421875 387.744384765625 C 582.598876953125 386.1087036132813 581.9548950195313 384.444580078125 581.2861938476563 382.7983703613281 C 581.2177734375 382.6306762695313 581.1498413085938 382.465576171875 581.0818481445313 382.3004760742188 C 581.0119018554688 382.1306457519531 580.9420166015625 381.9608459472656 580.87255859375 381.7905578613281 L 580.8522338867188 381.7405700683594 L 580.8456420898438 381.724365234375 L 580.8386840820313 381.7083435058594 C 580.5687255859375 381.0870361328125 580.2489624023438 380.3544921875 579.9243774414063 379.6321411132813 C 577.1299438476563 373.398681640625 573.9090576171875 367.3281860351563 570.351806640625 361.5905151367188 C 568.6318969726563 358.8181457519531 566.794677734375 356.06298828125 564.89111328125 353.4012756347656 C 564.2527465820313 352.5126037597656 563.6673583984375 351.7133178710938 563.0997314453125 350.9552001953125 C 562.9949951171875 350.8162231445313 562.823974609375 350.5933227539063 562.6627197265625 350.3831481933594 C 562.540771484375 350.2241821289063 562.424560546875 350.0727233886719 562.3507080078125 349.9754028320313 L 562.34130859375 349.9629821777344 L 562.3316040039063 349.9507446289063 C 561.4476928710938 348.8346862792969 560.4933471679688 347.6388549804688 559.503662109375 346.4561157226563 C 555.0384521484375 341.1266479492188 550.2061767578125 336.1412658691406 545.1404418945313 331.6377258300781 C 543.7830200195313 330.4318237304688 542.38525390625 329.239013671875 540.9854736328125 328.0921020507813 C 540.389404296875 327.6060180664063 539.7833862304688 327.1244506835938 539.197265625 326.6587219238281 L 538.9710693359375 326.4789428710938 L 538.9518432617188 326.4636535644531 L 538.93212890625 326.448974609375 C 538.7994995117188 326.3504943847656 538.6668701171875 326.2505187988281 538.5341796875 326.1505737304688 C 538.3966064453125 326.0468444824219 538.2589721679688 325.943115234375 538.1212768554688 325.8408508300781 C 535.2900390625 323.7308654785156 532.3665161132813 321.7375793457031 529.4337768554688 319.9176940917969 C 526.4454345703125 318.0648193359375 523.3604736328125 316.3380737304688 520.2639770507813 314.7851867675781 C 518.60400390625 313.9551391601563 516.94482421875 313.1742248535156 515.3309326171875 312.4632873535156 C 515.1012573242188 312.3616027832031 514.869140625 312.2607421875 514.636962890625 312.1598510742188 L 514.5997924804688 312.1437377929688 L 514.5618286132813 312.1296081542969 L 514.4894409179688 312.1026916503906 C 514.1333618164063 311.9678649902344 513.7830810546875 311.8272399902344 513.412109375 311.6783447265625 C 513.0652465820313 311.5390930175781 512.7066040039063 311.3951110839844 512.3453979492188 311.2574462890625 C 508.8671264648438 309.9294738769531 505.2949829101563 308.7840576171875 501.7289428710938 307.853271484375 C 499.8273620605469 307.3583679199219 497.8918762207031 306.9147338867188 495.9751586914063 306.5343933105469 C 495.1929931640625 306.3776550292969 494.3778686523438 306.2265625 493.4860534667969 306.0731811523438 C 493.1271667480469 306.0102844238281 492.7628784179688 305.9521179199219 492.4106140136719 305.8958435058594 C 492.2247924804688 305.8661499023438 492.0387573242188 305.83642578125 491.8525390625 305.805908203125 C 491.8078918457031 305.7977905273438 491.7500915527344 305.7889099121094 491.6383666992188 305.7716369628906 C 491.5733032226563 305.7616577148438 491.4968872070313 305.7498474121094 491.4205017089844 305.7377624511719 L 491.3956604003906 305.7338256835938 L 491.3706970214844 305.7307434082031 C 491.1890869140625 305.7081604003906 490.8960266113281 305.6697387695313 490.6743774414063 305.6406860351563 C 490.5238342285156 305.6209716796875 490.404296875 305.6053466796875 490.3667907714844 305.6007690429688 L 490.36083984375 305.6000671386719 L 490.3549194335938 305.5993957519531 L 490.3200073242188 305.5954284667969 C 489.9212951660156 305.5500183105469 489.5090026855469 305.5031127929688 489.0973815917969 305.4619750976563 C 488.127197265625 305.3619384765625 487.1378173828125 305.2753295898438 486.1614990234375 305.2050170898438 C 484.3044128417969 305.0728149414063 482.4640808105469 304.9926452636719 480.6904602050781 304.9667053222656 C 480.2259521484375 304.9598999023438 479.7554931640625 304.9564514160156 479.2921752929688 304.9564514160156 C 476.0928039550781 304.9564514160156 472.8882751464844 305.1203918457031 469.7676696777344 305.4438171386719 L 469.7677001953125 305.4440307617188 C 469.7090454101563 305.4500122070313 469.61962890625 305.4602355957031 469.466552734375 305.477783203125 C 469.1469421386719 305.5143127441406 468.6120300292969 305.5755310058594 468.3624572753906 305.6015625 L 468.3342895507813 305.6045227050781 L 468.3062438964844 305.6085205078125 C 468.2400512695313 305.6179809570313 468.174072265625 305.627197265625 468.1157531738281 305.6353149414063 C 467.9856872558594 305.6535034179688 467.9242858886719 305.6620788574219 467.8761901855469 305.6703186035156 C 467.1498413085938 305.7838439941406 466.2909851074219 305.9210815429688 465.4140930175781 306.0790100097656 C 463.6218872070313 306.40380859375 461.8242797851563 306.78955078125 460.0697937011719 307.225830078125 C 455.6224975585938 308.328369140625 452.2782592773438 309.3585510253906 449.227294921875 310.5659790039063 C 448.6541748046875 310.7924499511719 448.052734375 310.9074401855469 447.4404296875 310.9074401855469 C 446.0791625976563 310.9074401855469 444.6310424804688 310.3334045410156 443.3627624511719 309.2911376953125 C 442.140869140625 308.2869873046875 441.1862487792969 306.9263610839844 440.7436218261719 305.5581359863281 C 440.0300903320313 303.3530578613281 440.726318359375 301.5588684082031 441.4360961914063 300.4419860839844 C 442.3865356445313 298.9462890625 443.9796752929688 297.6741943359375 445.8069152832031 296.9519958496094 L 445.8035278320313 296.9433898925781 C 446.3640747070313 296.7166137695313 447.2405395507813 296.3642578125 447.3439025878906 296.3232421875 L 446.6952819824219 296.4246520996094 L 446.2223510742188 295.99560546875 C 446.169921875 296.3246154785156 446.0096130371094 296.6281127929688 445.7682800292969 296.8541870117188 L 444.7431640625 294.2594604492188 L 445.4842224121094 294.8642578125 L 446.2210083007813 293.5414428710938 L 447.359619140625 296.3169555664063 C 447.8624572753906 296.1117248535156 448.3785095214844 295.9177856445313 448.8639221191406 295.7366638183594 C 449.6231994628906 295.4533996582031 450.3954162597656 295.1788635253906 451.1590270996094 294.9205627441406 C 452.913818359375 294.3285217285156 454.7405395507813 293.801513671875 456.5873718261719 293.3545532226563 C 460.0135498046875 292.5260314941406 463.7861938476563 291.8768615722656 468.4598999023438 291.3116455078125 C 472.1240844726563 290.8679504394531 475.8694458007813 290.6429443359375 479.5922546386719 290.6429443359375 C 492.6595458984375 290.6429443359375 505.878662109375 293.3482055664063 518.8823852539063 298.6834716796875 C 525.0206909179688 301.2019958496094 531.0930786132813 304.3115234375 536.9308471679688 307.9256896972656 C 542.6273193359375 311.4524536132813 548.1473999023438 315.4881896972656 553.3377685546875 319.9208068847656 C 563.9957885742188 329.0222778320313 573.4120483398438 339.9226379394531 581.3250122070313 352.3192443847656 C 588.9697875976563 364.2957458496094 595.042236328125 377.3899841308594 599.37353515625 391.2382202148438 C 603.6156005859375 404.8008117675781 606.084228515625 418.953369140625 606.7107543945313 433.302734375 C 607.337890625 447.6672058105469 606.1079711914063 461.9779052734375 603.05517578125 475.8372802734375 C 600.1707763671875 488.9336853027344 595.5181884765625 501.8816223144531 589.2265625 514.3213500976563 C 583.1395263671875 526.3564453125 575.5519409179688 537.857421875 566.6746826171875 548.5048828125 C 557.60302734375 559.3863525390625 547.1061401367188 569.1768188476563 535.4756469726563 577.6043090820313 C 523.9666748046875 585.9437866210938 511.40966796875 592.9052124023438 498.1535034179688 598.2952880859375 C 489.0579528808594 601.9929809570313 479.4432983398438 604.8114013671875 469.57666015625 606.6723022460938 C 459.9398803710938 608.4898071289063 449.9731140136719 609.4114379882813 439.9554748535156 609.4114379882813 Z M 579.7964477539063 499.4869384765625 L 578.561767578125 498.8387451171875 C 578.3616943359375 498.5487060546875 578.2916259765625 498.2358703613281 578.296875 497.9574584960938 L 580.8877563476563 499.0146789550781 C 580.6337890625 499.2820739746094 580.2561645507813 499.4869384765625 579.7964477539063 499.4869384765625 Z"/><path class="e" d="M 479.5899658203125 292.1429443359375 C 475.9287719726563 292.1429443359375 472.2448120117188 292.3642578125 468.6399841308594 292.8008422851563 C 464.0259094238281 293.3587646484375 460.3080444335938 293.998046875 456.9403076171875 294.8123779296875 C 455.1356811523438 295.2492065429688 453.3515319824219 295.763916015625 451.6396789550781 296.3414306640625 C 450.8902587890625 296.594970703125 450.1327209472656 296.8643188476563 449.387939453125 297.1421508789063 C 448.9281005859375 297.3136596679688 448.4402465820313 297.4969482421875 447.9656677246094 297.689697265625 L 447.9564514160156 297.6937866210938 L 447.9070434570313 297.7135009765625 L 447.547119140625 296.8222045898438 C 447.5501708984375 296.8141479492188 447.5531921386719 296.8060302734375 447.55615234375 296.7979125976563 L 446.9496765136719 295.3109741210938 L 446.9417724609375 295.3125610351563 L 447.2469787597656 296.0789184570313 L 446.9378356933594 295.3133544921875 L 446.7934265136719 295.3425903320313 L 446.7934875488281 297.9277954101563 L 446.7898254394531 295.3433227539063 L 445.2913818359375 295.6463012695313 L 446.339599609375 298.2996826171875 C 446.8980712890625 297.9523315429688 447.316650390625 297.4295043945313 447.5451049804688 296.8275146484375 L 447.899169921875 297.7166137695313 C 447.7725830078125 297.7670288085938 446.8998107910156 298.1178588867188 446.3548583984375 298.3383178710938 L 446.3582763671875 298.346923828125 C 444.819091796875 298.9553833007813 443.4864196777344 300.0121459960938 442.7020874023438 301.2465209960938 C 441.9207763671875 302.4760131835938 441.7420043945313 303.771240234375 442.1708068847656 305.096435546875 C 442.5274658203125 306.198974609375 443.3089904785156 307.305419921875 444.3150939941406 308.1322631835938 C 445.315673828125 308.9545288085938 446.4255981445313 309.4074096679688 447.4403686523438 309.4074096679688 C 447.8690795898438 309.4074096679688 448.2735290527344 309.3299560546875 448.6753540039063 309.1712036132813 C 451.7907104492188 307.9382934570313 455.1939086914063 306.8892211914063 459.7078247070313 305.7701416015625 C 461.4928588867188 305.3262939453125 463.3222351074219 304.9337158203125 465.1478576660156 304.6029052734375 C 466.0371398925781 304.4425659179688 466.9036865234375 304.3041381835938 467.6367492675781 304.1895141601563 C 467.7040710449219 304.1782836914063 467.7800598144531 304.1676635742188 467.9053649902344 304.150146484375 C 467.9628601074219 304.1421508789063 468.0283203125 304.1329956054688 468.0939636230469 304.1236572265625 L 468.1500549316406 304.1156005859375 L 468.2064208984375 304.1097412109375 C 468.4516296386719 304.0841064453125 468.9871215820313 304.0228271484375 469.3070983886719 303.9862060546875 C 469.4443054199219 303.9705200195313 469.5396728515625 303.9595947265625 469.6131286621094 303.9520263671875 L 469.6130981445313 303.9517211914063 C 472.7849426269531 303.6231079101563 476.0412292480469 303.4564208984375 479.2914428710938 303.4564208984375 C 479.7627563476563 303.4564208984375 480.2408752441406 303.4599609375 480.7123718261719 303.4668579101563 C 482.5146484375 303.4932250976563 484.3834838867188 303.5745849609375 486.2692260742188 303.7089233398438 C 487.2594299316406 303.7802124023438 488.2627868652344 303.8680419921875 489.2514953613281 303.9699096679688 C 489.6779479980469 304.0125732421875 490.1001892089844 304.0606689453125 490.5085754394531 304.1071166992188 L 490.5245361328125 304.1089477539063 L 490.5365905761719 304.1103515625 L 490.5486755371094 304.11181640625 C 490.5871887207031 304.1165161132813 490.7082214355469 304.13232421875 490.8614501953125 304.15234375 C 491.0805969238281 304.1810913085938 491.3738708496094 304.2196044921875 491.5547790527344 304.2420043945313 L 491.605224609375 304.248291015625 L 491.6554565429688 304.2562255859375 C 491.7285461425781 304.267822265625 491.8016357421875 304.2791137695313 491.8642578125 304.2886962890625 C 491.9742736816406 304.3057250976563 492.0458679199219 304.3167724609375 492.1083679199219 304.327880859375 C 492.2871704101563 304.3571166992188 492.4657287597656 304.3856201171875 492.6441345214844 304.4141235351563 C 493.002197265625 304.4712524414063 493.3724365234375 304.5303955078125 493.7476196289063 304.5961303710938 C 494.6521301269531 304.7518310546875 495.478271484375 304.9049072265625 496.2729187011719 305.064208984375 L 496.2729187011719 305.064208984375 C 498.216552734375 305.4500732421875 500.1789245605469 305.89990234375 502.1077270507813 306.4019165039063 C 505.726318359375 307.3463134765625 509.3510131835938 308.508544921875 512.879638671875 309.8558349609375 C 513.2530517578125 309.9981689453125 513.617919921875 310.1446533203125 513.9708251953125 310.2862548828125 C 514.333251953125 310.4317626953125 514.6757202148438 310.5692749023438 515.0166015625 310.6984252929688 L 515.084716796875 310.7236938476563 L 515.1605224609375 310.7518920898438 L 515.2346801757813 310.7841186523438 C 515.4698486328125 310.8862915039063 515.7048950195313 310.9884643554688 515.935546875 311.0905151367188 C 517.571044921875 311.8109741210938 519.2525634765625 312.6023559570313 520.9364624023438 313.4443359375 C 524.072998046875 315.017333984375 527.1976928710938 316.7662963867188 530.2245483398438 318.6431274414063 C 533.1930541992188 320.485107421875 536.1520385742188 322.5025634765625 539.0193481445313 324.6394653320313 L 539.0193481445313 324.6394653320313 C 539.1600341796875 324.7439575195313 539.3006591796875 324.849853515625 539.4412841796875 324.955810546875 C 539.5697631835938 325.0526733398438 539.6982421875 325.1495361328125 539.8267822265625 325.2450561523438 L 539.8660888671875 325.2742919921875 L 539.904541015625 325.3047485351563 L 540.131591796875 325.4852905273438 C 540.720947265625 325.95361328125 541.330322265625 326.4378051757813 541.9306030273438 326.92724609375 L 541.933349609375 326.9295654296875 L 541.9361572265625 326.9317626953125 C 543.3504638671875 328.0906372070313 544.7635498046875 329.2965087890625 546.1370849609375 330.5166625976563 C 551.2574462890625 335.06884765625 556.1412353515625 340.1072387695313 560.6539306640625 345.4933471679688 C 561.6552124023438 346.6898803710938 562.6171264648438 347.8952026367188 563.5075073242188 349.0194702148438 L 563.5267333984375 349.0437622070313 L 563.54541015625 349.0684814453125 C 563.6180419921875 349.1640625 563.7320556640625 349.312744140625 563.8519287109375 349.4689331054688 C 564.0162353515625 349.6829833984375 564.1905517578125 349.9103393554688 564.29443359375 350.0480346679688 L 564.2974853515625 350.0520629882813 L 564.3004150390625 350.05615234375 C 564.872802734375 350.820556640625 565.4638671875 351.6276245117188 566.1074829101563 352.5235595703125 L 566.109375 352.5260620117188 L 566.1112060546875 352.5286865234375 C 568.0340576171875 355.2174682617188 569.8895874023438 358.0001831054688 571.6266479492188 360.8001708984375 C 575.218994140625 366.5943603515625 578.471435546875 372.7243041992188 581.2926025390625 379.0173950195313 C 581.62158203125 379.7496948242188 581.9432373046875 380.4864501953125 582.2144165039063 381.1106567382813 L 582.228759765625 381.1435546875 L 582.2423095703125 381.1769409179688 L 582.2614135742188 381.2239990234375 C 582.3292846679688 381.3905029296875 582.397705078125 381.5565185546875 582.466064453125 381.7225341796875 C 582.5355834960938 381.8914184570313 582.6051025390625 382.060302734375 582.6759643554688 382.23388671875 C 583.350830078125 383.895263671875 584.0008544921875 385.5751953125 584.60791015625 387.2266845703125 C 585.7923583984375 390.44775390625 586.8857421875 393.7448120117188 587.8574829101563 397.0248718261719 C 589.7719116210938 403.4762268066406 591.300048828125 410.1226806640625 592.3995361328125 416.7796630859375 L 592.3994750976563 416.7796630859375 C 592.515380859375 417.473876953125 592.6328125 418.2151794433594 592.759033203125 419.0488586425781 C 592.80029296875 419.3233032226563 592.8748779296875 419.8701782226563 592.934814453125 420.3095703125 C 592.9578857421875 420.4788513183594 592.977294921875 420.62158203125 592.98876953125 420.7036437988281 L 592.9921264648438 420.7278137207031 L 592.9951171875 420.7520446777344 C 593.17041015625 422.1765441894531 593.3709106445313 423.8360900878906 593.5313720703125 425.50537109375 C 593.8491821289063 428.8121643066406 594.06787109375 432.1534118652344 594.1815185546875 435.4359436035156 C 594.42041015625 442.3197326660156 594.2138671875 449.2680969238281 593.5674438476563 456.0879821777344 C 593.4429931640625 457.4013977050781 593.2885131835938 458.7166748046875 593.13916015625 459.9887084960938 C 593.1011962890625 460.3116149902344 593.063232421875 460.6345825195313 593.0258178710938 460.9577331542969 L 593.021240234375 460.9969787597656 L 593.0156860351563 461.0360717773438 L 592.9660034179688 461.3848571777344 L 592.9086303710938 461.7874145507813 L 592.9075927734375 461.7944946289063 L 592.9066162109375 461.8015441894531 C 592.7586669921875 462.8026733398438 592.5984497070313 463.8204345703125 592.43017578125 464.8283081054688 C 591.895263671875 468.0206604003906 591.2506103515625 471.2413024902344 590.5140991210938 474.4007568359375 C 589.038330078125 480.7320861816406 587.138427734375 487.0745544433594 584.8670043945313 493.2521362304688 C 584.330810546875 494.7098999023438 583.759765625 496.1966247558594 583.1697387695313 497.6709594726563 L 583.168701171875 497.6735534667969 L 583.167724609375 497.6760864257813 C 582.991943359375 498.1129455566406 582.8118896484375 498.5516662597656 582.6378173828125 498.9759521484375 C 582.547607421875 499.1957092285156 582.4573974609375 499.41552734375 582.3683471679688 499.6337280273438 L 582.3594970703125 499.6555786132813 L 582.3518676757813 499.6741638183594 L 582.3377685546875 499.6684265136719 C 582.3033447265625 499.749267578125 582.2678833007813 499.8326721191406 582.2347412109375 499.9104919433594 C 582.052490234375 500.3391418457031 581.864013671875 500.7823486328125 581.7633056640625 501.0098876953125 C 580.490478515625 503.8870849609375 579.1194458007813 506.7634887695313 577.6883544921875 509.5594177246094 C 574.7210083007813 515.35546875 571.3720703125 521.0609130859375 567.7342529296875 526.517822265625 C 565.9249267578125 529.2305908203125 564.010498046875 531.931640625 562.044677734375 534.545166015625 C 561.906982421875 534.7282104492188 561.7686767578125 534.9105224609375 561.6304931640625 535.0925903320313 C 561.550048828125 535.198486328125 561.4698486328125 535.3043212890625 561.3897705078125 535.41015625 L 561.3897705078125 535.41015625 C 561.3222045898438 535.49951171875 561.1754150390625 535.6863403320313 561.1583251953125 535.7080078125 L 561.1517333984375 535.7164306640625 L 561.1451416015625 535.7247314453125 C 561.00830078125 535.896240234375 560.7359008789063 536.23974609375 560.491943359375 536.54736328125 C 560.27197265625 536.8247680664063 560.074462890625 537.07373046875 560.0108032226563 537.1531982421875 C 559.0374755859375 538.365234375 558.0225830078125 539.5947265625 556.993896484375 540.80810546875 C 552.7587280273438 545.8011474609375 548.19482421875 550.602783203125 543.429931640625 555.0786743164063 C 541.036376953125 557.328857421875 538.5576782226563 559.5286865234375 536.0634765625 561.6162109375 C 534.9322509765625 562.563720703125 533.792236328125 563.494873046875 532.6728515625 564.385498046875 C 532.4754638671875 564.5422973632813 532.27734375 564.6976318359375 532.0794067382813 564.8529052734375 C 531.95458984375 564.9508056640625 531.829833984375 565.048583984375 531.705322265625 565.146728515625 L 531.682373046875 565.164794921875 L 531.6591796875 565.1824340820313 L 531.4349365234375 565.352294921875 C 530.8868408203125 565.767578125 530.320068359375 566.1969604492188 529.7491455078125 566.6205444335938 C 524.440185546875 570.5535278320313 518.85107421875 574.2045288085938 513.13623046875 577.47265625 C 509.6838989257813 579.4454345703125 506.1498107910156 581.3069458007813 502.6300964355469 583.0064697265625 C 501.0231323242188 583.7808837890625 499.4126281738281 584.526123046875 497.8428344726563 585.2216796875 C 497.3078918457031 585.4603881835938 496.7686462402344 585.6964721679688 496.2398071289063 585.9234619140625 L 496.1894836425781 585.94580078125 L 496.1543273925781 585.96142578125 L 496.1187133789063 585.9761962890625 C 495.2333984375 586.342529296875 494.3017272949219 586.7183837890625 493.3451843261719 587.0950927734375 C 486.4332580566406 589.80517578125 479.3418273925781 592.0098876953125 472.2677612304688 593.6480712890625 C 468.8449096679688 594.4407958984375 465.3307189941406 595.1256713867188 461.8255310058594 595.6832275390625 C 461.0619506835938 595.805419921875 460.2920532226563 595.9189453125 459.5475463867188 596.0286254882813 L 459.4970092773438 596.0360717773438 L 459.4881286621094 596.037353515625 L 459.4792785644531 596.0386352539063 C 459.3305969238281 596.0596313476563 459.2357788085938 596.0731201171875 459.1733093261719 596.0833129882813 L 459.0875854492188 596.0972900390625 L 459.0011901855469 596.1063232421875 C 458.9158935546875 596.115234375 458.7898559570313 596.1295166015625 458.553955078125 596.1561889648438 L 458.553955078125 596.1561279296875 C 456.947265625 596.3427734375 455.0429077148438 596.55615234375 453.0921936035156 596.72509765625 C 448.6294860839844 597.1116943359375 444.0773010253906 597.3077392578125 439.5620422363281 597.3077392578125 C 436.9975891113281 597.3077392578125 434.3941345214844 597.244384765625 431.8240356445313 597.1195068359375 C 428.3104858398438 596.9488525390625 424.7417297363281 596.6546630859375 421.2168579101563 596.2451171875 L 421.2168579101563 596.2451171875 C 421.0986022949219 596.2315673828125 420.8287963867188 596.1986083984375 420.532958984375 596.1624755859375 C 420.2180480957031 596.1239013671875 419.8718566894531 596.08154296875 419.6643676757813 596.0574340820313 L 419.6135559082031 596.051513671875 L 419.5628967285156 596.0439453125 C 419.3898010253906 596.0177612304688 419.0650939941406 595.97119140625 418.7521362304688 595.92626953125 C 418.4007873535156 595.8759155273438 418.0965576171875 595.832275390625 417.9539184570313 595.8101806640625 C 416.1763000488281 595.5429077148438 414.3465270996094 595.2335205078125 412.5164489746094 594.890869140625 C 405.54541015625 593.5884399414063 398.6148681640625 591.8031005859375 391.9173583984375 589.5845336914063 C 388.7124938964844 588.5230712890625 385.4518127441406 587.3172607421875 381.9526672363281 585.8997802734375 C 381.7546691894531 585.8199462890625 381.6430969238281 585.7759399414063 381.5672607421875 585.7460327148438 L 381.5310363769531 585.7318115234375 L 381.4754943847656 585.7098388671875 L 381.4208984375 585.685791015625 L 381.3399047851563 585.6497802734375 C 381.2677612304688 585.61767578125 381.1669921875 585.57275390625 381.0130004882813 585.5059814453125 L 381.0066223144531 585.503173828125 L 381.0003051757813 585.5003662109375 L 380.8346252441406 585.4276733398438 C 380.1843566894531 585.1422119140625 379.5119018554688 584.8470458984375 378.8485107421875 584.5462646484375 C 377.2019958496094 583.8011474609375 375.5247192382813 583.005126953125 373.8617553710938 582.179443359375 C 367.6878662109375 579.109619140625 361.681884765625 575.5789794921875 356.0104370117188 571.6853637695313 C 354.7061157226563 570.7897338867188 353.4051513671875 569.865234375 352.1435546875 568.9375 L 352.14111328125 568.935791015625 L 352.1387329101563 568.9339599609375 C 351.8785400390625 568.741943359375 351.6218872070313 568.5484008789063 351.3735961914063 568.361328125 C 351.0508422851563 568.1180419921875 350.7459716796875 567.8883056640625 350.4382934570313 567.6644897460938 L 350.4382934570313 567.6644897460938 L 350.3571166992188 567.6060791015625 L 350.3069458007813 567.5700073242188 L 350.2584228515625 567.5318603515625 L 350.1299438476563 567.4312744140625 C 349.9095458984375 567.2584838867188 349.6902465820313 567.0865478515625 349.46728515625 566.9105224609375 C 346.9263305664063 564.897216796875 344.3963623046875 562.769775390625 341.94775390625 560.5872192382813 C 337.0913696289063 556.25830078125 332.4398803710938 551.5514526367188 328.1222534179688 546.5972900390625 C 327.0947875976563 545.4180908203125 326.0658569335938 544.2005615234375 325.0645751953125 542.9788818359375 C 324.5572509765625 542.360107421875 324.1072998046875 541.8035888671875 323.6918334960938 541.2813720703125 C 323.591064453125 541.1550903320313 323.49169921875 541.0281982421875 323.3923950195313 540.9012451171875 C 323.2715454101563 540.7467651367188 323.1572265625 540.6007080078125 323.0451049804688 540.46240234375 C 323.0203857421875 540.4321899414063 323.013427734375 540.4238891601563 322.9974975585938 540.4052124023438 L 322.9939575195313 540.4010009765625 L 322.933349609375 540.3298950195313 L 322.8773803710938 540.255126953125 C 322.8539428710938 540.223876953125 322.8335571289063 540.1963500976563 322.8131713867188 540.1689453125 C 322.7847290039063 540.1305541992188 322.7564697265625 540.0924072265625 322.7109375 540.0328369140625 L 322.705078125 540.0252685546875 L 322.6993408203125 540.0176391601563 C 320.685546875 537.3535766601563 318.88427734375 534.8311767578125 317.19287109375 532.30712890625 C 313.5399169921875 526.8583984375 310.2003784179688 521.1422119140625 307.2667846679688 515.3169555664063 C 305.8983154296875 512.5985717773438 304.5519409179688 509.7142333984375 303.2649536132813 506.7440490722656 L 303.2639770507813 506.7417297363281 L 303.262939453125 506.7394104003906 C 303.1421508789063 506.4593505859375 303.0621337890625 506.2728881835938 303.0123901367188 506.1563110351563 C 302.9844970703125 506.0910949707031 302.9651489257813 506.0454406738281 302.9528198242188 506.0159912109375 C 302.9119873046875 505.9187316894531 302.8770141601563 505.8229370117188 302.8472290039063 505.7286071777344 C 302.823974609375 505.6714782714844 302.80078125 505.6143493652344 302.7777099609375 505.5572204589844 C 302.5133666992188 504.9089050292969 302.2401733398438 504.2223815917969 301.9666748046875 503.5188598632813 C 301.3462524414063 501.9267578125 300.7490844726563 500.3155822753906 300.1921997070313 498.731689453125 C 298.0325927734375 492.5995788574219 296.2417602539063 486.2276306152344 294.86962890625 479.7930297851563 C 294.2020874023438 476.6642150878906 293.634765625 473.5182189941406 293.1840209960938 470.4457092285156 C 293.1737060546875 470.3763427734375 293.1359252929688 470.1014099121094 293.0993041992188 469.834716796875 L 293.0486450195313 469.4661865234375 L 293.0462036132813 469.4482727050781 L 293.0438842773438 469.4302978515625 L 292.989501953125 468.9985961914063 L 292.988525390625 468.9906311035156 L 292.987548828125 468.982666015625 C 292.90576171875 468.3047790527344 292.810546875 467.503662109375 292.7241821289063 466.7017211914063 L 292.7236328125 466.6968994140625 L 292.72314453125 466.6920471191406 C 292.5264282226563 464.8088684082031 292.3736572265625 463.0591430664063 292.2561645507813 461.3460083007813 C 291.78076171875 454.5154418945313 291.7730102539063 447.5599975585938 292.2329711914063 440.6732177734375 C 293.0973510742188 427.707763671875 295.7579345703125 414.6066284179688 300.1407470703125 401.7334594726563 C 304.4119873046875 389.1907348632813 310.3372192382813 377.1516723632813 317.7520141601563 365.9503784179688 C 319.5170288085938 363.2847900390625 321.3768310546875 360.66015625 323.2802124023438 358.1486206054688 C 324.380126953125 356.6981201171875 325.4083862304688 355.1331787109375 326.4969482421875 353.4763793945313 C 327.258056640625 352.3179321289063 328.0451049804688 351.1200561523438 328.8638305664063 349.9577026367188 C 329.2262573242188 349.4439697265625 328.8901977539063 348.2285766601563 328.2538452148438 347.753173828125 C 327.8880004882813 347.479736328125 327.505126953125 347.341064453125 327.1158447265625 347.341064453125 C 326.6087646484375 347.341064453125 326.0570678710938 347.57666015625 325.5620727539063 348.004638671875 L 325.1776123046875 348.3367309570313 C 322.6771850585938 350.4961547851563 320.3153686523438 352.5358276367188 318.3695678710938 354.9117431640625 C 315.9927978515625 357.8131103515625 313.7182006835938 360.7824096679688 311.609375 363.7368774414063 C 307.6532592773438 369.2807006835938 304.1028442382813 375.0825805664063 301.0565185546875 380.9818115234375 C 294.5468139648438 393.5839538574219 289.7843017578125 406.8113098144531 286.9013061523438 420.2965087890625 C 283.9905395507813 433.9104614257813 282.8978881835938 447.8003540039063 283.6536254882813 461.5804138183594 C 284.4208374023438 475.5691223144531 287.0838012695313 489.2262268066406 291.568359375 502.1723022460938 C 295.9645385742188 514.8634033203125 301.9295654296875 526.9881591796875 309.2977905273438 538.2098388671875 C 316.7499389648438 549.559326171875 325.5289916992188 559.816650390625 335.39111328125 568.6967163085938 C 345.8505249023438 578.11474609375 357.7145385742188 586.060791015625 370.653564453125 592.3140258789063 C 383.4959411621094 598.5206298828125 397.0934448242188 602.9146728515625 411.0682373046875 605.3741455078125 C 420.6366271972656 607.0577392578125 430.3554382324219 607.911376953125 439.9547729492188 607.911376953125 C 449.8800964355469 607.911376953125 459.7528076171875 606.99853515625 469.2986755371094 605.1982421875 C 479.0673522949219 603.3558349609375 488.5855102539063 600.5658569335938 497.5884399414063 596.90576171875 C 510.7330932617188 591.56103515625 523.18408203125 584.658447265625 534.595458984375 576.3896484375 C 546.125244140625 568.03515625 556.5305786132813 558.3302001953125 565.5225830078125 547.5443115234375 C 574.3272705078125 536.98388671875 581.85205078125 525.5783081054688 587.887939453125 513.6443481445313 C 594.1228637695313 501.3168640136719 598.73291015625 488.4882202148438 601.5902099609375 475.5145874023438 C 604.6150512695313 461.7825012207031 605.8336181640625 447.6024169921875 605.212158203125 433.3681640625 C 604.59130859375 419.1485290527344 602.145263671875 405.1246643066406 597.9419555664063 391.68603515625 C 593.6502685546875 377.96435546875 587.634033203125 364.990966796875 580.060546875 353.1262817382813 C 572.2274169921875 340.854736328125 562.9088745117188 330.0665893554688 552.3635864257813 321.0614013671875 C 547.2310791015625 316.67822265625 541.7730712890625 312.6878051757813 536.1412353515625 309.201171875 C 530.37353515625 305.63037109375 524.375244140625 302.5587158203125 518.3130493164063 300.0714721679688 C 505.4909973144531 294.810791015625 492.4634094238281 292.1432495117188 479.5908203125 292.1429443359375 L 479.5899658203125 292.1429443359375 M 479.59228515625 289.1429443359375 C 507.0721740722656 289.1436157226563 533.4979248046875 301.0046997070313 554.3118896484375 318.7801513671875 C 576.34130859375 337.59228515625 592.1912841796875 363.25 600.80517578125 390.7904968261719 C 609.4022216796875 418.2765502929688 610.7142333984375 448.0394592285156 604.52001953125 476.1599426269531 C 598.571533203125 503.1692199707031 585.486328125 528.2845458984375 567.8267822265625 549.4654541015625 C 549.337646484375 571.6431884765625 525.4293212890625 588.823974609375 498.7184448242188 599.684814453125 C 480.0363464355469 607.2798461914063 460.0183410644531 610.911376953125 439.9548034667969 610.911376953125 C 430.1128540039063 610.911376953125 420.2593994140625 610.0374755859375 410.5483703613281 608.3287353515625 C 382.039306640625 603.3114013671875 354.9117431640625 590.3106689453125 333.3836669921875 570.9261474609375 C 313.0604248046875 552.62646484375 297.674072265625 528.9639892578125 288.733642578125 503.1542663574219 C 279.4645385742188 476.3964538574219 278.0567626953125 447.3149108886719 283.9676513671875 419.6692810058594 C 286.94287109375 405.752685546875 291.8607177734375 392.2471618652344 298.39111328125 379.60498046875 C 301.553955078125 373.4801025390625 305.16357421875 367.6048583984375 309.1673583984375 361.9942626953125 C 311.3580322265625 358.9251708984375 313.6593017578125 355.927490234375 316.048828125 353.0106201171875 C 318.265625 350.3038330078125 320.9573974609375 348.0194091796875 323.6002197265625 345.7349853515625 C 324.6475830078125 344.8294677734375 325.8789672851563 344.341064453125 327.1158447265625 344.341064453125 C 328.1224365234375 344.341064453125 329.1327514648438 344.6646728515625 330.0499267578125 345.3502197265625 C 331.861328125 346.70361328125 332.709716796875 349.710693359375 331.3150634765625 351.687255859375 C 329.396728515625 354.410888671875 327.6435546875 357.359619140625 325.670654296875 359.9613037109375 C 323.7843017578125 362.4503173828125 321.978515625 365.0013427734375 320.25341796875 367.606689453125 C 312.85400390625 378.78466796875 307.1495361328125 390.458251953125 302.9805908203125 402.7005310058594 C 298.6182861328125 415.5134582519531 296.0654296875 428.2870483398438 295.226318359375 440.8727722167969 C 294.77587890625 447.6170959472656 294.7796630859375 454.3953247070313 295.2489013671875 461.1377258300781 C 295.3690185546875 462.8890075683594 295.5247802734375 464.6365966796875 295.7069091796875 466.3804016113281 C 295.78759765625 467.1293029785156 295.8758544921875 467.8764343261719 295.9659423828125 468.6235046386719 L 296.0203857421875 469.0552062988281 C 296.059814453125 469.3405456542969 296.13671875 469.9054870605469 296.1517333984375 470.0069580078125 C 296.602294921875 473.0777587890625 297.156005859375 476.1318054199219 297.8035888671875 479.1670837402344 C 299.145751953125 485.4609069824219 300.8839111328125 491.6646423339844 303.0218505859375 497.7351379394531 C 303.5755615234375 499.3099365234375 304.1556396484375 500.8736267089844 304.761962890625 502.4296875 C 305.02099609375 503.0960388183594 305.28564453125 503.7623901367188 305.555908203125 504.4249877929688 C 305.6871337890625 504.7502746582031 305.8218994140625 505.075439453125 305.955078125 505.4024353027344 C 305.8787231445313 505.2157592773438 305.7054443359375 504.817138671875 305.7036743164063 504.8172302246094 C 305.7025146484375 504.8172912597656 305.7796020507813 504.9992370605469 306.0177001953125 505.5513000488281 C 307.2490234375 508.3930969238281 308.5535888671875 511.2012329101563 309.9464111328125 513.968017578125 C 312.8427734375 519.7193603515625 316.099365234375 525.2886962890625 319.6846923828125 530.636474609375 C 321.41162109375 533.2137451171875 323.2210693359375 535.7327880859375 325.092529296875 538.2086181640625 C 325.1788330078125 538.3212890625 325.2164306640625 538.373779296875 325.2783203125 538.4564208984375 C 325.310302734375 538.4940185546875 325.321533203125 538.507080078125 325.3721923828125 538.569091796875 C 325.5975341796875 538.8468017578125 325.8133544921875 539.1302490234375 326.03662109375 539.4100341796875 C 326.4815673828125 539.9693603515625 326.93212890625 540.5250244140625 327.384521484375 541.0767822265625 C 328.3660888671875 542.2744140625 329.36669921875 543.4588623046875 330.384033203125 544.6263427734375 C 334.6112060546875 549.476806640625 339.140625 554.066162109375 343.9439697265625 558.3477783203125 C 346.3447265625 560.4876708984375 348.8094482421875 562.561767578125 351.330322265625 564.55908203125 C 351.58935546875 564.763671875 351.848388671875 564.9664306640625 352.109375 565.1710205078125 L 352.2032470703125 565.238525390625 C 352.78125 565.6590576171875 353.3463134765625 566.096435546875 353.9207763671875 566.5206298828125 C 355.1689453125 567.4384765625 356.4322509765625 568.3358154296875 357.7086181640625 569.2122802734375 C 363.2891845703125 573.04345703125 369.13818359375 576.4803466796875 375.1973876953125 579.4931640625 C 376.8116760253906 580.294677734375 378.4428100585938 581.06982421875 380.0853271484375 581.8131103515625 C 380.7891235351563 582.1322021484375 381.4968566894531 582.4420166015625 382.2064208984375 582.7535400390625 C 382.4315795898438 582.8511962890625 382.5517272949219 582.9056396484375 382.6324462890625 582.9412841796875 C 382.7131652832031 582.97314453125 382.8333740234375 583.0201416015625 383.0754089355469 583.1177978515625 C 386.3003234863281 584.4241943359375 389.5569458007813 585.6424560546875 392.8606262207031 586.7366943359375 C 399.4679870605469 588.9254150390625 406.2254943847656 590.66357421875 413.0674133300781 591.94189453125 C 414.8412170410156 592.2740478515625 416.6225891113281 592.576416015625 418.40771484375 592.8447265625 C 418.6498718261719 592.88232421875 419.6503295898438 593.0230712890625 420.0107116699219 593.0775146484375 C 420.414306640625 593.1243896484375 421.3321838378906 593.2388916015625 421.5630798339844 593.26513671875 C 425.0205993652344 593.6668701171875 428.4913635253906 593.9541015625 431.9695739746094 594.123046875 C 434.4983520507813 594.2459716796875 437.0300903320313 594.3077392578125 439.5620727539063 594.3077392578125 C 443.9916076660156 594.3077392578125 448.4212951660156 594.1185302734375 452.8332824707031 593.736328125 C 454.6315002441406 593.58056640625 456.4241943359375 593.3834228515625 458.2167663574219 593.1751708984375 C 458.46630859375 593.14697265625 458.5996704101563 593.1319580078125 458.6898498535156 593.12255859375 C 458.78173828125 593.1075439453125 458.8868103027344 593.092529296875 459.0596008300781 593.068115234375 C 459.8235778808594 592.95556640625 460.5894165039063 592.8428955078125 461.3515319824219 592.720947265625 C 464.7865295410156 592.174560546875 468.2027587890625 591.5101318359375 471.5909118652344 590.7254638671875 C 478.6262817382813 589.09619140625 485.5282287597656 586.9376220703125 492.2500915527344 584.3021240234375 C 493.160400390625 583.943603515625 494.0689392089844 583.57763671875 494.9717712402344 583.2041015625 L 495.039306640625 583.174072265625 C 495.5687561035156 582.9468994140625 496.0962219238281 582.7159423828125 496.6217651367188 582.4814453125 C 498.2022399902344 581.78125 499.7696228027344 581.0548095703125 501.3275756835938 580.303955078125 C 504.8302307128906 578.6126708984375 508.2709045410156 576.797607421875 511.6478271484375 574.867919921875 C 517.290283203125 571.6412353515625 522.7412109375 568.07861328125 527.96337890625 564.2099609375 C 528.595947265625 563.7406005859375 529.220947265625 563.2657470703125 529.847900390625 562.7908935546875 C 530.1669921875 562.539306640625 530.488037109375 562.2896728515625 530.80712890625 562.0362548828125 C 531.927734375 561.1446533203125 533.0389404296875 560.2362060546875 534.1370849609375 559.31640625 C 536.6109619140625 557.2459716796875 539.0250244140625 555.102294921875 541.375 552.8929443359375 C 546.0789794921875 548.474365234375 550.531494140625 543.7891845703125 554.7060546875 538.8675537109375 C 555.7103271484375 537.6829833984375 556.699462890625 536.4854736328125 557.6717529296875 535.2747802734375 C 557.7994384765625 535.115234375 558.541015625 534.178466796875 558.800048828125 533.853759765625 C 558.8900146484375 533.7393798828125 558.9744873046875 533.6304931640625 558.9970703125 533.6004638671875 C 559.212890625 533.3150634765625 559.4306640625 533.02978515625 559.6466064453125 532.7425537109375 C 561.583740234375 530.167236328125 563.449462890625 527.5355224609375 565.2384033203125 524.853271484375 C 568.812255859375 519.4923095703125 572.0821533203125 513.9267578125 575.0179443359375 508.1922607421875 C 576.4312744140625 505.4311218261719 577.765869140625 502.6305541992188 579.019775390625 499.7961730957031 C 579.2041015625 499.3796997070313 579.7891845703125 497.9869384765625 579.79638671875 497.9869384765625 C 579.7987670898438 497.9869384765625 579.740966796875 498.1319580078125 579.590087890625 498.5018005371094 C 579.5845947265625 498.5153198242188 579.5791015625 498.5287475585938 579.5736083984375 498.5422668457031 C 579.5792236328125 498.5285339355469 579.584716796875 498.5149536132813 579.590087890625 498.5018005371094 C 579.85498046875 497.852783203125 580.1233520507813 497.2053527832031 580.384521484375 496.5563049316406 C 580.960693359375 495.1165771484375 581.516357421875 493.6712341308594 582.0513916015625 492.216552734375 C 584.2738037109375 486.1722717285156 586.1302490234375 479.9929504394531 587.5924072265625 473.7197570800781 C 588.3170166015625 470.6113586425781 588.9439697265625 467.4803466796875 589.471435546875 464.3325500488281 C 589.6365966796875 463.3433227539063 589.7923583984375 462.3540954589844 589.9388427734375 461.3630065917969 C 589.9744873046875 461.1133117675781 590.0101318359375 460.8617553710938 590.0457763671875 460.6121215820313 C 590.231689453125 459.0090942382813 590.4287109375 457.4098205566406 590.580810546875 455.8049621582031 C 591.218994140625 449.0718688964844 591.41796875 442.2993469238281 591.183349609375 435.5400085449219 C 591.0706787109375 432.2851867675781 590.856689453125 429.0340881347656 590.545166015625 425.7922973632813 C 590.39501953125 424.2305297851563 590.2091064453125 422.6745300292969 590.017578125 421.1184387207031 C 589.978271484375 420.8368225097656 589.8468017578125 419.8570251464844 589.7923583984375 419.4947814941406 C 589.6798095703125 418.7514343261719 589.5633544921875 418.0099792480469 589.4395751953125 417.2685241699219 C 588.3582763671875 410.7212524414063 586.8697509765625 404.2415771484375 584.9814453125 397.8783264160156 C 584.022216796875 394.6404113769531 582.9580078125 391.4324035644531 581.792236328125 388.2620544433594 C 581.1878662109375 386.6177978515625 580.5552978515625 384.984619140625 579.896484375 383.3629150390625 C 579.7593994140625 383.02685546875 579.6204833984375 382.6927490234375 579.4835205078125 382.3568115234375 L 579.462890625 382.30615234375 C 579.1644287109375 381.619140625 578.864013671875 380.93212890625 578.55615234375 380.2469482421875 C 575.796875 374.0919189453125 572.6322021484375 368.1153564453125 569.076904296875 362.3809814453125 C 567.3651123046875 359.62158203125 565.5611572265625 356.916748046875 563.6710205078125 354.2738037109375 C 563.087158203125 353.4610595703125 562.497802734375 352.6539306640625 561.8990478515625 351.854248046875 C 561.720703125 351.61767578125 561.3265380859375 351.107177734375 561.1556396484375 350.8819580078125 C 560.2340087890625 349.7181396484375 559.3067626953125 348.55810546875 558.353271484375 347.418701171875 C 553.9796142578125 342.198486328125 549.234375 337.284423828125 544.143798828125 332.7587890625 C 542.7978515625 331.5631103515625 541.4276123046875 330.3935546875 540.0347900390625 329.2523193359375 C 539.3741455078125 328.713623046875 538.705810546875 328.184326171875 538.03759765625 327.653076171875 C 537.767333984375 327.4522705078125 537.4970703125 327.2457275390625 537.2266845703125 327.044921875 C 534.4486083984375 324.9744873046875 531.5860595703125 323.0185546875 528.642822265625 321.1922607421875 C 525.703369140625 319.36962890625 522.68310546875 317.6763916015625 519.591552734375 316.1259765625 C 517.988525390625 315.324462890625 516.36669921875 314.55859375 514.7261962890625 313.8359375 C 514.4971923828125 313.734619140625 514.2681884765625 313.6351318359375 514.0391845703125 313.53564453125 L 513.95849609375 313.505615234375 C 513.2396240234375 313.2333984375 512.5299072265625 312.93310546875 511.81103515625 312.6590576171875 C 508.3891296386719 311.3525390625 504.8959655761719 310.2301025390625 501.3501281738281 309.3046875 C 499.4749450683594 308.816650390625 497.584716796875 308.383056640625 495.6832580566406 308.0057373046875 C 494.8685302734375 307.8424072265625 494.0501403808594 307.6922607421875 493.2317810058594 307.551513671875 C 492.6854858398438 307.4556884765625 492.1393737792969 307.3731689453125 491.5911254882813 307.2830810546875 C 491.56494140625 307.27734375 491.3753051757813 307.249267578125 491.1857604980469 307.21923828125 C 490.8835754394531 307.1817626953125 490.2772827148438 307.1009521484375 490.1852722167969 307.0897216796875 C 489.7723083496094 307.042724609375 489.3612365722656 306.995849609375 488.9482727050781 306.95458984375 C 487.9834899902344 306.8551025390625 487.0185852050781 306.7706298828125 486.0538024902344 306.701171875 C 484.2611694335938 306.573486328125 482.4648742675781 306.4927978515625 480.6684875488281 306.466552734375 C 480.2093811035156 306.4597778320313 479.7506408691406 306.4564208984375 479.2914428710938 306.4564208984375 C 476.1630249023438 306.4564208984375 473.0338745117188 306.6133422851563 469.9222717285156 306.935791015625 C 469.9231567382813 306.9356689453125 469.9234924316406 306.9356079101563 469.9233093261719 306.9356079101563 C 469.9152221679688 306.9356079101563 468.9053649902344 307.0530395507813 468.5181274414063 307.093505859375 C 468.3341674804688 307.1197509765625 468.1521301269531 307.1441650390625 468.1239929199219 307.1497802734375 C 467.3074645996094 307.27734375 466.4927673339844 307.4088134765625 465.6800537109375 307.5552978515625 C 463.9192810058594 307.8743896484375 462.1679992675781 308.249755859375 460.4317321777344 308.6815185546875 C 456.8352355957031 309.5731201171875 453.2275085449219 310.5960693359375 449.7792663574219 311.960693359375 C 449.0021362304688 312.2677612304688 448.216064453125 312.4074096679688 447.4403381347656 312.4074096679688 C 443.7923278808594 312.4074096679688 440.3829956054688 309.3168334960938 439.3164672851563 306.019775390625 C 437.7960510253906 301.3214111328125 441.1334533691406 297.186279296875 445.2555541992188 295.5570068359375 C 444.8915405273438 295.7007446289063 444.744873046875 295.7576904296875 444.7409973144531 295.7576904296875 C 444.7262573242188 295.7576904296875 446.7925415039063 294.9277954101563 446.7935180664063 294.9277954101563 C 446.7935180664063 294.9277954101563 446.7933044433594 294.9279174804688 446.7928466796875 294.9281005859375 C 447.3033752441406 294.7198486328125 447.8215026855469 294.5245361328125 448.339599609375 294.331298828125 C 449.1147766113281 294.0421142578125 449.8956909179688 293.764404296875 450.678466796875 293.4996337890625 C 452.5085754394531 292.8822021484375 454.3574523925781 292.3509521484375 456.2345581054688 291.8966064453125 C 460.2008056640625 290.9375 464.2290344238281 290.3123779296875 468.2798156738281 289.822509765625 C 472.0634155273438 289.3643188476563 475.8365173339844 289.1428833007813 479.59228515625 289.1429443359375 Z M 305.955078125 505.4024353027344 C 305.957275390625 505.4077758789063 305.9594116210938 505.4129638671875 305.96142578125 505.4179382324219 C 305.9592895507813 505.4127807617188 305.9572143554688 505.4075927734375 305.955078125 505.4024353027344 Z"/></g><path d="M390.468,319.826a7.038,7.038,0,0,0-1.413-3.4,5.42,5.42,0,0,0-2.016-1.851q-.856-.363-1.716-.725l-.783-.105c.237-10.8.867-21.733-.97-32.417-.672-3.9-1.92-10.211-4.7-14.02-2.16-2.968-5.246-4.417-9.706-2.022-9.915,5.321-17.977,23.535-22.893,33.254q-5.868,11.6-11.734,23.21a8.008,8.008,0,0,0,6.827,11.9,127.522,127.522,0,0,0,13.393-.176c4.216-.278,8.9-.426,13.076-1.425-.024,3.178-.043,6.356-.075,9.534q-.051,5.122-.1,10.241c-.034,3.625-.644,7.886.481,11.356a7.769,7.769,0,0,0,14.848,0c1.168-3.444.6-7.743.61-11.356q.02-5.122.041-10.241c.019-4.543.051-9.087.068-13.631a6.941,6.941,0,0,0,1.616-.25,8.166,8.166,0,0,0,3.17-1.847,5.391,5.391,0,0,0,1.485-2.311,3.582,3.582,0,0,0,.49-1.813A3.619,3.619,0,0,0,390.468,319.826Zm-21.951-18.273c-.3,4.952-.394,9.941-.473,14.915a7.082,7.082,0,0,0-.8-.064,36.868,36.868,0,0,0-4.329.505c.015-.009-2.072.244-2.311.27-1.374.146-2.754.238-4.131.342.216-.415.428-.824.636-1.211,1.905-3.536,3.848-7.054,5.682-10.628l5.327-10.388c.141-.276.274-.563.415-.843.009.428.024.858.032,1.286.026,1.517.028,3.035.051,4.552C368.585,300.71,368.542,301.132,368.517,301.553Z" transform="translate(-233.802 -264.09)"/><text class="c" transform="translate(59 164.108)"><tspan x="0" y="0">Discrete Trial</tspan><tspan x="0" y="42">Training(DTT)</tspan></text><g transform="translate(114.72 238.734)"><path d="M198.311,408.888a46.975,46.975,0,0,0-43.1-19.625,1.108,1.108,0,0,0-.768-.259c-4.815.238-9.188,2.177-13.365,4.5a50.218,50.218,0,0,0-11.366,8.659,46.825,46.825,0,0,0-13,26.225,43.917,43.917,0,0,0,.454,15.1,56.452,56.452,0,0,0,6.055,15.319c2.572,4.7,5.321,9.6,9.421,13.153a37.563,37.563,0,0,0,13.312,7.176c18.065,5.731,38.925-.4,50.578-15.409a47.2,47.2,0,0,0,9.926-26.975A46.592,46.592,0,0,0,198.311,408.888Zm.813,40.348a17.512,17.512,0,0,1-2.4-2.1c-.276-.291-.993-.871-.89-1.323.081-.355.792-.717,1.066-.939a6.882,6.882,0,0,0,2.035-2.667,4.706,4.706,0,0,0,.225-3.1c-.267-.925-1.1-1.819-1.168-2.78-.075-.991,1.027-1.719,1.748-2.206.509-.345,1.032-.668,1.562-.987.053-.032.124-.084.19-.13A41.675,41.675,0,0,1,199.124,449.236Zm-17.616-49.688a39.654,39.654,0,0,1,7.878,6.033,8.3,8.3,0,0,0-2.352.762c-1.862.95-2.863,2.8-4.008,4.451a8.278,8.278,0,0,1-.753.942,20.836,20.836,0,0,1,.086-2.821,4.35,4.35,0,0,0-1.017-2.938c-.663-.749-1.721-1.134-1.785-2.251a6.208,6.208,0,0,1,1.31-3.285A9.824,9.824,0,0,1,181.507,399.548Zm-17.9,76.913a41.572,41.572,0,0,1-10.052-.214,39.58,39.58,0,0,1-12.257-3.81,27.6,27.6,0,0,1-10.684-9.543c-5.415-8.135-9.933-17.384-10.172-27.317a43,43,0,0,1,6.545-23.694,2.914,2.914,0,0,1,.64.085A3.159,3.159,0,0,1,129,413.01a48.243,48.243,0,0,1,4.116,4.524c1.421,2.016.629,4.139-.178,6.243a13.308,13.308,0,0,0-1.209,5.669,5.742,5.742,0,0,0,2.243,4.4c.85.627,1.648.858,2.138,1.864s.756,2.123,1.181,3.152c1.336,3.242,3.73,8.7,7.97,8.6a4.913,4.913,0,0,0,1.556-.327c.454-.165,1.291-.768,1.768-.672.606.122,1.074,1.821,1.483,2.373a5.172,5.172,0,0,0,3.653,2.275,12.829,12.829,0,0,0,1.806,2.2c.486.492,1.374,1.2,1.327,1.941-.041.638-.621,1.263-.924,1.808a6.836,6.836,0,0,0,.841,7.865,9.814,9.814,0,0,0,3.3,2.48c1,.482,2.945.764,3.36,1.9.488,1.348.137,3.3.175,4.713C163.622,474.791,163.579,475.633,163.606,476.461Zm10.7-7.347a3.472,3.472,0,0,0-.764,1.672c-.079.434-.13.871-.182,1.308-.006.039-.045.327-.049.364-.023.143-.045.285-.071.428-.1.537-.225,1.076-.364,1.61a43.4,43.4,0,0,1-6.065,1.513c0-.869-.066-1.742-.066-2.542a20.057,20.057,0,0,0-.238-4.805c-.841-3.317-4.666-3.334-6.846-5.4a3.915,3.915,0,0,1-1.29-4.263c.569-1.436,1.612-2.513,1.485-4.163-.124-1.577-1.365-2.737-2.451-3.758a6.651,6.651,0,0,0-2.322-1.455,5.608,5.608,0,0,0-1.37-1.248,5.4,5.4,0,0,1-1.956-2.6,3.232,3.232,0,0,0-3.784-2.2c-.914.148-1.77.8-2.69.817-1.077.022-1.883-1.017-2.438-1.832a26.088,26.088,0,0,1-3.05-6.341c-.64-1.885-1.3-3.506-3.041-4.614-1.654-1.051-1.793-2.57-1.333-4.407.514-2.057,1.588-3.916,1.89-6.035a7.546,7.546,0,0,0-1.479-5.727,63.659,63.659,0,0,0-4.4-4.852,6.962,6.962,0,0,0-2.352-1.7c.488-.636.987-1.263,1.515-1.866a38.706,38.706,0,0,1,13.643-10.04,3.951,3.951,0,0,0,4.372,3.52c1.016-.115,1.975-.878,2.986-.85.922.028,1.573.955,2.421,1.316,1.487.629,3,.163,4.441-.362,1.464-.533,3.833-1.4,4.045,1.008.186,2.125-2.085,3.413-3.4,4.678-1.209,1.162-2.123,2.7-1.6,4.42a4.661,4.661,0,0,0,3.379,2.94,6.428,6.428,0,0,0,4.479-.689,6.6,6.6,0,0,0,1.815-1.382,4.525,4.525,0,0,0,.623-.907,10.009,10.009,0,0,1,.4-1.166c.251-.137,2.02,1.622,2.314,1.928a6.618,6.618,0,0,1,1.766,2.836,3.251,3.251,0,0,1-.467,2.829,6.173,6.173,0,0,1-2.742,1.321,5.348,5.348,0,0,0-3.326,3.125c-.634,1.535-.693,3.73-2.089,4.805-1.62,1.248-3.76,1.072-5.224,2.709a13.083,13.083,0,0,1-1.834,2.1,8.255,8.255,0,0,1-3.12,1.053c-2.033.449-4.237,1.153-5.325,3.088a4.192,4.192,0,0,0,.417,4.882,4.694,4.694,0,0,0,2.56,1.141,2.977,2.977,0,0,1,1.286.353,4.009,4.009,0,0,1,.621,1.3,8.441,8.441,0,0,0,3.613,4.171,4,4,0,0,1,.2,1.46,2.88,2.88,0,0,0,.636,1.7c1.07,1.2,2.326.511,3.651.422.766-.051,1.239.559,1.932.8a3.424,3.424,0,0,0,1.986.049c1.19-.3,2.609-1.594,3.865-1.387,1.233.2,2.108,1.969,3.144,2.611a5.041,5.041,0,0,0,2.161.668,4.389,4.389,0,0,1,2.534.571c1.359,1.156.011,2.985,1.13,4.287.833.974,2.872.839,2.065,2.572a10.531,10.531,0,0,1-1.945,2.313,21.963,21.963,0,0,0-1.847,2.378A14.1,14.1,0,0,0,174.309,469.114Zm22.153-13.979a41.658,41.658,0,0,1-20.25,18.093c.068-.529.122-1.061.178-1.592l.015-.131.009-.062c.051-.257.083-.514.128-.771-.062.355.051-.173.064-.233l0-.019c.651-1.136,1.169-2.361,1.9-3.459,1.049-1.579,2.594-2.782,3.581-4.391a4.18,4.18,0,0,0,.054-4.589c-.514-.708-1.158-.766-1.806-1.222-.413-.291-.364-.053-.293-.73a4.442,4.442,0,0,0-.056-1.365,4.618,4.618,0,0,0-3.116-3.474,25.321,25.321,0,0,0-2.68-.312,3.646,3.646,0,0,1-1.947-1.359c-1.081-1.128-2.268-2.016-3.914-1.772a6.513,6.513,0,0,0-2.029.747c-.649.342-1.466,1.025-2.243.982-.809-.045-1.423-.856-2.294-.933-.824-.073-1.659.458-2.436.374s-.565-1.316-.73-1.932c-.017-.062-.045-.111-.064-.169a1.023,1.023,0,0,0-.2-1.047A12.394,12.394,0,0,1,155.1,441c-.6-1.633-1.789-2.142-3.384-2.523-2.14-.511-.681-2.183.693-2.711,1.978-.758,4.15-.753,5.948-2,1.417-.984,2.052-2.654,3.576-3.508s3.23-1.3,4.31-2.759c.991-1.336,1.188-2.971,1.674-4.514.649-2.067,2.052-2.339,3.854-3.195,3.082-1.466,3.5-5.216,1.721-7.912a12.856,12.856,0,0,0-3.61-3.195c-1.348-.939-2.093-1.256-3.291-.116-1.111,1.057-2.307,2.232-3.891,2.472a2.849,2.849,0,0,1-1.783-.248c-1.248-.672-.907-1.62-.1-2.48,1.13-1.2,2.51-2.055,3.384-3.5a5.338,5.338,0,0,0,.441-5.008,4.067,4.067,0,0,0-3.747-2.429c-1.718.009-3.131,1.038-4.773,1.338-1.134.206-1.607-.428-2.491-.987a3.38,3.38,0,0,0-2.268-.544c-1.111.12-1.982.933-3.06,1.1a1.693,1.693,0,0,1-2-2.138,40.1,40.1,0,0,1,22.144-1.6,43.469,43.469,0,0,1,11.283,4.011,14.2,14.2,0,0,0-1.933,3,4.815,4.815,0,0,0-.25,3.829,3.988,3.988,0,0,0,1.051,1.445c.389.351.908.672,1.106,1.177.4,1.032-.1,2.4-.09,3.469.015,1.241.426,2.782,1.746,3.227,2.4.809,4.079-2.81,5.2-4.344a4.811,4.811,0,0,1,2.814-2c.653-.161,1.365-.129,2-.347.06-.019.13-.053.193-.079a41.688,41.688,0,0,1,9.727,22.5c-2.117.967-4.783,2.367-5.573,4.578a4.4,4.4,0,0,0,.454,3.521c.627,1.3.893,2.264-.058,3.51-.751.985-1.98,1.477-2.581,2.588-.708,1.31-.111,2.639.745,3.694a18.71,18.71,0,0,0,3.056,2.964c.24.188.486.377.734.561C197.581,452.96,197.055,454.06,196.462,455.136Z" transform="translate(-116.264 -388.989)"/><path d="M128.263,398.7l0-.034a.441.441,0,0,0-.556-.424l-.013,0a.763.763,0,0,0-.638.191c-.084.083-.163.171-.246.255a2.33,2.33,0,0,0-.351.407,1.254,1.254,0,0,0-.118.328.8.8,0,0,0-.021.482.753.753,0,0,0,.246.357.346.346,0,0,0,.152.088.518.518,0,0,0,.265.06.8.8,0,0,0,.458-.141,1.091,1.091,0,0,0,.289-.2,2.418,2.418,0,0,0,.31-.437c.064-.1.133-.2.193-.3A.751.751,0,0,0,128.263,398.7Z" transform="translate(-107.469 -380.885)"/><path d="M131.775,398.55l-.017-.081a.746.746,0,0,0-.529-.531l-.081-.019a1.1,1.1,0,0,0-.289-.043,1.074,1.074,0,0,0-.5.135,1.738,1.738,0,0,0-.3.246l-.13.116c-.079.073-.161.145-.24.218a1.521,1.521,0,0,0-.366.884.647.647,0,0,0,.077.336.627.627,0,0,0,.18.282.9.9,0,0,0,.616.255,1.209,1.209,0,0,0,.351-.062,1.3,1.3,0,0,0,.533-.289c.081-.075.156-.16.235-.24a3.978,3.978,0,0,0,.293-.323.7.7,0,0,0,.173-.328,1.123,1.123,0,0,0,.039-.274A1.456,1.456,0,0,0,131.775,398.55Z" transform="translate(-104.815 -381.193)"/><path d="M135.75,397.267a.542.542,0,0,0-.4-.167,3.391,3.391,0,0,0-.389.079l-.122.028a.951.951,0,0,0-.445.246c-.146.133-.3.265-.456.387l.06-.047a.4.4,0,0,0-.141.143,1.031,1.031,0,0,0-.15.289l-.036.09a.679.679,0,0,0,.028.475.665.665,0,0,0,.541.407,1,1,0,0,0,.638-.1c.071-.043.141-.1.208-.145.114-.084.225-.171.338-.257l.1-.079a.9.9,0,0,0,.257-.4,2.334,2.334,0,0,0,.135-.55A.559.559,0,0,0,135.75,397.267Z" transform="translate(-101.025 -381.876)"/><path d="M132.028,395.841a.089.089,0,0,0-.111-.086c-.233.068-.535.039-.7.238l-.212.248-.049.058a.612.612,0,0,0-.137.229.59.59,0,0,0-.021.15,1.151,1.151,0,0,0,.036.223.393.393,0,0,0,.366.278,1.564,1.564,0,0,0,.161-.013.549.549,0,0,0,.2-.066.639.639,0,0,0,.18-.182l.045-.062.191-.276C132.126,396.366,132.023,396.081,132.028,395.841Z" transform="translate(-103.52 -383.057)"/><path d="M134.665,401.2a.886.886,0,0,0-.141-.267.389.389,0,0,0-.141-.141.581.581,0,0,0-.265-.139.408.408,0,0,0-.12-.021.569.569,0,0,0-.124-.013l-.064.007-.118.013a2.441,2.441,0,0,0-.285.038,1.245,1.245,0,0,0-.143.058.759.759,0,0,0-.171.088l-.139.105-.261.2-.011.008a.828.828,0,0,0-.308.283l-.086.111-.111.263c-.006.023-.009.043-.013.066l-.013.066-.009.045a1.756,1.756,0,0,0-.038.28c0,.032.028.237.036.265a2.283,2.283,0,0,0,.1.233l.009.021a.679.679,0,0,0,.31.312l.019.008a1.349,1.349,0,0,0,.235.1,1.118,1.118,0,0,0,.135.019.505.505,0,0,0,.259,0c.088-.013.173-.028.261-.045l.066-.013.131-.056a.543.543,0,0,0,.242-.141.551.551,0,0,0,.2-.2c.032-.039.064-.081.094-.122l.2-.27.113-.152.023-.03.1-.242.007-.021a2.164,2.164,0,0,0,.041-.313l.013-.135A.625.625,0,0,0,134.665,401.2Z" transform="translate(-102.371 -378.786)"/><path d="M130.856,403.92a1.325,1.325,0,0,0-.68-.034,2.6,2.6,0,0,0-.541.27,2.392,2.392,0,0,0-.527.362,4.071,4.071,0,0,0-.272.325,1.154,1.154,0,0,0-.3.732,1.038,1.038,0,0,0,1.036,1.034,1.062,1.062,0,0,0,.73-.3c.1-.1.2-.193.3-.295a3.349,3.349,0,0,0,.357-.514c.069-.105.15-.2.216-.312a1.182,1.182,0,0,0,.128-.681A.613.613,0,0,0,130.856,403.92Z" transform="translate(-105.505 -375.95)"/><path d="M129.851,409.543l-.013-.026a.457.457,0,0,0-.161-.161.473.473,0,0,0-.227-.062l-.077-.006a.477.477,0,0,0-.248.054.454.454,0,0,0-.19.122.352.352,0,0,0-.1.137c-.038.075-.071.154-.107.231a1.729,1.729,0,0,0-.1.22.833.833,0,0,0,.008.347l.026.163a.279.279,0,0,0,.131.171.307.307,0,0,0,.22.028l.2-.043a.622.622,0,0,0,.308-.163l.094-.1.094-.1.045-.047a.618.618,0,0,0,.186-.432A.7.7,0,0,0,129.851,409.543Z" transform="translate(-105.43 -371.186)"/><path d="M134.234,405.588a.944.944,0,0,0-.916-.24,2.155,2.155,0,0,0-.327.139c-.034.015-.068.03-.1.047a.168.168,0,0,0-.039.022l-.208.161-.049.049-.088.088-.178.18a1.107,1.107,0,0,0-.334.772,1.347,1.347,0,0,0,.051.327.913.913,0,0,0,.648.649,1.413,1.413,0,0,0,.327.049l.272-.037c.049-.019.1-.039.143-.06a.769.769,0,0,0,.332-.214l.017-.015.186-.186.088-.09.049-.049.161-.208.017-.028a2.456,2.456,0,0,0,.191-.437A.952.952,0,0,0,134.234,405.588Z" transform="translate(-102.467 -374.671)"/><path d="M138.855,404.337l0-.071a1.547,1.547,0,0,0-.407-.984l-.282-.218a1.378,1.378,0,0,0-.7-.19l-.071,0h-.03a1.477,1.477,0,0,0-.755.2,1.132,1.132,0,0,0-.419.385,1.3,1.3,0,0,0-.126.163c-.051.124-.1.246-.154.368l-.015.036-.034.081a1.45,1.45,0,0,0,0,.76,1.432,1.432,0,0,0,.368.631,1.433,1.433,0,0,0,1.393.368l.081-.032.034-.015.368-.156a1.037,1.037,0,0,0,.163-.124,1.132,1.132,0,0,0,.385-.419,1.5,1.5,0,0,0,.2-.755Z" transform="translate(-99.123 -376.811)"/><path d="M138.576,399.207a.605.605,0,0,0-.3-.52.6.6,0,0,0-.608,0c-.034.017-.068.032-.1.047l-.081.034a.368.368,0,0,0-.169.1.566.566,0,0,0-.2.216l-.047.066c-.034.039-.066.081-.1.118l-.077.084a.754.754,0,0,0-.169.255.557.557,0,0,0-.062.276l.023-.158c-.017.122-.041.242-.056.364l.017.133a.417.417,0,0,0,.09.171.483.483,0,0,0,.261.18,1.936,1.936,0,0,0,.33.034.726.726,0,0,0,.441-.107c.079-.054.154-.116.229-.178s.133-.111.2-.171c.034-.03.066-.062.1-.094l.039-.041a.781.781,0,0,0,.2-.34q.017-.11.028-.22l-.026.2C138.548,399.507,138.569,399.359,138.576,399.207Z" transform="translate(-98.404 -380.555)"/><path d="M142.867,404.759a.624.624,0,0,0-.15-.287.794.794,0,0,0-.439-.3.978.978,0,0,0-.494,0l-.086.021c-.058.015-.116.026-.173.043a1.168,1.168,0,0,0-.563.364l-.118.128-.135.148a1.431,1.431,0,0,0-.206.255,1.053,1.053,0,0,0-.105.775.918.918,0,0,0,.158.387.7.7,0,0,0,.362.246l.049.015.1.032a1.027,1.027,0,0,0,.554,0,1.254,1.254,0,0,0,.477-.287l.146-.116.148-.118.079-.064a1.027,1.027,0,0,0,.3-.486,1.276,1.276,0,0,0,.122-.531Z" transform="translate(-95.124 -375.699)"/><path d="M137.931,407.941a.677.677,0,0,0-.345-.088c-.03,0-.06,0-.09,0a.8.8,0,0,0-.537.214c-.028.024-.056.051-.084.077l-.315.287a.91.91,0,0,0-.267.424l-.047.156a1.915,1.915,0,0,0-.107.407.277.277,0,0,0,.2.267,1.769,1.769,0,0,0,.411-.009l.18-.011a.89.89,0,0,0,.39-.1c.036-.021.069-.049.105-.073l.375-.257c.038-.026.071-.053.109-.081a.683.683,0,0,0,.223-.291,1.44,1.44,0,0,0,.058-.165.759.759,0,0,0,.024-.3A.583.583,0,0,0,137.931,407.941Z" transform="translate(-98.834 -372.443)"/><path d="M132.949,414.333c-.008-.16-.034-.317-.034-.477a.534.534,0,0,0-.668-.509c-.146.039-.293.071-.435.12a1.774,1.774,0,0,0-.813.758c-.109.148-.212.3-.31.452q-.079.124-.152.248a1.071,1.071,0,0,0-.111.957.771.771,0,0,0,.176.332.738.738,0,0,0,.274.252.945.945,0,0,0,.751.1,2.439,2.439,0,0,0,.317-.131,1.121,1.121,0,0,0,.5-.664c.026-.081.051-.161.079-.24.049-.143.1-.282.16-.42.019-.041.036-.083.054-.122A1.436,1.436,0,0,0,132.949,414.333Z" transform="translate(-103.903 -367.64)"/><path d="M145.189,402.445a.459.459,0,0,0-.28-.231l-.054-.017a.6.6,0,0,0-.184-.026.626.626,0,0,0-.312.085c-.047.034-.094.069-.137.107-.069.058-.139.116-.208.176l-.053.043a.66.66,0,0,0-.212.492.759.759,0,0,0,.1.372.569.569,0,0,0,.184.206,1.332,1.332,0,0,0,.2.079.691.691,0,0,0,.375,0,.716.716,0,0,0,.407-.313c.024-.038.045-.077.068-.115a1.038,1.038,0,0,0,.2-.514A.714.714,0,0,0,145.189,402.445Z" transform="translate(-92.158 -377.426)"/><path d="M153.659,397.136a.821.821,0,0,0-.191-.364.54.54,0,0,0-.193-.191.785.785,0,0,0-.364-.191l-.283-.039a1.054,1.054,0,0,0-.541.146.477.477,0,0,0-.122.09.54.54,0,0,0-.191.193.807.807,0,0,0-.193.364l0,.011-.017.056-.017.056a1.05,1.05,0,0,0-.024.15.5.5,0,0,0,0,.257l.019.133.017.113a.7.7,0,0,0,.492.492c.051.021.1.041.154.06a.783.783,0,0,0,.347.036l.056-.006h.011l.285-.038a.807.807,0,0,0,.364-.193.365.365,0,0,0,.118-.094,1.194,1.194,0,0,0,.314-.757Z" transform="translate(-85.358 -382.532)"/><path d="M143.2,424.415l-.1-.227a.719.719,0,0,0-.244-.265.479.479,0,0,0-.208-.122.716.716,0,0,0-.364-.081,1.041,1.041,0,0,0-.67.276l-.156.141-.071.064a1.37,1.37,0,0,0-.223.267c-.077.105-.15.216-.223.325s-.148.218-.22.329a1.073,1.073,0,0,0,.225,1.368.927.927,0,0,0,.584.186.829.829,0,0,0,.3-.036c.086-.036.175-.071.261-.111a1.02,1.02,0,0,0,.364-.362c.079-.105.158-.212.238-.317s.165-.206.238-.317a1.212,1.212,0,0,0,.083-.18l.088-.208a.7.7,0,0,0,.113-.353A.711.711,0,0,0,143.2,424.415Z" transform="translate(-94.945 -358.527)"/><g transform="translate(47.924 71.662)"><path d="M143.865,427.825c-.011-.036-.021-.073-.03-.111l.026.186a.95.95,0,0,0-.077-.285.545.545,0,0,0-.212-.285.95.95,0,0,0-.353-.128c-.084-.013-.169-.024-.253-.036a.962.962,0,0,0-.477.13.836.836,0,0,0-.223.184c-.071.088-.139.176-.206.268a2.066,2.066,0,0,0-.133.2.705.705,0,0,0-.113.353.717.717,0,0,0,.017.377A.7.7,0,0,0,142,429a.719.719,0,0,0,.265.244.973.973,0,0,0,.73.1,1.007,1.007,0,0,0,.565-.435,2.255,2.255,0,0,1,.163-.24l-.148.192c.068-.088.146-.173.206-.268A.942.942,0,0,0,143.865,427.825Z" transform="translate(-141.796 -427.166)"/><path d="M142.844,427.366c.017.021.009.051.021.073s.021.021.026.036Z" transform="translate(-140.876 -426.991)"/><path d="M142.875,427.432l-.006-.008.021.051Z" transform="translate(-140.854 -426.94)"/></g><path d="M146.863,424.76a1.121,1.121,0,0,0-.544-.952,1.109,1.109,0,0,0-1.111,0c-.03.019-.062.038-.1.056a1.268,1.268,0,0,0-.5.469,2.373,2.373,0,0,0-.191.5l-.041.3.041.3.115.272a.882.882,0,0,0,.295.321.6.6,0,0,0,.252.146.579.579,0,0,0,.289.077.557.557,0,0,0,.3,0,.828.828,0,0,0,.424-.135c.114-.073.218-.163.325-.248a1.033,1.033,0,0,0,.182-.2.906.906,0,0,0,.216-.411,1.571,1.571,0,0,0,.043-.338l0-.049C146.865,424.839,146.865,424.8,146.863,424.76Z" transform="translate(-91.606 -358.579)"/><path d="M148.062,427.831l-.109-.257a.8.8,0,0,0-.276-.3.543.543,0,0,0-.237-.139.824.824,0,0,0-.413-.092.375.375,0,0,0-.079.008,2.967,2.967,0,0,0-.39.053,1.315,1.315,0,0,0-.557.327,3.144,3.144,0,0,0-.216.282l-.071.1-.069.094-.036.049a.94.94,0,0,0-.154.466.876.876,0,0,0,.028.5l.013.03.013.032c.036.086.073.175.109.259a1.171,1.171,0,0,0,.644.492l.024.006.024.006a1.628,1.628,0,0,0,.33.045l.321-.043a.906.906,0,0,0,.411-.216,1.233,1.233,0,0,0,.137-.107l.041-.043.083-.088.081-.086a1.277,1.277,0,0,0,.4-.914A2.246,2.246,0,0,0,148.062,427.831Z" transform="translate(-90.682 -355.613)"/><path d="M145.961,432.581l0-.242a.222.222,0,0,0-.33-.191l-.21.12c-.071.041-.148.068-.22.1-.191.1-.252.325-.325.511a.865.865,0,0,0-.1.359.463.463,0,0,0,.223.39.468.468,0,0,0,.458,0,.869.869,0,0,0,.252-.265c.124-.16.293-.327.28-.543C145.978,432.742,145.961,432.662,145.961,432.581Z" transform="translate(-91.262 -351.16)"/><path d="M150.48,427.448c-.034-.083-.068-.165-.1-.246a1.009,1.009,0,0,0-.359-.358,1.145,1.145,0,0,0-.124-.053.538.538,0,0,0-.257-.069.777.777,0,0,0-.4.019l-.242.1-.054.036c-.036.023-.068.045-.1.069-.1.077-.207.154-.3.238l-.024.023-.015.013-.173.221-.111.263a1.48,1.48,0,0,0-.021.16.539.539,0,0,0,0,.289.8.8,0,0,0,.13.407l.032.051a2.272,2.272,0,0,0,.156.2.678.678,0,0,0,.308.2.448.448,0,0,0,.238.066l.131.017.015,0a.736.736,0,0,0,.355-.034c.086-.036.173-.073.261-.109l.009-.008a.829.829,0,0,0,.308-.283.544.544,0,0,0,.137-.233l-.024.058a1.5,1.5,0,0,1,.084-.175c.015-.026.03-.053.047-.079A1.022,1.022,0,0,0,150.48,427.448Z" transform="translate(-88.282 -355.91)"/></g></svg>