<svg xmlns="http://www.w3.org/2000/svg" width="327.947" height="355.176" viewBox="0 0 327.947 355.176"><defs><style>.a{fill:#c7d688;}.b{fill:#acbd65;}.c,.d{fill:#444d26;}.d{font-size:34px;font-family:SegoeUI, Segoe UI;}.e,.f{stroke:none;}.f{fill:#fcfcfc;}</style></defs><path class="a" d="M548.216,143.7c-9.282-23.111-26.223-43.492-48.721-54.7-13.279-6.615-27.768-9.939-42.362-12.094-3.75-.556-7.51-1.047-11.274-1.517-3.533-.441-7.82-1.609-11.33-.621-7.332,2.057-5.98,9.706-8.368,15.281-4.986,11.636-18.474,16.256-30.189,16.462-7.544.133-14.958-1.074-22.365-2.358-7.12-1.235-14.228-1.485-19.829,3.807a25.161,25.161,0,0,0-2.431,2.72,24.855,24.855,0,0,1-11.086,3.968c-6.821.631-13.962-3.016-20,1.6-5.117,3.91-7.754,10.557-10.2,16.3a135.955,135.955,0,0,0-7.026,21.035,158.651,158.651,0,0,0,2.9,85.261c8.327,26.153,23.308,50.745,43.355,69.576a74.516,74.516,0,0,0,17.6,12.612,95.343,95.343,0,0,0,20.751,7.274c14.932,3.51,30.7,5.477,46.037,4.278,27.428-2.145,51.225-16.026,70.445-35.154A213.433,213.433,0,0,0,529.9,265.881,155.848,155.848,0,0,0,549.6,226.3C558.174,199.674,558.724,169.863,548.216,143.7Z" transform="translate(-264.513 -3.356)"/><path class="b" d="M491.384,263.679c-35.188,12.989-76.183,8.71-107.371-11.788a168.784,168.784,0,0,1-40.451-37.134C331.241,198.847,325.5,182.443,321.655,163c-3.292-16.672-7.131-32.862-4.6-49.99.708-4.8,1.406-11.1,3.322-16.372-.038.028-.075.049-.113.077-5.117,3.91-7.754,10.557-10.2,16.3a135.954,135.954,0,0,0-7.026,21.035,158.651,158.651,0,0,0,2.9,85.261c8.327,26.153,23.308,50.745,43.355,69.576A74.515,74.515,0,0,0,366.9,301.5a95.341,95.341,0,0,0,20.751,7.274c14.932,3.51,30.7,5.477,46.037,4.278,27.428-2.146,51.225-16.026,70.445-35.154A213.431,213.431,0,0,0,529.9,246.356c1.5-2.217,2.94-4.475,4.342-6.754A161.153,161.153,0,0,1,491.384,263.679Z" transform="translate(-264.513 16.169)"/><path d="M357.783,79.211a29.758,29.758,0,0,0-8.5-16.312c-5.252-5.089-12.9-8.452-20.248-6.7-24.486,5.849-28.068,45.831-7.756,58.111,6.573,3.976,14.459,4.3,20.839-.2a38.433,38.433,0,0,0,12.653-14.881A34.052,34.052,0,0,0,357.783,79.211Zm-16.877,8.467c-.39,7.159-11.392,12.353-16.721,6.206-5.451-6.292,2.97-22.8,11.493-17.981.415.235.8.507,1.207.756l.092.053c.028.03.051.054.086.088.464.46.918.922,1.37,1.391a5.459,5.459,0,0,1,.4.494c.268.417.5.852.728,1.291-.105-.175.355.845.409,1.01q.256.805.439,1.627A18.743,18.743,0,0,1,340.906,87.678Z" transform="translate(-256.159 -19.712)"/><g transform="translate(-280.422 -20.933)"><path class="e" d="M 439.9554748535156 374.6084594726563 C 439.9548645019531 374.6084594726563 439.9554138183594 374.6084594726563 439.9548034667969 374.6084594726563 C 430.2684936523438 374.6083984375 420.4622192382813 373.7471313476563 410.8083190917969 372.0484924316406 C 396.6972961425781 369.5659484863281 382.9677124023438 365.1296997070313 370.0008850097656 358.8630065917969 C 356.9342956542969 352.5480651855469 344.9522094726563 344.5222778320313 334.3873596191406 335.0084838867188 C 324.429443359375 326.0420837402344 315.5662536621094 315.6869812011719 308.0440063476563 304.2308959960938 C 300.6076354980469 292.9057006835938 294.5875549316406 280.6688537597656 290.1510009765625 267.8602905273438 C 285.6206970214844 254.7832794189453 282.9307556152344 240.9889068603516 282.1559143066406 226.8603210449219 C 281.392822265625 212.9471588134766 282.4959411621094 198.9238739013672 285.4345397949219 185.1799926757813 C 288.3454895019531 171.5634918212891 293.153076171875 158.2106628417969 299.7237548828125 145.4923706054688 C 302.8017578125 139.5318603515625 306.3898620605469 133.6676635742188 310.3885498046875 128.0624084472656 C 312.5162353515625 125.0814895629883 314.8110961914063 122.0855331420898 317.2091674804688 119.1581192016602 C 319.2408752441406 116.6790771484375 321.7681274414063 114.4964065551758 324.212158203125 112.3855743408203 L 324.5811767578125 112.0668258666992 C 325.359619140625 111.3937835693359 326.236083984375 111.0380783081055 327.1159057617188 111.0380783081055 C 327.8360900878906 111.0380783081055 328.5210876464844 111.2771606445313 329.1518859863281 111.7486572265625 C 330.32421875 112.6245727539063 331.003662109375 114.7256622314453 330.0894470214844 116.0213241577148 C 329.2858581542969 117.162239074707 328.5059509277344 118.3489074707031 327.751708984375 119.4965362548828 C 326.6969909667969 121.1012878417969 325.6064147949219 122.7607040405273 324.4754943847656 124.2520751953125 C 322.6012878417969 126.7249069213867 320.7601623535156 129.3232879638672 319.0030517578125 131.9752502441406 C 311.658447265625 143.0703277587891 305.7901306152344 154.9941253662109 301.5606689453125 167.4160003662109 C 297.2203369140625 180.1623229980469 294.5856323242188 193.1337890625 293.7297058105469 205.9700317382813 C 293.2742614746094 212.7903289794922 293.2819519042969 219.6777496337891 293.7525939941406 226.4407806396484 C 293.8688659667969 228.1359100341797 294.0202026367188 229.8681640625 294.215087890625 231.7350311279297 C 294.3014526367188 232.5377502441406 294.3958435058594 233.3312072753906 294.4767761230469 234.0021209716797 L 294.4773254394531 234.0063629150391 L 294.4778747558594 234.0106201171875 L 294.5322570800781 234.4404907226563 L 294.533203125 234.4483184814453 L 294.5343017578125 234.4562072753906 L 294.5633239746094 234.6681518554688 C 294.6169128417969 235.0595550537109 294.6558532714844 235.3433685302734 294.66845703125 235.4271392822266 C 295.1153869628906 238.4726867675781 295.6766662597656 241.5854644775391 296.3366088867188 244.678955078125 C 297.6947631835938 251.0479888916016 299.4679870605469 257.3569641113281 301.6070251464844 263.430419921875 C 302.1629028320313 265.0114135742188 302.7542114257813 266.6073608398438 303.3642883300781 268.1731567382813 C 303.6240844726563 268.8415832519531 303.8935241699219 269.51806640625 304.1647033691406 270.1827697753906 C 304.1973876953125 270.2641906738281 304.2302551269531 270.3454895019531 304.2632751464844 270.4267272949219 C 304.2824096679688 270.4944152832031 304.306640625 270.5639953613281 304.336669921875 270.6352844238281 C 304.3482360839844 270.6627502441406 304.3663330078125 270.7053527832031 304.3923645019531 270.7662353515625 C 304.4417114257813 270.8815307617188 304.5210266113281 271.0659790039063 304.6407165527344 271.3430480957031 C 305.9144287109375 274.2847900390625 307.24853515625 277.1436462402344 308.6066589355469 279.8414611816406 C 311.5133361816406 285.611572265625 314.8212890625 291.2729797363281 318.4387512207031 296.6688537597656 C 320.1151733398438 299.1724853515625 321.9005126953125 301.67236328125 323.8963317871094 304.3106079101563 C 323.9301147460938 304.3554992675781 323.956787109375 304.3913269042969 323.9804077148438 304.4231567382813 C 324.0174255371094 304.4729614257813 324.0484619140625 304.5146179199219 324.0882568359375 304.5664978027344 L 324.1005249023438 304.5824584960938 L 324.1132202148438 304.5981140136719 C 324.1487121582031 304.6419067382813 324.1634521484375 304.6594848632813 324.2116088867188 304.7165832519531 L 324.2150573730469 304.7206726074219 C 324.3238830566406 304.8550415039063 324.4313354492188 304.9925842285156 324.544921875 305.1379089355469 C 324.6490783691406 305.2712097167969 324.7568359375 305.4090881347656 324.8677062988281 305.5469360351563 L 324.8627624511719 305.540771484375 C 325.256591796875 306.0358581542969 325.6887512207031 306.5709533691406 326.2228393554688 307.2247314453125 C 327.199951171875 308.4168395996094 328.2189636230469 309.6220397949219 329.2530822753906 310.8088684082031 C 333.5225830078125 315.7096557617188 338.1295471191406 320.3714599609375 342.9459228515625 324.6646118164063 C 345.3927001953125 326.8454895019531 347.9004211425781 328.9542541503906 350.3994140625 330.9322509765625 L 350.3952331542969 330.9289245605469 C 350.6271362304688 331.11376953125 350.8793640136719 331.3119506835938 351.1890869140625 331.5525817871094 L 351.2108764648438 331.5694885253906 L 351.2332763671875 331.5856323242188 L 351.3212890625 331.6489562988281 C 351.6251525878906 331.8699340820313 351.9354553222656 332.10400390625 352.235595703125 332.3303527832031 C 352.4948425292969 332.5259094238281 352.7629089355469 332.7281494140625 353.0321960449219 332.9261169433594 C 354.2647399902344 333.83251953125 355.5520324707031 334.7479553222656 356.8582763671875 335.6469116210938 C 362.4773864746094 339.5026245117188 368.4223022460938 342.9967041015625 374.529541015625 346.0332336425781 C 376.1342468261719 346.8318786621094 377.7955322265625 347.6204223632813 379.4668273925781 348.3767395019531 C 380.2317199707031 348.7235412597656 380.9775695800781 349.0508728027344 381.606201171875 349.3253173828125 L 381.6002807617188 349.3226928710938 L 381.7208862304688 349.3759460449219 C 381.8581237792969 349.4364929199219 381.9407958984375 349.4728393554688 382.0001220703125 349.5003967285156 L 382.0536499023438 349.5252990722656 L 382.1090087890625 349.5458679199219 C 382.1617431640625 349.5655212402344 382.2657165527344 349.6074829101563 382.4379577636719 349.6769409179688 L 382.514404296875 349.7077941894531 C 385.9835510253906 351.1131591796875 389.2142333984375 352.3079528808594 392.3889465332031 353.3595886230469 C 399.0094909667969 355.5526123046875 405.8739013671875 357.3208618164063 412.7915344238281 358.615234375 C 414.5515747070313 358.9448547363281 416.3656921386719 359.2515869140625 418.1831970214844 359.5267333984375 L 418.1861572265625 359.5271911621094 L 418.1891784667969 359.5276489257813 C 418.314453125 359.5461120605469 418.6415100097656 359.5930480957031 418.9790954589844 359.6414794921875 C 419.2948303222656 359.6867980957031 419.619873046875 359.7333984375 419.7943420410156 359.7588195800781 L 419.8125 359.7615051269531 L 419.8307189941406 359.7637023925781 C 420.1023864746094 359.7965393066406 420.607421875 359.8583679199219 420.9782104492188 359.9037475585938 L 421.3817138671875 359.953125 L 421.3862609863281 359.9536743164063 L 421.3907775878906 359.9541931152344 C 424.8916625976563 360.3589782714844 428.4264221191406 360.6497497558594 431.8967895507813 360.8183288574219 C 434.4479064941406 360.9429626464844 437.0327453613281 361.0061645507813 439.5791625976563 361.0061645507813 C 444.0446166992188 361.006103515625 448.5474853515625 360.8121643066406 452.9627380371094 360.4296569824219 C 454.9027099609375 360.2616271972656 456.7948608398438 360.0494079589844 458.3899536132813 359.8639831542969 L 458.3929443359375 359.8636474609375 L 458.39599609375 359.86328125 C 458.6077575683594 359.8377990722656 458.7502136230469 359.8213806152344 458.8443298339844 359.8116149902344 L 458.87353515625 359.8086242675781 L 458.9026184082031 359.804443359375 C 458.9419860839844 359.798828125 458.9835815429688 359.7925415039063 459.0310363769531 359.785400390625 C 459.0946350097656 359.7758178710938 459.1702575683594 359.764404296875 459.2695007324219 359.7503967285156 L 459.27392578125 359.7497863769531 L 459.2783203125 359.7491149902344 L 459.3512878417969 359.7383728027344 C 460.0830688476563 359.6304931640625 460.8397827148438 359.5189514160156 461.5850830078125 359.4014892578125 C 465.0673828125 358.8477478027344 468.5472412109375 358.1689453125 471.9300842285156 357.3837280273438 C 478.9320373535156 355.7640380859375 485.953369140625 353.5809936523438 492.7979431152344 350.8955688476563 C 493.73828125 350.5271606445313 494.6636657714844 350.1537780761719 495.5477600097656 349.7861328125 L 495.6166687011719 349.7574157714844 L 495.6257934570313 349.7535705566406 L 495.6348266601563 349.7496643066406 C 496.16455078125 349.5205688476563 496.7009582519531 349.2857971191406 497.2291564941406 349.0518798828125 C 498.754150390625 348.3762512207031 500.3521118164063 347.63623046875 501.9788208007813 346.852294921875 C 505.4592895507813 345.1736145019531 508.9626159667969 343.3289489746094 512.3919677734375 341.3692932128906 C 518.0585327148438 338.1288146972656 523.597900390625 334.5096740722656 528.8565673828125 330.6120300292969 C 529.3308715820313 330.2615661621094 529.80712890625 329.9012756347656 530.2676391601563 329.5528259277344 C 530.4288330078125 329.4308776855469 530.5900268554688 329.3088989257813 530.7513427734375 329.187255859375 L 530.7662353515625 329.1759948730469 L 530.78076171875 329.1643981933594 C 530.93896484375 329.0387878417969 531.0975952148438 328.9141235351563 531.2562866210938 328.7893981933594 C 531.4176635742188 328.6626281738281 531.5790405273438 328.5357971191406 531.7399291992188 328.4080200195313 C 532.891357421875 327.4918823242188 534.0219116210938 326.5684204101563 535.1014404296875 325.662353515625 C 537.5670776367188 323.5988159179688 540.0238647460938 321.4191589355469 542.4019775390625 319.1852416992188 C 547.1267700195313 314.7470703125 551.6513061523438 309.98681640625 555.8499755859375 305.0367431640625 C 556.8507690429688 303.8563537597656 557.8570556640625 302.6365661621094 558.84130859375 301.4109802246094 C 558.9042358398438 301.3323669433594 559.107421875 301.0762329101563 559.3312377929688 300.7940063476563 C 559.572509765625 300.4898376464844 559.838134765625 300.1549377441406 559.9727783203125 299.9861145019531 L 559.9759521484375 299.9820861816406 L 559.9791870117188 299.9779968261719 L 560.032470703125 299.9101867675781 C 560.1099853515625 299.8117370605469 560.1749877929688 299.7286987304688 560.1954956054688 299.7015075683594 C 560.3352661132813 299.5155029296875 560.47509765625 299.331298828125 560.6146850585938 299.1473693847656 C 560.6907958984375 299.0470886230469 560.766845703125 298.9468994140625 560.8426513671875 298.8467407226563 C 562.7988891601563 296.2441711425781 564.6966552734375 293.5659790039063 566.486328125 290.882568359375 C 570.0965576171875 285.467041015625 573.416259765625 279.8114624023438 576.353271484375 274.0726928710938 C 577.7775268554688 271.2901306152344 579.1362915039063 268.4393615722656 580.3917236328125 265.5996704101563 C 580.4879150390625 265.38232421875 580.6826782226563 264.9246215820313 580.8545532226563 264.5207824707031 C 580.9008178710938 264.4120178222656 580.9514770507813 264.2929077148438 580.9979248046875 264.1840515136719 L 581.0101928710938 264.1890869140625 C 581.0894775390625 263.9951477050781 581.1690063476563 263.8014526367188 581.24853515625 263.6078186035156 C 581.4223022460938 263.1847534179688 581.6019287109375 262.7472839355469 581.7766723632813 262.3119201660156 C 582.3530883789063 260.8734130859375 582.9191284179688 259.3997802734375 583.459228515625 257.9313354492188 C 585.7091064453125 251.8123321533203 587.5911865234375 245.5301971435547 589.05322265625 239.25927734375 C 589.78173828125 236.1340789794922 590.4202270507813 232.9439544677734 590.9508056640625 229.7774963378906 C 591.1175537109375 228.7803192138672 591.2763061523438 227.7716522216797 591.4227905273438 226.7789154052734 L 591.4232788085938 226.7755279541016 L 591.4237670898438 226.7721557617188 C 591.45947265625 226.5219879150391 591.4951782226563 226.2717895507813 591.5309448242188 226.0197448730469 L 591.5335693359375 226.0009918212891 L 591.5357666015625 225.9821624755859 C 591.572265625 225.6682891845703 591.609130859375 225.3543701171875 591.64599609375 225.0404510498047 C 591.7955932617188 223.7668304443359 591.9503173828125 222.4498748779297 592.0740966796875 221.1435394287109 C 592.7145385742188 214.388916015625 592.919189453125 207.5062866210938 592.6824340820313 200.6868743896484 C 592.5697631835938 197.4318695068359 592.35302734375 194.1208190917969 592.0382690429688 190.8458709716797 C 591.87939453125 189.194580078125 591.6803588867188 187.5479125976563 591.50634765625 186.1340789794922 L 591.5049438476563 186.1226959228516 L 591.5033569335938 186.1113739013672 C 591.4931030273438 186.0371246337891 591.4764404296875 185.9147033691406 591.4564208984375 185.7682037353516 C 591.397705078125 185.3373718261719 591.3172607421875 184.7473602294922 591.2757568359375 184.4708251953125 C 591.1484985351563 183.6304931640625 591.0319213867188 182.8943328857422 590.9190673828125 182.2185363769531 C 589.8300170898438 175.6240386962891 588.3159790039063 169.0394439697266 586.41943359375 162.6504058837891 C 585.4577026367188 159.4022369384766 584.37451171875 156.1353302001953 583.2000732421875 152.94140625 C 582.5918579101563 151.2884521484375 581.9479370117188 149.6244506835938 581.2861938476563 147.9954071044922 C 581.2060546875 147.7989044189453 581.1261596679688 147.6051940917969 581.04638671875 147.4117431640625 C 580.9879150390625 147.2699584960938 580.9295043945313 147.1283264160156 580.8714599609375 146.9867401123047 L 580.8523559570313 146.9398193359375 L 580.8460083007813 146.9241638183594 L 580.8392333984375 146.9086151123047 C 580.5908203125 146.3352355957031 580.2622680664063 145.5807800292969 579.9237670898438 144.8295745849609 C 577.1328735351563 138.6022796630859 573.9119262695313 132.5317840576172 570.351806640625 126.7894058227539 C 568.6318969726563 124.0152816772461 566.7945556640625 121.2598648071289 564.8908081054688 118.5997848510742 C 564.2613525390625 117.7234115600586 563.67626953125 116.9239959716797 563.1007080078125 116.1535797119141 L 563.0987548828125 116.1509475708008 L 563.0968017578125 116.148323059082 C 562.9940185546875 116.0119934082031 562.8289184570313 115.7973709106445 562.6693115234375 115.5897827148438 C 562.5449829101563 115.4281616210938 562.4258422851563 115.2732849121094 562.3507080078125 115.1742401123047 L 562.3416137695313 115.1622848510742 L 562.332275390625 115.1504516601563 C 561.4987182617188 114.0962829589844 560.5107421875 112.8564910888672 559.5028686523438 111.6540756225586 C 555.04052734375 106.3261184692383 550.2081298828125 101.3400344848633 545.1404418945313 96.83473968505859 C 543.7743530273438 95.62111663818359 542.376220703125 94.42870330810547 540.9845581054688 93.29024505615234 C 540.4266357421875 92.833740234375 539.8577270507813 92.38199615478516 539.3074951171875 91.94507598876953 L 538.9711303710938 91.67786407470703 L 538.9545288085938 91.66465759277344 L 538.9375610351563 91.65195465087891 C 538.8054809570313 91.55290985107422 538.6734008789063 91.453369140625 538.5413208007813 91.35382843017578 C 538.4030151367188 91.24965667724609 538.2647705078125 91.14549255371094 538.1265258789063 91.04178619384766 C 535.2852172851563 88.92424011230469 532.3614501953125 86.93144989013672 529.43310546875 85.11620330810547 C 526.4459838867188 83.26395416259766 523.3609619140625 81.53720092773438 520.2639770507813 79.98403167724609 C 518.6463623046875 79.17337036132813 516.9871826171875 78.39178466796875 515.3322143554688 77.66082763671875 L 515.3280029296875 77.65895080566406 L 515.32373046875 77.65711975097656 L 514.636962890625 77.35874176025391 L 514.5997924804688 77.34262084960938 L 514.5618286132813 77.3284912109375 L 514.4850463867188 77.29995727539063 C 514.1303100585938 77.16556549072266 513.7811279296875 77.02535247802734 513.4114990234375 76.87699127197266 C 513.0648193359375 76.73782348632813 512.7063598632813 76.59391021728516 512.3453979492188 76.45632934570313 C 508.8511352539063 75.12224578857422 505.2787475585938 73.97678375244141 501.7282104492188 73.05199432373047 C 499.8378601074219 72.55812072753906 497.9018859863281 72.11370086669922 495.9751586914063 71.73140716552734 C 495.1363220214844 71.56520080566406 494.2990417480469 71.41007232666016 493.4861145019531 71.27020263671875 C 493.1300048828125 71.20903778076172 492.7720947265625 71.15145111083984 492.4259033203125 71.09578704833984 C 492.22900390625 71.06411743164063 492.0318603515625 71.03240966796875 491.8345031738281 70.99995422363281 L 491.819091796875 70.99740600585938 L 491.8036193847656 70.99520111083984 C 491.7733459472656 70.99066162109375 491.6227416992188 70.96678161621094 491.4630432128906 70.94149017333984 L 491.4201965332031 70.93470001220703 L 491.3955688476563 70.93082427978516 L 491.3708801269531 70.92774200439453 C 491.2389526367188 70.91132354736328 491.0481567382813 70.88657379150391 490.8687438964844 70.86328125 C 490.5595092773438 70.82315826416016 490.4233093261719 70.80565643310547 490.3529052734375 70.79800415039063 C 489.9697265625 70.75274658203125 489.5612487792969 70.70751953125 489.1043701171875 70.65969848632813 C 488.1653442382813 70.56291198730469 487.1759643554688 70.47695159912109 486.1614685058594 70.40395355224609 C 484.3173217773438 70.27066040039063 482.4764709472656 70.18982696533203 480.6904602050781 70.16370391845703 C 480.2259521484375 70.15690612792969 479.7554931640625 70.15345001220703 479.2921752929688 70.15345001220703 C 476.0928039550781 70.15345001220703 472.8882751464844 70.31740570068359 469.7676696777344 70.64082336425781 L 470.0643615722656 73.62607574462891 L 469.92333984375 73.63274383544922 L 468.4261169433594 72.22378540039063 L 469.7357177734375 70.64457702636719 C 469.6642456054688 70.65328216552734 468.7348327636719 70.75986480712891 468.3556213378906 70.80120086669922 L 468.3381958007813 70.80311584472656 L 468.32080078125 70.80541229248047 C 468.1785278320313 70.82428741455078 468.0374145507813 70.84420013427734 467.9628295898438 70.85474395751953 L 467.9225769042969 70.86041259765625 L 467.9069213867188 70.86257934570313 L 467.8890380859375 70.86532592773438 C 467.0846252441406 70.99291229248047 466.2527770996094 71.12482452392578 465.4107971191406 71.27849578857422 C 463.6600952148438 71.59391021728516 461.862548828125 71.97899627685547 460.0712890625 72.42245483398438 C 455.6177368164063 73.52886962890625 452.27392578125 74.55895233154297 449.2279052734375 75.76278686523438 C 448.6542053222656 75.98949432373047 448.0527954101563 76.1044921875 447.4404296875 76.1044921875 C 446.0791931152344 76.1044921875 444.6310424804688 75.53044891357422 443.3627624511719 74.4881591796875 C 442.140869140625 73.48403167724609 441.1862487792969 72.12336730957031 440.7436218261719 70.75515747070313 C 440.0301208496094 68.55032348632813 440.726318359375 66.75645446777344 441.43603515625 65.63978576660156 C 442.3863830566406 64.14444732666016 443.9797058105469 62.87203598022461 445.8074645996094 62.14874267578125 L 445.8042907714844 62.14077377319336 C 446.3629455566406 61.91455459594727 447.2337036132813 61.56402206420898 447.3440246582031 61.52020263671875 L 446.6348266601563 61.61645126342773 L 446.2186279296875 61.2154655456543 C 446.1626586914063 61.53556060791016 446.00439453125 61.83026885986328 445.7688598632813 62.05121994018555 L 444.741455078125 59.45578384399414 L 445.4720764160156 60.05218505859375 L 446.2192077636719 58.73920059204102 L 447.3553771972656 61.51570129394531 C 447.8637390136719 61.31007766723633 448.3794250488281 61.11628341674805 448.8639831542969 60.93545150756836 C 449.6262512207031 60.65119934082031 450.3984985351563 60.37665939331055 451.1589050292969 60.11953353881836 C 452.9139709472656 59.52549362182617 454.73974609375 58.99878311157227 456.5859680175781 58.55382537841797 C 459.9921569824219 57.72845077514648 463.7648620605469 57.07870101928711 468.4606323242188 56.50857543945313 C 472.1240539550781 56.0649528503418 475.8694152832031 55.83999252319336 479.5921325683594 55.83999252319336 C 492.659423828125 55.83999252319336 505.8785705566406 58.54520034790039 518.8823852539063 63.88053512573242 C 525.0206909179688 66.39899444580078 531.093017578125 69.50853729248047 536.9308471679688 73.12270355224609 C 542.6273193359375 76.64945220947266 548.1473999023438 80.68515777587891 553.3377685546875 85.11782836914063 C 563.9961547851563 94.22048950195313 573.4124145507813 105.1212463378906 581.3250122070313 117.517204284668 C 588.969970703125 129.4940338134766 595.0424194335938 142.5885772705078 599.37353515625 156.4371185302734 C 603.6156005859375 169.9988250732422 606.084228515625 184.1508636474609 606.7107543945313 198.500244140625 C 607.337890625 212.86474609375 606.1079711914063 227.1759033203125 603.05517578125 241.0362396240234 C 600.1708984375 254.1324157714844 595.5182495117188 267.0799560546875 589.2265625 279.5193176269531 C 583.1397094726563 291.5535278320313 575.5521850585938 303.0542297363281 566.6746826171875 313.7019653320313 C 557.60302734375 324.5834045410156 547.1061401367188 334.3738708496094 535.4756469726563 342.8013610839844 C 523.9666137695313 351.140869140625 511.4096374511719 358.1023254394531 498.1535034179688 363.4923400878906 C 489.0579528808594 367.1900329589844 479.4432983398438 370.0084533691406 469.57666015625 371.8693237304688 C 459.9398803710938 373.6867980957031 449.9731140136719 374.6084594726563 439.9554748535156 374.6084594726563 Z M 579.7964477539063 264.6847534179688 L 578.5615234375 264.0361328125 C 578.3440551757813 263.720703125 578.2803344726563 263.3782653808594 578.2999877929688 263.0824890136719 L 580.936279296875 264.1589050292969 C 580.6831665039063 264.4519958496094 580.286376953125 264.6847534179688 579.7964477539063 264.6847534179688 Z"/><path class="f" d="M 479.5898132324219 57.33999633789063 C 475.928466796875 57.33999633789063 472.2445983886719 57.56130981445313 468.641357421875 57.99765014648438 C 464.0056762695313 58.56039428710938 460.2878112792969 59.20022583007813 456.9374084472656 60.01205444335938 C 455.1351928710938 60.44635009765625 453.3529968261719 60.96051025390625 451.639404296875 61.54049682617188 C 450.892578125 61.79306030273438 450.1350402832031 62.0623779296875 449.3883666992188 62.34085083007813 C 448.918701171875 62.51611328125 448.419677734375 62.70358276367188 447.9322814941406 62.900390625 L 447.927001953125 62.902587890625 L 447.9070434570313 62.91055297851563 L 447.5479125976563 62.01739501953125 C 447.5496520996094 62.01278686523438 447.5513305664063 62.00820922851563 447.5530700683594 62.00357055664063 L 446.9488220214844 60.5093994140625 L 446.9424133300781 60.51068115234375 L 446.9870300292969 60.62255859375 L 446.9420776367188 60.5107421875 L 446.7934875488281 60.540771484375 L 446.7934875488281 63.1248779296875 L 446.7898254394531 60.54150390625 L 445.291259765625 60.84423828125 L 446.3408203125 63.49652099609375 C 446.8991394042969 63.14859008789063 447.3175048828125 62.62545776367188 447.545654296875 62.02328491210938 L 447.9005432128906 62.91314697265625 C 447.8002319335938 62.95315551757813 446.9109497070313 63.31100463867188 446.3562622070313 63.53558349609375 L 446.3594055175781 63.54348754882813 C 444.8193969726563 64.15292358398438 443.486328125 65.21023559570313 442.7019958496094 66.44436645507813 C 441.9207763671875 67.67355346679688 441.7420349121094 68.96844482421875 442.1708068847656 70.29345703125 C 442.5274658203125 71.39590454101563 443.3090515136719 72.50244140625 444.3151245117188 73.32928466796875 C 445.3157348632813 74.15158081054688 446.4256896972656 74.60446166992188 447.4404602050781 74.60446166992188 C 447.8692321777344 74.60446166992188 448.2735900878906 74.52700805664063 448.6765747070313 74.36776733398438 C 451.7867126464844 73.13858032226563 455.1890869140625 72.0897216796875 459.7109069824219 70.96630859375 C 461.5318298339844 70.51559448242188 463.3587646484375 70.12420654296875 465.1414489746094 69.8028564453125 C 466.0008239746094 69.64605712890625 466.8412780761719 69.51278686523438 467.6540832519531 69.38385009765625 L 467.6896362304688 69.37823486328125 L 467.7211608886719 69.37396240234375 L 467.7559509277344 69.36907958984375 C 467.8339538574219 69.3580322265625 467.9781799316406 69.33773803710938 468.1235046386719 69.31842041015625 L 468.1582641601563 69.31381225585938 L 468.1930847167969 69.31005859375 C 468.5526733398438 69.27081298828125 469.4624938964844 69.16659545898438 469.5555419921875 69.1553955078125 C 467.9877319335938 69.34414672851563 466.8338928222656 70.73077392578125 466.9287109375 72.31231689453125 L 469.8825988769531 72.13516235351563 L 469.613037109375 69.1488037109375 C 472.7847595214844 68.82009887695313 476.0410461425781 68.6534423828125 479.2914428710938 68.6534423828125 C 479.7627563476563 68.6534423828125 480.2408752441406 68.65695190429688 480.7123718261719 68.66384887695313 C 482.5263671875 68.69039916992188 484.396240234375 68.77249145507813 486.2691040039063 68.90777587890625 C 487.2976379394531 68.98178100585938 488.3025512695313 69.06912231445313 489.2602844238281 69.16787719726563 C 489.7184753417969 69.21575927734375 490.1302490234375 69.2613525390625 490.518310546875 69.30709838867188 C 490.6028747558594 69.31640625 490.7350158691406 69.33340454101563 491.0561828613281 69.37506103515625 C 491.2342834472656 69.398193359375 491.4245300292969 69.4228515625 491.5556945800781 69.43917846679688 L 491.6053161621094 69.4453125 L 491.65478515625 69.453125 L 491.6917724609375 69.45901489257813 C 491.8377685546875 69.48214721679688 491.9770812988281 69.50421142578125 492.025390625 69.51162719726563 L 492.0459594726563 69.51455688476563 L 492.0778503417969 69.519775390625 C 492.2733764648438 69.55194091796875 492.4685974121094 69.58331298828125 492.6636657714844 69.61471557617188 C 493.0138549804688 69.67105102539063 493.3760070800781 69.72930908203125 493.7403564453125 69.79190063476563 C 494.5653991699219 69.93386840820313 495.4153137207031 70.09130859375 496.2671203613281 70.2601318359375 C 498.2232360839844 70.64828491210938 500.1885375976563 71.099365234375 502.1062622070313 71.60040283203125 C 505.7097778320313 72.5389404296875 509.3348999023438 73.70132446289063 512.879638671875 75.0546875 C 513.2525634765625 75.19686889648438 513.616943359375 75.3431396484375 513.9693603515625 75.48458862304688 C 514.3297119140625 75.62924194335938 514.67041015625 75.7659912109375 515.0093383789063 75.89450073242188 L 515.0861206054688 75.923095703125 L 515.1612548828125 75.95108032226563 L 515.2346801757813 75.98300170898438 L 515.5779418945313 76.13214111328125 L 515.9216918945313 76.28146362304688 L 515.929931640625 76.2850341796875 L 515.938232421875 76.2886962890625 C 517.615478515625 77.02951049804688 519.296875 77.821533203125 520.9364624023438 78.64321899414063 C 524.073486328125 80.21649169921875 527.1981811523438 81.96542358398438 530.2235107421875 83.84127807617188 C 533.1881103515625 85.67913818359375 536.1475830078125 87.69622802734375 539.0193481445313 89.83648681640625 L 539.0228271484375 89.83905029296875 L 539.0262451171875 89.84164428710938 C 539.1669921875 89.94708251953125 539.3076171875 90.0531005859375 539.4482421875 90.1590576171875 C 539.578125 90.25689697265625 539.7078857421875 90.354736328125 539.8377685546875 90.45208740234375 L 539.8714599609375 90.4774169921875 L 539.904541015625 90.50363159179688 L 540.2369995117188 90.767822265625 C 540.7925415039063 91.20892333984375 541.366943359375 91.66500854492188 541.934326171875 92.1292724609375 C 543.3424072265625 93.28118896484375 544.7562255859375 94.48690795898438 546.1370849609375 95.713623046875 C 551.2593994140625 100.2674865722656 556.143310546875 105.3067321777344 560.6524047851563 110.6903991699219 C 561.6734619140625 111.9085998535156 562.66943359375 113.1583557128906 563.5089111328125 114.2201843261719 L 563.527587890625 114.2436828613281 L 563.545654296875 114.267578125 C 563.61962890625 114.3650512695313 563.737060546875 114.5176696777344 563.8594970703125 114.6768188476563 C 564.020751953125 114.8865051269531 564.1874389648438 115.1033325195313 564.294189453125 115.244873046875 L 564.29833984375 115.2503051757813 L 564.3023681640625 115.2557678222656 C 564.8825073242188 116.0322265625 565.472900390625 116.8390808105469 566.1074829101563 117.7224426269531 L 566.1090087890625 117.7245788574219 L 566.110595703125 117.7267761230469 C 568.0335083007813 120.4136047363281 569.889404296875 123.1968078613281 571.6266479492188 125.9990539550781 C 575.2208251953125 131.7962646484375 578.4725952148438 137.9246215820313 581.2913208007813 144.2134094238281 C 581.6353149414063 144.9768981933594 581.9660034179688 145.7361450195313 582.2156372070313 146.3122863769531 L 582.2293090820313 146.3438720703125 L 582.2423095703125 146.3758239746094 L 582.2608642578125 146.4216613769531 C 582.3179931640625 146.5608520507813 582.3754272460938 146.7000427246094 582.432861328125 146.83935546875 C 582.513427734375 147.03466796875 582.5941162109375 147.2302856445313 582.6759643554688 147.4308776855469 C 583.343994140625 149.0753784179688 583.993896484375 150.7550048828125 584.60791015625 152.4237365722656 C 585.7933959960938 155.6477355957031 586.8869018554688 158.945556640625 587.857421875 162.2235412597656 C 589.7716064453125 168.6723327636719 591.2998046875 175.3182220458984 592.3995361328125 181.9766845703125 L 592.3994750976563 181.9766845703125 C 592.5133666992188 182.6589050292969 592.630859375 183.4008483886719 592.759033203125 184.2476806640625 C 592.8019409179688 184.5333251953125 592.8828735351563 185.1268615722656 592.9419555664063 185.5602264404297 C 592.9620361328125 185.7075500488281 592.9788208007813 185.8307342529297 592.9891357421875 185.9051361083984 L 592.9923095703125 185.9279937744141 L 592.9951171875 185.9509124755859 C 593.1702880859375 187.3746337890625 593.3707275390625 189.0332794189453 593.5313720703125 190.7024078369141 C 593.84912109375 194.0084991455078 594.06787109375 197.3503112792969 594.1815185546875 200.6348114013672 C 594.4205322265625 207.5186309814453 594.2138671875 214.4664154052734 593.5674438476563 221.2850494384766 C 593.442138671875 222.6073608398438 593.2864990234375 223.9320983886719 593.135986328125 225.2131805419922 C 593.09912109375 225.5271759033203 593.062255859375 225.8411865234375 593.0257568359375 226.1551818847656 L 593.0213623046875 226.1926879882813 L 593.01611328125 226.2300415039063 C 592.9803466796875 226.4827270507813 592.9444580078125 226.7335968017578 592.9086303710938 226.9844512939453 L 592.90771484375 226.9911346435547 L 592.90673828125 226.9978179931641 C 592.7586669921875 228.0017700195313 592.5983276367188 229.0201416015625 592.43017578125 230.0253601074219 C 591.89453125 233.2219543457031 591.2498779296875 236.4432220458984 590.5140380859375 239.5998687744141 C 589.0379638671875 245.930908203125 587.1380615234375 252.2726440429688 584.8670043945313 258.4491577148438 C 584.322265625 259.93017578125 583.7510375976563 261.4172973632813 583.1688232421875 262.8703002929688 C 582.9910888671875 263.3134155273438 582.809326171875 263.7557678222656 582.6336669921875 264.1835327148438 C 582.5545043945313 264.376220703125 582.475341796875 264.5689697265625 582.397216796875 264.7602233886719 L 582.391357421875 264.7745361328125 L 582.3499755859375 264.8757934570313 L 582.3360595703125 264.8700866699219 C 582.3023071289063 264.9493408203125 582.267578125 265.0308837890625 582.2351684570313 265.1070861816406 C 582.0526733398438 265.5359497070313 581.864013671875 265.9794311523438 581.7635498046875 266.2062377929688 C 580.496826171875 269.0714721679688 579.1258544921875 271.9480895996094 577.6884765625 274.756103515625 C 574.7252197265625 280.5462341308594 571.376220703125 286.2518310546875 567.7342529296875 291.71484375 C 565.9290771484375 294.4215393066406 564.0147705078125 297.1229553222656 562.0447387695313 299.7440185546875 L 562.041748046875 299.7479248046875 L 562.038818359375 299.7517700195313 C 561.9609375 299.8547973632813 561.8826904296875 299.9578247070313 561.804443359375 300.0609130859375 C 561.66796875 300.24072265625 561.53125 300.4208679199219 561.3953247070313 300.6016845703125 C 561.3726806640625 300.6317138671875 561.3028564453125 300.7214050292969 561.2183227539063 300.828857421875 L 561.15869140625 300.9046325683594 L 561.152099609375 300.9130859375 L 561.1453857421875 300.9215087890625 C 561.0101318359375 301.091064453125 560.742431640625 301.4286499023438 560.5006103515625 301.7335510253906 C 560.2772216796875 302.0152587890625 560.0752563476563 302.269775390625 560.0108032226563 302.3502807617188 C 559.0179443359375 303.5866088867188 558.0030517578125 304.8167114257813 556.993896484375 306.0070190429688 C 552.7588500976563 310.9999389648438 548.1949462890625 315.8015747070313 543.428955078125 320.278564453125 C 541.0300903320313 322.5319519042969 538.5516357421875 324.7308349609375 536.0657348632813 326.8113098144531 C 534.9764404296875 327.7255859375 533.8355712890625 328.6574096679688 532.672607421875 329.582763671875 C 532.5098876953125 329.7120056152344 532.3465576171875 329.8403625488281 532.183349609375 329.9686889648438 C 532.026611328125 330.0918273925781 531.869873046875 330.2149658203125 531.713623046875 330.3390502929688 L 531.6844482421875 330.3622436523438 L 531.6547241210938 330.3846435546875 C 531.4937744140625 330.506103515625 531.3330078125 330.6277465820313 531.172119140625 330.7494201660156 C 530.7083740234375 331.1002807617188 530.2288818359375 331.4630737304688 529.749755859375 331.817138671875 C 524.4439697265625 335.7495727539063 518.854736328125 339.4014587402344 513.13623046875 342.671630859375 C 509.6765747070313 344.6485595703125 506.14208984375 346.5096435546875 502.6300048828125 348.2035827636719 C 500.9897155761719 348.9940795898438 499.3771362304688 349.7408752441406 497.8364868164063 350.4234008789063 C 497.3013305664063 350.6603698730469 496.7608947753906 350.8969116210938 496.2302856445313 351.12646484375 L 496.2116394042969 351.1344909667969 L 496.1929016113281 351.142333984375 L 496.1237182617188 351.1710815429688 C 495.2286682128906 351.5433349609375 494.2935791015625 351.920654296875 493.3458251953125 352.2919006347656 C 486.4330749511719 355.0040893554688 479.3411865234375 357.208984375 472.2692260742188 358.8449096679688 C 468.8520812988281 359.6380920410156 465.3373718261719 360.3236389160156 461.8185119628906 360.8832397460938 C 461.0704956054688 361.0010986328125 460.3146667480469 361.112548828125 459.5837707519531 361.2203369140625 L 459.497314453125 361.2330932617188 L 459.4879150390625 361.2344360351563 L 459.4784851074219 361.2357788085938 C 459.3839416503906 361.2491455078125 459.3121948242188 361.2599487304688 459.2518920898438 361.26904296875 C 459.2018127441406 361.2765808105469 459.15771484375 361.2831726074219 459.1159973144531 361.2891845703125 L 459.0579528808594 361.2974853515625 L 458.9996948242188 361.3035278320313 C 458.9135437011719 361.3125 458.7785339355469 361.3280639648438 458.5748596191406 361.3525390625 L 458.5690307617188 361.353271484375 L 458.563232421875 361.3539123535156 C 456.95849609375 361.5404968261719 455.0535888671875 361.754150390625 453.0922241210938 361.9240417480469 C 448.6339111328125 362.3102722167969 444.0875549316406 362.5061340332031 439.5794067382813 362.5061340332031 C 437.0081481933594 362.5061340332031 434.3985290527344 362.4423217773438 431.8240966796875 362.3164978027344 C 428.3208618164063 362.1464233398438 424.7526245117188 361.8529052734375 421.2184448242188 361.4442138671875 L 421.2093505859375 361.4431762695313 L 421.2002258300781 361.4420471191406 L 420.8197631835938 361.3955383300781 C 420.4478149414063 361.3500061035156 419.9277648925781 361.286376953125 419.6508178710938 361.2528686523438 L 419.6143188476563 361.2484436035156 L 419.5779113769531 361.2431640625 C 419.4023132324219 361.217529296875 419.0735473632813 361.17041015625 418.7559509277344 361.1248168945313 C 418.4197387695313 361.0765991210938 418.0958251953125 361.0300903320313 417.9709167480469 361.01171875 L 417.9646911621094 361.0108032226563 L 417.95849609375 361.0098571777344 C 416.1231689453125 360.7319030761719 414.2918090820313 360.4222717285156 412.515625 360.0896301269531 C 405.5322265625 358.7829895019531 398.6019592285156 356.9977416992188 391.9172668457031 354.7835083007813 C 388.7109985351563 353.7214050292969 385.4503479003906 352.5155944824219 381.953125 351.0988159179688 L 381.8843078613281 351.071044921875 C 381.7489929199219 351.0164489746094 381.6212158203125 350.9648742675781 381.5860290527344 350.9517822265625 L 381.474853515625 350.910400390625 L 381.3673095703125 350.8603515625 C 381.3290100097656 350.842529296875 381.2340087890625 350.8006286621094 381.1136779785156 350.74755859375 L 380.9979248046875 350.6964721679688 C 380.3658752441406 350.4205322265625 379.6167907714844 350.0916748046875 378.8484191894531 349.7432861328125 C 377.1597595214844 348.9790954589844 375.481689453125 348.1825866699219 373.8617553710938 347.3764038085938 C 367.6918334960938 344.3086547851563 361.6860961914063 340.7787780761719 356.0077514648438 336.8825073242188 C 354.6875 335.9737548828125 353.3873291015625 335.0492248535156 352.1436767578125 334.1346435546875 C 351.8667602539063 333.9310302734375 351.5947265625 333.7258605957031 351.3316040039063 333.5274047851563 C 351.0250854492188 333.2962036132813 350.7354125976563 333.0777282714844 350.4439697265625 332.8656616210938 L 350.3562622070313 332.802490234375 L 350.3121337890625 332.7706909179688 L 350.2691040039063 332.7373046875 C 349.9576416015625 332.4953918457031 349.7012939453125 332.2940368652344 349.4627075195313 332.1038208007813 C 346.9429931640625 330.1092529296875 344.414794921875 327.9832458496094 341.94775390625 325.7843017578125 C 337.084228515625 321.4490356445313 332.4326171875 316.7420043945313 328.1222534179688 311.7942810058594 C 327.0774536132813 310.5952758789063 326.0486450195313 309.37841796875 325.0643310546875 308.1775512695313 L 325.062744140625 308.1755981445313 L 325.0611572265625 308.1736755371094 C 324.5238037109375 307.515869140625 324.090087890625 306.9789428710938 323.6973266601563 306.4852294921875 C 323.5812377929688 306.3408203125 323.471435546875 306.2002868652344 323.3652954101563 306.0643615722656 C 323.2584228515625 305.9276733398438 323.1572265625 305.7981567382813 323.0587768554688 305.6763305664063 C 323.007080078125 305.6150207519531 322.9896240234375 305.5940551757813 322.9494018554688 305.5445556640625 L 322.92333984375 305.5125122070313 L 322.8982543945313 305.479736328125 C 322.8531494140625 305.4210510253906 322.8180541992188 305.3739013671875 322.7760620117188 305.3174133300781 C 322.7548828125 305.2889099121094 322.7311401367188 305.2569580078125 322.7000122070313 305.215576171875 C 320.6868286132813 302.5543212890625 318.8851318359375 300.0314025878906 317.19287109375 297.504150390625 C 313.5413208007813 292.0575866699219 310.2018432617188 286.3421630859375 307.2667846679688 280.5159301757813 C 305.895751953125 277.7924499511719 304.5492553710938 274.9071655273438 303.2634887695313 271.9376220703125 C 303.1429443359375 271.6584167480469 303.06298828125 271.4725036621094 303.0132446289063 271.3563232421875 C 302.9856567382813 271.2918090820313 302.9664916992188 271.2466430664063 302.9542236328125 271.2174987792969 C 302.912109375 271.117431640625 302.8760375976563 271.0189514160156 302.845458984375 270.9220886230469 C 302.8223876953125 270.8651428222656 302.7993774414063 270.8081665039063 302.7764282226563 270.7510986328125 C 302.5022583007813 270.0787353515625 302.2294921875 269.3939208984375 301.9666137695313 268.7177124023438 C 301.350341796875 267.1359558105469 300.7531127929688 265.524169921875 300.1921997070313 263.9287109375 C 298.031982421875 257.7947998046875 296.2411499023438 251.4234619140625 294.86962890625 244.9919586181641 C 294.2034301757813 241.8694000244141 293.6365966796875 238.7263641357422 293.18505859375 235.6501007080078 C 293.1725463867188 235.5670318603516 293.144287109375 235.3618774414063 293.081787109375 234.9053192138672 L 293.0482788085938 234.6605987548828 L 293.0460815429688 234.6448211669922 L 293.0440673828125 234.6289978027344 L 292.9896850585938 234.1991424560547 L 292.9885864257813 234.1903686523438 L 292.987548828125 234.1815948486328 C 292.9057006835938 233.5030975341797 292.8104248046875 232.7014617919922 292.7241821289063 231.900634765625 L 292.7236328125 231.8956298828125 L 292.7230834960938 231.8906402587891 C 292.5264282226563 230.0052795410156 292.3735961914063 228.2557678222656 292.2561645507813 226.5448608398438 C 291.7808837890625 219.7136840820313 291.7730712890625 212.7576293945313 292.2329711914063 205.8702239990234 C 293.0975952148438 192.9035949707031 295.7581176757813 179.8029937744141 300.1406860351563 166.9324951171875 C 304.4114990234375 154.3892211914063 310.3367309570313 142.3494873046875 317.7525634765625 131.1466674804688 C 319.5265502929688 128.4693603515625 321.3861083984375 125.8449401855469 323.2802124023438 123.3456420898438 C 324.380859375 121.894287109375 325.4096069335938 120.3290100097656 326.498779296875 118.6717834472656 C 327.2593383789063 117.5145568847656 328.0457763671875 116.3179626464844 328.8638305664063 115.156494140625 C 329.2266845703125 114.6422729492188 328.8905639648438 113.4258728027344 328.2538452148438 112.9501342773438 C 327.8880615234375 112.6767272949219 327.5051879882813 112.5380859375 327.1159057617188 112.5380859375 C 326.6088256835938 112.5380859375 326.0570678710938 112.7736511230469 325.5620727539063 113.2016296386719 L 325.1921997070313 113.5211486816406 C 322.6861572265625 115.685546875 320.3190307617188 117.7299499511719 318.3695678710938 120.1086730957031 C 315.992919921875 123.0099487304688 313.7183837890625 125.9792785644531 311.609619140625 128.9335021972656 C 307.6522827148438 134.4808959960938 304.1017456054688 140.2835998535156 301.056396484375 146.180908203125 C 294.5470581054688 158.7804870605469 289.7846069335938 172.0071716308594 286.9013061523438 185.4935913085938 C 283.9905395507813 199.1075897216797 282.8978881835938 212.9977264404297 283.6536254882813 226.7781829833984 C 284.4208374023438 240.7674102783203 287.0838012695313 254.4241790771484 291.5684204101563 267.3694152832031 C 295.9644165039063 280.0609130859375 301.929443359375 292.1859130859375 309.2977905273438 303.4075927734375 C 316.7495727539063 314.7562866210938 325.5286254882813 325.0132751464844 335.3912353515625 333.8938293457031 C 345.8506469726563 343.312744140625 357.714599609375 351.2591857910156 370.653564453125 357.512451171875 C 383.495849609375 363.718994140625 397.0933227539063 368.1125793457031 411.0682373046875 370.5711669921875 C 420.6368713378906 372.2547607421875 430.3556823730469 373.1084594726563 439.9547119140625 373.1084594726563 C 449.8800354003906 373.1084594726563 459.7527770996094 372.1955871582031 469.2986450195313 370.395263671875 C 479.0673217773438 368.5529174804688 488.58544921875 365.7628784179688 497.5884399414063 362.1028137207031 C 510.7330322265625 356.7581176757813 523.1839599609375 349.8555297851563 534.595458984375 341.5867309570313 C 546.1251831054688 333.2322387695313 556.530517578125 323.5273132324219 565.5225830078125 312.7413635253906 C 574.3275146484375 302.1806640625 581.8523559570313 290.7753601074219 587.8880004882813 278.84228515625 C 594.1229248046875 266.5151977539063 598.7330322265625 253.6868591308594 601.5902099609375 240.7135925292969 C 604.6150512695313 226.9805450439453 605.8336181640625 212.7999572753906 605.212158203125 198.5656890869141 C 604.59130859375 184.3460388183594 602.145263671875 170.3226318359375 597.9419555664063 156.8848571777344 C 593.650390625 143.1629028320313 587.6342163085938 130.1892395019531 580.060546875 118.3242797851563 C 572.227783203125 106.0532836914063 562.9091796875 95.2647705078125 552.3635864257813 86.25845336914063 C 547.2310791015625 81.87527465820313 541.7730712890625 77.88485717773438 536.1412353515625 74.398193359375 C 530.3734130859375 70.82742309570313 524.3751831054688 67.75576782226563 518.31298828125 65.2685546875 C 505.4909057617188 60.00790405273438 492.4633178710938 57.34033203125 479.5906677246094 57.33999633789063 L 479.5898132324219 57.33999633789063 M 479.5921325683594 54.33999633789063 C 507.072021484375 54.34072875976563 533.4979248046875 66.20172119140625 554.3118896484375 83.9771728515625 C 576.34130859375 102.7911376953125 592.1912841796875 128.4469909667969 600.80517578125 155.9893493652344 C 609.4022216796875 183.4735412597656 610.7142333984375 213.2364959716797 604.52001953125 241.3589019775391 C 598.571533203125 268.3681640625 585.486328125 293.4815673828125 567.8267822265625 314.6625061035156 C 549.337646484375 336.8401794433594 525.4293212890625 354.0210571289063 498.7184448242188 364.8818664550781 C 480.0363464355469 372.4768676757813 460.0182495117188 376.1084594726563 439.9547119140625 376.1084594726563 C 430.1127624511719 376.1084594726563 420.2593994140625 375.2344665527344 410.5483703613281 373.5257568359375 C 382.039306640625 368.5102233886719 354.9117431640625 355.5095825195313 333.3836669921875 336.1231384277344 C 313.0604248046875 317.823486328125 297.674072265625 294.1629638671875 288.733642578125 268.3512573242188 C 279.4645385742188 241.5954132080078 278.0567626953125 212.5119476318359 283.9676513671875 184.8663635253906 C 286.94287109375 170.9497375488281 291.8607177734375 157.4441223144531 298.39111328125 144.8039245605469 C 301.553955078125 138.6789855957031 305.16357421875 132.8037414550781 309.1673583984375 127.1912841796875 C 311.3580322265625 124.1222839355469 313.6593017578125 121.1245422363281 316.048828125 118.2075805664063 C 318.265625 115.502685546875 320.9573974609375 113.2164001464844 323.6002197265625 110.9320068359375 C 324.6475830078125 110.0264892578125 325.8790283203125 109.5380859375 327.1159057617188 109.5380859375 C 328.1224975585938 109.5380859375 329.1327514648438 109.8616638183594 330.0499267578125 110.5471801757813 C 331.861328125 111.9005432128906 332.709716796875 114.9095458984375 331.3150634765625 116.8860778808594 C 329.396728515625 119.6097412109375 327.6435546875 122.5567626953125 325.670654296875 125.1583557128906 C 323.7843017578125 127.6473999023438 321.978515625 130.2001953125 320.25341796875 132.8037414550781 C 312.85400390625 143.9817199707031 307.1495361328125 155.6552734375 302.9805908203125 167.8994445800781 C 298.6182861328125 180.7104949951172 296.0654296875 193.4859161376953 295.226318359375 206.06982421875 C 294.77587890625 212.8160400390625 294.7796630859375 219.5922698974609 295.2489013671875 226.3366394042969 C 295.3690185546875 228.0860443115234 295.5247802734375 229.8336334228516 295.7069091796875 231.5793151855469 C 295.78759765625 232.3282775878906 295.8758544921875 233.0753173828125 295.9659423828125 233.8224029541016 L 296.0203857421875 234.2522735595703 C 296.059814453125 234.5394592285156 296.13671875 235.1044616699219 296.1517333984375 235.2039489746094 C 296.602294921875 238.2748565673828 297.156005859375 241.3307342529297 297.8035888671875 244.3659515380859 C 299.145751953125 250.6597747802734 300.8839111328125 256.8616943359375 303.0218505859375 262.93212890625 C 303.5755615234375 264.5070190429688 304.1556396484375 266.0724487304688 304.761962890625 267.6286010742188 C 305.02099609375 268.2949523925781 305.28564453125 268.95947265625 305.555908203125 269.6220397949219 C 305.6873168945313 269.9495239257813 305.8222045898438 270.2750854492188 305.95556640625 270.6006774902344 C 305.8794555664063 270.4154968261719 305.7053833007813 270.0155639648438 305.7036743164063 270.0155639648438 C 305.7025756835938 270.0155944824219 305.7796630859375 270.1971435546875 306.0177001953125 270.748291015625 C 307.2490234375 273.5921020507813 308.5535888671875 276.4001770019531 309.9464111328125 279.1669921875 C 312.8427734375 284.9164428710938 316.099365234375 290.4857788085938 319.6846923828125 295.8335571289063 C 321.41162109375 298.4126586914063 323.2210693359375 300.9317016601563 325.092529296875 303.4057006835938 C 325.1788330078125 303.5201721191406 325.2164306640625 303.5727844238281 325.2783203125 303.6534423828125 C 325.310302734375 303.69287109375 325.321533203125 303.7059936523438 325.3721923828125 303.7660827636719 C 325.5975341796875 304.0438537597656 325.8133544921875 304.3292236328125 326.03662109375 304.6069946289063 C 326.4815673828125 305.1663818359375 326.93212890625 305.7219848632813 327.384521484375 306.2757568359375 C 328.3660888671875 307.4733276367188 329.36669921875 308.6558532714844 330.384033203125 309.8234252929688 C 334.6112060546875 314.6756286621094 339.140625 319.2632446289063 343.9439697265625 323.5448608398438 C 346.3447265625 325.6847229003906 348.8094482421875 327.7607727050781 351.330322265625 329.7560424804688 C 351.58935546875 329.9625549316406 351.848388671875 330.1653137207031 352.109375 330.3680114746094 L 352.2032470703125 330.4356079101563 C 352.78125 330.8560485839844 353.3463134765625 331.2952880859375 353.9207763671875 331.7176513671875 C 355.1689453125 332.6355590820313 356.4322509765625 333.5327758789063 357.7086181640625 334.4112243652344 C 363.2891845703125 338.2404479980469 369.13818359375 341.6773986816406 375.1973876953125 344.6901245117188 C 376.8116760253906 345.4934997558594 378.4428100585938 346.2668151855469 380.0853271484375 347.0101318359375 C 380.7891235351563 347.3292846679688 381.4968566894531 347.640869140625 382.2064208984375 347.9506225585938 C 382.4315795898438 348.0501098632813 382.5517272949219 348.1026306152344 382.6324462890625 348.1401977539063 C 382.7131652832031 348.1702270507813 382.8333740234375 348.218994140625 383.0754089355469 348.316650390625 C 386.3003234863281 349.6231079101563 389.5569458007813 350.84130859375 392.8606262207031 351.9356689453125 C 399.4679870605469 354.1243286132813 406.2254943847656 355.8606262207031 413.0674133300781 357.1408081054688 C 414.8412170410156 357.4729919433594 416.6225891113281 357.7733154296875 418.40771484375 358.043701171875 C 418.6498718261719 358.0793151855469 419.6503295898438 358.2219848632813 420.0107116699219 358.2745361328125 C 420.414306640625 358.3233032226563 421.3321838378906 358.4359436035156 421.5630798339844 358.4640808105469 C 425.0205993652344 358.8638916015625 428.4913635253906 359.151123046875 431.9695739746094 359.3200378417969 C 434.5042724609375 359.4439086914063 437.04150390625 359.5061340332031 439.5794067382813 359.5061340332031 C 444.0029907226563 359.5061340332031 448.4272155761719 359.3169555664063 452.8332824707031 358.9352416992188 C 454.6315002441406 358.7794494628906 456.4241943359375 358.5823974609375 458.2167663574219 358.3739929199219 C 458.46630859375 358.343994140625 458.5996704101563 358.3289489746094 458.6898498535156 358.319580078125 C 458.78173828125 358.306396484375 458.8868103027344 358.28955078125 459.0596008300781 358.2651977539063 C 459.8235778808594 358.1524963378906 460.5894165039063 358.0398559570313 461.3515319824219 357.9197692871094 C 464.7865295410156 357.37353515625 468.2027587890625 356.7090454101563 471.5909118652344 355.922607421875 C 478.6262817382813 354.2951354980469 485.5282287597656 352.1364440917969 492.2500915527344 349.4991760253906 C 493.160400390625 349.1425476074219 494.0689392089844 348.7765502929688 494.9717712402344 348.4010925292969 L 495.039306640625 348.3729553222656 C 495.5687561035156 348.1439514160156 496.0962219238281 347.9130554199219 496.6217651367188 347.6803283691406 C 498.2022399902344 346.9801330566406 499.7696228027344 346.2518615722656 501.3275756835938 345.5010375976563 C 504.8302307128906 343.8116455078125 508.2709045410156 341.9965515136719 511.6478271484375 340.06689453125 C 517.290283203125 336.8401794433594 522.7412109375 333.2774963378906 527.96337890625 329.4069519042969 C 528.595947265625 328.9395751953125 529.220947265625 328.4627685546875 529.847900390625 327.9897766113281 C 530.1669921875 327.7363586425781 530.488037109375 327.4866943359375 530.80712890625 327.2333374023438 C 531.927734375 326.3416748046875 533.0389404296875 325.4350891113281 534.1370849609375 324.513427734375 C 536.6109619140625 322.4429931640625 539.0250244140625 320.2994079589844 541.375 318.0919494628906 C 546.0789794921875 313.6732788085938 550.531494140625 308.9880981445313 554.7060546875 304.0664672851563 C 555.7103271484375 302.8819580078125 556.699462890625 301.6824951171875 557.6717529296875 300.4718017578125 C 557.7994384765625 300.312255859375 558.541015625 299.3756103515625 558.800048828125 299.0508117675781 C 558.8900146484375 298.9363708496094 558.9744873046875 298.829345703125 558.9970703125 298.7993774414063 C 559.212890625 298.5121459960938 559.4306640625 298.226806640625 559.6466064453125 297.9414978027344 C 561.583740234375 295.3642578125 563.449462890625 292.7326049804688 565.2384033203125 290.05029296875 C 568.812255859375 284.6893615722656 572.0821533203125 279.1256713867188 575.0179443359375 273.3893127441406 C 576.4312744140625 270.6281433105469 577.765869140625 267.8294677734375 579.019775390625 264.9931640625 C 579.2041015625 264.5766906738281 579.7892456054688 263.1847534179688 579.79638671875 263.1847534179688 C 579.798583984375 263.1847534179688 579.7484741210938 263.3106689453125 579.6195068359375 263.6268310546875 C 579.6041870117188 263.664306640625 579.5888671875 263.7017822265625 579.5736083984375 263.7392578125 C 579.58984375 263.6994018554688 579.6051635742188 263.6619262695313 579.6195068359375 263.6268310546875 C 579.8748779296875 263.0021362304688 580.1329956054688 262.3802185058594 580.384521484375 261.7532958984375 C 580.960693359375 260.3154907226563 581.516357421875 258.8682861328125 582.0513916015625 257.4135437011719 C 584.2738037109375 251.3693237304688 586.1302490234375 245.1900482177734 587.5924072265625 238.9186859130859 C 588.3170166015625 235.8102264404297 588.9439697265625 232.6774139404297 589.471435546875 229.5295867919922 C 589.6365966796875 228.5422210693359 589.7923583984375 227.5529479980469 589.9388427734375 226.5600433349609 C 589.9744873046875 226.3103637695313 590.0101318359375 226.0606842041016 590.0457763671875 225.8091888427734 C 590.231689453125 224.2080383300781 590.4287109375 222.6068572998047 590.580810546875 221.0019989013672 C 591.218994140625 214.2708129882813 591.41796875 207.4964141845703 591.183349609375 200.7389068603516 C 591.0706787109375 197.4840850830078 590.856689453125 194.2310943603516 590.545166015625 190.9893646240234 C 590.39501953125 189.4295501708984 590.2091064453125 187.8734130859375 590.017578125 186.3173217773438 C 589.978271484375 186.0338592529297 589.8468017578125 185.055908203125 589.7923583984375 184.6936798095703 C 589.6798095703125 183.9503173828125 589.5633544921875 183.2070007324219 589.4395751953125 182.4655456542969 C 588.3582763671875 175.9183197021484 586.8697509765625 169.4386291503906 584.9814453125 163.0772399902344 C 584.022216796875 159.83740234375 582.9580078125 156.6294555664063 581.792236328125 153.4591064453125 C 581.1878662109375 151.816650390625 580.5552978515625 150.1816711425781 579.896484375 148.5599060058594 C 579.7593994140625 148.2239685058594 579.6204833984375 147.8898315429688 579.4835205078125 147.5556945800781 L 579.462890625 147.5050048828125 C 579.1644287109375 146.8161010742188 578.864013671875 146.1290893554688 578.55615234375 145.4458312988281 C 575.796875 139.2890319824219 572.6322021484375 133.3142700195313 569.076904296875 127.5798034667969 C 567.3651123046875 124.8186340332031 565.5611572265625 122.11376953125 563.6710205078125 119.4727172851563 C 563.087158203125 118.6599426269531 562.497802734375 117.852783203125 561.8990478515625 117.05126953125 C 561.720703125 116.8147583007813 561.3265380859375 116.3060913085938 561.1556396484375 116.080810546875 C 560.2340087890625 114.9151306152344 559.3067626953125 113.755126953125 558.353271484375 112.6175842285156 C 553.9796142578125 107.3955993652344 549.234375 102.4813537597656 544.143798828125 97.95571899414063 C 542.7978515625 96.76004028320313 541.4276123046875 95.59066772460938 540.0347900390625 94.45126342773438 C 539.3741455078125 93.91067504882813 538.705810546875 93.38323974609375 538.03759765625 92.85198974609375 C 537.767333984375 92.64926147460938 537.4970703125 92.44467163085938 537.2266845703125 92.241943359375 C 534.4486083984375 90.17153930664063 531.5860595703125 88.21563720703125 528.642822265625 86.39108276367188 C 525.703369140625 84.56845092773438 522.68310546875 82.87530517578125 519.591552734375 81.32485961914063 C 517.988525390625 80.52151489257813 516.36669921875 79.75750732421875 514.7261962890625 79.032958984375 C 514.4971923828125 78.93344116210938 514.2681884765625 78.83401489257813 514.0391845703125 78.7344970703125 L 513.95849609375 78.7044677734375 C 513.2396240234375 78.43231201171875 512.5299072265625 78.1319580078125 511.81103515625 77.85791015625 C 508.3891296386719 76.55145263671875 504.8959655761719 75.42709350585938 501.3501281738281 74.5035400390625 C 499.4749450683594 74.01364135742188 497.584716796875 73.58004760742188 495.6832580566406 73.2027587890625 C 494.8685302734375 73.04132080078125 494.0501403808594 72.8892822265625 493.2317810058594 72.74850463867188 C 492.6854858398438 72.65463256835938 492.1393737792969 72.5701904296875 491.5911254882813 72.48004150390625 C 491.56494140625 72.476318359375 491.3753051757813 72.44625854492188 491.1857604980469 72.416259765625 C 490.8835754394531 72.37872314453125 490.2772827148438 72.29800415039063 490.1852722167969 72.28860473632813 C 489.7723083496094 72.23980712890625 489.3612365722656 72.19476318359375 488.9482727050781 72.15158081054688 C 487.9834899902344 72.0521240234375 487.0185852050781 71.96945190429688 486.0538024902344 71.90005493164063 C 484.2611694335938 71.77053833007813 482.4648742675781 71.6898193359375 480.6684875488281 71.66354370117188 C 480.2093811035156 71.65682983398438 479.7506408691406 71.6534423828125 479.2914733886719 71.6534423828125 C 476.1630249023438 71.6534423828125 473.0338745117188 71.81036376953125 469.9222717285156 72.1328125 C 469.9228820800781 72.13275146484375 469.9232177734375 72.13272094726563 469.92333984375 72.13272094726563 C 469.9294738769531 72.13272094726563 468.9081115722656 72.24984741210938 468.5181274414063 72.2923583984375 C 468.3341674804688 72.3167724609375 468.1521301269531 72.34304809570313 468.1239929199219 72.34683227539063 C 467.3074645996094 72.476318359375 466.4927673339844 72.60580444335938 465.6800537109375 72.754150390625 C 463.9192810058594 73.07135009765625 462.1679992675781 73.44866943359375 460.4317321777344 73.87844848632813 C 456.8352355957031 74.77194213867188 453.2275085449219 75.79495239257813 449.7792663574219 77.15777587890625 C 449.0021362304688 77.46487426757813 448.2161560058594 77.60446166992188 447.4404296875 77.60446166992188 C 443.7924194335938 77.60446166992188 440.3829956054688 74.51385498046875 439.3164672851563 71.21676635742188 C 437.7960510253906 66.51849365234375 441.1334533691406 62.3851318359375 445.2555541992188 60.75396728515625 C 444.89111328125 60.89828491210938 444.7445068359375 60.95541381835938 444.7409973144531 60.95541381835938 C 444.7275695800781 60.95541381835938 446.7925415039063 60.12484741210938 446.7935180664063 60.12484741210938 C 446.7935180664063 60.12484741210938 446.7933044433594 60.12493896484375 446.7928466796875 60.1251220703125 C 447.3033752441406 59.91867065429688 447.8215026855469 59.72344970703125 448.339599609375 59.5301513671875 C 449.1147766113281 59.24105834960938 449.8956909179688 58.96328735351563 450.678466796875 58.69857788085938 C 452.5085754394531 58.07913208007813 454.3574523925781 57.54791259765625 456.2345581054688 57.09555053710938 C 460.2008056640625 56.13449096679688 464.2290344238281 55.51126098632813 468.2798156738281 55.01950073242188 C 472.0634155273438 54.56134033203125 475.8363647460938 54.33990478515625 479.5921325683594 54.33999633789063 Z M 305.95556640625 270.6006774902344 C 305.9575805664063 270.6055908203125 305.9595336914063 270.6104125976563 305.96142578125 270.614990234375 C 305.95947265625 270.6102294921875 305.95751953125 270.60546875 305.95556640625 270.6006774902344 Z"/></g><g transform="translate(94.458)"><path class="c" d="M347.656,51.11a1.727,1.727,0,0,0,.171-.041l-.009,0C347.765,51.086,347.71,51.1,347.656,51.11Z" transform="translate(-315.911 -23.802)"/><path d="M388.815,104.74c-2.217-1.714-4.387-1.823-7.071-1.451-2.744.377-5.479.811-8.208,1.271,5.723-8.306,9.412-17.759,11.824-27.531,2.393-9.7,4.762-21.127-.68-30.274-5.858-9.849-17.808-11.811-28.154-9.1a49.225,49.225,0,0,0-15.1,7.032c-4.909,3.381-11.206,8.74-10.643,15.3a5.362,5.362,0,0,0,1.875,3.681,10.938,10.938,0,0,0,1.395,4.9c2.5,4.345,7.285,5.35,11.912,4.479,4.073-.766,7.214-3.779,10.495-6.091a42.479,42.479,0,0,1,4.081-2.491,10.131,10.131,0,0,1,.993-.381c.306-.086.64-.146.959-.227-.437.083-.683-.019.1-.039h.062c.036-.011.075-.017.109-.028a.972.972,0,0,1-.1.026c.39-.008.788-.006,1.183-.023.152.049.475.126.8.2.03.2.069.46.1.625,0,.079,0,.146,0,.165-.032.385-.043.775-.064,1.162-.494,1.86-.9,3.733-1.44,5.584q-1.661,5.648-3.722,11.169-.994,2.661-2.08,5.284c-.115.259-.674,1.569-.762,1.772q-.678,1.537-1.389,3.062-2.838,6.093-6.142,11.961-1.65,2.931-3.42,5.793-.878,1.422-1.789,2.827-2.219,2.106-4.462,4.2c-7.942,7.416,3.007,14.32,10.164,13.245.19-.028.937-.139,1.205-.18,1.427-.193,2.859-.351,4.291-.49q4.516-.442,9.055-.6a129.791,129.791,0,0,1,18.114.781c3.555.379,6.776-2.784,7.758-5.905a43.418,43.418,0,0,0,1.956-13.339A7.986,7.986,0,0,0,388.815,104.74Z" transform="translate(-330.744 -36.542)"/></g><text class="d" transform="translate(59.014 158.793)"><tspan x="0" y="0">Personalized</tspan><tspan x="0" y="42">Therapy Plan</tspan></text><g transform="translate(120.781 244.614)"><path d="M404.155,472.5c2.568-3.446,5.823-6.206,8.094-9.909a35.821,35.821,0,0,0,4.385-10.637,23.754,23.754,0,0,0,.276-9.845,10.647,10.647,0,0,0-1.77-4.473c2.6-3.326,5.081-6.746,7.4-10.266,6.8-10.337,22.579-35.779-.034-36.224a36.106,36.106,0,0,0-9.363,1.1,50.947,50.947,0,0,0-18.059,9.029,109.374,109.374,0,0,0-9.941,8.541,12.145,12.145,0,0,0-4.8-1.051,25.13,25.13,0,0,0-6.865.588,43.461,43.461,0,0,0-14.816,6.7,42.893,42.893,0,0,0-6.793,5.408c-1.922,1.975-1.755,4.18.295,6.01,2.281,2.039,4.631,4,6.99,5.947,1.079.89,2.8,2.759,4.505,3.482a2.216,2.216,0,0,0,.715.863,2.12,2.12,0,0,0,.148.349,23.17,23.17,0,0,0,1.885,2.448,20.182,20.182,0,0,0-2.649,2.891,7.709,7.709,0,0,0-2.029,3.337,6.063,6.063,0,0,0-1.355.377,16.346,16.346,0,0,0-4.7,3.283,21.423,21.423,0,0,0-6.063,10.134,2.087,2.087,0,0,0,2.519,2.521l3.214-.719c-.246.385-.5.768-.728,1.162a78.736,78.736,0,0,0-3.81,7.486c-.582,1.288-1.038,2.7-.34,4.049.82,1.588,2.622,1.654,4.167,1.408a27.874,27.874,0,0,0,7.5-2.4,24.076,24.076,0,0,0,3.88-2.271c-.064.362-.131.725-.182,1.091a1.918,1.918,0,0,0,2.307,2.307,16.856,16.856,0,0,0,6.482-3.086,17.429,17.429,0,0,0,4.43-5.186,4.939,4.939,0,0,0,.691-3.358,16.429,16.429,0,0,0,3.807-1.515c.64-.306,1.355-.649,2.027-1.057a3.636,3.636,0,0,0,1.378.693,5.873,5.873,0,0,0,1.275,3.388,17.63,17.63,0,0,0,3.459,3.392,38,38,0,0,0,8.434,5.136A3.089,3.089,0,0,0,404.155,472.5Zm-42.649-42.779q-2.824-2.3-5.59-4.668c-.028-.022-.48-.454-.839-.773.079-.075.154-.156.237-.231.8-.756,1.637-1.479,2.491-2.177a47.006,47.006,0,0,1,5.71-3.974,39.671,39.671,0,0,1,11.465-4.773,20.694,20.694,0,0,1,5.361-.533,12.312,12.312,0,0,1,1.718.223q-1.853,1.867-3.66,3.771-4.209,4.443-8.177,9.106c-1.678,1.971-3.993,4.18-5.46,6.607C363.687,431.424,362.568,430.591,361.506,429.726Zm60.369-33.8c2.221-.055,4.753.589,7.015.276a26.189,26.189,0,0,1-2.679,14.322c-.385.833-.824,1.642-1.246,2.461-.481-.625-.972-1.241-1.487-1.838a36.732,36.732,0,0,0-5.945-5.413,38.762,38.762,0,0,0-6.639-3.987,27.429,27.429,0,0,0-4.2-1.71,38.743,38.743,0,0,1,6.784-2.733A32.664,32.664,0,0,1,421.874,395.925Zm-51.787,74.313c.013-.06.023-.12.038-.18.225-.933.381-2.65-.576-3.2a2.041,2.041,0,0,0-2.846-1.117c-2.269,1.393-4.139,3-6.572,4.252a24.652,24.652,0,0,1-5.513,1.956c.122-.3.25-.6.37-.893q.791-1.94,1.671-3.842.915-1.991,1.83-3.978.456-.994.933-1.978c.165-.342.383-1.246.629-1.408a1.018,1.018,0,0,0-.687-1.86c-1.3.111-2.335-.208-3.711.094l-.792.177a18.448,18.448,0,0,1,2.909-4.462,16.85,16.85,0,0,1,3.383-2.964,4.046,4.046,0,0,1,1.808-.625c.33.426.672.837.974,1.222.948,1.2,1.81,2.564,3.307,2.842.278.377.5.832.76,1.186a14.849,14.849,0,0,0,1.243,1.458,29.737,29.737,0,0,0,2.429,2.288,40.921,40.921,0,0,0,4.991,3.764,12.372,12.372,0,0,0-1.823,2.692A11.937,11.937,0,0,1,373,467.951,15.592,15.592,0,0,1,370.088,470.239Zm-1.547-27.317c.456.486.912.969,1.35,1.453,1.86,2.052,3.779,4.055,5.691,6.055s3.839,3.972,5.753,5.962c.3.308.589.618.884.927-.417.223-.833.447-1.258.655a8.716,8.716,0,0,1-1.948.89c-.854.143-2.11-1.13-2.825-1.644-1.263-.91-2.483-1.892-3.7-2.868-.571-.462-1.134-.927-1.723-1.367a3.925,3.925,0,0,0-.954-.657l-.3-.184c.111-1.357-1.772-2.814-2.549-3.739a8.7,8.7,0,0,0-.757-.922,2.749,2.749,0,0,1-.259-.276c.276-.533.779-1.119,1.057-1.579A27.49,27.49,0,0,0,368.541,442.922Zm20.03,13.887a29.349,29.349,0,0,0-3.319-3.465c-1.952-1.943-3.9-3.887-5.821-5.86s-3.835-3.994-5.751-5.994c-1.569-1.641-3.116-3.493-4.82-5.047,2.1-1.879,3.747-4.629,5.449-6.658q3.41-4.066,7.005-7.968a159.873,159.873,0,0,1,15.475-15.141,59.5,59.5,0,0,1,6.605-4.76c1.768,1.3,4.06,1.947,5.978,2.984a36.133,36.133,0,0,1,5.826,3.9,43.809,43.809,0,0,1,5.019,4.944,32.357,32.357,0,0,1,2.262,2.891c.084.122.167.248.25.377-1.9,3.187-3.977,6.279-6.1,9.282A167.121,167.121,0,0,1,388.571,456.808Zm6.891,7.013c-1.085-.89-2.087-1.858-3.214-2.7a148.53,148.53,0,0,0,20.4-20.366,13.255,13.255,0,0,1,.666,3.58,22.019,22.019,0,0,1-1.6,8.349,28.849,28.849,0,0,1-4.71,8.16c-1.9,2.311-4.137,4.308-6.144,6.517A33.264,33.264,0,0,1,395.462,463.821Z" transform="translate(-349.534 -391.144)"/><path d="M394.468,416.675a10.851,10.851,0,0,0-3.1-8.109,12.219,12.219,0,0,0-8.177-3.692,11.356,11.356,0,0,0-3.157-.109,13.034,13.034,0,0,0-8.695,4.839,13.644,13.644,0,0,0-3.268,9.22,10.963,10.963,0,0,0,4.141,7.848,12.448,12.448,0,0,0,8.518,2.833,15.016,15.016,0,0,0,8.944-3.974A14.2,14.2,0,0,0,394.468,416.675ZM382.4,424.115a7.752,7.752,0,0,1-7.827-1.528,6.457,6.457,0,0,1-1.691-2.262,7.3,7.3,0,0,1,3.925-9.265c2.787-1.113,6.726-1.46,9.367.206a6.947,6.947,0,0,1,2.879,3.809,4.12,4.12,0,0,1-.066,2.344,9.958,9.958,0,0,1-1.6,3.005A11,11,0,0,1,382.4,424.115Z" transform="translate(-333.297 -379.253)"/><path d="M381.13,410.58a1.828,1.828,0,0,0-.394-1.119,3.611,3.611,0,0,0-.312-.3,2.363,2.363,0,0,0-.372-.293,2.736,2.736,0,0,0-.441-.173,7.456,7.456,0,0,0-5.74.507,1.242,1.242,0,0,0-.464,1.68,1.262,1.262,0,0,0,1.68.462c.058-.028.118-.056.178-.083.039-.019.081-.036.12-.053l-.174.069c.053-.069.285-.1.372-.131a5.917,5.917,0,0,1,.766-.188c.047-.009.1-.017.143-.024.118-.009.235-.021.353-.024a6.16,6.16,0,0,1,.79.015l.116.011c.124.021.248.041.37.068a6.264,6.264,0,0,1,.76.218,3.533,3.533,0,0,0,1,.145,1.274,1.274,0,0,0,.614-.139c-.038.015-.282.107-.111.047.094-.034.188-.068.283-.1A.627.627,0,0,0,381.13,410.58Z" transform="translate(-328.737 -376.06)"/><path d="M373.1,410.948a.613.613,0,0,0,.15-.289l0-.019.026-.208c0-.022-.006-.045-.008-.069l-.007-.069c-.008-.051-.009-.107-.021-.158a.586.586,0,0,0-.268-.347l-.09-.054a.842.842,0,0,0-.34-.109.428.428,0,0,0-.212,0,.44.44,0,0,0-.206.054c-.055.023-.1.039-.146.066l-.192.1-.1.052a.8.8,0,0,0-.282.248.434.434,0,0,0-.115.2.76.76,0,0,0-.049.124.863.863,0,0,0,0,.437.964.964,0,0,0,.409.531.846.846,0,0,0,.426.113.262.262,0,0,0,.131-.011.439.439,0,0,0,.218-.058.675.675,0,0,0,.293-.186l.019-.015.1-.079c.062-.051.126-.1.186-.15A.266.266,0,0,0,373.1,410.948Z" transform="translate(-330.52 -374.947)"/><path d="M379.8,436.779c.569-.659,1.109-1.338,1.635-2.031a38.931,38.931,0,0,0,2.8-4.227,35.236,35.236,0,0,0,2.213-4.561,11.054,11.054,0,0,0,.965-4.9.492.492,0,0,0-.91-.24,21.537,21.537,0,0,0-2.172,4.312,42.961,42.961,0,0,1-2.115,4.244,36.894,36.894,0,0,1-2.632,3.961c-.464.6-.952,1.194-1.455,1.768a4.132,4.132,0,0,0-1.318,2.067.872.872,0,0,0,1.047,1.049A3.449,3.449,0,0,0,379.8,436.779Z" transform="translate(-325.63 -365.318)"/><path d="M372.079,404.664a.313.313,0,0,0-.145-.345c-1.214-.922-3.322.184-4.561.61a41.132,41.132,0,0,0-4.85,2.089q-2.317,1.146-4.511,2.519a21.6,21.6,0,0,0-2.175,1.579c-.589.479-1.428.963-1.564,1.761a.563.563,0,0,0,.531.689c.758.088,1.41-.507,2.033-.871.745-.434,1.487-.862,2.219-1.316q2.2-1.363,4.522-2.5c1.564-.768,3.17-1.428,4.783-2.082C369.567,406.306,371.568,406.034,372.079,404.664Z" transform="translate(-345.388 -379.901)"/><path d="M358.544,424.119a.793.793,0,0,0-1.006-.212,7.084,7.084,0,0,0-.85.526,7.808,7.808,0,0,0-.92.725q-.374.341-.73.7a1.417,1.417,0,0,0-.434.717.932.932,0,0,0,.115.8c.389.509,1.173.253,1.545-.128q.352-.36.725-.7c.248-.227.5-.445.74-.681s.518-.465.753-.717A.785.785,0,0,0,358.544,424.119Z" transform="translate(-345.121 -362.489)"/><path d="M357.452,426.792c.06-.075.118-.148.184-.218a.724.724,0,0,0,.21-.34,1.8,1.8,0,0,0,.024-.244.422.422,0,0,0-.124-.3.458.458,0,0,0-.3-.122c-.039,0-.081-.006-.12,0a.62.62,0,0,0-.428.18c-.075.07-.146.145-.216.221s-.128.148-.188.227a2.235,2.235,0,0,0-.251.353.6.6,0,0,0-.056.424.571.571,0,0,0,.695.407l.137-.056a.584.584,0,0,0,.214-.214C357.314,427.008,357.379,426.9,357.452,426.792Z" transform="translate(-343.711 -360.953)"/><path d="M358.3,431.415l1.16-1.425,1.162-1.425c.208-.255.42-.507.625-.766a3.9,3.9,0,0,0,.443-.833.222.222,0,0,0-.3-.3,3.767,3.767,0,0,0-.811.466c-.252.21-.494.434-.74.651L358.459,429l-1.374,1.211c-.49.432-1.233.984-1.158,1.719a.713.713,0,0,0,.691.691C357.368,432.667,357.875,431.931,358.3,431.415Z" transform="translate(-343.933 -360.012)"/><path d="M357.02,431.981l.118-.2a.925.925,0,0,0,.156-.447.554.554,0,0,0-.55-.548.865.865,0,0,0-.43.145l-.218.13a1.846,1.846,0,0,0-.321.216c-.058.054-.113.115-.171.171s-.114.113-.169.171a.87.87,0,0,0-.218.357,1.752,1.752,0,0,0-.032.255.609.609,0,0,0,.1.563.6.6,0,0,0,.55.1l.176-.022a.727.727,0,0,0,.435-.216c.062-.058.124-.122.184-.184s.116-.113.171-.171A1.861,1.861,0,0,0,357.02,431.981Z" transform="translate(-344.597 -356.375)"/><path d="M360.346,430.685c.081-.113.161-.227.24-.34a2.744,2.744,0,0,0,.193-.347l.1-.193a.886.886,0,0,0,.105-.678.752.752,0,0,0-.28-.409.791.791,0,0,0-.46-.161c-.323-.026-.565.214-.8.4a2.988,2.988,0,0,0-.325.27c-.094.1-.19.19-.28.289a1.1,1.1,0,0,0-.31.558,3.183,3.183,0,0,0-.051.377.8.8,0,0,0,.332.655.827.827,0,0,0,.71.148c.058-.015.113-.038.169-.058a1.157,1.157,0,0,0,.466-.261A1.655,1.655,0,0,0,360.346,430.685Z" transform="translate(-341.69 -358.331)"/><path d="M362.968,431.5c.145-.206.28-.42.405-.64.064-.111.124-.221.184-.334a1.28,1.28,0,0,0,.173-.608,1.443,1.443,0,0,0-.026-.422,2.533,2.533,0,0,0-.118-.3.285.285,0,0,0-.321-.135,2.046,2.046,0,0,0-.334.107,2.78,2.78,0,0,0-.238.145,1.164,1.164,0,0,0-.362.328c-.03.045-.06.092-.092.135-.062.092-.128.182-.193.27l-.036.045c-.034.041-.068.083-.1.126-.075.09-.15.178-.229.267a1.5,1.5,0,0,0-.225.28,3.076,3.076,0,0,0-.118.293l0,.008h0l-.084.2a.684.684,0,0,0,.107.8.693.693,0,0,0,.225.107H361.5a.483.483,0,0,0,.19.052.546.546,0,0,0,.075.019.7.7,0,0,0,.392-.071c.1-.058.206-.12.31-.182a1.523,1.523,0,0,0,.306-.218A2.5,2.5,0,0,0,362.968,431.5Z" transform="translate(-339.329 -357.891)"/></g></svg>