<svg xmlns="http://www.w3.org/2000/svg" width="1083.988" height="520.011" viewBox="0 0 1083.988 520.011"><defs><style>.a{fill:#1d1d1b;stroke:rgba(0,0,0,0);stroke-miterlimit:10;opacity:0.23;mix-blend-mode:multiply;isolation:isolate;}.b{fill:#fff;}</style></defs><g transform="translate(-178.467 -882.947)"><path class="a" d="M2239,5318.278c8.021-105.716,27.4-389.889,7.289-514.17,7.663-.957,36.415-2.108,36.415-2.108l494.145,509,501.37-509s28.752,1.151,36.415,2.108c-20.116,124.282-.732,408.453,7.289,514.17-43.3,7.217-500.344-2.231-541.017-3.086-2.441.052-271.167,5.8-430.386,5.8C2293.727,5320.989,2250.881,5320.258,2239,5318.278Z" transform="translate(-2060 -3918.544)"/><g transform="translate(14683 -11039.091)"><path class="b" d="M477.583,526.273c-99.178,25.5-341.309,21.53-341.309,21.53H-31.437V38.155H494.323S477.583,500.765,477.583,526.273Z" transform="translate(-13930.563 11883.936)"/><path class="b" d="M-14.033,526.273c103.11,25.5,354.841,21.53,354.841,21.53h174.36V38.155h-546.6S-14.033,500.765-14.033,526.273Z" transform="translate(-14456.563 11883.936)"/></g></g></svg>