<svg xmlns="http://www.w3.org/2000/svg" width="327.947" height="352.613" viewBox="0 0 327.947 352.613"><defs><style>.a{fill:#aad2dd;}.b{fill:#83bec0;}.c{fill:#273c3c;font-size:34px;font-family:SegoeUI, Segoe UI;}.d,.e{stroke:none;}.e{fill:#e6edf7;}</style></defs><path class="a" d="M335.1,181.582c-2.915-28.836-15.9-55.706-37.532-74.389a139.119,139.119,0,0,0-34.467-21.6,191.628,191.628,0,0,0-19.212-7.36c-6.345-2.046-12.909-4.156-19.493-5.175-7.058-1.092-14.363-.026-18.431,6.739-1.811,3.011-2.549,6.577-3.439,9.95q-1.484,5.631-3.422,11.116c-1.134,3.219-2.232,6.66-4.073,9.537-1.629,2.547-3.927,3.356-6.791,3.6-8.015.672-16.081.924-24.109,1.412l-12.484.758c-3.026.184-6.433.738-9.391-.2-2.219-.706-3.2-2.684-4.488-4.531-1.757-2.517-3.709-4.971-6.759-5.772-3.876-1.017-7.187,1.293-9.378,4.389-1.71,2.418-3.3,4.529-5.875,6.042a15.9,15.9,0,0,1-8.593,1.943c-10.895-.1-19.788,11.493-24.672,20.4a113.17,113.17,0,0,0-8.513,19.972A115.7,115.7,0,0,0,69,201.2c2.055,30.131,14.639,58.773,33.617,81.559a124.612,124.612,0,0,0,70.075,41.913,131.515,131.515,0,0,0,78.8-7.863,140.745,140.745,0,0,0,62.321-52.051C329.644,240.59,338.054,210.771,335.1,181.582Z" transform="translate(-38.245 -7.402)"/><path class="b" d="M313.811,242.316a135.921,135.921,0,0,0,7.08-12.2c-2.435,2.393-4.952,4.689-7.591,6.816-16.622,13.38-34.81,22.185-55.254,27.929-25.112,7.054-48.763,6.106-73.675-1.3-25.164-7.482-48.95-15.338-64.1-38.587-13.275-20.374-22.484-45.964-25.6-70.09a142.29,142.29,0,0,1,.719-44.4,100.831,100.831,0,0,1,2.607-12.208C91.318,102.2,85.915,109.753,82.492,116a113.092,113.092,0,0,0-8.513,19.97A115.7,115.7,0,0,0,69,178.758c2.055,30.131,14.639,58.773,33.617,81.559a124.612,124.612,0,0,0,70.075,41.913,131.515,131.515,0,0,0,78.8-7.863A140.745,140.745,0,0,0,313.811,242.316Z" transform="translate(-38.245 15.036)"/><path d="M155.76,104.269q-2.678.394-5.357.786,1.16-13.191,2.161-26.4c.85-11.467,2.1-23.1,1.92-34.608a4.8,4.8,0,0,0-4.713-4.711c-4.648-.115-9.26-.392-13.89-.773-4.071-.334-9.014-1.528-12.834.467-3.388,1.768-5.671,6.2-7.493,9.37a27.429,27.429,0,0,0-2.277,4.7l-.062.079a22.15,22.15,0,0,0-3.429,5.143c-1.838,4.79,1.928,8.959,6.774,8.73,2.222-.105,4.484-.569,6.688-.869l2.455-.334c-.032.574-.062,1.151-.094,1.725q-.177,3.272-.357,6.542l-.738,13.549c-.315,5.78-.6,11.561-.888,17.34-.3.008-.606.013-.9.023a22.968,22.968,0,0,0-5.915.565c-3.005.914-4.182,3.553-4.518,6.427-.526,4.484-.873,9-1.3,13.491-.265,2.8,2.5,4.841,4.989,4.991s4.948.255,7.424.336c.649.068,1.3.115,1.971.12.877.006,1.755-.009,2.635-.028q9.948.163,19.9-.313c4.745-.233,11.589.439,13.034-5.449.621-2.532.484-5.466.666-8.06q.276-3.984.554-7.966C162.412,105.521,158.748,103.829,155.76,104.269Z" transform="translate(-2.643 -37.908)"/><path d="M129.845,79.211a29.746,29.746,0,0,0-8.5-16.312c-5.252-5.089-12.894-8.452-20.248-6.7-24.486,5.849-28.068,45.831-7.756,58.111,6.574,3.976,14.459,4.3,20.839-.2a38.433,38.433,0,0,0,12.653-14.881A34.038,34.038,0,0,0,129.845,79.211Zm-16.877,8.467c-.39,7.159-11.392,12.353-16.721,6.206-5.451-6.292,2.97-22.8,11.493-17.981.415.235.8.507,1.207.756l.092.053c.028.03.051.054.086.088.464.46.918.922,1.37,1.391a5.45,5.45,0,0,1,.4.494,14.574,14.574,0,0,1,.728,1.291c-.105-.175.357.845.409,1.01.173.537.317,1.079.441,1.627A18.808,18.808,0,0,1,112.968,87.678Z" transform="translate(-28.221 -22.275)"/><g transform="translate(-52.484 -23.495)"><path class="d" d="M 212.0174102783203 374.6084594726563 C 212.0167999267578 374.6084594726563 212.0173492431641 374.6084594726563 212.0167388916016 374.6084594726563 C 202.3304443359375 374.6083984375 192.5241546630859 373.7471313476563 182.8703155517578 372.0484924316406 C 168.75927734375 369.5659484863281 155.0296936035156 365.1296997070313 142.0628509521484 358.8630065917969 C 128.9963226318359 352.5480651855469 117.0141906738281 344.5222778320313 106.4493560791016 335.0084838867188 C 96.49143981933594 326.0420227050781 87.62823486328125 315.6869812011719 80.10594177246094 304.2308959960938 C 72.66956329345703 292.9056701660156 66.64948272705078 280.6688232421875 62.21294021606445 267.8602905273438 C 57.68265151977539 254.7832794189453 54.99273300170898 240.9889068603516 54.21785736083984 226.8603210449219 C 53.45481491088867 212.9471588134766 54.55789947509766 198.9238739013672 57.49648284912109 185.1799926757813 C 60.4074821472168 171.5635375976563 65.21506500244141 158.2107086181641 71.78577423095703 145.4923706054688 C 74.86377716064453 139.5318603515625 78.45185852050781 133.6676635742188 82.45056915283203 128.0624084472656 C 84.57944488525391 125.0823287963867 86.87452697753906 122.0860748291016 89.27152252197266 119.1576614379883 C 91.30302429199219 116.6789093017578 93.83052825927734 114.4960327148438 96.27477264404297 112.3850784301758 L 96.6431884765625 112.0668258666992 C 97.42160797119141 111.3937835693359 98.29806518554688 111.0380783081055 99.17790222167969 111.0380783081055 C 99.89806365966797 111.0380783081055 100.5830688476563 111.2771606445313 101.2138595581055 111.7486572265625 C 102.3861083984375 112.6244964599609 103.0661468505859 114.7259063720703 102.1527786254883 116.0221176147461 C 101.3463973999023 117.1658248901367 100.563362121582 118.3568649291992 99.80610656738281 119.508659362793 C 98.75373077392578 121.1092834472656 97.66556549072266 122.7644119262695 96.53748321533203 124.2520751953125 C 94.66356658935547 126.724494934082 92.82244110107422 129.3228302001953 91.06502532958984 131.9752502441406 C 83.72231292724609 143.0703277587891 77.85402679443359 154.9940338134766 73.62268829345703 167.4157867431641 C 69.28227233886719 180.1625366210938 66.64756774902344 193.1339874267578 65.79169464111328 205.9700317382813 C 65.33627319335938 212.7902374267578 65.34394073486328 219.6776123046875 65.81452178955078 226.4407806396484 C 65.93056488037109 228.1309051513672 66.08689880371094 229.9131164550781 66.27902221679688 231.7365417480469 C 66.34761047363281 232.3881530761719 66.42536163330078 233.0444030761719 66.50052642822266 233.6790771484375 L 66.53827667236328 233.9982452392578 L 66.53902435302734 234.0044860839844 L 66.53981781005859 234.0107421875 L 66.59423065185547 234.4406127929688 L 66.59523010253906 234.4484100341797 L 66.59627532958984 234.4562072753906 C 66.61386108398438 234.5843658447266 66.63927459716797 234.7676239013672 66.66323089599609 234.9404449462891 C 66.69248199462891 235.1514434814453 66.71956634521484 235.3465270996094 66.72673034667969 235.4007415771484 L 66.72811126708984 235.4111938476563 L 66.72965240478516 235.4216613769531 C 67.17668914794922 238.468994140625 67.73823547363281 241.5835723876953 68.39860534667969 244.678955078125 C 69.75681304931641 251.0480804443359 71.53006744384766 257.3570251464844 73.6690673828125 263.430419921875 C 74.22506713867188 265.0117492675781 74.81636047363281 266.6076965332031 75.42623138427734 268.1731262207031 C 75.64153289794922 268.7229919433594 75.92586517333984 269.4452209472656 76.22611999511719 270.181396484375 C 76.26340484619141 270.2743530273438 76.30097961425781 270.3671569824219 76.33872222900391 270.4598693847656 C 76.37374114990234 270.5761413574219 76.41413116455078 270.6702575683594 76.44194030761719 270.7350769042969 C 76.48029327392578 270.8244934082031 76.54118347167969 270.9656677246094 76.63157653808594 271.1745910644531 L 76.63198089599609 271.1755676269531 L 76.63250732421875 271.1767883300781 L 76.63498687744141 271.182861328125 L 76.63511657714844 271.1828002929688 L 76.637939453125 271.1893310546875 L 76.70519256591797 271.3445434570313 C 77.97231292724609 274.2754211425781 79.30593872070313 277.1344909667969 80.66856384277344 279.8414611816406 C 83.57514953613281 285.6112365722656 86.88311004638672 291.2726745605469 90.50077819824219 296.6688537597656 C 92.17668914794922 299.1717834472656 93.96202850341797 301.6716613769531 95.95827484130859 304.3106079101563 C 95.99240112304688 304.3558349609375 96.01906585693359 304.3916931152344 96.04273223876953 304.4235229492188 C 96.07968902587891 304.4732971191406 96.11077880859375 304.5149841308594 96.15056610107422 304.5668640136719 L 96.16239929199219 304.582275390625 L 96.17465209960938 304.597412109375 C 96.21040344238281 304.6415405273438 96.22515106201172 304.6591491699219 96.27394104003906 304.717041015625 L 96.27794647216797 304.7217712402344 C 96.38633728027344 304.8556823730469 96.49339294433594 304.9926452636719 96.6065673828125 305.1374206542969 C 96.71089935302734 305.2709045410156 96.81881713867188 305.4089660644531 96.92985534667969 305.5470275878906 L 96.92473602294922 305.5406494140625 C 97.31898498535156 306.036376953125 97.75115203857422 306.5715026855469 98.28477478027344 307.2247314453125 C 99.26381683349609 308.4190063476563 100.2828140258789 309.6242065429688 101.3151473999023 310.8088989257813 C 105.5846099853516 315.7096557617188 110.1915664672852 320.3714599609375 115.007942199707 324.6646118164063 C 117.4558334350586 326.846435546875 119.9631805419922 328.9548950195313 122.4607772827148 330.9317321777344 C 122.6678161621094 331.0967407226563 122.8762664794922 331.2596435546875 123.0779037475586 331.4172058105469 L 123.2468185424805 331.5492858886719 L 123.2706909179688 331.5679626464844 L 123.2952728271484 331.5856323242188 L 123.3869171142578 331.6515502929688 C 123.6817779541016 331.8661193847656 123.983039855957 332.0931091308594 124.2743988037109 332.3127136230469 C 124.5421905517578 332.5144653320313 124.8190689086914 332.7231140136719 125.0979385375977 332.927490234375 C 126.3553619384766 333.8522033691406 127.6429443359375 334.767822265625 128.9229888916016 335.6474609375 C 134.5375213623047 339.5013732910156 140.4819030761719 342.9954833984375 146.5915679931641 346.0332336425781 C 148.1956481933594 346.8315734863281 149.8569488525391 347.6201171875 151.5288238525391 348.3767395019531 C 152.245361328125 348.7015991210938 152.9778900146484 349.0231323242188 153.6667633056641 349.3246765136719 L 153.7821502685547 349.3756103515625 C 153.9196929931641 349.4363403320313 154.0024871826172 349.47265625 154.0618591308594 349.5002746582031 L 154.1156463623047 349.5252990722656 L 154.1712341308594 349.5459899902344 C 154.2232360839844 349.5653381347656 154.3252716064453 349.6065063476563 154.4943542480469 349.6747131347656 L 154.5766448974609 349.7078552246094 C 158.0450286865234 351.1129455566406 161.2757263183594 352.3077697753906 164.4510192871094 353.3595886230469 C 171.0715179443359 355.5526123046875 177.9359436035156 357.3208618164063 184.8535614013672 358.615234375 C 186.6136932373047 358.9448547363281 188.4277801513672 359.2515869140625 190.2451019287109 359.5267333984375 L 190.2481079101563 359.5271911621094 L 190.2511138916016 359.5276489257813 C 190.3761444091797 359.5460815429688 190.7021484375 359.5928649902344 191.0390319824219 359.6412048339844 C 191.3553924560547 359.6865844726563 191.6814880371094 359.7333679199219 191.8562774658203 359.7588195800781 L 191.8744354248047 359.7615051269531 L 191.8926849365234 359.7637023925781 C 192.1658935546875 359.7967529296875 192.6752777099609 359.8590698242188 193.0466461181641 359.904541015625 L 193.4436950683594 359.953125 L 193.4482269287109 359.9536743164063 L 193.4527740478516 359.9541931152344 C 196.952392578125 360.3588256835938 200.4871063232422 360.6495666503906 203.958740234375 360.8183288574219 C 206.5099029541016 360.9429626464844 209.0947265625 361.0061645507813 211.6411437988281 361.0061645507813 C 216.1066131591797 361.006103515625 220.6094818115234 360.8121643066406 225.0247344970703 360.4296569824219 C 226.9645690917969 360.2616271972656 228.8567810058594 360.0494079589844 230.4519348144531 359.8639831542969 L 230.4549407958984 359.8636474609375 L 230.4579467773438 359.86328125 C 230.6701507568359 359.8377380371094 230.8126068115234 359.8213195800781 230.9063568115234 359.8116149902344 L 230.9354400634766 359.8086242675781 L 230.96435546875 359.8045043945313 C 231.004150390625 359.7987976074219 231.046142578125 359.7924499511719 231.0941467285156 359.7852478027344 C 231.1575622558594 359.7756958007813 231.2329406738281 359.7643127441406 231.3316040039063 359.7503662109375 L 231.3359375 359.749755859375 L 231.3402709960938 359.7491149902344 L 231.4146881103516 359.7381591796875 C 232.1460266113281 359.63037109375 232.9022674560547 359.5188598632813 233.6469879150391 359.4014892578125 C 237.1273651123047 358.8480224609375 240.6078643798828 358.1692810058594 243.9938201904297 357.3837890625 C 250.9957275390625 355.7636108398438 258.016357421875 353.5806274414063 264.8598937988281 350.8955688476563 C 265.7999877929688 350.5272521972656 266.7254028320313 350.1539001464844 267.6097412109375 349.7861328125 L 267.6781616210938 349.7576599121094 L 267.6876220703125 349.7536926269531 L 267.6969909667969 349.7496643066406 C 268.2283630371094 349.5197448730469 268.7647399902344 349.2850036621094 269.2911376953125 349.0518188476563 C 270.8155212402344 348.3765258789063 272.4134826660156 347.6365356445313 274.0408020019531 346.852294921875 C 277.533447265625 345.1677551269531 281.0368957519531 343.322998046875 284.4543151855469 341.3690795898438 C 290.1209411621094 338.1285705566406 295.6602783203125 334.5093994140625 300.9185180664063 330.6120300292969 C 301.393310546875 330.26123046875 301.8700256347656 329.9005737304688 302.3310241699219 329.5517883300781 C 302.4917602539063 329.4301452636719 302.6524963378906 329.3085632324219 302.8133239746094 329.187255859375 L 302.8281555175781 329.176025390625 L 302.8426818847656 329.1644592285156 C 303.0004272460938 329.0392150878906 303.1586608886719 328.9148559570313 303.3168029785156 328.79052734375 C 303.4786376953125 328.6633605957031 303.6404724121094 328.5361633300781 303.8018493652344 328.4080200195313 C 304.94140625 327.5013122558594 306.072265625 326.578125 307.1642761230469 325.6631469726563 C 309.627197265625 323.6004638671875 312.083740234375 321.4210205078125 314.4654541015625 319.1856689453125 C 319.1916198730469 314.7443542480469 323.7154541015625 309.9841613769531 327.9119567871094 305.0367431640625 C 328.9145202636719 303.8541870117188 329.9208984375 302.6343994140625 330.9033508300781 301.4109802246094 C 330.9685974121094 301.3294982910156 331.1847839355469 301.0574645996094 331.4183044433594 300.7635192871094 C 331.6534423828125 300.4676208496094 331.9063720703125 300.1493225097656 332.0365295410156 299.9861145019531 L 332.044189453125 299.9765014648438 L 332.0517272949219 299.9667358398438 C 332.0961608886719 299.9090881347656 332.1396179199219 299.8534545898438 332.1739501953125 299.8094177246094 C 332.2143249511719 299.7576599121094 332.2449340820313 299.7182006835938 332.2582702636719 299.700439453125 C 332.3955383300781 299.5177917480469 332.5335998535156 299.3358764648438 332.6714477539063 299.1542053222656 C 332.7493286132813 299.0515747070313 332.8271484375 298.9490356445313 332.9046936035156 298.8465270996094 C 334.8612365722656 296.2435302734375 336.7590637207031 293.5653381347656 338.5482788085938 290.882568359375 C 342.1664733886719 285.4552001953125 345.4862060546875 279.7995300292969 348.4153442382813 274.0723571777344 C 349.8393859863281 271.2905883789063 351.1981506347656 268.4397888183594 352.4537353515625 265.5996704101563 C 352.5498046875 265.382568359375 352.7442016601563 264.9257507324219 352.9156799316406 264.5226745605469 C 352.9610595703125 264.416015625 353.0106506347656 264.2994995117188 353.0563354492188 264.1923522949219 L 353.0687255859375 264.1974182128906 C 353.1484069824219 264.0025329589844 353.2283020019531 263.8079223632813 353.3082275390625 263.6133117675781 C 353.4827880859375 263.1884460449219 353.6631774902344 262.7490844726563 353.8386535644531 262.3118286132813 C 354.415283203125 260.8729858398438 354.9812622070313 259.3993225097656 355.5211486816406 257.9312438964844 C 357.7709350585938 251.8126525878906 359.653076171875 245.5305328369141 361.1152648925781 239.25927734375 C 361.843994140625 236.1329956054688 362.4823608398438 232.94287109375 363.0127868652344 229.7774505615234 C 363.1791381835938 228.7832489013672 363.337890625 227.7744903564453 363.4847717285156 226.7789154052734 C 363.5223083496094 226.5290374755859 363.55859375 226.2752075195313 363.5948181152344 226.0194854736328 L 363.5975952148438 226 L 363.599853515625 225.9804077148438 C 363.6407775878906 225.6242828369141 363.6823120117188 225.2682037353516 363.7239074707031 224.9120330810547 C 363.8677062988281 223.6803741455078 364.016357421875 222.40673828125 364.1360778808594 221.1434478759766 C 364.7769775390625 214.4036560058594 364.981689453125 207.5208740234375 364.744384765625 200.6868743896484 C 364.6317443847656 197.4318695068359 364.4149780273438 194.1208190917969 364.1002197265625 190.8458709716797 C 363.955322265625 189.3217010498047 363.7745971679688 187.8109893798828 363.5705261230469 186.1359100341797 L 363.568359375 186.1183624267578 L 363.5658264160156 186.1008605957031 C 363.5489807128906 185.9854888916016 363.5169982910156 185.7527465820313 363.4814453125 185.4945373535156 C 363.4296569824219 185.1182403564453 363.3709411621094 184.6917419433594 363.3376770019531 184.4706573486328 C 363.2137756347656 183.6527862548828 363.0979919433594 182.9177856445313 362.9834289550781 182.2219543457031 C 361.89111328125 175.6188659667969 360.3764953613281 169.0344543457031 358.4814453125 162.6503753662109 C 357.5201416015625 159.4036102294922 356.4369506835938 156.1367034912109 355.2621459960938 152.9414520263672 C 354.6534118652344 151.2873229980469 354.0094909667969 149.6233215332031 353.3481140136719 147.9953308105469 C 353.26611328125 147.7942352294922 353.1842041015625 147.5956115722656 353.1023864746094 147.3972473144531 C 353.0458984375 147.2602386474609 352.9894714355469 147.1234130859375 352.933349609375 146.986572265625 L 352.9139404296875 146.9388732910156 L 352.9077453613281 146.9236602783203 L 352.9011840820313 146.9086151123047 C 352.6524047851563 146.3344116210938 352.323486328125 145.5792083740234 351.9858093261719 144.8296661376953 C 349.1951904296875 138.60302734375 345.9743041992188 132.5324859619141 342.413818359375 126.7894515991211 C 340.6807250976563 123.9940795898438 338.8432312011719 121.2384490966797 336.9523620605469 118.5991592407227 C 336.3246154785156 117.7251586914063 335.7395324707031 116.9256973266602 335.1626586914063 116.1535339355469 C 335.0285339355469 115.9737396240234 334.7852783203125 115.6579895019531 334.5897827148438 115.4042816162109 C 334.5186462402344 115.3119506835938 334.455078125 115.2294082641602 334.4080810546875 115.1681213378906 L 334.4012451171875 115.1592407226563 L 334.3943176269531 115.1504516601563 C 333.5606384277344 114.0961151123047 332.572509765625 112.856201171875 331.5647888183594 111.6539916992188 C 327.1025390625 106.3261184692383 322.2701416015625 101.3400344848633 317.2023620605469 96.83473968505859 C 315.8361511230469 95.62094879150391 314.4380798339844 94.42853546142578 313.0465698242188 93.29024505615234 C 312.507568359375 92.84799194335938 311.9548034667969 92.40940856933594 311.4202880859375 91.98532867431641 L 311.0330200195313 91.67782592773438 L 311.0164489746094 91.66465759277344 L 310.99951171875 91.65195465087891 C 310.8653259277344 91.55128479003906 310.7310791015625 91.45015716552734 310.5968017578125 91.34899139404297 C 310.4607849121094 91.24649047851563 310.3247375488281 91.14395141601563 310.1886596679688 91.04190826416016 C 307.3471984863281 88.92424011230469 304.4234313964844 86.93144989013672 301.4951171875 85.11620330810547 C 298.5077209472656 83.26382446289063 295.4226989746094 81.53707885742188 292.3259887695313 79.98403167724609 C 290.7079467773438 79.17315673828125 289.0487670898438 78.39153289794922 287.3941650390625 77.66082763671875 L 287.3899841308594 77.65895080566406 L 287.3857727050781 77.65715789794922 L 286.6989135742188 77.35874176025391 L 286.6617431640625 77.34262084960938 L 286.623779296875 77.3284912109375 L 286.5470581054688 77.29997253417969 C 286.1881713867188 77.16400146484375 285.8350219726563 77.02214813232422 285.4612731933594 76.87199401855469 C 285.1193542480469 76.734619140625 284.7658081054688 76.59257507324219 284.410400390625 76.45674133300781 C 280.9118957519531 75.12174224853516 277.3389892578125 73.97632598876953 273.7901916503906 73.05199432373047 C 271.8999328613281 72.55815887451172 269.9639282226563 72.11373901367188 268.037109375 71.73140716552734 C 267.1979064941406 71.56511688232422 266.3605651855469 71.40999603271484 265.5480651855469 71.27020263671875 C 265.1995239257813 71.2103271484375 264.8494567871094 71.15395355224609 264.5108947753906 71.09941101074219 C 264.3070373535156 71.06657409667969 264.1031494140625 71.03374481201172 263.8992309570313 71.00007629394531 L 263.8761901855469 70.99628448486328 L 263.86083984375 70.99423980712891 C 263.8156433105469 70.98757171630859 263.6669311523438 70.96395111083984 263.5122375488281 70.93949127197266 L 263.482177734375 70.93470001220703 L 263.4575805664063 70.93082427978516 L 263.432861328125 70.92774200439453 C 263.3032836914063 70.91162109375 263.1171569824219 70.887451171875 262.9408264160156 70.86453247070313 C 262.6258850097656 70.82362365722656 262.486572265625 70.80568695068359 262.4131469726563 70.79777526855469 C 262.0398864746094 70.75350952148438 261.6432800292969 70.70962524414063 261.1663513183594 70.65969848632813 C 260.2271118164063 70.56291198730469 259.2377624511719 70.47690582275391 258.2234802246094 70.40395355224609 C 256.3793640136719 70.27066040039063 254.5384826660156 70.18982696533203 252.75244140625 70.16370391845703 C 252.2879486083984 70.15690612792969 251.8174896240234 70.15345001220703 251.3541564941406 70.15345001220703 C 248.1547393798828 70.15345001220703 244.9502258300781 70.31740570068359 241.8295593261719 70.64082336425781 L 242.1262817382813 73.62607574462891 L 241.9852294921875 73.63274383544922 L 240.4880218505859 72.22382354736328 L 241.7975616455078 70.64457702636719 C 241.7303619384766 70.65278625488281 240.7926940917969 70.76032257080078 240.4187316894531 70.80128479003906 L 240.4026489257813 70.80303192138672 L 240.3866119384766 70.80516052246094 C 240.2393646240234 70.82449340820313 240.0944061279297 70.84494781494141 240.0207366943359 70.85532379150391 L 239.9846038818359 70.86041259765625 L 239.9689025878906 70.86257934570313 L 239.9510192871094 70.86532592773438 C 239.1467742919922 70.99291229248047 238.3151092529297 71.12478637695313 237.4727783203125 71.27849578857422 C 235.7196044921875 71.59436798095703 233.9225311279297 71.9794921875 232.1347351074219 72.42253112792969 C 227.6820220947266 73.5281982421875 224.3375701904297 74.55832672119141 221.2899475097656 75.76278686523438 C 220.7163543701172 75.98953247070313 220.115234375 76.1044921875 219.5030670166016 76.1044921875 C 216.4350280761719 76.1044921875 213.6378173828125 73.32778167724609 212.8056945800781 70.75520324707031 C 212.0921478271484 68.55032348632813 212.7883605957031 66.75645446777344 213.4980316162109 65.63978576660156 C 214.4483642578125 64.14444732666016 216.0416870117188 62.87203598022461 217.8694458007813 62.14874267578125 L 217.8662719726563 62.14075469970703 C 218.4249267578125 61.91454696655273 219.2956695556641 61.56402206420898 219.4060211181641 61.52020263671875 L 218.6969909667969 61.61649322509766 L 218.2805786132813 61.21537017822266 C 218.2246398925781 61.53550338745117 218.0663757324219 61.83020401000977 217.8308258056641 62.05117797851563 L 216.8035430908203 59.45590209960938 L 217.5341033935547 60.05224990844727 L 218.2811889648438 58.73920059204102 L 219.4172821044922 61.51574325561523 C 219.9267272949219 61.30965805053711 220.4631958007813 61.10815811157227 220.9259796142578 60.93545150756836 C 221.6881561279297 60.65124130249023 222.4604034423828 60.37670135498047 223.2209014892578 60.11953353881836 C 224.9759063720703 59.52549362182617 226.8017272949219 58.99878311157227 228.6479797363281 58.55382537841797 C 232.0540618896484 57.72849273681641 235.8266906738281 57.07874298095703 240.5225219726563 56.50857543945313 C 244.1859893798828 56.0649528503418 247.9313201904297 55.83999252319336 251.6540679931641 55.83999252319336 C 264.7214050292969 55.83999252319336 277.9405212402344 58.54520034790039 290.9443664550781 63.88053512573242 C 297.0826416015625 66.39899444580078 303.155029296875 69.50853729248047 308.9927673339844 73.12270355224609 C 314.6892700195313 76.64945220947266 320.2093505859375 80.68515777587891 325.3997192382813 85.11782836914063 C 336.0584411621094 94.22078704833984 345.4750366210938 105.1215362548828 353.387939453125 117.5172424316406 C 361.0337219238281 129.4945831298828 367.1064758300781 142.589111328125 371.4374389648438 156.4371185302734 C 375.6786804199219 169.9991149902344 378.146728515625 184.1511993408203 378.7729797363281 198.5001983642578 C 379.3999328613281 212.8650817871094 378.1698913574219 227.1762847900391 375.1170654296875 241.0362396240234 C 372.2328491210938 254.1321105957031 367.580322265625 267.0797119140625 361.2887268066406 279.5193176269531 C 355.2023315429688 291.5532836914063 347.6153564453125 303.0539855957031 338.7385559082031 313.7019958496094 C 329.6667785644531 324.5835876464844 319.1698303222656 334.3740234375 307.5392761230469 342.8013610839844 C 296.0299072265625 351.1409606933594 283.4723510742188 358.1023559570313 270.2154846191406 363.4923400878906 C 261.1199340820313 367.1900329589844 251.5052795410156 370.0084533691406 241.6386108398438 371.8693237304688 C 232.0018615722656 373.6867980957031 222.0350799560547 374.6084594726563 212.0174102783203 374.6084594726563 Z M 351.8583984375 264.6847534179688 L 350.6234741210938 264.0361328125 C 350.4083251953125 263.7240600585938 350.3436584472656 263.385498046875 350.3613586425781 263.0918579101563 L 352.9920043945313 264.1660766601563 C 352.7385864257813 264.4557800292969 352.3442993164063 264.6847534179688 351.8583984375 264.6847534179688 Z"/><path class="e" d="M 251.6517486572266 57.33999633789063 C 247.9903869628906 57.33999633789063 244.3065185546875 57.56130981445313 240.7032928466797 57.99765014648438 C 236.0676116943359 58.56039428710938 232.3497467041016 59.20022583007813 228.9994354248047 60.01205444335938 C 227.1971588134766 60.44635009765625 225.4148864746094 60.96054077148438 223.7013854980469 61.54049682617188 C 222.9548950195313 61.79290771484375 222.1973419189453 62.06228637695313 221.4503479003906 62.34085083007813 C 221.0016784667969 62.50823974609375 220.4827270507813 62.70318603515625 219.9935455322266 62.90069580078125 L 219.9884338378906 62.90283203125 L 219.9690246582031 62.91055297851563 L 219.6098785400391 62.01727294921875 C 219.6115570068359 62.0128173828125 219.61328125 62.0081787109375 219.6149291992188 62.00372314453125 L 219.0107421875 60.50942993164063 L 219.0044097900391 60.51071166992188 L 219.0380096435547 60.594970703125 L 219.0041656494141 60.5107421875 L 218.8554840087891 60.540771484375 L 218.8554840087891 63.1248779296875 L 218.8517913818359 60.54153442382813 L 217.3532562255859 60.84423828125 L 218.4027862548828 63.49649047851563 C 218.9610748291016 63.14852905273438 219.3794860839844 62.62539672851563 219.6076202392578 62.02322387695313 L 219.9625244140625 62.91314697265625 C 219.8622283935547 62.953125 218.9729614257813 63.31097412109375 218.4182434082031 63.53555297851563 L 218.42138671875 63.54348754882813 C 216.8814392089844 64.15292358398438 215.54833984375 65.21023559570313 214.7639770507813 66.44436645507813 C 213.9828033447266 67.67355346679688 213.8040771484375 68.96841430664063 214.2328491210938 70.29345703125 C 214.5894317626953 71.39572143554688 215.3711090087891 72.502197265625 216.3774871826172 73.32913208007813 C 217.3783874511719 74.15155029296875 218.4884338378906 74.60446166992188 219.5031127929688 74.60446166992188 C 219.9316101074219 74.60446166992188 220.3356628417969 74.52703857421875 220.7386169433594 74.36776733398438 C 223.8504791259766 73.13787841796875 227.2534790039063 72.0889892578125 231.7740325927734 70.96649169921875 C 233.5914001464844 70.51617431640625 235.4180603027344 70.12469482421875 237.2034759521484 69.8028564453125 C 238.0631561279297 69.64599609375 238.9034271240234 69.51272583007813 239.716064453125 69.38385009765625 L 239.7516174316406 69.37823486328125 L 239.7863311767578 69.37353515625 L 239.8140716552734 69.36962890625 C 239.8914794921875 69.35873413085938 240.0402526855469 69.3377685546875 240.1912994384766 69.31790161132813 L 240.2233428955078 69.313720703125 L 240.2554321289063 69.3101806640625 C 240.6121215820313 69.27114868164063 241.5297088623047 69.16595458984375 241.617431640625 69.1553955078125 C 240.0496215820313 69.34414672851563 238.8957977294922 70.73080444335938 238.9906616210938 72.31231689453125 L 241.9445343017578 72.13516235351563 L 241.6749725341797 69.1488037109375 C 244.8467102050781 68.82009887695313 248.1029815673828 68.6534423828125 251.3534393310547 68.6534423828125 C 251.8247528076172 68.6534423828125 252.3028411865234 68.65695190429688 252.7743377685547 68.66384887695313 C 254.5883941650391 68.69039916992188 256.458251953125 68.77249145507813 258.3310546875 68.90777587890625 C 259.3593444824219 68.98178100585938 260.3642578125 69.069091796875 261.322265625 69.16787719726563 C 261.8015747070313 69.21798706054688 262.2025146484375 69.26235961914063 262.5818786621094 69.30728149414063 C 262.6705627441406 69.31698608398438 262.8073120117188 69.3345947265625 263.1287231445313 69.37637329101563 C 263.3036193847656 69.39907836914063 263.4889526367188 69.42318725585938 263.6176147460938 69.43914794921875 L 263.6672973632813 69.4453125 L 263.7167358398438 69.453125 L 263.74365234375 69.4573974609375 C 263.8803100585938 69.47903442382813 264.0126342773438 69.50006103515625 264.0699462890625 69.5087890625 L 264.0960693359375 69.51223754882813 L 264.1435241699219 69.52008056640625 C 264.3454284667969 69.55340576171875 264.5473937988281 69.58590698242188 264.7492980957031 69.61846923828125 C 265.0917053222656 69.67364501953125 265.44580078125 69.73068237304688 265.8023071289063 69.79190063476563 C 266.6275634765625 69.93386840820313 267.4774780273438 70.09136962890625 268.3290710449219 70.2601318359375 C 270.28515625 70.64822387695313 272.25048828125 71.099365234375 274.1682739257813 71.60040283203125 C 277.7696533203125 72.53842163085938 281.3952941894531 73.70071411132813 284.9458923339844 75.05560302734375 C 285.3128051757813 75.19583129882813 285.6719970703125 75.340087890625 286.0193481445313 75.47967529296875 C 286.3863830566406 75.62710571289063 286.7330627441406 75.76641845703125 287.078369140625 75.89715576171875 L 287.1475830078125 75.92291259765625 L 287.2230224609375 75.95098876953125 L 287.296875 75.98309326171875 L 287.68505859375 76.1517333984375 L 287.983642578125 76.28146362304688 L 287.991943359375 76.2850341796875 L 288.0001831054688 76.2886962890625 C 289.6768188476563 77.02914428710938 291.3582153320313 77.8211669921875 292.9983825683594 78.6431884765625 C 296.1349487304688 80.2161865234375 299.2596435546875 81.96514892578125 302.2855224609375 83.84127807617188 C 305.2501525878906 85.67913818359375 308.2095642089844 87.69622802734375 311.0813903808594 89.83648681640625 L 311.0851135253906 89.83926391601563 L 311.0888366699219 89.842041015625 C 311.2257080078125 89.94473266601563 311.3625793457031 90.04782104492188 311.4994506835938 90.15093994140625 C 311.6328735351563 90.25149536132813 311.7662963867188 90.35205078125 311.8997192382813 90.45208740234375 L 311.9334411621094 90.4774169921875 L 311.9664916992188 90.50363159179688 L 312.3522033691406 90.80990600585938 C 312.8915710449219 91.23785400390625 313.4492797851563 91.680419921875 313.9964294433594 92.1292724609375 C 315.404541015625 93.28121948242188 316.8182067871094 94.48696899414063 318.1989440917969 95.713623046875 C 323.3213806152344 100.2674865722656 328.2053527832031 105.3067321777344 332.7142944335938 110.6903686523438 C 333.7360229492188 111.9092407226563 334.731689453125 113.1587219238281 335.5709838867188 114.2201843261719 L 335.5848083496094 114.2376708984375 L 335.598388671875 114.2554016113281 C 335.64501953125 114.3162231445313 335.708251953125 114.3982849121094 335.7788696289063 114.4899597167969 C 335.9771728515625 114.747314453125 336.2239379882813 115.0675354003906 336.3642883300781 115.2556762695313 C 336.9466552734375 116.0351867675781 337.5371704101563 116.8421020507813 338.1716918945313 117.7255859375 C 340.0823059082031 120.3923950195313 341.9384765625 123.1759948730469 343.6886596679688 125.9990539550781 C 347.2841796875 131.7984924316406 350.5366516113281 137.9285583496094 353.3558349609375 144.2188720703125 L 353.3558044433594 144.2188720703125 C 353.6970520019531 144.9764099121094 354.0275573730469 145.7353515625 354.277587890625 146.3122863769531 L 354.2908020019531 146.3428039550781 L 354.3033447265625 146.3736877441406 L 354.3236389160156 146.4234924316406 C 354.3783264160156 146.5567321777344 354.4332580566406 146.6900024414063 354.4882507324219 146.8233642578125 C 354.5710754394531 147.0242309570313 354.6540222167969 147.2253112792969 354.73779296875 147.4307861328125 C 355.4053955078125 149.0740356445313 356.0553894042969 150.7537231445313 356.6699829101563 152.423828125 C 357.8556518554688 155.6486511230469 358.9491271972656 158.9464111328125 359.9193725585938 162.2235412597656 C 361.8322448730469 168.6675415039063 363.3609619140625 175.313232421875 364.4635314941406 181.978271484375 C 364.5789794921875 182.6796875 364.6957092285156 183.4209136962891 364.8210144042969 184.2476806640625 C 364.8556518554688 184.478271484375 364.9151611328125 184.9103240966797 364.9676513671875 185.29150390625 C 365.00244140625 185.5440979003906 365.03369140625 185.7716827392578 365.0501708984375 185.8845977783203 L 365.0552368164063 185.9195404052734 L 365.0595092773438 185.95458984375 C 365.2650146484375 187.6415405273438 365.447021484375 189.1634521484375 365.5932922363281 190.7023162841797 C 365.9110717773438 194.0081787109375 366.1297912597656 197.3500518798828 366.2434692382813 200.6348114013672 C 366.4830322265625 207.5332794189453 366.2763366699219 214.4813690185547 365.6293334960938 221.2848663330078 C 365.50830078125 222.5629577636719 365.3588256835938 223.8433227539063 365.2142944335938 225.08154296875 C 365.1726684570313 225.4382781982422 365.1310424804688 225.7949523925781 365.090087890625 226.1515960693359 L 365.0855102539063 226.1911773681641 L 365.0799255371094 226.2305908203125 C 365.04345703125 226.4875793457031 365.0069885253906 226.7427215576172 364.9686889648438 226.9978179931641 C 364.8202514648438 228.0040893554688 364.6599731445313 229.0225067138672 364.4921569824219 230.0253601074219 C 363.9565734863281 233.2216796875 363.3119506835938 236.4429473876953 362.5760803222656 239.5999145507813 C 361.0999450683594 245.9309539794922 359.1999816894531 252.2726440429688 356.9289245605469 258.448974609375 C 356.3841247558594 259.9305419921875 355.8128967285156 261.4177856445313 355.2308044433594 262.8703002929688 C 355.0530395507813 263.3134155273438 354.871337890625 263.7557678222656 354.6956176757813 264.1835327148438 C 354.6164855957031 264.376220703125 354.537353515625 264.5689697265625 354.4591674804688 264.7602233886719 L 354.4533081054688 264.7745361328125 L 354.4119873046875 264.8757934570313 L 354.3980407714844 264.8700866699219 C 354.3640747070313 264.9498596191406 354.3291320800781 265.031982421875 354.2964782714844 265.1087341308594 C 354.1142883300781 265.5368041992188 353.9259338378906 265.9795532226563 353.8256225585938 266.2061767578125 C 352.5587463378906 269.0718994140625 351.1876220703125 271.9486083984375 349.7508544921875 274.75537109375 C 346.7955627441406 280.5335693359375 343.4464416503906 286.2394104003906 339.7962036132813 291.7148132324219 C 337.9916076660156 294.420654296875 336.0773315429688 297.1220397949219 334.1066284179688 299.7440185546875 L 334.103759765625 299.7477722167969 L 334.1009521484375 299.7515258789063 C 334.0223083496094 299.85546875 333.9434204101563 299.9593505859375 333.8644714355469 300.0634155273438 C 333.7286071777344 300.242431640625 333.5925598144531 300.4216918945313 333.4573059082031 300.6016845703125 C 333.4413452148438 300.6228637695313 333.4049682617188 300.6700439453125 333.3568420410156 300.7317504882813 C 333.323974609375 300.77392578125 333.2823791503906 300.8271789550781 333.2398376464844 300.8823852539063 L 333.2246704101563 300.9020385742188 L 333.2091674804688 300.9215087890625 C 333.0776977539063 301.0862731933594 332.8208923339844 301.4094848632813 332.5840148925781 301.7076416015625 C 332.3523864746094 301.9991760253906 332.1394348144531 302.2671508789063 332.0760803222656 302.3463134765625 L 332.074462890625 302.3483276367188 L 332.0728454589844 302.3503723144531 C 331.0810241699219 303.5852661132813 330.0661010742188 304.8153991699219 329.0558471679688 306.0070495605469 C 324.8228454589844 310.9974975585938 320.259765625 315.7990112304688 315.491943359375 320.2794189453125 C 313.0899658203125 322.5338134765625 310.6121215820313 324.7321472167969 308.1276550292969 326.8128662109375 C 307.0262145996094 327.7358093261719 305.8853759765625 328.6670837402344 304.7345581054688 329.582763671875 C 304.5718383789063 329.7120056152344 304.4086303710938 329.8402709960938 304.245361328125 329.9685974121094 C 304.088623046875 330.0917663574219 303.931884765625 330.2149658203125 303.775634765625 330.3390502929688 L 303.7464294433594 330.3622436523438 L 303.7167053222656 330.3846435546875 C 303.5562744140625 330.5056762695313 303.3959350585938 330.6270141601563 303.235595703125 330.748291015625 C 302.7713928222656 331.0995483398438 302.2913208007813 331.4627380371094 301.8117065429688 331.8170776367188 C 296.5064392089844 335.7493591308594 290.9171142578125 339.4011840820313 285.1987915039063 342.6712646484375 C 281.7510681152344 344.6425170898438 278.2163696289063 346.5036926269531 274.6919860839844 348.2035827636719 C 273.0507202148438 348.9945373535156 271.4380493164063 349.7413635253906 269.8983764648438 350.4234619140625 C 269.362548828125 350.6606750488281 268.8222961425781 350.8971862792969 268.29248046875 351.1263732910156 L 268.2734985351563 351.1345825195313 L 268.2543029785156 351.142578125 L 268.1856994628906 351.171142578125 C 267.2901000976563 351.5435485839844 266.35498046875 351.9208374023438 265.4077453613281 352.2919006347656 C 258.4962158203125 355.0036315917969 251.405029296875 357.2085571289063 244.3327484130859 358.8450012207031 C 240.9125671386719 359.6384582519531 237.3972930908203 360.3239440917969 233.8804321289063 360.8831787109375 C 233.1330261230469 361.0010070800781 232.3777008056641 361.1123657226563 231.6472473144531 361.2200927734375 L 231.5592498779297 361.2330932617188 L 231.5500183105469 361.2344360351563 L 231.5407562255859 361.2357177734375 C 231.4468841552734 361.2489929199219 231.3754272460938 361.259765625 231.3152923583984 361.2688293457031 C 231.2643890380859 361.2764892578125 231.2196197509766 361.2831726074219 231.17724609375 361.2892761230469 L 231.1197052001953 361.2974853515625 L 231.0618896484375 361.3034973144531 C 230.9759826660156 361.3124389648438 230.8408813476563 361.3280639648438 230.6367034912109 361.3526000976563 L 230.6309356689453 361.353271484375 L 230.6252136230469 361.3539123535156 C 229.0204315185547 361.5404968261719 227.115478515625 361.754150390625 225.1542510986328 361.9240417480469 C 220.6958923339844 362.3102722167969 216.1494750976563 362.5061340332031 211.6413879394531 362.5061340332031 C 209.0701141357422 362.5061340332031 206.4605255126953 362.4423217773438 203.885986328125 362.3164978027344 C 200.3815765380859 362.146240234375 196.8133392333984 361.852783203125 193.2804412841797 361.4442138671875 L 193.2712097167969 361.4431762695313 L 193.2620239257813 361.4420471191406 L 192.8961181640625 361.3972778320313 C 192.5232543945313 361.3516235351563 191.9933013916016 361.2867736816406 191.7127990722656 361.2528686523438 L 191.6763000488281 361.2484436035156 L 191.639892578125 361.2431640625 C 191.4642944335938 361.217529296875 191.1355285644531 361.17041015625 190.8179321289063 361.1248168945313 C 190.4817047119141 361.0765991210938 190.1577911376953 361.0300903320313 190.0328826904297 361.01171875 L 190.0266571044922 361.0107727050781 L 190.0204772949219 361.0098571777344 C 188.1851654052734 360.7318725585938 186.353759765625 360.4222717285156 184.5777130126953 360.0896301269531 C 177.5941619873047 358.782958984375 170.6638793945313 356.9977416992188 163.9793395996094 354.7835083007813 C 160.7722473144531 353.7211303710938 157.5115661621094 352.5153198242188 154.0155639648438 351.0989379882813 L 153.9425659179688 351.0695190429688 C 153.8088073730469 351.0155639648438 153.6824035644531 350.964599609375 153.6475219726563 350.9515991210938 L 153.5366516113281 350.9102783203125 L 153.4293518066406 350.8603515625 C 153.3908386230469 350.8424682617188 153.295166015625 350.8002624511719 153.1739807128906 350.746826171875 L 153.0575866699219 350.6954650878906 C 152.3667602539063 350.39306640625 151.6321411132813 350.0704956054688 150.910400390625 349.7432861328125 C 149.2212524414063 348.9788208007813 147.543212890625 348.182373046875 145.9237670898438 347.3764038085938 C 139.7515563964844 344.3074951171875 133.7463073730469 340.7775268554688 128.0734252929688 336.8836669921875 C 126.7813110351563 335.9957275390625 125.4805297851563 335.0707702636719 124.2111206054688 334.1373291015625 C 123.924560546875 333.9273071289063 123.6439819335938 333.7158813476563 123.3726196289063 333.5113525390625 C 123.0731811523438 333.2857055664063 122.7902221679688 333.072509765625 122.5057678222656 332.8655395507813 L 122.4176940917969 332.8020935058594 L 122.3694763183594 332.7673645019531 L 122.3226928710938 332.730712890625 L 122.1620788574219 332.6051635742188 C 121.954833984375 332.4432373046875 121.7405395507813 332.2758178710938 121.5249938964844 332.10400390625 C 119.0063171386719 330.1103820800781 116.4779052734375 327.984130859375 114.0098571777344 325.7843017578125 C 109.1463928222656 321.4491882324219 104.4947204589844 316.7421264648438 100.1842651367188 311.7942810058594 C 99.14202880859375 310.5982360839844 98.11322021484375 309.3814697265625 97.12643432617188 308.1777648925781 L 97.124755859375 308.1757202148438 L 97.12307739257813 308.1736755371094 C 96.58929443359375 307.5202331542969 96.15573120117188 306.9833984375 95.7596435546875 306.4855041503906 C 95.64279174804688 306.3401489257813 95.53225708007813 306.19873046875 95.42535400390625 306.0619506835938 C 95.3192138671875 305.9261474609375 95.21868896484375 305.7975158691406 95.120849609375 305.6763916015625 C 95.06845092773438 305.6143493652344 95.05075073242188 305.5930480957031 95.01010131835938 305.5429077148438 L 94.985107421875 305.5120544433594 L 94.9609375 305.4805908203125 C 94.91598510742188 305.4220581054688 94.88082885742188 305.3749389648438 94.83920288085938 305.3189086914063 C 94.81719970703125 305.289306640625 94.79248046875 305.2560424804688 94.76193237304688 305.2155151367188 C 92.74801635742188 302.5531311035156 90.94635009765625 300.0302734375 89.25479125976563 297.5040893554688 C 85.60287475585938 292.0567321777344 82.26339721679688 286.34130859375 79.32876586914063 280.5159301757813 C 77.95303344726563 277.7828979492188 76.60693359375 274.8971862792969 75.32907104492188 271.9414672851563 L 75.2843017578125 271.838134765625 L 75.25433349609375 271.775634765625 L 75.23348999023438 271.7206726074219 C 75.15396118164063 271.536865234375 75.09918212890625 271.4097290039063 75.06356811523438 271.3267822265625 C 75.04147338867188 271.2753295898438 75.02597045898438 271.2390441894531 75.01608276367188 271.215576171875 C 74.97390747070313 271.1160278320313 74.93777465820313 271.0178833007813 74.90716552734375 270.92138671875 C 74.88336181640625 270.8626708984375 74.85964965820313 270.8038940429688 74.83602905273438 270.7450256347656 C 74.5345458984375 270.0058288574219 74.247314453125 269.2762756347656 74.03042602539063 268.7225341796875 L 74.02947998046875 268.7200927734375 L 74.028564453125 268.7176818847656 C 73.41293334960938 267.1375427246094 72.8157958984375 265.5258178710938 72.25424194335938 263.9287109375 C 70.09393310546875 257.7947998046875 68.30313110351563 251.4234619140625 66.93167114257813 244.9920043945313 C 66.26461791992188 241.8657684326172 65.69729614257813 238.7191314697266 65.24551391601563 235.639404296875 L 65.24240112304688 235.6180419921875 L 65.23956298828125 235.5966339111328 C 65.2322998046875 235.5416870117188 65.20416259765625 235.3389587402344 65.17437744140625 235.1240844726563 C 65.1512451171875 234.9573669433594 65.12716674804688 234.7836761474609 65.11026000976563 234.6605987548828 L 65.10806274414063 234.6448211669922 L 65.1060791015625 234.6289978027344 L 65.05166625976563 234.1991424560547 L 65.05010986328125 234.1866760253906 L 65.04861450195313 234.1742248535156 L 65.01165771484375 233.8619079589844 C 64.93569946289063 233.2203674316406 64.85711669921875 232.5570068359375 64.787353515625 231.8937683105469 C 64.59320068359375 230.0520935058594 64.435302734375 228.2515411376953 64.318115234375 226.5448608398438 C 63.84283447265625 219.7139129638672 63.8350830078125 212.7578582763672 64.29498291015625 205.8702239990234 C 65.15957641601563 192.9036407470703 67.820068359375 179.8030853271484 72.20278930664063 166.93212890625 C 76.47552490234375 154.388916015625 82.40069580078125 142.3493957519531 89.8145751953125 131.146728515625 C 91.58926391601563 128.4682312011719 93.44888305664063 125.8437805175781 95.34225463867188 123.3456726074219 C 96.43984985351563 121.8982238769531 97.46612548828125 120.3373107910156 98.5526123046875 118.6847229003906 C 99.31646728515625 117.5228576660156 100.1063842773438 116.3214416503906 100.9266052246094 115.1580505371094 C 101.2893371582031 114.643310546875 100.9527893066406 113.4260559082031 100.3157653808594 112.9501037597656 C 99.95001220703125 112.6766967773438 99.56719970703125 112.5380859375 99.17788696289063 112.5380859375 C 98.67080688476563 112.5380859375 98.11907958984375 112.7736511230469 97.6240234375 113.2016906738281 L 97.25521850585938 113.5203247070313 C 94.74874877929688 115.6849975585938 92.38128662109375 117.7296447753906 90.4322509765625 120.1077880859375 C 88.05596923828125 123.0108947753906 85.78097534179688 125.9808654785156 83.67166137695313 128.9335021972656 C 79.71429443359375 134.4808959960938 76.16375732421875 140.2835998535156 73.11843872070313 146.180908203125 C 66.60888671875 158.78076171875 61.84646606445313 172.0074462890625 58.96334838867188 185.4936370849609 C 56.05258178710938 199.1075897216797 54.9598388671875 212.9977264404297 55.71560668945313 226.7781829833984 C 56.48284912109375 240.7674102783203 59.14572143554688 254.4241790771484 63.63034057617188 267.369384765625 C 68.02633666992188 280.0608520507813 73.99139404296875 292.1858520507813 81.35980224609375 303.4075927734375 C 88.81158447265625 314.7562866210938 97.590576171875 325.0132751464844 107.453125 333.8938293457031 C 117.9126281738281 343.312744140625 129.776611328125 351.2591857910156 142.715576171875 357.512451171875 C 155.5578918457031 363.718994140625 169.1553344726563 368.1125793457031 183.1302032470703 370.5711669921875 C 192.6988372802734 372.2547607421875 202.4176635742188 373.1084594726563 212.0167083740234 373.1084594726563 C 221.9420318603516 373.1084594726563 231.8147583007813 372.1955871582031 241.3606109619141 370.395263671875 C 251.1293029785156 368.5529174804688 260.6474304199219 365.7628784179688 269.6505126953125 362.102783203125 C 282.7957763671875 356.7581787109375 295.247314453125 349.8555908203125 306.6591186523438 341.586669921875 C 318.1889038085938 333.2323608398438 328.5943603515625 323.5274047851563 337.5863952636719 312.7415161132813 C 346.3906555175781 302.1805114746094 353.9149169921875 290.7751770019531 359.9501953125 278.8423156738281 C 366.1850280761719 266.5149536132813 370.7950134277344 253.6866302490234 373.6521606445313 240.7135925292969 C 376.6769714355469 226.9809112548828 377.8956909179688 212.8002777099609 377.2744445800781 198.5655975341797 C 376.65380859375 184.3463134765625 374.2083129882813 170.3228759765625 370.005859375 156.8848571777344 C 365.7144165039063 143.1634521484375 359.697998046875 130.1898193359375 352.1235656738281 118.3243103027344 C 344.2904357910156 106.0536499023438 334.9714965820313 95.26510620117188 324.4255676269531 86.25845336914063 C 319.2930603027344 81.87527465820313 313.8350830078125 77.88485717773438 308.2032165527344 74.398193359375 C 302.4354248046875 70.82742309570313 296.4371643066406 67.75576782226563 290.375 65.2685546875 C 277.5528869628906 60.00790405273438 264.5252990722656 57.34033203125 251.6526184082031 57.33999633789063 L 251.6517486572266 57.33999633789063 M 251.6540832519531 54.33999633789063 C 279.134033203125 54.34072875976563 305.5598754882813 66.20172119140625 326.3738403320313 83.9771728515625 C 348.4031982421875 102.7911376953125 364.2551574707031 128.4469909667969 372.8690795898438 155.9893493652344 C 381.4642028808594 183.4735412597656 382.7763061523438 213.2364959716797 376.5819396972656 241.3589019775391 C 370.6334838867188 268.3681640625 357.54833984375 293.4815673828125 339.8907165527344 314.6625061035156 C 321.4014892578125 336.8401794433594 297.4931030273438 354.0210571289063 270.7804565429688 364.8818664550781 C 252.0983276367188 372.4768676757813 232.0802307128906 376.1084594726563 212.0166931152344 376.1084594726563 C 202.1747436523438 376.1084594726563 192.3213653564453 375.2344665527344 182.6103363037109 373.5257568359375 C 154.1013488769531 368.5102233886719 126.9737854003906 355.5095825195313 105.445556640625 336.1231384277344 C 85.12246704101563 317.823486328125 69.736083984375 294.1629638671875 60.79556274414063 268.3512573242188 C 51.52651977539063 241.5954132080078 50.11874389648438 212.5119476318359 56.0296630859375 184.8663635253906 C 59.00479125976563 170.9497375488281 63.92276000976563 157.4441223144531 70.453125 144.8039245605469 C 73.615966796875 138.6789855957031 77.22561645507813 132.8037414550781 81.22940063476563 127.1912841796875 C 83.42184448242188 124.1222839355469 85.72317504882813 121.1245422363281 88.11074829101563 118.2075805664063 C 90.32760620117188 115.502685546875 93.01934814453125 113.2164001464844 95.66226196289063 110.9320068359375 C 96.70956420898438 110.0264892578125 97.94100952148438 109.5380859375 99.17791748046875 109.5380859375 C 100.1845092773438 109.5380859375 101.1947326660156 109.8616638183594 102.1118774414063 110.5471801757813 C 103.9233093261719 111.9005432128906 104.7716979980469 114.9095458984375 103.3789367675781 116.8860778808594 C 101.4586486816406 119.6097412109375 99.70547485351563 122.5567626953125 97.73269653320313 125.1583557128906 C 95.84622192382813 127.6473999023438 94.04046630859375 130.2001953125 92.3154296875 132.8037414550781 C 84.91787719726563 143.9817199707031 79.21343994140625 155.6552734375 75.04257202148438 167.8994445800781 C 70.68026733398438 180.7104949951172 68.12738037109375 193.4859161376953 67.288330078125 206.06982421875 C 66.83782958984375 212.8160400390625 66.84161376953125 219.5922698974609 67.31088256835938 226.3366394042969 C 67.43096923828125 228.0860443115234 67.5867919921875 229.8336334228516 67.77081298828125 231.5793151855469 C 67.849609375 232.3282775878906 67.939697265625 233.0753173828125 68.02792358398438 233.8224029541016 L 68.08233642578125 234.2522735595703 C 68.12179565429688 234.5394592285156 68.20062255859375 235.1044616699219 68.2137451171875 235.2039489746094 C 68.66424560546875 238.2748565673828 69.21798706054688 241.3307342529297 69.86563110351563 244.3659515380859 C 71.20770263671875 250.6597747802734 72.94589233398438 256.8616943359375 75.08389282226563 262.93212890625 C 75.63760375976563 264.5070190429688 76.21762084960938 266.0724487304688 76.82388305664063 267.6286010742188 C 77.0848388671875 268.2949523925781 77.34762573242188 268.95947265625 77.617919921875 269.6220397949219 C 77.74826049804688 269.9469909667969 77.88217163085938 270.2700805664063 78.014404296875 270.5931396484375 C 78.0142822265625 270.5928344726563 78.01419067382813 270.5926818847656 78.01406860351563 270.5923767089844 C 77.93634033203125 270.40380859375 77.76739501953125 270.0155639648438 77.76614379882813 270.0155639648438 C 77.76535034179688 270.0155944824219 77.82797241210938 270.162353515625 78.01406860351563 270.5923767089844 C 78.01516723632813 270.5950317382813 78.01620483398438 270.5975952148438 78.01727294921875 270.6001586914063 C 78.019287109375 270.6051025390625 78.02133178710938 270.6100463867188 78.02334594726563 270.614990234375 C 78.02139282226563 270.6102294921875 78.01937866210938 270.6052856445313 78.01727294921875 270.6001586914063 C 78.01632690429688 270.5978393554688 78.01535034179688 270.5954895019531 78.014404296875 270.5931396484375 C 78.03521728515625 270.6412353515625 78.05758666992188 270.6929321289063 78.08157348632813 270.748291015625 C 79.31106567382813 273.5921020507813 80.61563110351563 276.4001770019531 82.00839233398438 279.1669921875 C 84.90475463867188 284.9164428710938 88.16146850585938 290.4857788085938 91.74667358398438 295.8335571289063 C 93.47360229492188 298.4126586914063 95.28311157226563 300.9317016601563 97.15451049804688 303.4057006835938 C 97.24087524414063 303.5201721191406 97.27838134765625 303.5727844238281 97.34033203125 303.6534423828125 C 97.37228393554688 303.69287109375 97.38351440429688 303.7059936523438 97.4342041015625 303.7660827636719 C 97.65948486328125 304.0438537597656 97.87533569335938 304.3292236328125 98.09869384765625 304.6069946289063 C 98.54360961914063 305.1663818359375 98.99407958984375 305.7219848632813 99.44644165039063 306.2757568359375 C 100.4281921386719 307.4733276367188 101.4286499023438 308.6558532714844 102.4460144042969 309.8234252929688 C 106.6731567382813 314.6756286621094 111.2026062011719 319.2632446289063 116.0060119628906 323.5448608398438 C 118.4068298339844 325.6847229003906 120.8714294433594 327.7607727050781 123.392333984375 329.7560424804688 C 123.6513977050781 329.9625549316406 123.9122924804688 330.1653137207031 124.1713562011719 330.3680114746094 L 124.2651672363281 330.4356079101563 C 124.8432922363281 330.8560485839844 125.4082946777344 331.2952880859375 125.9845581054688 331.7176513671875 C 127.2328491210938 332.6355590820313 128.4942016601563 333.5327758789063 129.7725219726563 334.4112243652344 C 135.3511962890625 338.2404479980469 141.2001647949219 341.6773986816406 147.2593994140625 344.6901245117188 C 148.8736572265625 345.4934997558594 150.5048522949219 346.2668151855469 152.1473083496094 347.0101318359375 C 152.8511962890625 347.3292846679688 153.5606994628906 347.640869140625 154.2684020996094 347.9506225585938 C 154.4936218261719 348.0501098632813 154.6137390136719 348.1026306152344 154.6944885253906 348.1401977539063 C 154.775146484375 348.1702270507813 154.8953552246094 348.218994140625 155.1374816894531 348.316650390625 C 158.3622436523438 349.6231079101563 161.6190185546875 350.84130859375 164.9226989746094 351.9356689453125 C 171.5299682617188 354.1243286132813 178.2874755859375 355.8606262207031 185.1294403076172 357.1408081054688 C 186.9032592773438 357.4729919433594 188.6846160888672 357.7733154296875 190.4697113037109 358.043701171875 C 190.7118377685547 358.0793151855469 191.7122955322266 358.2219848632813 192.0727081298828 358.2745361328125 C 192.4763031005859 358.3233032226563 193.3942108154297 358.4359436035156 193.6250305175781 358.4640808105469 C 197.0826110839844 358.8638916015625 200.5552062988281 359.151123046875 204.0315704345703 359.3200378417969 C 206.5662536621094 359.4439086914063 209.1034851074219 359.5061340332031 211.6413879394531 359.5061340332031 C 216.0649871826172 359.5061340332031 220.4892120361328 359.3169555664063 224.8952941894531 358.9352416992188 C 226.6935272216797 358.7794494628906 228.4861602783203 358.5823974609375 230.2787475585938 358.3739929199219 C 230.5283813476563 358.343994140625 230.6616668701172 358.3289489746094 230.7517547607422 358.319580078125 C 230.84375 358.306396484375 230.9488830566406 358.28955078125 231.1215209960938 358.2651977539063 C 231.8855285644531 358.1524963378906 232.6513824462891 358.0398559570313 233.4134368896484 357.9197692871094 C 236.8485260009766 357.37353515625 240.2648010253906 356.7090454101563 243.6548004150391 355.922607421875 C 250.6882019042969 354.2951354980469 257.5902709960938 352.1364440917969 264.31201171875 349.4991760253906 C 265.2223815917969 349.1425476074219 266.1309204101563 348.7765502929688 267.0338134765625 348.4010925292969 L 267.1013793945313 348.3729553222656 C 267.6307373046875 348.1439514160156 268.1581420898438 347.9130554199219 268.6837463378906 347.6803283691406 C 270.2642822265625 346.9801330566406 271.8316040039063 346.2518615722656 273.3895874023438 345.5010375976563 C 276.8922119140625 343.8116455078125 280.3347473144531 341.9965515136719 283.7097473144531 340.06689453125 C 289.3522338867188 336.8401794433594 294.8032836914063 333.2774963378906 300.0252990722656 329.4069519042969 C 300.6578979492188 328.9395751953125 301.2829284667969 328.4627685546875 301.9098815917969 327.9897766113281 C 302.2289733886719 327.7363586425781 302.5499877929688 327.4866943359375 302.8690795898438 327.2333374023438 C 303.9896850585938 326.3416748046875 305.1009521484375 325.4350891113281 306.2008972167969 324.513427734375 C 308.6729736328125 322.4429931640625 311.0869445800781 320.2994079589844 313.4389038085938 318.0919494628906 C 318.1409912109375 313.6732788085938 322.5933837890625 308.9880981445313 326.7680358886719 304.0664672851563 C 327.7722473144531 302.8819580078125 328.761474609375 301.6824951171875 329.7337951660156 300.4718017578125 C 329.8614807128906 300.312255859375 330.6047973632813 299.3756103515625 330.8638305664063 299.0508117675781 C 330.9520874023438 298.9363708496094 331.0364685058594 298.829345703125 331.0590209960938 298.7993774414063 C 331.27490234375 298.5121459960938 331.4926147460938 298.226806640625 331.70849609375 297.9414978027344 C 333.6456298828125 295.3642578125 335.5114440917969 292.7326049804688 337.3003540039063 290.05029296875 C 340.874267578125 284.6893615722656 344.1460266113281 279.1256713867188 347.0798950195313 273.3893127441406 C 348.4933471679688 270.6281433105469 349.8279418945313 267.8294677734375 351.081787109375 264.9931640625 C 351.26611328125 264.5766906738281 351.8512268066406 263.1847534179688 351.8583984375 263.1847534179688 C 351.8605651855469 263.1847534179688 351.8104553222656 263.3106689453125 351.6814880371094 263.6268310546875 C 351.6661682128906 263.664306640625 351.65087890625 263.7017822265625 351.6355590820313 263.7392578125 C 351.65185546875 263.6994018554688 351.6671752929688 263.6619262695313 351.6814880371094 263.6268310546875 C 351.9368286132813 263.0021362304688 352.1949768066406 262.3802185058594 352.4464721679688 261.7532958984375 C 353.022705078125 260.3154907226563 353.5783386230469 258.8682861328125 354.11328125 257.4135437011719 C 356.3357543945313 251.3693237304688 358.1921997070313 245.1900482177734 359.6544189453125 238.9186859130859 C 360.3789672851563 235.8102264404297 361.0059204101563 232.6774139404297 361.5333862304688 229.5295867919922 C 361.6986083984375 228.5422210693359 361.8543395996094 227.5529479980469 362.0007934570313 226.5600433349609 C 362.038330078125 226.3103637695313 362.073974609375 226.0606842041016 362.1096801757813 225.8091888427734 C 362.2936096191406 224.2080383300781 362.49072265625 222.6068572998047 362.6427001953125 221.0019989013672 C 363.2828369140625 214.2708129882813 363.4799194335938 207.4964141845703 363.2453002929688 200.7389068603516 C 363.1326599121094 197.4840850830078 362.9186706542969 194.2310943603516 362.6070556640625 190.9893646240234 C 362.4588012695313 189.4295501708984 362.2710571289063 187.8734130859375 362.08154296875 186.3173217773438 C 362.0402221679688 186.0338592529297 361.9088134765625 185.055908203125 361.8543395996094 184.6936798095703 C 361.74169921875 183.9503173828125 361.6253967285156 183.2070007324219 361.5033569335938 182.4655456542969 C 360.4202880859375 175.9183197021484 358.9317626953125 169.4386291503906 357.0434265136719 163.0772399902344 C 356.0841979980469 159.83740234375 355.0199279785156 156.6294555664063 353.854248046875 153.4591064453125 C 353.2498474121094 151.816650390625 352.6172485351563 150.1816711425781 351.9583740234375 148.5599060058594 C 351.8213806152344 148.2239685058594 351.6825256347656 147.8898315429688 351.5454711914063 147.5556945800781 L 351.5248413085938 147.5050048828125 C 351.2263488769531 146.8161010742188 350.926025390625 146.1290893554688 350.6182250976563 145.4458312988281 C 347.85888671875 139.2890319824219 344.6941223144531 133.3142700195313 341.138916015625 127.5798034667969 C 339.4270629882813 124.8186340332031 337.6250610351563 122.11376953125 335.7329711914063 119.4727172851563 C 335.1492004394531 118.6599426269531 334.559814453125 117.852783203125 333.9609985351563 117.05126953125 C 333.7845153808594 116.8147583007813 333.390380859375 116.3060913085938 333.2176513671875 116.080810546875 C 332.2960205078125 114.9151306152344 331.3687438964844 113.755126953125 330.4152221679688 112.6175842285156 C 326.0416259765625 107.3955993652344 321.29638671875 102.4813537597656 316.2056884765625 97.95571899414063 C 314.8598327636719 96.76004028320313 313.4896240234375 95.59066772460938 312.0968322753906 94.45126342773438 C 311.4379272460938 93.91067504882813 310.7677917480469 93.38323974609375 310.0995788574219 92.85198974609375 C 309.8292846679688 92.64926147460938 309.5589904785156 92.44467163085938 309.2886962890625 92.241943359375 C 306.5106201171875 90.17153930664063 303.6480712890625 88.21563720703125 300.704833984375 86.39108276367188 C 297.7653198242188 84.56845092773438 294.7451171875 82.87530517578125 291.6535034179688 81.32485961914063 C 290.050537109375 80.52151489257813 288.4287719726563 79.75750732421875 286.7881469726563 79.032958984375 C 286.5591430664063 78.93344116210938 286.3301086425781 78.83401489257813 286.1011657714844 78.7344970703125 L 286.0204467773438 78.7044677734375 C 285.301513671875 78.43231201171875 284.592041015625 78.1319580078125 283.8749389648438 77.85791015625 C 280.451171875 76.55145263671875 276.9579467773438 75.42709350585938 273.412109375 74.5035400390625 C 271.5369262695313 74.01364135742188 269.646728515625 73.58004760742188 267.7452087402344 73.2027587890625 C 266.9305725097656 73.04132080078125 266.1121826171875 72.8892822265625 265.2937622070313 72.74850463867188 C 264.7474975585938 72.65463256835938 264.2012939453125 72.5701904296875 263.6550903320313 72.48004150390625 C 263.6268920898438 72.476318359375 263.4373168945313 72.44625854492188 263.2477416992188 72.416259765625 C 262.9455261230469 72.37872314453125 262.3411254882813 72.29800415039063 262.2472534179688 72.28860473632813 C 261.836181640625 72.23980712890625 261.4232177734375 72.19476318359375 261.01025390625 72.15158081054688 C 260.0454406738281 72.0521240234375 259.0806274414063 71.96945190429688 258.1157836914063 71.90005493164063 C 256.3232116699219 71.77053833007813 254.5268402099609 71.6898193359375 252.7304840087891 71.66354370117188 C 252.2713623046875 71.65682983398438 251.8126220703125 71.6534423828125 251.3534393310547 71.6534423828125 C 248.2250061035156 71.6534423828125 245.0958099365234 71.81036376953125 241.9842071533203 72.1328125 C 241.9848175048828 72.13275146484375 241.9851684570313 72.13272094726563 241.9852600097656 72.13272094726563 C 241.9914245605469 72.13272094726563 240.9701232910156 72.24984741210938 240.58203125 72.2923583984375 C 240.3962097167969 72.3167724609375 240.214111328125 72.34304809570313 240.1859741210938 72.34683227539063 C 239.3694305419922 72.476318359375 238.5547943115234 72.60580444335938 237.7420196533203 72.754150390625 C 235.9812927246094 73.07135009765625 234.22998046875 73.44866943359375 232.4955749511719 73.87844848632813 C 228.8972015380859 74.77194213867188 225.2894744873047 75.79495239257813 221.8412933349609 77.15777587890625 C 221.0644989013672 77.46487426757813 220.2787170410156 77.60446166992188 219.5031127929688 77.60446166992188 C 215.8556671142578 77.60446166992188 212.4449768066406 74.51385498046875 211.3784790039063 71.21676635742188 C 209.8580322265625 66.51849365234375 213.1954803466797 62.3851318359375 217.3175201416016 60.75396728515625 C 216.9530639648438 60.89828491210938 216.8064727783203 60.95541381835938 216.8029479980469 60.95541381835938 C 216.7894744873047 60.95541381835938 218.8545227050781 60.12484741210938 218.8554992675781 60.12484741210938 C 218.8555145263672 60.12484741210938 218.8552856445313 60.12493896484375 218.8548431396484 60.1251220703125 C 219.3654327392578 59.91867065429688 219.8834838867188 59.72344970703125 220.4015655517578 59.5301513671875 C 221.1768035888672 59.24105834960938 221.9576568603516 58.96328735351563 222.7403869628906 58.69857788085938 C 224.5705718994141 58.07913208007813 226.4194793701172 57.54791259765625 228.2965698242188 57.09555053710938 C 232.2628021240234 56.13449096679688 236.2910308837891 55.51126098632813 240.3417510986328 55.01950073242188 C 244.1253662109375 54.56134033203125 247.8983154296875 54.33990478515625 251.6540832519531 54.33999633789063 Z"/></g><text class="c" transform="translate(71.181 152.231)"><tspan x="0" y="0">Individual</tspan><tspan x="0" y="42">Assessment</tspan></text><g transform="translate(114.652 225.444)"><path d="M408.377,197.543c0-8.147.387-16.46-.214-24.586-.512-6.921-3.137-14.146-10.782-15.57-4.479-.833-9.333-.263-13.853-.086-4.856.19-10.2.056-14.958.678-2.864.374-5.522,4.469-7.585,6.307-2.224,1.98-4.558,3.833-6.793,5.8a55.2,55.2,0,0,0-6.239,6.243c-2.008,2.436-4.321,5.213-3.857,8.55a1.6,1.6,0,0,0,.539.9c-.882,7.4-1.181,14.9-1.322,22.345-.161,8.537-.281,17.224.267,25.748.21,3.287,1.085,6.44,3.735,8.6,2.487,2.022,5.652,2.718,8.76,3.108a155.838,155.838,0,0,0,25.541.85c4.267-.173,8.522-.507,12.766-.97,3.4-.372,7.017-.556,9.734-2.889,5.224-4.49,4.257-12.661,4.259-18.8Zm-58.345-17.2a30.9,30.9,0,0,1,2.348-2.821,76.274,76.274,0,0,1,6.022-5.688c2.046-1.781,4.09-3.574,6.041-5.46.886-.86,1.748-1.748,2.572-2.669.357,2.54.5,5.139.7,7.668.25,3.108.389,6.221.467,9.335q-9.714.684-19.431,1.353C349.191,181.389,349.743,180.742,350.032,180.344Zm52.087,55.2c-.646,2.605-2.1,3.739-4.745,4.208a101.23,101.23,0,0,1-11.647,1.1,186.306,186.306,0,0,1-21.935,0,54.646,54.646,0,0,1-9.693-1.016c-3.317-.813-4.94-2.515-5.205-5.965-1.216-15.814.073-31.768-.422-47.606q10.978-.69,21.954-1.344a2.223,2.223,0,0,0,2.183-2.181c-.019-4.118-.167-8.24-.494-12.347-.156-1.971-.37-3.94-.61-5.9-.056-.464-.086-1-.128-1.564,6.795-.246,13.624-.39,20.421-.488,2.911-.041,6.286-.165,8.332,2.284,1.513,1.81,2.057,4.34,2.32,6.62.8,6.9.173,14.119.139,21.055-.037,7.491-.019,14.983-.021,22.472V226.1C402.568,229.18,402.87,232.525,402.119,235.541Z" transform="translate(-343.177 -156.946)"/><path d="M394.133,175.323c-1.913-1.081-4.105-.6-6.209-.4-2.138.2-4.27.452-6.4.743q-3.534.484-7.043,1.143c-1.77.334-4.569,1.443-6.26.509-1.434-.794-2.144-2.343-3.762-3.015a9.307,9.307,0,0,0-5.2-.327,38.508,38.508,0,0,0-5.808,1.714c-1.652.567-4.013,1.091-4.77,2.849a.615.615,0,0,0,.212.813c1.389.939,3.2.394,4.721.028,2-.482,3.974-1.154,5.994-1.53a4.634,4.634,0,0,1,5,1.673,6.467,6.467,0,0,0,4.349,2.16,19.5,19.5,0,0,0,5.381-.642q3.3-.639,6.624-1.117,3.463-.493,6.951-.8c2.055-.182,4.467.068,6.209-1.181A1.536,1.536,0,0,0,394.133,175.323Z" transform="translate(-338.404 -142.2)"/><path d="M388.719,183.658c-1.905-2.855-6.26-.771-8.849-.043q-2.759.774-5.468,1.723a25.775,25.775,0,0,1-5.539,1.725c-1.9.2-2.936-.892-4.5-1.708a7.534,7.534,0,0,0-4.6-.689,18.823,18.823,0,0,0-5.04,1.282,22.019,22.019,0,0,0-2.115,1.008c-.056.03-2.134,1.368-1.748,1.477a.278.278,0,0,0-.278.073,2.387,2.387,0,0,0-.52.847,1.286,1.286,0,0,0,1.569,1.569c3.133-.888,6.568-3.215,9.979-2.6,1.41.252,2.5,1.479,3.809,2.033a8.423,8.423,0,0,0,4.818.377c3.411-.61,6.7-2.174,10.044-3.09a41.353,41.353,0,0,1,5.511-1.3c.923-.12,1.905.145,2.65-.548A1.781,1.781,0,0,0,388.719,183.658Z" transform="translate(-337.187 -134.799)"/><path d="M384.035,193.686a42.239,42.239,0,0,0-8.894-.458c-1.541.109-3.067.345-4.606.462-1.393.105-2.035-.39-3.225-.978a10.624,10.624,0,0,0-7.752-.494c-2.416.71-5.556,2.095-6.928,4.314a1.106,1.106,0,0,0,.948,1.652c2.619-.276,4.8-2.2,7.439-2.634a8.087,8.087,0,0,1,3.634.169c1.13.351,2.023,1.149,3.14,1.537,2.367.818,5.438.024,7.85-.342a40.839,40.839,0,0,0,8.394-2.337C384.407,194.439,384.537,193.757,384.035,193.686Z" transform="translate(-335.009 -126.449)"/><path d="M383.987,172.039c-.251,7.968-.982,15.918-1.631,23.863q-.487,5.958-.976,11.918c-.293,3.651-.954,7.486-.749,11.15a1.862,1.862,0,0,0-.2,1.787c2.213,5.573,4.648,11.056,7.037,16.556a1.616,1.616,0,0,0,2.48.52c.537-.443,1.076-.882,1.61-1.327a10.614,10.614,0,0,0,2.146-2.072c1.22-1.368,2.358-2.8,3.508-4.227q1.67-2.072,3.341-4.146c1.031-1.278,2.7-2.909,2.551-4.685.629-1.892.428-4.565.573-6.04.394-4,.837-7.995,1.233-11.995q1.14-11.536,2.9-23c.244-1.59,1.731-6.4-.734-7.112,1.534-4.152-1.089-9.425-4.6-11.76a11.721,11.721,0,0,0-17.945,7.912,6.822,6.822,0,0,0,0,1.269A2.088,2.088,0,0,0,383.987,172.039Zm6.714-6.05a7.342,7.342,0,0,1,5.8-2.376,7.61,7.61,0,0,1,6.014,3.229,8.181,8.181,0,0,1,1.3,3.221,9.026,9.026,0,0,1,.113,1.1,28.623,28.623,0,0,0-4.614-1.427,24.707,24.707,0,0,0-5.836-.9,14.342,14.342,0,0,0-4.368.55A7.526,7.526,0,0,1,390.7,165.989Zm-5.211,42.155q.6-5.949,1.122-11.906c.651-7.364,1.168-14.744,1.973-22.093,1.489-.038,3.043-.6,4.366-.591a25.589,25.589,0,0,1,4.661.494,34.983,34.983,0,0,1,4.047,1,4.411,4.411,0,0,1,1.395.633c.066.051.083.062.113.084.12.156.15.176.06.021a4.153,4.153,0,0,0,.7.954c.03.026.062.047.094.073-.263,1.451-.332,2.941-.439,3.653q-1.712,11.465-2.806,23.009c-.424,4.466-.634,8.942-.8,13.425-.007.2-.083,1.126-.092,2.221a16.385,16.385,0,0,0-7.5-3.125,15.426,15.426,0,0,0-5.1.111,16.148,16.148,0,0,0-2.6.668C385.12,213.93,385.2,210.956,385.49,208.145Zm.389,12.385a10.68,10.68,0,0,1,1.9-.546,13.258,13.258,0,0,1,4.06-.176,12.24,12.24,0,0,1,6.613,2.778c-.3.39-.618.775-.914,1.175l-3.262,4.4c-.708.952-1.412,1.907-2.1,2.872a2.724,2.724,0,0,0-.777-.809,4.018,4.018,0,0,0-.976-.475,3.959,3.959,0,0,0-1.1-.2,3.264,3.264,0,0,0-1.4.312h0c-1.194-2.962-2.391-5.92-3.628-8.865A5.7,5.7,0,0,0,385.879,220.53Z" transform="translate(-310.622 -154.64)"/><path d="M389.113,199.785c.039.146.267.238.357.077,1.042-1.879,1.1-4.3,1.427-6.386.362-2.281.719-4.559,1.01-6.851s.588-4.574.875-6.861a21.452,21.452,0,0,0,.152-7.018.378.378,0,0,0-.719-.058,20.825,20.825,0,0,0-1.466,6.382c-.308,2.373-.544,4.757-.817,7.133-.261,2.29-.466,4.582-.659,6.879C389.093,195.235,388.535,197.67,389.113,199.785Z" transform="translate(-303.111 -143.345)"/><path d="M385.334,199.192a.241.241,0,0,0,.289.06,2.251,2.251,0,0,0,.987-1.7q.38-1.8.713-3.61c.462-2.495.8-5.006,1.087-7.527q.408-3.646.633-7.309c.124-2.025.522-4.95-.559-6.786a.356.356,0,0,0-.606-.049c-1.087,1.763-.888,4.405-.972,6.4q-.152,3.666-.492,7.321c-.227,2.435-.527,4.86-.83,7.287q-.228,1.816-.5,3.627A2.719,2.719,0,0,0,385.334,199.192Z" transform="translate(-306.532 -143.634)"/></g></svg>