<svg xmlns="http://www.w3.org/2000/svg" width="327.947" height="349.259" viewBox="0 0 327.947 349.259"><defs><style>.a{fill:#f5d757;}.b{fill:#e5ac3d;}.c,.d{fill:#4f3f14;}.d{font-size:34px;font-family:SegoeUI, Segoe UI;}.e,.f{stroke:none;}.f{fill:#fafafa;}</style></defs><path class="a" d="M327.875,402.881c-2.04-13.8-7.154-26.829-13.868-39-6.35-11.508-13.776-23.126-23.987-31.593-18.943-15.709-43.788-20.291-67.432-23.942-7.062-1.091-14.181-2.239-21.34-1.556-1.99.19-4.182,1.34-4.614,3.512-1.492,7.506-3.734,15.49-9.273,21.08-.469.473-.974.925-1.5,1.359a28.8,28.8,0,0,1-12.394,10.438c-6.091,2.57-12.3,2.833-18.767,1.77a49.343,49.343,0,0,1-8.6-2.326c-9.153-3.274-16.946,3.78-25.887,4.173a78.2,78.2,0,0,1-8.7-.124,35.111,35.111,0,0,1-4.807.009c-2.81-.186-5.656-1.23-8.456-.469-3.578.97-5.213,4.133-6.769,7.174q-2.188,4.274-4.126,8.674a175.715,175.715,0,0,0-14.545,56.412c-2.309,25.234.659,51.58,9.644,75.34,4.657,12.312,11.163,23.805,20.526,33.162,9.3,9.3,20.648,16.569,32.224,22.692a126.188,126.188,0,0,0,37.084,13.216,121.864,121.864,0,0,0,36.342.9,131.78,131.78,0,0,0,66.807-28.582C313.316,504.346,335.055,451.443,327.875,402.881Z" transform="translate(-35.318 -246.353)"/><path class="b" d="M288.528,474.33c-17.686,9.883-37.686,17.652-57.632,21.008-25.215,4.246-47.781,1.025-71.727-7.317-24.229-8.439-41.6-24.843-51.82-48.781C98.408,418.292,91.14,394.1,91.164,371.205c.013-12.006-.456-23.6.449-35.563.115-1.517.235-3.1.409-4.681-.184.349-.364.7-.544,1.051q-2.188,4.274-4.126,8.674A175.715,175.715,0,0,0,72.807,397.1c-2.309,25.234.659,51.58,9.644,75.34,4.657,12.312,11.163,23.805,20.526,33.162,9.3,9.3,20.648,16.569,32.224,22.692a126.19,126.19,0,0,0,37.084,13.217,121.866,121.866,0,0,0,36.342.9,131.78,131.78,0,0,0,66.807-28.582c22.715-18.5,39.614-44.937,47.967-73.6C314.062,453.865,303.206,466.127,288.528,474.33Z" transform="translate(-35.318 -224.975)"/><path d="M129.845,314.014a29.733,29.733,0,0,0-8.5-16.312c-5.252-5.091-12.894-8.453-20.248-6.7-24.486,5.847-28.068,45.829-7.756,58.111,6.574,3.974,14.459,4.295,20.839-.207a38.42,38.42,0,0,0,12.653-14.881A34.029,34.029,0,0,0,129.845,314.014Zm-16.877,8.468c-.39,7.159-11.392,12.353-16.721,6.2-5.451-6.292,2.97-22.8,11.493-17.981.415.235.8.509,1.207.756l.092.054.086.088c.464.46.918.922,1.37,1.389a5.725,5.725,0,0,1,.4.494c.27.419.5.852.728,1.292-.105-.175.357.845.409,1.012.173.535.317,1.079.441,1.627A18.8,18.8,0,0,1,112.968,322.481Z" transform="translate(-28.221 -260.433)"/><g transform="translate(-52.484 -261.653)"><path class="e" d="M 212.0174102783203 609.4114379882813 C 212.0167999267578 609.4114379882813 212.0173492431641 609.4114379882813 212.0167388916016 609.4114379882813 C 202.3304443359375 609.411376953125 192.5241546630859 608.550048828125 182.8703155517578 606.8514404296875 C 168.7593536376953 604.3680419921875 155.0297393798828 599.9313354492188 142.0628509521484 593.6646118164063 C 128.9963226318359 587.3496704101563 117.0141906738281 579.3243408203125 106.4493179321289 569.8114624023438 C 96.49181365966797 560.8453369140625 87.62864685058594 550.4900512695313 80.10597991943359 539.033203125 C 72.66973114013672 527.7079467773438 66.64965057373047 515.4713745117188 62.21294021606445 502.663330078125 C 57.68265151977539 489.5853271484375 54.99273300170898 475.7906494140625 54.21785736083984 461.6625671386719 C 53.45481491088867 447.7498168945313 54.55789947509766 433.7267761230469 57.49648284912109 419.98291015625 C 60.40723419189453 406.3676452636719 65.21485900878906 393.0142211914063 71.78582000732422 380.2934265136719 C 74.86494445800781 374.3306579589844 78.45298004150391 368.4671630859375 82.45040130615234 362.8656616210938 C 84.57944488525391 359.8852844238281 86.87452697753906 356.8890380859375 89.271484375 353.9607238769531 C 91.29914855957031 351.4849853515625 93.82115173339844 349.3070373535156 96.26010894775391 347.2007751464844 L 96.6431884765625 346.8698425292969 C 97.42160797119141 346.19677734375 98.29806518554688 345.8410949707031 99.17790222167969 345.8410949707031 C 99.89806365966797 345.8410949707031 100.5830688476563 346.0801391601563 101.2138595581055 346.5516357421875 C 102.3856887817383 347.4271850585938 103.0656509399414 349.5276794433594 102.1527786254883 350.8232421875 C 101.3457717895508 351.9678649902344 100.5621490478516 353.1600952148438 99.80435943603516 354.3131103515625 C 98.75252532958984 355.9133911132813 97.66490173339844 357.5681457519531 96.53744506835938 359.0550537109375 C 94.65348052978516 361.540771484375 92.81227874755859 364.1392822265625 91.06473541259766 366.7786560058594 C 83.722900390625 377.8724060058594 77.85460662841797 389.79541015625 73.62268829345703 402.2167663574219 C 69.28206634521484 414.9660949707031 66.64736175537109 427.9382019042969 65.79169464111328 440.7729797363281 C 65.33618927001953 447.5926208496094 65.34385681152344 454.4794006347656 65.81452178955078 461.2418518066406 C 65.93061065673828 462.9342041015625 66.08694458007813 464.7164916992188 66.27906799316406 466.5377807617188 C 66.34764862060547 467.1893005371094 66.42539978027344 467.8457336425781 66.50056457519531 468.4805603027344 L 66.53827667236328 468.7994079589844 L 66.53898620605469 468.8052673339844 L 66.53973388671875 468.8111572265625 L 66.59414672851563 469.2428283691406 L 66.59523010253906 469.2516174316406 L 66.59648132324219 469.2604370117188 L 66.64231872558594 469.59130859375 C 66.67839813232422 469.8512268066406 66.71744537353516 470.1319885253906 66.72623443603516 470.1999816894531 L 66.72785949707031 470.2123718261719 L 66.72965240478516 470.2246398925781 C 67.1761474609375 473.2681884765625 67.73769378662109 476.3821411132813 68.39860534667969 479.4800720214844 C 69.75748443603516 485.8523254394531 71.53073120117188 492.1619262695313 73.6690673828125 498.2334289550781 C 74.22090148925781 499.8028564453125 74.81219482421875 501.3981628417969 75.42623138427734 502.9741821289063 C 75.67660522460938 503.6136779785156 75.94644165039063 504.2987670898438 76.22906494140625 504.9916076660156 L 76.22681427001953 504.9861145019531 C 76.263916015625 505.0780639648438 76.30130004882813 505.1700439453125 76.33885192871094 505.2620239257813 C 76.37370300292969 505.3777770996094 76.41382598876953 505.4714660644531 76.44148254394531 505.5360717773438 C 76.47983551025391 505.6256103515625 76.54060363769531 505.7667846679688 76.63081359863281 505.9755859375 L 76.63140106201172 505.9770202636719 L 76.63192749023438 505.9782409667969 L 76.63390350341797 505.9830932617188 L 76.63402557373047 505.9830627441406 L 76.63595581054688 505.9874877929688 C 76.636474609375 505.9886779785156 76.63700103759766 505.9898986816406 76.63752746582031 505.9911193847656 L 76.63777160644531 505.9916381835938 L 76.70485687255859 506.1469116210938 C 77.974609375 509.0816955566406 79.30818939208984 511.9400329589844 80.66856384277344 514.6424560546875 C 83.57386016845703 520.4114990234375 86.88181304931641 526.0736694335938 90.50077819824219 531.4718017578125 C 92.17565155029297 533.9713745117188 93.96077728271484 536.4710083007813 95.95793914794922 539.1130981445313 L 95.96094512939453 539.1170654296875 L 95.96394348144531 539.1209106445313 C 96.01548004150391 539.188232421875 96.04743957519531 539.2313842773438 96.07956695556641 539.2747192382813 C 96.09877777099609 539.3005981445313 96.11802673339844 539.3265380859375 96.14010620117188 539.3560791015625 L 96.16748046875 539.392578125 L 96.19706726074219 539.4274291992188 L 96.20427703857422 539.4359130859375 C 96.22476959228516 539.4600219726563 96.235107421875 539.4722290039063 96.26943206787109 539.5142211914063 C 96.38983917236328 539.6627197265625 96.50799560546875 539.8136596679688 96.63311004638672 539.9735717773438 C 96.73040008544922 540.097900390625 96.82777404785156 540.2222900390625 96.92656707763672 540.3460083007813 C 97.34069061279297 540.86669921875 97.78610992431641 541.4175415039063 98.28648376464844 542.02783203125 C 99.28102874755859 543.2410888671875 100.3000640869141 544.4469604492188 101.3151473999023 545.61181640625 C 105.5915679931641 550.518798828125 110.198486328125 555.1804809570313 115.007942199707 559.467529296875 C 117.4359436035156 561.6317138671875 119.9434814453125 563.7402954101563 122.4608612060547 565.7348022460938 C 122.5931091308594 565.8392944335938 122.7239837646484 565.9418334960938 122.8548583984375 566.0443725585938 C 122.9839401245117 566.1454467773438 123.1129837036133 566.24658203125 123.2415237426758 566.3480834960938 L 123.2681045532227 566.3690795898438 L 123.2956085205078 566.388916015625 L 123.3894805908203 566.4564208984375 L 123.3828201293945 566.4515380859375 C 123.692024230957 566.6764526367188 124.007568359375 566.9140014648438 124.3126907348633 567.143798828125 C 124.5673980712891 567.3355712890625 124.8307723999023 567.5338745117188 125.0953979492188 567.7286376953125 C 126.3715667724609 568.6670532226563 127.6595687866211 569.5822143554688 128.9242706298828 570.4494018554688 C 134.5333557128906 574.301513671875 140.4778137207031 577.79638671875 146.5915679931641 580.8363037109375 C 148.2362365722656 581.6529541015625 149.8971099853516 582.4412231445313 151.5288238525391 583.1796875 C 152.1146545410156 583.4452514648438 152.7108612060547 583.7073364257813 153.2874450683594 583.9608154296875 L 153.6640319824219 584.1264038085938 L 153.6679382324219 584.128173828125 L 153.6719055175781 584.1298828125 C 153.8324890136719 584.199462890625 153.9374847412109 584.2462158203125 154.0126037597656 584.2797241210938 L 154.0887756347656 584.3135375976563 L 154.1159057617188 584.3255004882813 L 154.1434783935547 584.33642578125 L 154.1806488037109 584.35107421875 C 154.2587738037109 584.3818359375 154.3736572265625 584.4271240234375 154.5764465332031 584.5089111328125 C 158.0456085205078 585.914306640625 161.2763214111328 587.1090698242188 164.4510650634766 588.1605834960938 C 171.0842742919922 590.3579711914063 177.9488220214844 592.1262817382813 184.8539428710938 593.4163818359375 C 186.6683959960938 593.7561645507813 188.4814300537109 594.0626831054688 190.2422180175781 594.327392578125 C 190.3741912841797 594.3477783203125 190.6744537353516 594.390869140625 191.0217742919922 594.4407348632813 C 191.3404846191406 594.4865112304688 191.6721954345703 594.5339965820313 191.8485717773438 594.5606689453125 L 191.8740692138672 594.5645141601563 L 191.8996429443359 594.5675048828125 C 192.1106872558594 594.592041015625 192.4637756347656 594.63525390625 192.7836456298828 594.6743774414063 C 193.0777740478516 594.7103271484375 193.3446044921875 594.742919921875 193.4556121826172 594.7555541992188 C 196.9426116943359 595.1607055664063 200.4776153564453 595.4520874023438 203.958740234375 595.621337890625 C 206.5047760009766 595.7449951171875 209.0836486816406 595.8078002929688 211.6237335205078 595.8077392578125 C 216.0965270996094 595.8077392578125 220.6052703857422 595.6135864257813 225.0247344970703 595.230712890625 C 226.9603576660156 595.0630493164063 228.8543548583984 594.8507080078125 230.4518127441406 594.6651611328125 C 230.6902313232422 594.6382446289063 230.8200225830078 594.6235961914063 230.9077301025391 594.6144409179688 L 230.9506530761719 594.6099243164063 L 230.9932708740234 594.6029663085938 C 231.0715637207031 594.5902099609375 231.1733093261719 594.57568359375 231.3316040039063 594.5533447265625 L 231.3358612060547 594.552734375 L 231.3401031494141 594.5521240234375 L 231.3733978271484 594.5471801757813 C 232.1191558837891 594.4373779296875 232.8902282714844 594.3237915039063 233.6504821777344 594.2020874023438 C 237.1204376220703 593.650146484375 240.6006927490234 592.9720458984375 243.9930725097656 592.1868286132813 C 250.9960174560547 590.5646362304688 258.0164489746094 588.3817138671875 264.8595581054688 585.6986694335938 C 265.8052368164063 585.326171875 266.7289733886719 584.9535522460938 267.6072387695313 584.5901489257813 L 267.6251220703125 584.582763671875 L 267.6427307128906 584.574951171875 L 267.7032165527344 584.548095703125 C 268.2288208007813 584.3224487304688 268.7643127441406 584.0880126953125 269.2949523925781 583.8512573242188 C 270.8471374511719 583.1636352539063 272.4451599121094 582.4242553710938 274.0408630371094 581.6552124023438 C 277.5406494140625 579.96533203125 281.0439453125 578.1199951171875 284.4543151855469 576.1701049804688 C 290.1173706054688 572.931640625 295.6566162109375 569.313232421875 300.9182434082031 565.415283203125 C 301.4833984375 564.9959106445313 302.0483703613281 564.56787109375 302.5946960449219 564.1539306640625 L 302.8155212402344 563.9866333007813 L 302.8271179199219 563.9778442382813 L 302.8385620117188 563.9688720703125 C 302.9627380371094 563.8709716796875 303.087158203125 563.7733764648438 303.2116394042969 563.67578125 C 303.4085693359375 563.5213623046875 303.6056213378906 563.3668212890625 303.8019409179688 563.2108764648438 C 304.8952026367188 562.3411254882813 306.0256958007813 561.418212890625 307.1631164550781 560.4671020507813 C 309.6332397460938 558.3983764648438 312.0899353027344 556.2181396484375 314.4659118652344 553.9862060546875 C 319.1914367675781 549.5455932617188 323.7152709960938 544.7854614257813 327.9119567871094 539.8378295898438 C 328.9341125488281 538.6321411132813 329.9404907226563 537.4129638671875 330.9033508300781 536.2140502929688 C 330.967529296875 536.1337890625 331.1768493652344 535.870361328125 331.4053649902344 535.5828247070313 C 331.6440734863281 535.2823486328125 331.9039001464844 534.955322265625 332.0364685058594 534.7891235351563 L 332.0440368652344 534.7796630859375 L 332.0513916015625 534.7700805664063 L 332.1308288574219 534.6672973632813 C 332.1917724609375 534.58837890625 332.2411499023438 534.5243530273438 332.2582702636719 534.5015869140625 C 332.3358459472656 534.39892578125 332.4164733886719 534.2926635742188 332.4971923828125 534.1863403320313 C 332.6340942382813 534.0059204101563 332.7711791992188 533.8252563476563 332.9075317382813 533.643798828125 C 334.8570251464844 531.0521240234375 336.7549438476563 528.3744506835938 338.5482788085938 525.685546875 C 342.1624145507813 520.2642822265625 345.4820556640625 514.608642578125 348.415283203125 508.87548828125 C 349.8331909179688 506.1056518554688 351.19189453125 503.2549743652344 352.4535522460938 500.4030151367188 C 352.5498046875 500.1855163574219 352.7440795898438 499.7287292480469 352.9154357910156 499.3257446289063 C 352.9518432617188 499.2401123046875 352.9909362792969 499.148193359375 353.028564453125 499.059814453125 L 353.0422058105469 499.0653686523438 C 353.1316223144531 498.8463439941406 353.2213439941406 498.6275634765625 353.3110961914063 498.4088439941406 C 353.4845581054688 497.9861450195313 353.6639099121094 497.5491027832031 353.8380737304688 497.1162414550781 C 354.4240112304688 495.6521606445313 354.9899291992188 494.1786804199219 355.5211486816406 492.7342224121094 C 357.7713317871094 486.6145629882813 359.6534729003906 480.3317260742188 361.1152648925781 474.0602722167969 C 361.8446960449219 470.9310607910156 362.4830627441406 467.7416076660156 363.0127868652344 464.5804443359375 C 363.1792602539063 463.5834350585938 363.3380126953125 462.5749816894531 363.4846801757813 461.5823059082031 C 363.5190734863281 461.3536071777344 363.5523986816406 461.1198425292969 363.5855712890625 460.8874816894531 L 363.5946044921875 460.8240661621094 L 363.5975341796875 460.8036499023438 L 363.599853515625 460.783203125 C 363.6417236328125 460.4184875488281 363.6842651367188 460.0539855957031 363.7267761230469 459.6896057128906 C 363.8695373535156 458.4663696289063 364.0171508789063 457.2014770507813 364.1360778808594 455.9464416503906 C 364.7769470214844 449.2053527832031 364.9816589355469 442.3219909667969 364.744384765625 435.4879760742188 C 364.6318054199219 432.2349548339844 364.4150695800781 428.9245300292969 364.1002197265625 425.6488037109375 C 363.9554138183594 424.1235961914063 363.774658203125 422.6124877929688 363.5705261230469 420.93701171875 L 363.5682678222656 420.9188232421875 L 363.5656127929688 420.9006042480469 C 363.5483093261719 420.7825927734375 363.5148620605469 420.5393981933594 363.4780578613281 420.2719421386719 C 363.4275207519531 419.9046020507813 363.3702392578125 419.48828125 363.3376770019531 419.2717590332031 C 363.2161865234375 418.4699401855469 363.1004028320313 417.7355346679688 362.9834289550781 417.02490234375 C 361.891357421875 410.4233703613281 360.3767700195313 403.8383483886719 358.4814453125 397.4515686035156 C 357.5190124511719 394.2027282714844 356.4358215332031 390.9365539550781 355.2621154785156 387.7444458007813 C 354.6604309082031 386.1075744628906 354.0164489746094 384.4433898925781 353.3481140136719 382.7983093261719 C 353.2782287597656 382.6269836425781 353.2086486816406 382.4578857421875 353.1390380859375 382.288818359375 C 353.0706787109375 382.1228637695313 353.0023498535156 381.9568481445313 352.9344787597656 381.7904357910156 L 352.9137878417969 381.7395629882813 L 352.9073486328125 381.7239074707031 L 352.9006042480469 381.7083435058594 C 352.6165161132813 381.0545654296875 352.3092041015625 380.3505554199219 351.9864501953125 379.6322326660156 C 349.1922607421875 373.3994140625 345.9714050292969 367.3289489746094 342.413818359375 361.590576171875 C 340.6805114746094 358.7967224121094 338.8432312011719 356.0414123535156 336.95263671875 353.400634765625 C 336.3160400390625 352.5143127441406 335.7306213378906 351.7149963378906 335.1616516113281 350.9551391601563 C 335.0211791992188 350.7667846679688 334.7525939941406 350.41748046875 334.5564880371094 350.1624755859375 L 334.4080810546875 349.9692687988281 L 334.4009094238281 349.9599304199219 L 334.3936157226563 349.9507446289063 C 333.5096130371094 348.83447265625 332.5551452636719 347.6385803222656 331.5655517578125 346.4560241699219 C 327.1004943847656 341.1266479492188 322.2681884765625 336.1412658691406 317.2023620605469 331.6377258300781 C 315.8448486328125 330.4317016601563 314.4470520019531 329.2388916015625 313.0474853515625 328.0921020507813 C 312.4819946289063 327.6296997070313 311.9041137695313 327.1708068847656 311.3452758789063 326.7270202636719 L 311.0329895019531 326.4789123535156 L 311.0137634277344 326.4636535644531 L 310.9940795898438 326.448974609375 C 310.8606872558594 326.3498840332031 310.7273254394531 326.2493896484375 310.5939025878906 326.1488647460938 C 310.4571228027344 326.0457763671875 310.3202819824219 325.9426574707031 310.1834411621094 325.8409729003906 C 307.3520202636719 323.7308654785156 304.4285278320313 321.7375793457031 301.4957275390625 319.9176940917969 C 298.5072326660156 318.064697265625 295.4222412109375 316.3379516601563 292.325927734375 314.7851867675781 C 290.6656188964844 313.9549865722656 289.0064086914063 313.1740112304688 287.392822265625 312.4632873535156 C 287.1654357910156 312.3625793457031 286.9353942871094 312.2626037597656 286.7053527832031 312.1626586914063 L 286.6989135742188 312.1598510742188 L 286.6617431640625 312.1437377929688 L 286.623779296875 312.1296081542969 L 286.5491943359375 312.1018981933594 C 286.1897277832031 311.9657592773438 285.836181640625 311.8236694335938 285.4619140625 311.6733093261719 C 285.1197814941406 311.5358581542969 284.7660217285156 311.3937683105469 284.410400390625 311.2578430175781 C 280.9279479980469 309.9289855957031 277.3552856445313 308.7835998535156 273.7909545898438 307.853271484375 C 271.8894348144531 307.3583984375 269.9539489746094 306.9147338867188 268.037109375 306.5343933105469 C 267.2545166015625 306.3775329589844 266.4393920898438 306.2264709472656 265.5480346679688 306.0731811523438 C 265.1946411132813 306.01123046875 264.836181640625 305.9538879394531 264.4895324707031 305.8984680175781 C 264.2970275878906 305.86767578125 264.1045227050781 305.8368835449219 263.9120178222656 305.80517578125 C 263.8716735839844 305.7980041503906 263.8193359375 305.7899475097656 263.7159729003906 305.7740783691406 C 263.6475524902344 305.7635192871094 263.5650329589844 305.7508544921875 263.4824829101563 305.7377624511719 L 263.4576416015625 305.7338256835938 L 263.4326477050781 305.7307434082031 C 263.2601013183594 305.7092590332031 262.9875793457031 305.6735229492188 262.7709045410156 305.6451110839844 C 262.6031188964844 305.6231079101563 262.4667053222656 305.6053161621094 262.4252014160156 305.6003723144531 L 262.4214477539063 305.5998840332031 L 262.4176635742188 305.5994873046875 C 261.970703125 305.5484008789063 261.5674743652344 305.5027770996094 261.1593627929688 305.4619750976563 C 260.1890258789063 305.3619079589844 259.1996459960938 305.2752685546875 258.2235107421875 305.2050170898438 C 256.366455078125 305.0728149414063 254.5261077880859 304.9926452636719 252.75244140625 304.9667053222656 C 252.2879486083984 304.9598999023438 251.8174896240234 304.9564514160156 251.3541564941406 304.9564514160156 C 248.1547393798828 304.9564514160156 244.9502258300781 305.1203918457031 241.8295593261719 305.4438171386719 L 241.82958984375 305.4440307617188 C 241.7698516845703 305.4501342773438 241.6781768798828 305.4606323242188 241.5202331542969 305.4787292480469 C 241.2030181884766 305.5150146484375 240.6721496582031 305.5758056640625 240.4256134033203 305.6016540527344 L 240.3988647460938 305.6044921875 L 240.3722381591797 305.6082458496094 L 240.1956024169922 305.6329040527344 C 240.0487365722656 305.6533203125 239.9853057861328 305.6622314453125 239.9376220703125 305.6703796386719 C 239.2115631103516 305.783935546875 238.3530731201172 305.9210205078125 237.47607421875 306.0790100097656 C 235.6814880371094 306.4042358398438 233.8844451904297 306.7900390625 232.1332702636719 307.2258911132813 C 227.686767578125 308.3276977539063 224.3419036865234 309.3579406738281 221.2893218994141 310.5659790039063 C 220.7163543701172 310.79248046875 220.115234375 310.9074401855469 219.5030670166016 310.9074401855469 C 216.4349822998047 310.9074401855469 213.6378173828125 308.1307678222656 212.8056945800781 305.5581970214844 C 212.0920715332031 303.3530578613281 212.7883605957031 301.5588684082031 213.4980621337891 300.4419860839844 C 214.4485626220703 298.9462890625 216.0416564941406 297.6741943359375 217.868896484375 296.9519958496094 L 217.8654937744141 296.943359375 C 218.4260559082031 296.7166137695313 219.3024749755859 296.3642578125 219.4058532714844 296.3232421875 L 218.7574005126953 296.4246520996094 L 218.2843322753906 295.9955444335938 C 218.2318878173828 296.3245849609375 218.0715789794922 296.6281127929688 217.8302459716797 296.8541564941406 L 216.8052215576172 294.2595520019531 L 217.5462341308594 294.8642578125 L 218.2829895019531 293.5414428710938 L 219.4215240478516 296.3169860839844 C 219.9253997802734 296.1113891601563 220.4409790039063 295.9175720214844 220.9259033203125 295.7366638183594 C 221.6851043701172 295.4534912109375 222.4573211669922 295.1788940429688 223.2210235595703 294.9205627441406 C 224.9757690429688 294.3285522460938 226.8025207519531 293.801513671875 228.6493988037109 293.3545532226563 C 232.075439453125 292.5260314941406 235.8480682373047 291.8768615722656 240.5218200683594 291.3116455078125 C 244.1859893798828 290.8679504394531 247.931396484375 290.6429443359375 251.6541442871094 290.6429443359375 C 264.7214965820313 290.6429443359375 277.9406127929688 293.3482055664063 290.9443969726563 298.6834716796875 C 297.0827026367188 301.2019958496094 303.155029296875 304.3115234375 308.9928283691406 307.9256896972656 C 314.6892700195313 311.4524536132813 320.2093505859375 315.4881896972656 325.3997192382813 319.9208068847656 C 336.0580749511719 329.0225524902344 345.4746398925781 339.9229736328125 353.387939453125 352.3192749023438 C 361.0335693359375 364.2963256835938 367.1062622070313 377.3905334472656 371.4374389648438 391.2382202148438 C 375.6786804199219 404.8011169433594 378.146728515625 418.9536437988281 378.7729797363281 433.3027038574219 C 379.3999328613281 447.6675720214844 378.1698913574219 461.9782409667969 375.1170654296875 475.8372802734375 C 372.2327880859375 488.9334411621094 367.5802612304688 501.88134765625 361.2887268066406 514.3213500976563 C 355.2021179199219 526.3562622070313 347.6151428222656 537.8572387695313 338.7385559082031 548.5049438476563 C 329.6667785644531 559.3865356445313 319.1698303222656 569.1769409179688 307.5392761230469 577.6043090820313 C 296.0299072265625 585.94384765625 283.472412109375 592.9053344726563 270.2154846191406 598.2952880859375 C 261.1199035644531 601.9929809570313 251.5052337646484 604.8114013671875 241.6386108398438 606.6723022460938 C 232.0018615722656 608.4898071289063 222.0350799560547 609.4114379882813 212.0174102783203 609.4114379882813 Z M 351.8583984375 499.4869384765625 L 350.6237182617188 498.8387451171875 C 350.4267272949219 498.5531311035156 350.3557739257813 498.2453918457031 350.358642578125 497.9701843261719 L 352.9408264160156 499.0239868164063 C 352.6869812011719 499.2868041992188 352.3127136230469 499.4869384765625 351.8583984375 499.4869384765625 Z"/><path class="f" d="M 251.6519317626953 292.1429443359375 C 247.9907073974609 292.1429443359375 244.3067474365234 292.3642578125 240.7019348144531 292.8008422851563 C 236.0878448486328 293.3587646484375 232.3700256347656 293.998046875 229.0023498535156 294.8123779296875 C 227.1976165771484 295.2492065429688 225.4134826660156 295.7639770507813 223.7017059326172 296.3414306640625 C 222.9526214599609 296.5948486328125 222.1950225830078 296.8641967773438 221.4499359130859 297.1421508789063 C 220.9901428222656 297.3136596679688 220.5022735595703 297.4969482421875 220.0261688232422 297.6903076171875 L 220.0175323486328 297.6941528320313 L 219.9690246582031 297.7135009765625 L 219.6090850830078 296.8220825195313 C 219.6121063232422 296.8140869140625 219.6150970458984 296.8060302734375 219.6180419921875 296.7980346679688 L 219.0116119384766 295.3109741210938 L 219.0037536621094 295.3125610351563 L 219.3037872314453 296.06591796875 L 218.9999084472656 295.3133544921875 L 218.8554077148438 295.342529296875 L 218.8554840087891 297.9277954101563 L 218.8517913818359 295.34326171875 L 217.3534393310547 295.6463012695313 L 218.401611328125 298.2996215820313 C 218.9600372314453 297.9522705078125 219.3786163330078 297.4295043945313 219.6070556640625 296.8274536132813 L 219.9611663818359 297.7166137695313 C 219.8345794677734 297.7670288085938 218.9618530273438 298.1178588867188 218.4168853759766 298.3383178710938 L 218.4203033447266 298.346923828125 C 216.8810729980469 298.9553833007813 215.5484313964844 300.0121459960938 214.7640686035156 301.2465209960938 C 213.9827575683594 302.4760131835938 213.8039855957031 303.7711791992188 214.2328491210938 305.096435546875 C 214.5894317626953 306.19873046875 215.3710632324219 307.30517578125 216.3774871826172 308.132080078125 C 217.3783416748047 308.9544677734375 218.4883422851563 309.4074096679688 219.5030212402344 309.4074096679688 C 219.9315185546875 309.4074096679688 220.3356170654297 309.3300170898438 220.7373962402344 309.1712036132813 C 223.8544769287109 307.9375610351563 227.25830078125 306.8884887695313 231.7709350585938 305.7703247070313 C 233.5526123046875 305.3267822265625 235.3816223144531 304.9342041015625 237.2098388671875 304.6029052734375 C 238.0987548828125 304.4426879882813 238.96435546875 304.3043212890625 239.6967926025391 304.1898193359375 C 239.7664031982422 304.1781616210938 239.8459777832031 304.1670532226563 239.9849395751953 304.1477661132813 L 240.1620178222656 304.123046875 L 240.2153015136719 304.115478515625 L 240.268798828125 304.1099243164063 C 240.5112457275391 304.08447265625 241.0428924560547 304.0235595703125 241.3605194091797 303.9872436523438 C 241.5027313232422 303.970947265625 241.6005706787109 303.959716796875 241.6750640869141 303.9520263671875 L 241.6750183105469 303.9517211914063 C 244.8468933105469 303.6231079101563 248.1031646728516 303.4564208984375 251.3534393310547 303.4564208984375 C 251.8247528076172 303.4564208984375 252.3028411865234 303.4599609375 252.7743377685547 303.4668579101563 C 254.5767059326172 303.4932250976563 256.4455261230469 303.5745849609375 258.3312072753906 303.7089233398438 C 259.3211059570313 303.7802124023438 260.3244323730469 303.8679809570313 261.3133544921875 303.9699096679688 C 261.735595703125 304.0121459960938 262.1405639648438 304.0579833984375 262.5880126953125 304.109130859375 L 262.5957946777344 304.1100463867188 L 262.6035766601563 304.1109619140625 C 262.6464233398438 304.1160888671875 262.7857055664063 304.1342163085938 262.9578857421875 304.1567993164063 C 263.1722412109375 304.1848754882813 263.4448852539063 304.220703125 263.61669921875 304.2420043945313 L 263.6672058105469 304.248291015625 L 263.7174377441406 304.2562255859375 C 263.79638671875 304.2687377929688 263.8753356933594 304.2808837890625 263.9412536621094 304.291015625 C 264.0465087890625 304.3072509765625 264.1110229492188 304.317138671875 264.16748046875 304.3270874023438 C 264.3529052734375 304.3575439453125 264.5382690429688 304.38720703125 264.7236633300781 304.4168701171875 C 265.0767517089844 304.4733276367188 265.4418334960938 304.5316772460938 265.8120727539063 304.5965576171875 L 265.8120727539063 304.5965576171875 C 266.7135009765625 304.751708984375 267.5370483398438 304.9043579101563 268.3291015625 305.0631103515625 C 270.2745971679688 305.4491577148438 272.2389831542969 305.8994140625 274.1697082519531 306.4019165039063 C 277.7861938476563 307.3457641601563 281.411376953125 308.5079345703125 284.9458923339844 309.8567504882813 C 285.3132934570313 309.9971313476563 285.6729736328125 310.1416015625 286.0208129882813 310.2813720703125 C 286.3858032226563 310.427978515625 286.730712890625 310.5665893554688 287.0741577148438 310.69677734375 L 287.1462097167969 310.7235107421875 L 287.2223510742188 310.7518310546875 L 287.296875 310.7842407226563 L 287.3113403320313 310.7904663085938 C 287.54150390625 310.8905639648438 287.7717590332031 310.9906005859375 287.9974975585938 311.0905151367188 C 289.63232421875 311.8106079101563 291.3138427734375 312.6019897460938 292.9983825683594 313.4442749023438 C 296.1344299316406 315.0170288085938 299.2591552734375 316.7659912109375 302.2865600585938 318.6431274414063 C 305.2550659179688 320.485107421875 308.2140808105469 322.5025634765625 311.0779418945313 324.6368408203125 C 311.2184753417969 324.7412719726563 311.3590087890625 324.84716796875 311.4995727539063 324.9530639648438 C 311.6293334960938 325.0508422851563 311.7590637207031 325.1486206054688 311.8887939453125 325.2450561523438 L 311.9281005859375 325.2742919921875 L 311.9664916992188 325.3047485351563 L 312.28173828125 325.5552368164063 C 312.8434448242188 326.0012817382813 313.42431640625 326.4625854492188 313.9982604980469 326.9318237304688 C 315.4125366210938 328.0906982421875 316.8255615234375 329.2965698242188 318.1989440917969 330.5166625976563 C 323.3194885253906 335.06884765625 328.2033081054688 340.1072998046875 332.7158508300781 345.4932861328125 C 333.7178039550781 346.6906127929688 334.6795349121094 347.8956298828125 335.5695190429688 349.0194702148438 L 335.5840148925781 349.0377807617188 L 335.5982055664063 349.0563354492188 L 335.7416076660156 349.242919921875 C 335.9403076171875 349.5013427734375 336.2119140625 349.8545532226563 336.3623352050781 350.0560302734375 C 336.9369506835938 350.8233642578125 337.528076171875 351.6305541992188 338.1723022460938 352.5274658203125 C 340.082763671875 355.196044921875 341.9385681152344 357.9791870117188 343.6886596679688 360.8002319335938 C 347.2811889648438 366.5947875976563 350.5336608886719 372.7247924804688 353.354736328125 379.0175170898438 C 353.6806030273438 379.742919921875 353.990234375 380.4521484375 354.2763366699219 381.1106567382813 L 354.2902221679688 381.1425170898438 L 354.3033447265625 381.1748046875 L 354.3232421875 381.2236938476563 C 354.3894653320313 381.385986328125 354.4561157226563 381.5478515625 354.5227661132813 381.7097778320313 C 354.5941772460938 381.8831176757813 354.66552734375 382.0565185546875 354.7377624511719 382.2337036132813 C 355.4122924804688 383.8939819335938 356.0623779296875 385.573974609375 356.6699829101563 387.2267456054688 C 357.8546142578125 390.4486694335938 358.9480285644531 393.7456665039063 359.9194946289063 397.0248718261719 C 361.83251953125 403.471435546875 363.3612060546875 410.11767578125 364.4635314941406 416.7812805175781 C 364.581298828125 417.4969787597656 364.6980590820313 418.237548828125 364.8210144042969 419.0488586425781 C 364.85498046875 419.2747802734375 364.9105224609375 419.6784057617188 364.9642333984375 420.0687255859375 C 365.0002136230469 420.330078125 365.0328369140625 420.567626953125 365.0497436523438 420.6829833984375 L 365.0550537109375 420.7192687988281 L 365.0595092773438 420.7557067871094 C 365.2650756835938 422.4432067871094 365.4471435546875 423.9656372070313 365.5932922363281 425.5052795410156 C 365.9111328125 428.8118896484375 366.1298828125 432.1531372070313 366.2434692382813 435.4359130859375 C 366.4829711914063 442.3344116210938 366.2763061523438 449.2830505371094 365.6293334960938 456.0877990722656 C 365.5090637207031 457.3578491210938 365.3606567382813 458.6296691894531 365.2171020507813 459.8596801757813 C 365.174560546875 460.224365234375 365.1319885253906 460.5891723632813 365.0901184082031 460.9541320800781 L 365.0853271484375 460.9954528808594 L 365.0794677734375 461.03662109375 L 365.0658874511719 461.1317749023438 C 365.0340576171875 461.354736328125 365.0020141601563 461.5788269042969 364.9685668945313 461.8015441894531 C 364.8203125 462.8050537109375 364.6600646972656 463.8229064941406 364.4921569824219 464.8283081054688 C 363.9572448730469 468.0204162597656 363.3126220703125 471.2410278320313 362.5761108398438 474.4007568359375 C 361.100341796875 480.7321166992188 359.2003479003906 487.0745544433594 356.9289245605469 493.2519836425781 C 356.3926086425781 494.7103576660156 355.8216247558594 496.1971435546875 355.231689453125 497.6710510253906 L 355.2306518554688 497.673583984375 L 355.2296752929688 497.6760864257813 C 355.0538940429688 498.1129455566406 354.8739013671875 498.5516662597656 354.6997985839844 498.9759521484375 C 354.609619140625 499.1957092285156 354.5193786621094 499.41552734375 354.4303588867188 499.6337280273438 L 354.4214477539063 499.6555786132813 L 354.4138488769531 499.6741638183594 L 354.3997497558594 499.6684265136719 C 354.3653564453125 499.749267578125 354.3298950195313 499.8326721191406 354.2968139648438 499.9104919433594 C 354.1145324707031 500.3390502929688 353.9260864257813 500.7822265625 353.8253479003906 501.0098571777344 C 352.5523071289063 503.8875427246094 351.1813049316406 506.7639465332031 349.7506713867188 509.5586853027344 C 346.7913818359375 515.3427734375 343.4423522949219 521.0484619140625 339.796142578125 526.517822265625 C 337.9875183105469 529.2296752929688 336.0730590820313 531.9307250976563 334.106689453125 534.544921875 C 333.9679260253906 534.7295532226563 333.8284301757813 534.9133911132813 333.6891174316406 535.0969848632813 C 333.6098327636719 535.201416015625 333.5306701660156 535.3057861328125 333.4517517089844 535.41015625 L 333.4517211914063 535.4100952148438 C 333.4287414550781 535.4404296875 333.379638671875 535.5042724609375 333.3201599121094 535.581298828125 L 333.2395324707031 535.685791015625 L 333.2243957519531 535.7054443359375 L 333.2089233398438 535.7247314453125 C 333.0751342773438 535.8924560546875 332.8113403320313 536.2244873046875 332.5709838867188 536.5269775390625 C 332.3444213867188 536.8121337890625 332.1382446289063 537.0715942382813 332.0760803222656 537.1492919921875 L 332.074462890625 537.1512451171875 L 332.0728454589844 537.1533203125 C 331.1006164550781 538.3638916015625 330.085693359375 539.5933837890625 329.0558471679688 540.80810546875 C 324.8226928710938 545.7987670898438 320.2595825195313 550.6002197265625 315.4928894042969 555.0795288085938 C 313.0963745117188 557.3306884765625 310.6182250976563 559.5299072265625 308.1253967285156 561.6177978515625 C 306.9802551269531 562.575439453125 305.8402099609375 563.5060424804688 304.7348022460938 564.385498046875 C 304.5371704101563 564.54248046875 304.3388061523438 564.697998046875 304.140625 564.8534545898438 C 304.0160522460938 564.951171875 303.8915710449219 565.0487670898438 303.767333984375 565.146728515625 L 303.744384765625 565.164794921875 L 303.7211303710938 565.1824340820313 L 303.5007934570313 565.349365234375 C 302.9513854980469 565.765625 302.38330078125 566.1959838867188 301.8111572265625 566.6204833984375 C 296.5026245117188 570.5533447265625 290.9134826660156 574.204345703125 285.1987915039063 577.4722900390625 C 281.7584838867188 579.4393310546875 278.2241821289063 581.3009033203125 274.6920776367188 583.0064697265625 C 273.0841064453125 583.7813720703125 271.4734802246094 584.5266723632813 269.9046630859375 585.2218017578125 C 269.3688659667969 585.4608154296875 268.8292541503906 585.6970825195313 268.300537109375 585.924072265625 L 268.2508544921875 585.9461669921875 L 268.2159729003906 585.9615478515625 L 268.1807250976563 585.9761962890625 C 267.2947387695313 586.3427124023438 266.363037109375 586.7186279296875 265.4071044921875 587.0950927734375 C 258.4964294433594 589.8046875 251.4056549072266 592.0093994140625 244.331298828125 593.648193359375 C 240.9053955078125 594.441162109375 237.3906097412109 595.1260375976563 233.8875274658203 595.6832275390625 C 233.1243896484375 595.8053588867188 232.35498046875 595.9187622070313 231.61083984375 596.0284423828125 L 231.5589294433594 596.0360717773438 L 231.5502014160156 596.037353515625 L 231.5415191650391 596.03857421875 C 231.3921203613281 596.0596923828125 231.2968902587891 596.0732421875 231.2345275878906 596.0834350585938 L 231.1492462158203 596.0973510742188 L 231.0633850097656 596.1063232421875 C 230.9783172607422 596.115234375 230.8526306152344 596.12939453125 230.6175689697266 596.156005859375 C 229.0105133056641 596.3426513671875 227.1053619384766 596.55615234375 225.1542053222656 596.72509765625 C 220.6915283203125 597.1116943359375 216.1393432617188 597.3077392578125 211.6240234375 597.3077392578125 C 209.0595703125 597.3077392578125 206.4561157226563 597.244384765625 203.8859405517578 597.1195068359375 C 200.3720703125 596.94873046875 196.8038787841797 596.6546020507813 193.2810821533203 596.245361328125 C 193.1642761230469 596.2320556640625 192.8935241699219 596.198974609375 192.5962066650391 596.16259765625 C 192.2809753417969 596.1240234375 191.9341125488281 596.08154296875 191.7263488769531 596.0574340820313 L 191.6755218505859 596.051513671875 L 191.6248931884766 596.0439453125 C 191.4517974853516 596.0177612304688 191.1270751953125 595.97119140625 190.8141174316406 595.92626953125 C 190.4627685546875 595.8759155273438 190.1585540771484 595.832275390625 190.0159149169922 595.8101806640625 C 188.2382354736328 595.5429077148438 186.4085235595703 595.2335205078125 184.5784759521484 594.890869140625 C 177.6073913574219 593.5884399414063 170.6768493652344 591.8031005859375 163.9794311523438 589.5845336914063 C 160.7737426757813 588.5227661132813 157.5130615234375 587.3170166015625 154.0151062011719 585.8999633789063 C 153.8187866210938 585.82080078125 153.7073059082031 585.77685546875 153.6314392089844 585.7469482421875 L 153.592529296875 585.7315673828125 L 153.5372924804688 585.709716796875 L 153.4829406738281 585.685791015625 L 153.4022521972656 585.64990234375 C 153.3301086425781 585.6177978515625 153.2293395996094 585.5728759765625 153.0751647949219 585.5060424804688 L 153.0673828125 585.502685546875 L 153.0596008300781 585.499267578125 L 152.6846923828125 585.3343505859375 C 152.1039733886719 585.0791015625 151.5034790039063 584.8150634765625 150.9104309082031 584.5462646484375 C 149.2634887695313 583.8009033203125 147.5862426757813 583.0048828125 145.9237060546875 582.179443359375 C 139.74755859375 579.1085205078125 133.7421264648438 575.5777587890625 128.0760803222656 571.6865234375 C 126.7986755371094 570.8107299804688 125.4970703125 569.8858642578125 124.2061462402344 568.9366455078125 C 123.9351196289063 568.7371826171875 123.6685791015625 568.5364990234375 123.4108581542969 568.3424072265625 C 123.0977172851563 568.1066284179688 122.8019104003906 567.8839111328125 122.503662109375 567.6669921875 L 122.4184875488281 567.6055908203125 L 122.3643493652344 567.566650390625 L 122.3119201660156 567.5252685546875 C 122.1855163574219 567.4254150390625 122.0586547851563 567.3260498046875 121.9317932128906 567.2266845703125 C 121.7987060546875 567.1224365234375 121.6655578613281 567.0181274414063 121.529296875 566.9105224609375 C 118.9893798828125 564.8981323242188 116.45947265625 562.7706298828125 114.0098571777344 560.5872192382813 C 109.1534729003906 556.2584228515625 104.5019226074219 551.5515747070313 100.1842651367188 546.5972900390625 C 99.15933227539063 545.4210815429688 98.13052368164063 544.20361328125 97.12652587890625 542.9788818359375 C 96.62356567382813 542.365478515625 96.17459106445313 541.8101806640625 95.75405883789063 541.2815551757813 C 95.6524658203125 541.154296875 95.55230712890625 541.0263671875 95.45223999023438 540.8985595703125 C 95.33212280273438 540.7449951171875 95.21856689453125 540.5999145507813 95.10708618164063 540.46240234375 C 95.08236694335938 540.43212890625 95.07498168945313 540.4234619140625 95.05902099609375 540.4046630859375 L 95.05462646484375 540.3994140625 L 94.9951171875 540.3294677734375 L 94.94003295898438 540.2559814453125 C 94.91598510742188 540.2239379882813 94.89508056640625 540.19580078125 94.87420654296875 540.1676025390625 C 94.84634399414063 540.1300048828125 94.81857299804688 540.0924072265625 94.7738037109375 540.0340576171875 L 94.76751708984375 540.02587890625 L 94.76126098632813 540.017578125 C 92.74676513671875 537.3524169921875 90.94546508789063 534.830078125 89.25479125976563 532.3070068359375 C 85.60147094726563 526.8575439453125 82.26193237304688 521.141357421875 79.32876586914063 515.31689453125 C 77.95553588867188 512.5889892578125 76.60955810546875 509.7041320800781 75.32797241210938 506.7420349121094 L 75.3067626953125 506.6929016113281 L 75.26010131835938 506.5850830078125 C 75.25894165039063 506.5823669433594 75.25775146484375 506.5796203613281 75.25653076171875 506.5769348144531 L 75.25299072265625 506.5686340332031 C 75.16226196289063 506.3586120605469 75.10110473632813 506.2165222167969 75.06253051757813 506.1264038085938 C 75.0401611328125 506.07421875 75.0245361328125 506.0375061035156 75.0145263671875 506.0137329101563 C 74.97360229492188 505.9167175292969 74.9384765625 505.8211669921875 74.90859985351563 505.7270812988281 C 74.88552856445313 505.6703186035156 74.86251831054688 505.6135559082031 74.83963012695313 505.5567932128906 C 74.55538940429688 504.8600769042969 74.28277587890625 504.1678771972656 74.03042602539063 503.5236206054688 L 74.02951049804688 503.5212097167969 L 74.028564453125 503.518798828125 C 73.40887451171875 501.9282531738281 72.81170654296875 500.3171691894531 72.25424194335938 498.7317199707031 C 70.09457397460938 492.5995788574219 68.30374145507813 486.2276306152344 66.93167114257813 479.7930908203125 C 66.26406860351563 476.6642150878906 65.69674682617188 473.5182189941406 65.24551391601563 470.4424133300781 L 65.24179077148438 470.4169616699219 L 65.23855590820313 470.3922119140625 C 65.22943115234375 470.3216247558594 65.18865966796875 470.0286254882813 65.15234375 469.7669982910156 L 65.11062622070313 469.4661865234375 L 65.108154296875 469.4482727050781 L 65.10589599609375 469.4302978515625 L 65.05148315429688 468.9985961914063 L 65.05001831054688 468.9869995117188 L 65.04867553710938 468.9753723144531 L 65.01193237304688 468.6649475097656 C 64.93585205078125 468.0227661132813 64.85720825195313 467.3587341308594 64.787353515625 466.6952209472656 C 64.59326171875 464.8555297851563 64.435302734375 463.0547790527344 64.318115234375 461.3460388183594 C 63.84274291992188 454.5156860351563 63.83499145507813 447.5601806640625 64.29498291015625 440.6732177734375 C 65.15933227539063 427.7078552246094 67.81985473632813 414.606689453125 72.20285034179688 401.7330932617188 C 76.47607421875 389.1903991699219 82.40121459960938 377.151611328125 89.81405639648438 365.950439453125 C 91.57974243164063 363.28369140625 93.4395751953125 360.6589965820313 95.34219360351563 358.148681640625 C 96.43914794921875 356.7020874023438 97.46484375 355.1414794921875 98.55081176757813 353.4893188476563 C 99.31524658203125 352.3262329101563 100.105712890625 351.1235961914063 100.9265747070313 349.9592895507813 C 101.2889404296875 349.445068359375 100.952392578125 348.228759765625 100.3157653808594 347.7531127929688 C 99.94998168945313 347.479736328125 99.56716918945313 347.341064453125 99.1778564453125 347.341064453125 C 98.67074584960938 347.341064453125 98.11907958984375 347.57666015625 97.6240234375 348.0046997070313 L 97.24063110351563 348.3358764648438 C 94.73974609375 350.49560546875 92.3775634765625 352.5355224609375 90.43222045898438 354.9108276367188 C 88.0557861328125 357.8140258789063 85.78085327148438 360.783935546875 83.67138671875 363.7368774414063 C 79.71530151367188 369.2807006835938 76.16485595703125 375.0825805664063 73.1185302734375 380.9818115234375 C 66.60870361328125 393.5842590332031 61.84622192382813 406.8115844726563 58.96334838867188 420.2965393066406 C 56.05258178710938 433.9104614257813 54.95989990234375 447.8003540039063 55.71560668945313 461.5804138183594 C 56.48284912109375 475.5691223144531 59.14572143554688 489.2262268066406 63.63031005859375 502.1723022460938 C 68.0264892578125 514.8633422851563 73.9915771484375 526.9881591796875 81.35983276367188 538.2098388671875 C 88.81198120117188 549.559326171875 97.59097290039063 559.8165893554688 107.4529724121094 568.6967163085938 C 117.9125366210938 578.11474609375 129.7765808105469 586.060791015625 142.715576171875 592.3140258789063 C 155.5579833984375 598.5206298828125 169.1554870605469 602.9146728515625 183.1302032470703 605.3741455078125 C 192.6986083984375 607.0577392578125 202.4174346923828 607.911376953125 212.0167541503906 607.911376953125 C 221.9420776367188 607.911376953125 231.8148040771484 606.99853515625 241.3606567382813 605.1982421875 C 251.1293487548828 603.3558349609375 260.6474609375 600.5658569335938 269.6505126953125 596.90576171875 C 282.7958374023438 591.5610961914063 295.2473449707031 584.6585083007813 306.6591186523438 576.3896484375 C 318.1889038085938 568.0352783203125 328.5943603515625 558.330322265625 337.5863952636719 547.54443359375 C 346.3904418945313 536.9837646484375 353.9146728515625 525.578125 359.9501647949219 513.6444091796875 C 366.1849365234375 501.3166198730469 370.794921875 488.4879455566406 373.6521606445313 475.5145874023438 C 376.6769714355469 461.7828674316406 377.8956909179688 447.6027221679688 377.2744445800781 433.3681335449219 C 376.65380859375 419.1488037109375 374.2083129882813 405.1248474121094 370.005859375 391.68603515625 C 365.7142333984375 377.9649047851563 359.6978149414063 364.9915771484375 352.1235656738281 353.1264038085938 C 344.2900695800781 340.8551025390625 334.9711608886719 330.06689453125 324.4255676269531 321.0614013671875 C 319.2930603027344 316.67822265625 313.8350830078125 312.6878051757813 308.2032165527344 309.201171875 C 302.4354858398438 305.63037109375 296.4371948242188 302.5587158203125 290.3750305175781 300.0714721679688 C 277.5530395507813 294.810791015625 264.5254516601563 292.1432495117188 251.6528015136719 292.1429443359375 L 251.6519317626953 292.1429443359375 M 251.6542358398438 289.1429443359375 C 279.1342163085938 289.1436157226563 305.5598754882813 301.0046997070313 326.3738403320313 318.7801513671875 C 348.4031982421875 337.59228515625 364.2551574707031 363.25 372.8690795898438 390.7904968261719 C 381.4642028808594 418.2765502929688 382.7763061523438 448.0394592285156 376.5819396972656 476.1599426269531 C 370.6334838867188 503.1692199707031 357.54833984375 528.2845458984375 339.8907165527344 549.4654541015625 C 321.4014892578125 571.6431884765625 297.4931030273438 588.823974609375 270.7804565429688 599.684814453125 C 252.0983276367188 607.2798461914063 232.080322265625 610.911376953125 212.0167694091797 610.911376953125 C 202.1748352050781 610.911376953125 192.3213653564453 610.0374755859375 182.6103363037109 608.3287353515625 C 154.1013488769531 603.3114013671875 126.9737854003906 590.3106689453125 105.445556640625 570.9261474609375 C 85.12246704101563 552.62646484375 69.736083984375 528.9639892578125 60.79556274414063 503.1542663574219 C 51.52651977539063 476.3964538574219 50.11874389648438 447.3149108886719 56.0296630859375 419.6692810058594 C 59.00479125976563 405.752685546875 63.92276000976563 392.2471618652344 70.453125 379.60498046875 C 73.615966796875 373.4801025390625 77.22561645507813 367.6048583984375 81.22940063476563 361.9942626953125 C 83.42184448242188 358.9251708984375 85.72317504882813 355.927490234375 88.11074829101563 353.0106201171875 C 90.32760620117188 350.3038330078125 93.01934814453125 348.0194091796875 95.66226196289063 345.7349853515625 C 96.70956420898438 344.8294677734375 97.94094848632813 344.341064453125 99.1778564453125 344.341064453125 C 100.1844482421875 344.341064453125 101.1947326660156 344.6646728515625 102.1118774414063 345.3502197265625 C 103.9233093261719 346.70361328125 104.7716979980469 349.710693359375 103.3789367675781 351.687255859375 C 101.4586486816406 354.410888671875 99.70547485351563 357.359619140625 97.73269653320313 359.9613037109375 C 95.84622192382813 362.4503173828125 94.04046630859375 365.0013427734375 92.3154296875 367.606689453125 C 84.91787719726563 378.78466796875 79.21343994140625 390.458251953125 75.04257202148438 402.7005310058594 C 70.68026733398438 415.5134582519531 68.12738037109375 428.2870483398438 67.288330078125 440.8727722167969 C 66.83782958984375 447.6170959472656 66.84161376953125 454.3953247070313 67.31088256835938 461.1377258300781 C 67.43096923828125 462.8890075683594 67.5867919921875 464.6365966796875 67.77081298828125 466.3804016113281 C 67.849609375 467.1293029785156 67.939697265625 467.8764343261719 68.02792358398438 468.6235046386719 L 68.08233642578125 469.0552062988281 C 68.12179565429688 469.3405456542969 68.20062255859375 469.9054870605469 68.2137451171875 470.0069580078125 C 68.66424560546875 473.0777587890625 69.21798706054688 476.1318054199219 69.86563110351563 479.1670837402344 C 71.20770263671875 485.4609069824219 72.94589233398438 491.6646423339844 75.08389282226563 497.7351379394531 C 75.63760375976563 499.3099365234375 76.21762084960938 500.8736267089844 76.82388305664063 502.4296875 C 77.0848388671875 503.0960388183594 77.34762573242188 503.7623901367188 77.617919921875 504.4249877929688 C 77.74822998046875 504.748046875 77.882080078125 505.0709838867188 78.0142822265625 505.3957214355469 C 78.01416015625 505.3954162597656 78.01412963867188 505.3953247070313 78.01400756835938 505.39501953125 C 77.93624877929688 505.2054443359375 77.7674560546875 504.817138671875 77.76614379882813 504.8172302246094 C 77.76531982421875 504.8172912597656 77.82791137695313 504.9643859863281 78.01400756835938 505.39501953125 C 78.0150146484375 505.3974609375 78.0159912109375 505.39990234375 78.0169677734375 505.4022827148438 C 78.01910400390625 505.4075012207031 78.02120971679688 505.4127197265625 78.02334594726563 505.4179382324219 C 78.02130126953125 505.4129028320313 78.0191650390625 505.4076843261719 78.0169677734375 505.4022827148438 C 78.01608276367188 505.4001159667969 78.01516723632813 505.3978881835938 78.0142822265625 505.3957214355469 C 78.03512573242188 505.4439392089844 78.05755615234375 505.4957885742188 78.08157348632813 505.5513000488281 C 79.31106567382813 508.3930969238281 80.61563110351563 511.2012329101563 82.00839233398438 513.968017578125 C 84.90475463867188 519.7193603515625 88.16146850585938 525.2886962890625 91.74667358398438 530.636474609375 C 93.47360229492188 533.2137451171875 95.28311157226563 535.7327880859375 97.15451049804688 538.2086181640625 C 97.24087524414063 538.3212890625 97.27838134765625 538.373779296875 97.34033203125 538.4564208984375 C 97.37228393554688 538.4940185546875 97.38351440429688 538.507080078125 97.4342041015625 538.569091796875 C 97.65948486328125 538.8468017578125 97.87533569335938 539.1302490234375 98.09869384765625 539.4100341796875 C 98.54360961914063 539.9693603515625 98.99407958984375 540.5250244140625 99.44644165039063 541.0767822265625 C 100.4281921386719 542.2744140625 101.4286499023438 543.4588623046875 102.4460144042969 544.6263427734375 C 106.6731567382813 549.476806640625 111.2026062011719 554.066162109375 116.0060119628906 558.3477783203125 C 118.4068298339844 560.4876708984375 120.8714294433594 562.561767578125 123.392333984375 564.55908203125 C 123.6513977050781 564.763671875 123.9122924804688 564.9664306640625 124.1713562011719 565.1710205078125 L 124.2651672363281 565.238525390625 C 124.8432922363281 565.6590576171875 125.4082946777344 566.096435546875 125.9845581054688 566.5206298828125 C 127.2328491210938 567.4384765625 128.4942016601563 568.3358154296875 129.7725219726563 569.2122802734375 C 135.3511962890625 573.04345703125 141.2001647949219 576.4803466796875 147.2593994140625 579.4931640625 C 148.8736572265625 580.294677734375 150.5048522949219 581.06982421875 152.1473083496094 581.8131103515625 C 152.8511962890625 582.1322021484375 153.5606994628906 582.4420166015625 154.2684020996094 582.7535400390625 C 154.4936218261719 582.8511962890625 154.6137390136719 582.9056396484375 154.6944885253906 582.9412841796875 C 154.775146484375 582.97314453125 154.8953552246094 583.0201416015625 155.1374816894531 583.1177978515625 C 158.3622436523438 584.4241943359375 161.6190185546875 585.6424560546875 164.9226989746094 586.7366943359375 C 171.5299682617188 588.9254150390625 178.2874755859375 590.66357421875 185.1294403076172 591.94189453125 C 186.9032592773438 592.2740478515625 188.6846160888672 592.576416015625 190.4697113037109 592.8447265625 C 190.7118377685547 592.88232421875 191.7122955322266 593.0230712890625 192.0727081298828 593.0775146484375 C 192.4763031005859 593.1243896484375 193.3942108154297 593.2388916015625 193.6250305175781 593.26513671875 C 197.0826110839844 593.6668701171875 200.5552062988281 593.9541015625 204.0315704345703 594.123046875 C 206.5603179931641 594.2459716796875 209.0920867919922 594.3077392578125 211.6240386962891 594.3077392578125 C 216.0535888671875 594.3077392578125 220.4832763671875 594.1185302734375 224.8952941894531 593.736328125 C 226.6935272216797 593.58056640625 228.4861602783203 593.3834228515625 230.2787475585938 593.1751708984375 C 230.5283813476563 593.14697265625 230.6616668701172 593.1319580078125 230.7517547607422 593.12255859375 C 230.84375 593.1075439453125 230.9488830566406 593.092529296875 231.1215209960938 593.068115234375 C 231.8855285644531 592.95556640625 232.6513824462891 592.8428955078125 233.4134368896484 592.720947265625 C 236.8485260009766 592.174560546875 240.2648010253906 591.5101318359375 243.6548004150391 590.7254638671875 C 250.6882019042969 589.09619140625 257.5902709960938 586.9376220703125 264.31201171875 584.3021240234375 C 265.2223815917969 583.943603515625 266.1309204101563 583.57763671875 267.0338134765625 583.2041015625 L 267.1013793945313 583.174072265625 C 267.6307373046875 582.9468994140625 268.1581420898438 582.7159423828125 268.6837463378906 582.4814453125 C 270.2642822265625 581.78125 271.8316040039063 581.0548095703125 273.3895874023438 580.303955078125 C 276.8922119140625 578.6126708984375 280.3347473144531 576.797607421875 283.7097473144531 574.867919921875 C 289.3522338867188 571.6412353515625 294.8032836914063 568.07861328125 300.0252990722656 564.2099609375 C 300.6578979492188 563.7406005859375 301.2829284667969 563.2657470703125 301.9098815917969 562.7908935546875 C 302.2289733886719 562.539306640625 302.5499877929688 562.2896728515625 302.8690795898438 562.0362548828125 C 303.9896850585938 561.1446533203125 305.1009521484375 560.2362060546875 306.2008972167969 559.31640625 C 308.6729736328125 557.2459716796875 311.0869445800781 555.102294921875 313.4389038085938 552.8929443359375 C 318.1409912109375 548.474365234375 322.5933837890625 543.7891845703125 326.7680358886719 538.8675537109375 C 327.7722473144531 537.6829833984375 328.761474609375 536.4854736328125 329.7337951660156 535.2747802734375 C 329.8614807128906 535.115234375 330.6047973632813 534.178466796875 330.8638305664063 533.853759765625 C 330.9520874023438 533.7393798828125 331.0364685058594 533.6304931640625 331.0590209960938 533.6004638671875 C 331.27490234375 533.3150634765625 331.4926147460938 533.02978515625 331.70849609375 532.7425537109375 C 333.6456298828125 530.167236328125 335.5114440917969 527.5355224609375 337.3003540039063 524.853271484375 C 340.874267578125 519.4923095703125 344.1460266113281 513.9267578125 347.0798950195313 508.1922607421875 C 348.4933471679688 505.4311218261719 349.8279418945313 502.6305541992188 351.081787109375 499.7961730957031 C 351.26611328125 499.3796997070313 351.8511352539063 497.9869384765625 351.8583984375 497.9869384765625 C 351.8607482910156 497.9869384765625 351.802978515625 498.1319580078125 351.652099609375 498.5018005371094 C 351.6465759277344 498.5153198242188 351.6410827636719 498.5287475585938 351.6355590820313 498.5422668457031 C 351.6411743164063 498.5285339355469 351.646728515625 498.5149536132813 351.652099609375 498.5018005371094 C 351.9169921875 497.852783203125 352.1853332519531 497.2053527832031 352.4464721679688 496.5563049316406 C 353.022705078125 495.1165771484375 353.5783386230469 493.6712341308594 354.11328125 492.216552734375 C 356.3357543945313 486.1722717285156 358.1921997070313 479.9929504394531 359.6544189453125 473.7197570800781 C 360.3789672851563 470.6113586425781 361.0059204101563 467.4803466796875 361.5333862304688 464.3325500488281 C 361.6986083984375 463.3433227539063 361.8543395996094 462.3540954589844 362.0007934570313 461.3630065917969 C 362.038330078125 461.1133117675781 362.073974609375 460.8617553710938 362.1096801757813 460.6121215820313 C 362.2936096191406 459.0090942382813 362.49072265625 457.4098205566406 362.6427001953125 455.8049621582031 C 363.2828369140625 449.0718688964844 363.4799194335938 442.2993469238281 363.2453002929688 435.5400085449219 C 363.1326599121094 432.2851867675781 362.9186706542969 429.0340881347656 362.6070556640625 425.7922973632813 C 362.4588012695313 424.2305297851563 362.2710571289063 422.6745300292969 362.08154296875 421.1184387207031 C 362.0402221679688 420.8368225097656 361.9088134765625 419.8570251464844 361.8543395996094 419.4947814941406 C 361.74169921875 418.7514343261719 361.6253967285156 418.0099792480469 361.5033569335938 417.2685241699219 C 360.4202880859375 410.7212524414063 358.9317626953125 404.2415771484375 357.0434265136719 397.8783264160156 C 356.0841979980469 394.6404113769531 355.0199279785156 391.4324035644531 353.854248046875 388.2620544433594 C 353.2498474121094 386.6177978515625 352.6172485351563 384.984619140625 351.9583740234375 383.3629150390625 C 351.8213806152344 383.02685546875 351.6825256347656 382.6927490234375 351.5454711914063 382.3568115234375 L 351.5248413085938 382.30615234375 C 351.2263488769531 381.619140625 350.926025390625 380.93212890625 350.6182250976563 380.2469482421875 C 347.85888671875 374.0919189453125 344.6941223144531 368.1153564453125 341.138916015625 362.3809814453125 C 339.4270629882813 359.62158203125 337.6250610351563 356.916748046875 335.7329711914063 354.2738037109375 C 335.1492004394531 353.4610595703125 334.559814453125 352.6539306640625 333.9609985351563 351.854248046875 C 333.7845153808594 351.61767578125 333.390380859375 351.107177734375 333.2176513671875 350.8819580078125 C 332.2960205078125 349.7181396484375 331.3687438964844 348.55810546875 330.4152221679688 347.418701171875 C 326.0416259765625 342.198486328125 321.29638671875 337.284423828125 316.2056884765625 332.7587890625 C 314.8598327636719 331.5631103515625 313.4896240234375 330.3935546875 312.0968322753906 329.2523193359375 C 311.4379272460938 328.713623046875 310.7677917480469 328.184326171875 310.0995788574219 327.653076171875 C 309.8292846679688 327.4522705078125 309.5589904785156 327.2457275390625 309.2886962890625 327.044921875 C 306.5106201171875 324.9744873046875 303.6480712890625 323.0185546875 300.704833984375 321.1922607421875 C 297.7653198242188 319.36962890625 294.7451171875 317.6763916015625 291.6535034179688 316.1259765625 C 290.050537109375 315.324462890625 288.4287719726563 314.55859375 286.7881469726563 313.8359375 C 286.5591430664063 313.734619140625 286.3301086425781 313.6351318359375 286.1011657714844 313.53564453125 L 286.0204467773438 313.505615234375 C 285.301513671875 313.2333984375 284.592041015625 312.93310546875 283.8749389648438 312.6590576171875 C 280.451171875 311.3525390625 276.9579467773438 310.2301025390625 273.412109375 309.3046875 C 271.5369262695313 308.816650390625 269.646728515625 308.383056640625 267.7452087402344 308.0057373046875 C 266.9305725097656 307.8424072265625 266.1121826171875 307.6922607421875 265.2937622070313 307.551513671875 C 264.7474975585938 307.4556884765625 264.2012939453125 307.3731689453125 263.6550903320313 307.2830810546875 C 263.6268920898438 307.27734375 263.4373168945313 307.249267578125 263.2477416992188 307.21923828125 C 262.9455261230469 307.1817626953125 262.3411254882813 307.1009521484375 262.2472534179688 307.0897216796875 C 261.836181640625 307.042724609375 261.4232177734375 306.995849609375 261.01025390625 306.95458984375 C 260.0454406738281 306.8551025390625 259.0806274414063 306.7706298828125 258.1157836914063 306.701171875 C 256.3232116699219 306.573486328125 254.5268402099609 306.4927978515625 252.7304840087891 306.466552734375 C 252.2713623046875 306.4597778320313 251.8126068115234 306.4564208984375 251.3534240722656 306.4564208984375 C 248.2249755859375 306.4564208984375 245.0958099365234 306.6133422851563 241.9842071533203 306.935791015625 C 241.9850921630859 306.9356689453125 241.9854278564453 306.9356079101563 241.9852447509766 306.9356079101563 C 241.9771423339844 306.9356079101563 240.9674072265625 307.0530395507813 240.58203125 307.093505859375 C 240.3962097167969 307.1197509765625 240.214111328125 307.1441650390625 240.1859741210938 307.1497802734375 C 239.3694305419922 307.27734375 238.5547943115234 307.4088134765625 237.7420196533203 307.5552978515625 C 235.9812927246094 307.8743896484375 234.22998046875 308.249755859375 232.4955749511719 308.6815185546875 C 228.8972015380859 309.5731201171875 225.2894744873047 310.5960693359375 221.8412933349609 311.960693359375 C 221.0644989013672 312.2677612304688 220.2786254882813 312.4074096679688 219.5030212402344 312.4074096679688 C 215.8555908203125 312.4074096679688 212.4449768066406 309.3168334960938 211.3784790039063 306.019775390625 C 209.8580322265625 301.3214111328125 213.1954803466797 297.186279296875 217.3175201416016 295.5570068359375 C 216.9534912109375 295.7007446289063 216.8068237304688 295.7576904296875 216.8029479980469 295.7576904296875 C 216.7881927490234 295.7576904296875 218.8545227050781 294.9277954101563 218.8554992675781 294.9277954101563 C 218.8555145263672 294.9277954101563 218.8552856445313 294.9279174804688 218.8548431396484 294.9281005859375 C 219.3654327392578 294.7198486328125 219.8834838867188 294.5245361328125 220.4015655517578 294.331298828125 C 221.1768035888672 294.0421142578125 221.9576568603516 293.764404296875 222.7403869628906 293.4996337890625 C 224.5705718994141 292.8822021484375 226.4194793701172 292.3509521484375 228.2965698242188 291.8966064453125 C 232.2628021240234 290.9375 236.2910308837891 290.3123779296875 240.3417510986328 289.822509765625 C 244.1253662109375 289.3643188476563 247.8984832763672 289.1428833007813 251.6542358398438 289.1429443359375 Z"/></g><g transform="translate(98.698)"><path d="M144.88,312.852a23.154,23.154,0,0,0-6-3.08c-.5-.289-.995-.576-1.509-.815a195.757,195.757,0,0,0,12.353-21.714c2.7-5.571-.67-10.915-6.63-11.553q-8.072-.864-16.19-1.03c-5.4-.1-11.955-.7-17.044,1.323-2.72,1.081-4.8,3.2-4.8,6.3a6.686,6.686,0,0,0,4.8,6.3c5.359,1.579,11.5.809,17.044,1.057,1.28.058,2.557.173,3.835.255A216.1,216.1,0,0,1,116.3,311.552c-3.683,4.856,1.19,11.666,6.542,11.9a5.816,5.816,0,0,0,2.035.193c.389-.038.785-.073,1.183-.115.445.013.892,0,1.336.026q.893.048,1.781.13c.206.021.417.047.589.073.627.12,1.248.251,1.864.4.231.237.464.488.7.725-.293-.338-.3-.544.056.058.043.043.083.09.128.131-.045-.041-.084-.083-.122-.122l.019.03c.173.3.338.6.509.9.023.073.041.118.068.22.1.385.188.773.283,1.158,0,.071.009.113.008.21-.006.571-.036,1.145-.039,1.714-.009.026-.015.03-.026.062-.163.437-.225.942-.364,1.393-.024.079-.171.471-.265.734-.13.248-.3.6-.34.663-.235.42-.531.811-.756,1.231l-.021.043c-.019.017-.023.017-.043.036-.691.638-1.323,1.336-2.025,1.969a1.155,1.155,0,0,0-.116.049c-.419.2-.811.52-1.218.753s-.869.422-1.267.674c-.041.026-.049.036-.081.056-.909.3-1.8.625-2.731.86q-.7.177-1.412.315c-.351.068-2.016.255-.355.075-4.148.452-8.314,3.328-8.06,8.06.039.74.051,1.472.017,2.209a14.935,14.935,0,0,0-.3,1.567,8.16,8.16,0,0,0,7.775,10.206c16.1.143,31.734-9.971,32.819-27.024A23.225,23.225,0,0,0,144.88,312.852Z" transform="translate(-105.065 -274.498)"/><path class="c" d="M119.591,301.339c.019.023.041.045.062.068l-.006-.009Z" transform="translate(-92.325 -250.956)"/></g><text class="d" transform="translate(74 145.571)"><tspan x="0" y="0">Reinforced</tspan><tspan x="0" y="42">Learning</tspan></text><g transform="translate(117.574 204.783)"><path d="M163.36,197.415a3.815,3.815,0,0,0-4.137-1.684,23.283,23.283,0,0,0-3.12,1.107c-1.113.372-2.245.706-3.383,1a32.662,32.662,0,0,1-6.757,1.025,52.92,52.92,0,0,1-7.028-.184c-2.164-.193-4.991-1.323-7.084-.591a2.02,2.02,0,0,0-1.19,2.924c1.314,2.281,4.83,3.092,7.2,3.735a32.677,32.677,0,0,0,8.353,1.111,42.266,42.266,0,0,0,8.486-.833c2.613-.516,6.119-1.3,8.085-3.172A3.724,3.724,0,0,0,163.36,197.415Z" transform="translate(-99.533 -111.724)"/><path d="M158.127,202.5a3.162,3.162,0,0,0-3.983-1.213,9.223,9.223,0,0,0-1.166.544c-.054.032-.263.135-.345.182a9.742,9.742,0,0,1-1.2.374c-.469.116-.942.2-1.417.28-.092.015-.113.021-.15.026a.443.443,0,0,0-.1.008l-.661.073c-1.229.13-2.459.242-3.687.375a29.066,29.066,0,0,1-6.936.058c-1.855-.25-5.905-2.389-6.7.462-.788,2.819,3.428,4.19,5.427,4.787a27.215,27.215,0,0,0,7.429.927,45.533,45.533,0,0,0,7.092-.52c2.508-.362,4.877-1.147,6.4-3.27A3.013,3.013,0,0,0,158.127,202.5Z" transform="translate(-98.402 -107.01)"/><path d="M148.435,209.088a3.049,3.049,0,0,0-2.851-2.17,11.4,11.4,0,0,0-2.192.265c-1.057.1-2.091.028-3.152.041-.539.006-1.072-.032-1.611-.022a8.61,8.61,0,0,0-1.01.028,3.651,3.651,0,0,0-1.224.437,1.864,1.864,0,0,0-.839,2.063,4.207,4.207,0,0,0,2.249,2.558,8.957,8.957,0,0,0,3.339,1.027,12.309,12.309,0,0,0,2.322.053,7.461,7.461,0,0,0,3.61-.94A3.021,3.021,0,0,0,148.435,209.088Z" transform="translate(-95.046 -101.843)"/><path d="M170.329,165.7c-9.558-5.93-23.631-5.173-33.162.469a31.259,31.259,0,0,0-15.36,25.692,32.1,32.1,0,0,0,4.573,17.065,28.763,28.763,0,0,0,5.641,6.87c2.025,1.759,7.05,4.145,6.046,7.426-.736,2.408,2.812,3.889,4.053,1.708,2.7-4.755-.381-9.171-4.015-12.24A26.958,26.958,0,0,1,129.537,201a24.291,24.291,0,0,1,6.649-26.052c7.24-6.667,20.145-8.948,29.012-4.315,9.676,5.057,13.37,15.9,12.554,26.29-.394,5.016-1.774,11.49-6.024,14.737-2.183,1.669-4.957,2.207-6.9,4.276a6.563,6.563,0,0,0-1.149,7.835c1.686,3.144,6,.858,5.434-2.29-.261-1.453,5.2-3.127,6.238-3.854a18.856,18.856,0,0,0,5.365-5.875c2.945-4.956,4.113-11.024,4.325-16.721C185.475,183.525,180.266,171.863,170.329,165.7Z" transform="translate(-107.068 -141.606)"/><path d="M159.577,178.972c-1.631-1.442-3.863-1.336-5.776-.569a9.8,9.8,0,0,0-3.773,2.7,4.99,4.99,0,0,0-6.127-.31,10.68,10.68,0,0,0-2.577,2.793c-.719-.741-1.457-1.464-2.219-2.144-1.768-1.58-3.878-2.222-5.956-.756a8.433,8.433,0,0,0-3.195,4.818c-1.083,4.257.768,8.482,2.819,12.137,1.986,3.538,4.527,7.274,8.3,9.051a1.221,1.221,0,0,0,1.656-1.656c-2.386-5.188-6.63-9.365-8.053-15.043a6.819,6.819,0,0,1-.068-3.411,4.032,4.032,0,0,1,.732-1.532c.115-.141.278-.242.387-.387.009-.013.017-.013.026-.024a4.485,4.485,0,0,0,.432.387c.3.255.593.524.886.79.524.481,1.042.969,1.53,1.487.375.4.734.818,1.092,1.233a6,6,0,0,0,1.56,4.289c1.344,1.466,3.356.488,4-1.055a4.327,4.327,0,0,0-.327-3.814,8.152,8.152,0,0,1,1.646-2.536c.092-.107.16-.178.212-.237a.8.8,0,0,1,.214.2,4.16,4.16,0,0,1,.5,1.866c0,.021-.008.041-.009.062h.017c.026.246.049.48.077.685a2.546,2.546,0,0,0,2.825,1.845,2.6,2.6,0,0,0,2.232-2.53A4.364,4.364,0,0,1,153.7,184.8a4.939,4.939,0,0,1,1.012-.907,13.254,13.254,0,0,1,1.241-.544c.026.188.045.4.047.5a17.933,17.933,0,0,1-.445,4.184,39.653,39.653,0,0,1-2.761,8.116c-.655,1.438-1.425,2.821-2.074,4.261a11.613,11.613,0,0,0-.777,4.723,1.4,1.4,0,0,0,2.085,1.2c3.869-2.132,5.588-6.65,7.182-10.545a28.225,28.225,0,0,0,2.343-11.936A6.778,6.778,0,0,0,159.577,178.972Z" transform="translate(-100.196 -127.337)"/><g transform="translate(11.437 76.649)"><path d="M128.737,192.055c-1.209-.676-2.41-.008-3.426.67-.268.18-.544.355-.809.541a11.735,11.735,0,0,0-1.267,1.092c-.488.464-1.012.907-1.458,1.408-.238.268-.479.535-.711.807a3.852,3.852,0,0,0-.88,1.477,6.171,6.171,0,0,0-.126,1.023l.053-.387,0,.039c-.017.122-.038.242-.051.362l-.006.058.054-.4a2.617,2.617,0,0,0,.126,1.481,2.327,2.327,0,0,0,.978,1.143,3.47,3.47,0,0,0,2.478.242,3.954,3.954,0,0,0,1.941-1.316c.556-.548,1.047-1.143,1.55-1.74.374-.441.768-.875,1.1-1.348.208-.3.385-.629.571-.946a7.394,7.394,0,0,0,.708-1.423,2.7,2.7,0,0,0,.2-.967A2.178,2.178,0,0,0,128.737,192.055Z" transform="translate(-120.035 -191.774)"/><path d="M120.044,195.854c.008-.058.017-.116.024-.176v-.015Z" transform="translate(-120.044 -188.363)"/></g><path d="M123.574,185.14a3.354,3.354,0,0,0-1.216-.212,11.919,11.919,0,0,0-1.286.212c-.291.054-.584.107-.877.156a4.229,4.229,0,0,0-.845.274q-.836.324-1.682.612a4.876,4.876,0,0,0-1.787.937,3.375,3.375,0,0,0-1.1,1.663c.083-.2.163-.389.246-.582a.479.479,0,0,0-.109.176,2.379,2.379,0,0,0-.227,1.742,2.289,2.289,0,0,0,1.038,1.352c.086.045.186.071.278.113a3.716,3.716,0,0,0,3.317.1c.758-.317,1.513-.64,2.256-.989a8.66,8.66,0,0,0,1.87-1.335,7.881,7.881,0,0,0,.634-.565,3.8,3.8,0,0,0,.743-1.443A1.821,1.821,0,0,0,123.574,185.14Z" transform="translate(-113.372 -121.135)"/><path d="M123.909,175.224c-.146-.133-.287-.272-.434-.405a5.454,5.454,0,0,0-.627-.494,3.74,3.74,0,0,0-.621-.27q-.459-.206-.914-.415a17.4,17.4,0,0,0-1.915-.67c-.208-.068-.415-.152-.625-.214a6.726,6.726,0,0,0-1.372-.169c-.227-.015-.462-.054-.689-.056a2.7,2.7,0,0,0-1.975.893,2.26,2.26,0,0,0-.212.253c-.075.092-.156.173-.225.27l.079-.06a2.075,2.075,0,0,0-.39,1.241l0-.011-.021.16a2.767,2.767,0,0,0,1.361,2.373,6.349,6.349,0,0,0,1.956,1.072c.511.16,1.038.3,1.562.407a9.91,9.91,0,0,0,2.236.145,4.476,4.476,0,0,0,1.261-.152,9.386,9.386,0,0,0,1.132-.5A2.177,2.177,0,0,0,123.909,175.224Z" transform="translate(-113.951 -132.003)"/><path d="M127.151,166.216c-.069-.139-.133-.285-.208-.42a10.643,10.643,0,0,0-.978-1.226l.443.573a8.938,8.938,0,0,0-.725-.892c-.124-.122-.242-.246-.36-.374-.235-.257-.456-.524-.67-.8l.462.6a16.439,16.439,0,0,0-1.374-1.667,3.8,3.8,0,0,0-2.594-1.111,2.024,2.024,0,0,0-.368-.017.978.978,0,0,0-.955.379,2.768,2.768,0,0,0-.319.357c.107-.16.079-.128-.113.13a1.714,1.714,0,0,0-.409.781c-.015.054-.026.109-.038.165a4.483,4.483,0,0,0-.13,1.017,6.07,6.07,0,0,0,.15,1.079,5.427,5.427,0,0,0,.713,1.47,7.735,7.735,0,0,0,1.059,1.269,8.157,8.157,0,0,0,2,1.594c.154.079.31.152.466.223a3.918,3.918,0,0,0,1.579.426c.128.013.261.028.39.032a2.358,2.358,0,0,0,2.243-1.687A2.67,2.67,0,0,0,127.151,166.216Z" transform="translate(-109.687 -142.234)"/><path d="M137,157.595a15.29,15.29,0,0,0-.715-2.414,5.6,5.6,0,0,0-1.237-1.892,2.793,2.793,0,0,0-1.883-.781,2.694,2.694,0,0,0-1.885.781A5.7,5.7,0,0,0,130,156.733a8.2,8.2,0,0,0,.443,2.669c.5,1.813,1.47,3.829,3.18,4.768a2.818,2.818,0,0,0,2.795,0,2.889,2.889,0,0,0,1.372-2.391A11.834,11.834,0,0,0,137,157.595Z" transform="translate(-99.887 -149.566)"/><path d="M153.085,153.455a2.845,2.845,0,0,0-.419-.9,2.315,2.315,0,0,0-.2-.4,2.442,2.442,0,0,0-2.11-1.211,4.216,4.216,0,0,0-1.042.19c.259-.036.518-.071.777-.105-3.041.019-4.19,3.418-5.207,5.742a14.071,14.071,0,0,0-1.2,3.367,6.869,6.869,0,0,0-.081,2.545,2.617,2.617,0,0,0,2.512,2.174c2.6-.13,4.071-2.923,5.083-4.991.394-.807.8-1.607,1.183-2.42a9.574,9.574,0,0,0,.678-2.04A4.073,4.073,0,0,0,153.085,153.455Z" transform="translate(-88.022 -150.94)"/><path d="M163.274,162.544a2.736,2.736,0,0,0-.421-.477c.043.024.1.056.088.045-.032-.034-.083-.045-.118-.077a2.047,2.047,0,0,0-.469-.308c-.051-.024-.088-.069-.139-.09-.026-.011-.058-.011-.084-.023-.064-.023-.113-.073-.18-.09l.12.077a2.253,2.253,0,0,0-1.468-.073,4.953,4.953,0,0,0-1.387.631,24.138,24.138,0,0,0-1.992,1.556,8.536,8.536,0,0,0-1.58,1.783q-.251.422-.49.85a2.18,2.18,0,0,0-.342,1.059,1.7,1.7,0,0,0,.76,1.427,1.882,1.882,0,0,0,1.8.073c.227-.09.456-.178.685-.265a6.6,6.6,0,0,0,1.209-.6q.363-.228.732-.449c.49-.295.944-.659,1.417-.984a6.854,6.854,0,0,0,1.091-.835,3.062,3.062,0,0,0,.991-1.52A2.371,2.371,0,0,0,163.274,162.544Z" transform="translate(-78.113 -141.733)"/><path d="M169.961,175.928a2.976,2.976,0,0,0-1.359-2.082,4.277,4.277,0,0,0-3.24-.633c-.987.109-1.962.246-2.936.428a15.735,15.735,0,0,0-2.119.424,9.345,9.345,0,0,0-1.52.621,4.013,4.013,0,0,0-1.351,1.408,2.337,2.337,0,0,0,.358,2.784,4.087,4.087,0,0,0,1.594,1.016,8.4,8.4,0,0,0,1.652.229,15.055,15.055,0,0,0,2.251-.088c.963-.054,1.909-.171,2.863-.3a9.33,9.33,0,0,0,1.076-.156,3.657,3.657,0,0,0,1.95-1.258A2.94,2.94,0,0,0,169.961,175.928Z" transform="translate(-76.081 -131.456)"/><path d="M164.872,188.747a3.588,3.588,0,0,0-.775-.944,4.338,4.338,0,0,0-.954-.783,9.8,9.8,0,0,0-1.791-.843,5.866,5.866,0,0,0-1.83-.48c-.368.006-.732.015-1.1,0a1.891,1.891,0,0,0-1.537.771,1.841,1.841,0,0,0-.349,1.706c.118.293.246.582.372.871a5.428,5.428,0,0,0,.295.694,3.716,3.716,0,0,0,.527.648c.13.124.267.244.4.364a6.711,6.711,0,0,0,1.348,1.029c.152.075.3.15.458.223l.231.107c.146.068.293.131.443.191a2.231,2.231,0,0,0,1.138.253,3.772,3.772,0,0,0,1.6-.064A2.592,2.592,0,0,0,165,191.019a1.927,1.927,0,0,0,.22-.984A2.545,2.545,0,0,0,164.872,188.747Z" transform="translate(-76.683 -120.455)"/><path d="M159.16,197.195c-.015-.049-.03-.1-.049-.145a2.567,2.567,0,0,0-.661-1.136,9.571,9.571,0,0,0-.843-.963,8.121,8.121,0,0,0-1.393-1.252c-.362-.2-.74-.372-1.1-.571a1.737,1.737,0,0,0-1.731,0,1.686,1.686,0,0,0-.85,1.481c.053.557.111,1.122.206,1.672a3.856,3.856,0,0,0,.486,1.1c.109.2.22.394.334.589a8.563,8.563,0,0,0,1.141,1.457,2.834,2.834,0,0,0,3.476.625,2.358,2.358,0,0,0,1.03-1.417A2.517,2.517,0,0,0,159.16,197.195Z" transform="translate(-80.117 -114.139)"/></g></svg>