<svg xmlns="http://www.w3.org/2000/svg" width="11.76" height="11.76" viewBox="0 0 11.76 11.76"><defs><style>.a{fill:#065be7;}</style></defs><path class="a" d="M16.087,15.623h0V11.309c0-2.11-.454-3.735-2.921-3.735a2.561,2.561,0,0,0-2.306,1.268h-.034V7.771H8.489v7.851h2.435V11.735c0-1.024.194-2.013,1.462-2.013,1.249,0,1.268,1.168,1.268,2.079v3.823Z" transform="translate(-4.329 -3.863)"/><path class="a" d="M.4,7.977H2.834v7.851H.4Z" transform="translate(-0.202 -4.068)"/><path class="a" d="M1.412,0A1.419,1.419,0,1,0,2.824,1.412,1.413,1.413,0,0,0,1.412,0Z"/></svg>