<svg xmlns="http://www.w3.org/2000/svg" width="117.758" height="48" viewBox="0 0 117.758 48"><defs><style>.a{fill:#065be7;}</style></defs><g transform="translate(17858.857 -6537)"><g transform="translate(-17858.857 6537)"><g transform="translate(18.456 6.348)"><g transform="translate(0 7.101)"><path class="a" d="M2577.447,365.361a.868.868,0,0,0,.586.783l3.789,1.115a.433.433,0,0,0,.586-.439V341a.866.866,0,0,0-.586-.783l-3.789-1.115a.433.433,0,0,0-.586.438Z" transform="translate(-2577.447 -339.08)"/></g><g transform="translate(0 0.097)"><path class="a" d="M2577.447,299.381a.867.867,0,0,0,.586.783l3.789,1.114a.433.433,0,0,0,.586-.438v-3.594a.867.867,0,0,0-.586-.783l-3.789-1.114a.432.432,0,0,0-.586.438Z" transform="translate(-2577.447 -295.325)"/></g><g transform="translate(6.128 29.327)"><path class="a" d="M2615.732,479.862a.867.867,0,0,1,.585-.782l3.79-1.115a.433.433,0,0,1,.586.438V482a.868.868,0,0,1-.586.783l-3.79,1.115a.433.433,0,0,1-.585-.439Z" transform="translate(-2615.732 -477.941)"/></g><g transform="translate(6.141)"><path class="a" d="M2619.6,321.879a.891.891,0,0,0,.6-.783l.553-25.918a.421.421,0,0,0-.573-.438l-3.79,1.115a.843.843,0,0,0-.572.782l.552,25.577a.443.443,0,0,0,.6.438Z" transform="translate(-2615.813 -294.717)"/></g></g><path class="a" d="M2486.142,255.056a24,24,0,1,0,24,24A24,24,0,0,0,2486.142,255.056Zm0,44.948a20.949,20.949,0,1,1,20.948-20.948A20.972,20.972,0,0,1,2486.142,300Z" transform="translate(-2462.142 -255.056)"/></g><g transform="translate(-17800.996 6550.285)"><g transform="translate(0 0)"><path class="a" d="M2826.43,331.488a1.241,1.241,0,0,1-.116.533,1.518,1.518,0,0,1-.307.439,1.417,1.417,0,0,1-.445.3,1.331,1.331,0,0,1-.539.11,1.293,1.293,0,0,1-.532-.11,1.461,1.461,0,0,1-.741-.741,1.289,1.289,0,0,1-.11-.533,1.364,1.364,0,0,1,.11-.544,1.4,1.4,0,0,1,.3-.45,1.44,1.44,0,0,1,.439-.3,1.293,1.293,0,0,1,.532-.11,1.331,1.331,0,0,1,.539.11,1.418,1.418,0,0,1,.445.3,1.476,1.476,0,0,1,.307.45A1.313,1.313,0,0,1,2826.43,331.488Zm-.44,3.493v11.127h-1.954V334.981Z" transform="translate(-2823.64 -330.082)"/><path class="a" d="M2853.01,370.893V359.766h1.164a.5.5,0,0,1,.527.406l.143,1.143a5.69,5.69,0,0,1,1.378-1.241,3.248,3.248,0,0,1,1.774-.483,2.635,2.635,0,0,1,1.828.626,3.526,3.526,0,0,1,1.006,1.691,3.48,3.48,0,0,1,.61-1.043,3.532,3.532,0,0,1,.851-.725,3.592,3.592,0,0,1,1-.417,4.473,4.473,0,0,1,1.082-.132,4.112,4.112,0,0,1,1.565.28,3.1,3.1,0,0,1,1.164.818,3.644,3.644,0,0,1,.731,1.323,5.859,5.859,0,0,1,.252,1.8v7.085h-1.955v-7.085a3,3,0,0,0-.571-1.982,2.052,2.052,0,0,0-1.659-.675,2.494,2.494,0,0,0-.917.17,2.22,2.22,0,0,0-.763.5,2.361,2.361,0,0,0-.522.83,3.208,3.208,0,0,0-.192,1.158v7.085h-1.955v-7.085a3.118,3.118,0,0,0-.538-2,1.91,1.91,0,0,0-1.571-.659,2.48,2.48,0,0,0-1.345.39,4.388,4.388,0,0,0-1.137,1.06v8.293Z" transform="translate(-2848.309 -354.867)"/><path class="a" d="M2958.832,374.545V359.651H2960a.5.5,0,0,1,.527.406l.164,1.318a5.949,5.949,0,0,1,1.631-1.4,4.168,4.168,0,0,1,2.115-.527,4.015,4.015,0,0,1,1.736.368,3.58,3.58,0,0,1,1.328,1.087,5.226,5.226,0,0,1,.846,1.785,9.177,9.177,0,0,1,.3,2.449,7.67,7.67,0,0,1-.33,2.291,5.592,5.592,0,0,1-.944,1.834,4.409,4.409,0,0,1-1.51,1.219,4.46,4.46,0,0,1-2.016.445,4.156,4.156,0,0,1-1.763-.34,3.981,3.981,0,0,1-1.291-.967v4.921Zm4.954-13.51a3.156,3.156,0,0,0-1.675.439,4.839,4.839,0,0,0-1.324,1.241V368.1a3.145,3.145,0,0,0,1.182,1.022,3.378,3.378,0,0,0,1.433.3,2.8,2.8,0,0,0,2.383-1.11,5.179,5.179,0,0,0,.835-3.163,7.88,7.88,0,0,0-.192-1.867,3.637,3.637,0,0,0-.555-1.28,2.152,2.152,0,0,0-.89-.73A2.958,2.958,0,0,0,2963.786,361.035Z" transform="translate(-2937.193 -354.752)"/><path class="a" d="M3028.041,360.69v7.1a2.951,2.951,0,0,0,.583,1.956,2.166,2.166,0,0,0,1.758.691,3.363,3.363,0,0,0,1.615-.406,5.024,5.024,0,0,0,1.395-1.131V360.69h1.956v11.127h-1.165a.5.5,0,0,1-.527-.406l-.154-1.2a6.123,6.123,0,0,1-1.625,1.291,4.264,4.264,0,0,1-2.064.489,4.019,4.019,0,0,1-1.609-.3,3.18,3.18,0,0,1-1.17-.851,3.613,3.613,0,0,1-.708-1.329,5.9,5.9,0,0,1-.236-1.725v-7.1Z" transform="translate(-2993.683 -355.791)"/><path class="a" d="M3094.676,353.026a2.682,2.682,0,0,1-2.026-.736,2.936,2.936,0,0,1-.708-2.12v-6.81h-1.34a.441.441,0,0,1-.3-.1.408.408,0,0,1-.12-.324v-.78l1.823-.23.45-3.438a.415.415,0,0,1,.143-.269.456.456,0,0,1,.307-.1h.989v3.834h3.186v1.417H3093.9v6.678a1.418,1.418,0,0,0,.341,1.043,1.191,1.191,0,0,0,.879.341,1.556,1.556,0,0,0,.533-.082,2.259,2.259,0,0,0,.39-.182c.11-.065.2-.126.28-.181a.367.367,0,0,1,.2-.083.338.338,0,0,1,.275.187l.571.933a3.618,3.618,0,0,1-1.219.741A4.141,4.141,0,0,1,3094.676,353.026Z" transform="translate(-3047.521 -336.824)"/><path class="a" d="M3141.769,359.59a4.955,4.955,0,0,1,1.845.336,4.136,4.136,0,0,1,1.462.966,4.406,4.406,0,0,1,.96,1.56,6.026,6.026,0,0,1,.346,2.115,1.266,1.266,0,0,1-.1.615.41.41,0,0,1-.374.154h-7.4a6.166,6.166,0,0,0,.285,1.834,3.756,3.756,0,0,0,.725,1.3,2.9,2.9,0,0,0,1.1.78,3.778,3.778,0,0,0,1.428.258,4.2,4.2,0,0,0,1.269-.17,6.05,6.05,0,0,0,.917-.367,7.115,7.115,0,0,0,.643-.368.854.854,0,0,1,.445-.171.433.433,0,0,1,.373.186l.549.714a3.716,3.716,0,0,1-.867.763,5.422,5.422,0,0,1-1.082.533,6.932,6.932,0,0,1-1.192.313,7.263,7.263,0,0,1-1.219.1,5.656,5.656,0,0,1-2.126-.39,4.658,4.658,0,0,1-1.68-1.142,5.226,5.226,0,0,1-1.1-1.862,7.565,7.565,0,0,1-.4-2.548,6.483,6.483,0,0,1,.357-2.175,5.1,5.1,0,0,1,1.028-1.752,4.72,4.72,0,0,1,1.636-1.164A5.365,5.365,0,0,1,3141.769,359.59Zm.043,1.439a3,3,0,0,0-2.229.818,3.846,3.846,0,0,0-1.011,2.268h6.052a3.985,3.985,0,0,0-.186-1.246,2.806,2.806,0,0,0-.55-.978,2.465,2.465,0,0,0-.884-.638A2.989,2.989,0,0,0,3141.812,361.029Z" transform="translate(-3086.485 -354.867)"/></g><path class="a" d="M2887.281,444.544a262.57,262.57,0,0,0-30.59-2.257c-17.307,0-27.542,2.735-27.542,2.735s9.635-3.526,27.439-3.526C2875.344,441.5,2887.281,444.544,2887.281,444.544Z" transform="translate(-2828.267 -423.663)"/></g></g></svg>