<svg xmlns="http://www.w3.org/2000/svg" width="133.777" height="109.032" viewBox="0 0 133.777 109.032"><defs><style>.a,.b{stroke:none;}.b{fill:#f9f9f9;}</style></defs><g transform="matrix(0.839, 0.545, -0.545, 0.839, 75.884, -483.622)"><path class="a" d="M 336.7197265625 477.5613403320313 C 336.7196655273438 477.5613403320313 336.7196044921875 477.5613403320313 336.7195434570313 477.5613403320313 C 335.5655212402344 477.5613098144531 334.2681884765625 477.0527038574219 333.7660217285156 476.4034729003906 C 333.5141296386719 476.0781860351563 333.2507934570313 475.7936706542969 332.9961242675781 475.5185546875 C 332.6583557128906 475.1536560058594 332.33935546875 474.8089904785156 332.13720703125 474.4562377929688 C 331.5946655273438 473.5089416503906 331.3074340820313 472.2978820800781 331.3493041992188 471.1339416503906 C 331.4070434570313 469.560546875 331.6443176269531 468.1081237792969 332.035400390625 466.9348449707031 C 332.5498657226563 465.3864440917969 333.1402587890625 463.7391357421875 333.8407897949219 461.8974914550781 L 335.4140625 457.7613830566406 L 331.6500244140625 460.0883178710938 C 326.6107177734375 463.2036437988281 320.0691528320313 464.6025085449219 314.2976379394531 465.8367309570313 C 314.0473937988281 465.8902282714844 313.7988891601563 465.9433898925781 313.5523681640625 465.9962463378906 C 304.5783386230469 467.9231262207031 295.3751831054688 468.9000854492188 286.1982421875 468.9000854492188 C 278.606689453125 468.9000854492188 270.9479064941406 468.2295837402344 263.4346313476563 466.9072265625 C 254.0933227539063 465.2624206542969 246.1428680419922 462.9569091796875 239.1290130615234 459.8589172363281 C 235.1788635253906 458.1125793457031 231.8336944580078 456.2376403808594 228.9028625488281 454.1271667480469 C 228.6654510498047 453.9561462402344 228.4143371582031 453.7786560058594 228.1484375 453.5907592773438 C 225.4965362548828 451.7164916992188 221.4889068603516 448.8840942382813 222.2145233154297 446.0109558105469 C 222.3522338867188 445.4652404785156 222.5965118408203 445.1178894042969 223.0066528320313 444.8844299316406 C 223.4396057128906 444.6380004882813 224.0641326904297 444.5130615234375 224.8629150390625 444.5130615234375 C 226.9069366455078 444.5130615234375 229.5335845947266 445.3447570800781 231.2716827392578 445.8951110839844 C 231.7239532470703 446.0382995605469 232.1145324707031 446.1619873046875 232.4617462158203 446.262451171875 C 234.8671875 446.95849609375 237.3046875 447.7217407226563 239.6619415283203 448.4598693847656 C 241.3052825927734 448.9744262695313 243.0045623779297 449.5065307617188 244.6857604980469 450.0137023925781 C 251.8011627197266 452.1596069335938 259.4084167480469 454.3544921875 267.3015441894531 455.5474853515625 C 267.6629943847656 455.6025085449219 268.0467529296875 455.6577758789063 268.5076904296875 455.7211303710938 L 268.5168762207031 455.722412109375 L 268.5260925292969 455.7235412597656 L 268.5451049804688 455.7259216308594 C 268.914794921875 455.7720947265625 269.1637878417969 455.8028564453125 269.255126953125 455.8126525878906 L 269.7467956542969 455.8678283691406 C 270.4812316894531 455.9504699707031 271.2406921386719 456.0359191894531 271.9947204589844 456.1090698242188 C 273.9466247558594 456.3007202148438 275.7498779296875 456.4476623535156 277.5057678222656 456.5580749511719 C 280.161376953125 456.7255859375 282.8570556640625 456.810546875 285.5177001953125 456.810546875 C 286.6702270507813 456.8105163574219 287.8384094238281 456.7945556640625 288.98974609375 456.7631225585938 C 292.7891845703125 456.6593627929688 296.7738037109375 456.3623657226563 300.8329162597656 455.8804321289063 L 300.8382873535156 455.8797912597656 L 300.8436279296875 455.8791198730469 C 300.961669921875 455.8642272949219 301.1017456054688 455.8457946777344 301.2268676757813 455.8293151855469 L 301.3262329101563 455.8162536621094 L 301.3347778320313 455.8151245117188 L 301.3433227539063 455.8139038085938 C 301.8759765625 455.7377624511719 302.3196105957031 455.6718444824219 302.739501953125 455.6064758300781 C 303.6394653320313 455.4661865234375 304.5587463378906 455.3128662109375 305.4721374511719 455.1507263183594 C 307.296630859375 454.8250732421875 309.1251525878906 454.4561462402344 310.9083557128906 454.0540161132813 C 314.83251953125 453.1693420410156 318.5616455078125 452.1388244628906 321.9919738769531 450.9911499023438 C 322.2266235351563 450.912353515625 322.4512634277344 450.8285827636719 322.6685180664063 450.74755859375 C 322.927001953125 450.6511535644531 323.1719055175781 450.559814453125 323.4049682617188 450.4873046875 L 323.5721435546875 450.4473571777344 L 323.7315979003906 450.3659973144531 C 323.889892578125 450.28515625 324.0484008789063 450.2056884765625 324.2067260742188 450.1262817382813 C 324.591796875 449.93310546875 324.9899597167969 449.7333679199219 325.3880004882813 449.5139770507813 L 327.6748657226563 448.2535400390625 L 325.4339904785156 446.9130554199219 C 323.5622253417969 445.7933959960938 322.2365417480469 444.78125 321.2618713378906 443.727783203125 C 319.7669372558594 442.1115112304688 319.0058898925781 441.0015258789063 318.9953308105469 439.4205932617188 C 318.9901123046875 438.6156311035156 319.0698547363281 437.8695068359375 319.2323608398438 437.2032470703125 C 319.5390625 435.9417724609375 320.9999694824219 434.8769836425781 322.4227600097656 434.8769836425781 C 322.8875732421875 434.8769836425781 323.3060302734375 434.9926452636719 323.66650390625 435.2207946777344 L 323.9447021484375 435.3968505859375 L 324.2710266113281 435.4402465820313 L 324.4118957519531 435.4589538574219 L 324.4654235839844 435.466064453125 L 324.5193481445313 435.4693298339844 C 324.6435241699219 435.476806640625 324.767578125 435.4837646484375 324.8916015625 435.49072265625 C 325.6824340820313 435.5350952148438 326.4294738769531 435.5770263671875 327.1346435546875 435.7557067871094 C 327.7338562011719 435.9100341796875 328.3269958496094 436.0904541015625 328.9549560546875 436.281494140625 C 329.2142028808594 436.3603820800781 329.4731750488281 436.4391174316406 329.7319946289063 436.5158081054688 C 331.6482849121094 437.083740234375 333.6316528320313 437.9877624511719 335.5496826171875 438.8619995117188 C 335.7414855957031 438.9494323730469 335.9319152832031 439.0361938476563 336.1207885742188 439.1219787597656 C 337.3712768554688 439.6893920898438 338.6416320800781 440.2715148925781 339.8701782226563 440.83447265625 C 340.3834838867188 441.0696716308594 340.8968505859375 441.3049011230469 341.4103393554688 441.5398254394531 C 341.904052734375 441.7665100097656 342.4002685546875 441.993408203125 342.896728515625 442.2204284667969 C 343.2524719238281 442.3831176757813 343.6083068847656 442.5458374023438 343.9641723632813 442.7089233398438 C 344.1470642089844 442.7927856445313 344.3307189941406 442.8763427734375 344.5143737792969 442.9598999023438 C 344.6958312988281 443.0424499511719 344.8772277832031 443.125 345.0581970214844 443.2079467773438 C 345.7274475097656 443.5146484375 346.3087158203125 443.9756469726563 346.9817810058594 444.5094909667969 C 347.0975036621094 444.6012878417969 347.2139587402344 444.6936340332031 347.3318786621094 444.7859802246094 C 347.7439575195313 445.1084594726563 348.1807556152344 445.7852783203125 348.5009460449219 446.5969543457031 C 348.8144836425781 447.3918151855469 348.9926147460938 448.2619934082031 348.9658203125 448.8679809570313 C 348.9226989746094 449.8356018066406 348.6680603027344 450.8120422363281 348.2089538574219 451.7695922851563 L 348.002685546875 452.1998596191406 L 348.0828857421875 452.6701965332031 C 348.7181091308594 456.3959350585938 347.3383178710938 460.3494567871094 346.0039672851563 464.1727600097656 C 345.9349670410156 464.3704833984375 345.8663024902344 464.5671997070313 345.7982788085938 464.7629089355469 C 345.3384704589844 466.0850219726563 344.9188537597656 467.4299621582031 344.5130615234375 468.7305908203125 C 344.3280334472656 469.32373046875 344.1366882324219 469.9370727539063 343.9449768066406 470.5369873046875 C 343.5791625976563 471.6883239746094 343.0527954101563 472.8868103027344 342.3797607421875 474.1015625 C 341.6637573242188 475.3931884765625 340.7136840820313 476.2552185058594 339.3899230957031 476.8140869140625 C 339.1172790527344 476.928466796875 338.8411560058594 477.0161743164063 338.548828125 477.1090087890625 C 338.2697448730469 477.1976318359375 337.9811706542969 477.289306640625 337.6658935546875 477.4122314453125 C 337.4158020019531 477.5098266601563 337.0887756347656 477.5613403320313 336.7197265625 477.5613403320313 Z"/><path class="b" d="M 322.4227294921875 436.3769836425781 C 321.6441040039063 436.3769836425781 320.8192443847656 437.0255432128906 320.6896362304688 437.5586547851563 C 320.5562438964844 438.1054992675781 320.4908752441406 438.728759765625 320.4953002929688 439.4106140136719 C 320.5026550292969 440.5131530761719 321.0774536132813 441.3193359375 322.3629150390625 442.7091064453125 C 323.23779296875 443.6547241210938 324.4583129882813 444.58154296875 326.2040100097656 445.6257934570313 L 330.685546875 448.306640625 L 326.1121520996094 450.8275756835938 C 325.6885986328125 451.0610961914063 325.2771606445313 451.2674560546875 324.8792724609375 451.467041015625 C 324.7240905761719 451.5448913574219 324.5687255859375 451.6227722167969 324.41357421875 451.7019958496094 L 324.0945434570313 451.8648376464844 L 323.8057861328125 451.9337463378906 C 323.6224060058594 451.9927368164063 323.4129028320313 452.0708618164063 323.1926879882813 452.1529846191406 C 322.9640502929688 452.23828125 322.7276000976563 452.3264770507813 322.4678649902344 452.4136657714844 C 318.9898681640625 453.5772705078125 315.2116088867188 454.6214904785156 311.2383422851563 455.5172729492188 C 309.4329528808594 455.9244079589844 307.5820922851563 456.2978210449219 305.7342834472656 456.6276550292969 C 304.8096923828125 456.7917785644531 303.8799438476563 456.9468383789063 302.9701232910156 457.0886535644531 C 302.54833984375 457.154296875 302.0856628417969 457.2230224609375 301.5555725097656 457.2987976074219 L 301.5384216308594 457.3012390136719 L 301.521240234375 457.3034973144531 L 301.4198608398438 457.3168334960938 C 301.2926940917969 457.3335876464844 301.1506958007813 457.3522644042969 301.0309448242188 457.3673400878906 L 301.0203552246094 457.3686828613281 L 301.0097961425781 457.3699340820313 C 296.9057006835938 457.8572387695313 292.8753356933594 458.1575622558594 289.03076171875 458.2625427246094 C 287.86572265625 458.2944030761719 286.6837768554688 458.3105163574219 285.5177612304688 458.3105163574219 C 282.8258361816406 458.3105163574219 280.0983581542969 458.2245788574219 277.41162109375 458.0551147460938 C 275.6382446289063 457.9435729980469 273.8178405761719 457.7952880859375 271.8499145507813 457.6020812988281 C 271.0839233398438 457.5277404785156 270.318115234375 457.4415893554688 269.5775756835938 457.3582458496094 L 269.0897521972656 457.3034973144531 C 268.9941711425781 457.2931213378906 268.7922668457031 457.2684631347656 268.3482360839844 457.2129821777344 L 268.3400268554688 457.2119750976563 L 268.3217163085938 457.2096557617188 L 268.3034362792969 457.2071533203125 C 267.8427429199219 457.1438293457031 267.4406433105469 457.0859375 267.0773620605469 457.0306396484375 C 259.0861511230469 455.8227844238281 251.4199829101563 453.6113891601563 244.2525634765625 451.4497985839844 C 242.5635986328125 450.9402770996094 240.8602905273438 450.4069213867188 239.2130432128906 449.89111328125 C 236.8636779785156 449.1554565429688 234.434326171875 448.394775390625 232.0447998046875 447.7033386230469 C 231.6795959472656 447.59765625 231.2615356445313 447.4653015136719 230.8189392089844 447.3251342773438 C 229.1688232421875 446.8026428222656 226.6751403808594 446.0130615234375 224.8628845214844 446.0130615234375 C 224.1460571289063 446.0130615234375 223.8075561523438 446.1445007324219 223.7345581054688 446.1964111328125 C 223.7225646972656 446.2160949707031 223.6952514648438 446.2737426757813 223.6688842773438 446.3782348632813 C 223.6068420410156 446.6239013671875 223.4180603027344 447.3713989257813 224.78271484375 448.8985595703125 C 225.938720703125 450.1921997070313 227.6439819335938 451.3973999023438 229.01416015625 452.3657836914063 C 229.2828979492188 452.5557250976563 229.5367431640625 452.7351379394531 229.7793579101563 452.9099426269531 C 232.6248779296875 454.9589538574219 235.8817138671875 456.7832641601563 239.7350769042969 458.4867858886719 C 246.6368408203125 461.5352783203125 254.4741516113281 463.8064270019531 263.6946411132813 465.4299621582031 C 271.1222839355469 466.7372131347656 278.6935424804688 467.4000854492188 286.1982116699219 467.4000854492188 C 295.2694702148438 467.4000854492188 304.36669921875 466.4343566894531 313.2377624511719 464.5296325683594 C 313.4844970703125 464.4766845703125 313.7332153320313 464.4235229492188 313.9837341308594 464.3699340820313 C 319.63623046875 463.1611938476563 326.0429077148438 461.7911987304688 330.8612670898438 458.8124389648438 L 338.3892822265625 454.1585388183594 L 335.2427673339844 462.4307556152344 C 334.5498657226563 464.2524108886719 333.9664916992188 465.8799438476563 333.4584350585938 467.4091796875 C 333.1118774414063 468.4488830566406 332.90087890625 469.7562866210938 332.8483276367188 471.1878967285156 C 332.8162231445313 472.0798645019531 333.0315551757813 472.9995422363281 333.4386901855469 473.7104797363281 C 333.5560302734375 473.9152526855469 333.8187866210938 474.1990966796875 334.0969543457031 474.4996337890625 C 334.3607482910156 474.7846374511719 334.6597290039063 475.107666015625 334.9501342773438 475.4827575683594 C 335.1166076660156 475.6791381835938 335.8920288085938 476.0613403320313 336.719482421875 476.0613403320313 C 336.9493103027344 476.0613403320313 337.0866088867188 476.0279235839844 337.1209716796875 476.0146789550781 C 337.4811706542969 475.874267578125 337.80712890625 475.7707214355469 338.0947570800781 475.6793823242188 C 338.3638000488281 475.5939331054688 338.5963745117188 475.5200500488281 338.8090209960938 475.4311218261719 C 339.8194580078125 475.0039367675781 340.5162353515625 474.3694152832031 341.0676879882813 473.3745727539063 C 341.6926879882813 472.2464904785156 342.1795349121094 471.1397399902344 342.51611328125 470.0803833007813 C 342.7062683105469 469.4854431152344 342.8968505859375 468.8746337890625 343.0811157226563 468.283935546875 C 343.4904479980469 466.9718933105469 343.9137268066406 465.6152038574219 344.3814086914063 464.2704467773438 C 344.44970703125 464.0740966796875 344.5185546875 463.8766784667969 344.5878295898438 463.6783142089844 C 345.8594665527344 460.0345764160156 347.1744384765625 456.2667541503906 346.6041870117188 452.9223022460938 L 346.4438171386719 451.9815979003906 L 346.8563842773438 451.12109375 C 347.2276611328125 450.3466796875 347.4332275390625 449.5659790039063 347.46728515625 448.8017272949219 C 347.4818115234375 448.4723205566406 347.3759765625 447.8339233398438 347.1066284179688 447.1501159667969 C 346.8118286132813 446.4015808105469 346.49560546875 446.03662109375 346.4068603515625 445.9668273925781 C 346.2865600585938 445.87255859375 346.167724609375 445.7783508300781 346.0496215820313 445.6846923828125 C 345.4529113769531 445.2113952636719 344.9375610351563 444.8026733398438 344.4328002929688 444.5713806152344 C 344.2525329589844 444.4887084960938 344.07177734375 444.4064636230469 343.8909912109375 444.32421875 C 343.7067260742188 444.2403869628906 343.5224609375 444.1565551757813 343.3392944335938 444.0725708007813 C 342.9850463867188 443.9102172851563 342.6307373046875 443.7481994628906 342.276611328125 443.5862731933594 C 341.7781982421875 443.3583679199219 341.2800903320313 443.1305541992188 340.7863464355469 442.9038696289063 C 340.2726440429688 442.6688537597656 339.7590942382813 442.4335632324219 339.2455749511719 442.1982421875 C 338.0181884765625 441.6358337402344 336.7490234375 441.0542602539063 335.5005493164063 440.4877624511719 C 335.3111877441406 440.4017333984375 335.1202697753906 440.3147277832031 334.927978515625 440.2270812988281 C 333.0567016601563 439.3741455078125 331.1216735839844 438.4921875 329.3058471679688 437.9540100097656 C 329.0435180664063 437.8762817382813 328.7810668945313 437.7964782714844 328.5182495117188 437.7165222167969 C 327.9081420898438 437.5309143066406 327.331787109375 437.3555908203125 326.765625 437.2095947265625 C 326.2006530761719 437.0665283203125 325.554931640625 437.0303039550781 324.807373046875 436.9883728027344 C 324.681396484375 436.9813232421875 324.5553283691406 436.9742431640625 324.42919921875 436.9666137695313 L 324.3211669921875 436.9601135253906 L 324.2139282226563 436.9458618164063 L 324.0730590820313 436.9270935058594 L 323.4205322265625 436.8403015136719 L 322.8643493652344 436.48828125 C 322.8208618164063 436.4607543945313 322.6884765625 436.3769836425781 322.4227905273438 436.3769836425781 L 322.4227294921875 436.3769836425781 M 322.4227600097656 433.3769836425781 C 323.1346435546875 433.3769836425781 323.8399658203125 433.5553894042969 324.4686889648438 433.9533081054688 L 324.6095581054688 433.9720458984375 C 325.576171875 434.0302734375 326.5372924804688 434.0565185546875 327.505859375 434.3023681640625 C 328.3955688476563 434.5313720703125 329.2777709960938 434.8167724609375 330.1581420898438 435.07763671875 C 332.3749389648438 435.734619140625 334.6536865234375 436.8082885742188 336.7410278320313 437.7562255859375 C 338.5073852539063 438.5577392578125 340.2698974609375 439.3685913085938 342.0343627929688 440.17578125 C 342.8847045898438 440.5662231445313 343.7368774414063 440.9547729492188 344.5890502929688 441.3452758789063 C 344.9532470703125 441.5122680664063 345.3192749023438 441.677490234375 345.6834106445313 441.844482421875 C 346.650146484375 442.2874755859375 347.4159545898438 442.9464111328125 348.2568969726563 443.6051635742188 C 349.6121826171875 444.6657104492188 350.5375366210938 447.2786254882813 350.46435546875 448.9342041015625 C 350.409912109375 450.1561889648438 350.0870971679688 451.3218994140625 349.5615234375 452.4180908203125 C 350.2973022460938 456.7335205078125 348.619140625 461.2159423828125 347.2151489257813 465.25537109375 C 346.554443359375 467.155029296875 345.985595703125 469.0790405273438 345.373779296875 470.9935913085938 C 344.955078125 472.3113403320313 344.36572265625 473.6121826171875 343.6918334960938 474.8284912109375 C 342.8209228515625 476.3995971679688 341.6138916015625 477.5033569335938 339.9733276367188 478.1959838867188 C 339.3557739257813 478.455078125 338.8076782226563 478.5770263671875 338.2108154296875 478.8097534179688 C 337.7723388671875 478.9808959960938 337.2591552734375 479.0613708496094 336.719482421875 479.0613708496094 C 335.1752319335938 479.0613708496094 333.41552734375 478.4020690917969 332.5795288085938 477.3212280273438 C 332.0258178710938 476.6061401367188 331.2993774414063 476.0111083984375 330.8357543945313 475.2020263671875 C 330.1337890625 473.976318359375 329.799560546875 472.4896240234375 329.8502807617188 471.0800170898438 C 329.9065551757813 469.54638671875 330.1281127929688 467.913330078125 330.6123657226563 466.4605102539063 C 331.18115234375 464.7485961914063 331.796875 463.0517578125 332.4387817382813 461.3641967773438 C 326.9520874023438 464.756103515625 319.834228515625 466.1827392578125 313.8670043945313 467.462890625 C 304.7369995117188 469.4232482910156 295.4716491699219 470.4000854492188 286.1982116699219 470.4000854492188 C 278.5031433105469 470.4000854492188 270.8017272949219 469.7269287109375 263.1746215820313 468.384521484375 C 254.763427734375 466.9035034179688 246.3466186523438 464.6867065429688 238.52294921875 461.2310180664063 C 234.828857421875 459.597900390625 231.3056030273438 457.705810546875 228.0263061523438 455.3444213867188 C 225.1732177734375 453.2890014648438 219.6959228515625 449.8577880859375 220.7601928710938 445.6436767578125 C 221.26318359375 443.6502685546875 222.9014282226563 443.0130615234375 224.8628845214844 443.0130615234375 C 227.6666259765625 443.0130615234375 231.1303100585938 444.3157043457031 232.8786010742188 444.821533203125 C 236.9781494140625 446.0078125 241.03076171875 447.3442993164063 245.1190185546875 448.57763671875 C 252.5316162109375 450.8131713867188 259.850341796875 452.9042358398438 267.5256958007813 454.0643310546875 C 267.9198608398438 454.1243286132813 268.31591796875 454.1806640625 268.7119750976563 454.235107421875 C 268.8922119140625 454.2576293945313 269.3276977539063 454.3120727539063 269.4177856445313 454.3214721679688 C 270.3244018554688 454.4227905273438 271.2310791015625 454.5279541015625 272.1395874023438 454.6160888671875 C 273.9566040039063 454.7944946289063 275.7791748046875 454.946533203125 277.5999145507813 455.06103515625 C 280.2364196777344 455.2273254394531 282.8772277832031 455.3105163574219 285.5177917480469 455.3105163574219 C 286.6615905761719 455.3105163574219 287.8056030273438 455.2948913574219 288.9487915039063 455.263671875 C 292.8643798828125 455.15673828125 296.7667846679688 454.8526611328125 300.6560668945313 454.390869140625 C 300.8043823242188 454.3721923828125 300.9883422851563 454.3477172851563 301.1310424804688 454.3289794921875 C 301.5909423828125 454.2632446289063 302.05078125 454.1956176757813 302.5087890625 454.1243286132813 C 303.4116821289063 453.9835815429688 304.310791015625 453.8334350585938 305.2099609375 453.673828125 C 307.0081787109375 453.3528442382813 308.7969970703125 452.9924926757813 310.578369140625 452.5907592773438 C 314.2667846679688 451.7592163085938 317.9308471679688 450.7681274414063 321.5160522460938 449.5686645507813 C 322.0135498046875 449.401611328125 322.5090942382813 449.19140625 323.01025390625 449.0393676757813 L 323.0496215820313 449.0299682617188 C 323.5902099609375 448.7540283203125 324.1327514648438 448.4931030273438 324.6639404296875 448.2003173828125 C 323.0195922851563 447.2166748046875 321.4147338867188 446.1017456054688 320.1608276367188 444.7464599609375 C 318.7267456054688 443.1959838867188 317.5103759765625 441.68310546875 317.495361328125 439.4306030273438 C 317.48974609375 438.5652465820313 317.5704345703125 437.6868286132813 317.7750854492188 436.8477783203125 C 318.2574157714844 434.8638610839844 320.3675537109375 433.376953125 322.4227600097656 433.3769836425781 Z"/></g></svg>