<svg xmlns="http://www.w3.org/2000/svg" width="230.153" height="150.698" viewBox="0 0 230.153 150.698"><defs><style>.a,.b{stroke:none;}.b{fill:#f7f7f7;}</style></defs><g transform="matrix(0.996, 0.087, -0.087, 0.996, -12.699, -255.491)"><path class="a" d="M 63.43926620483398 382.9805908203125 C 61.90917587280273 382.9805908203125 60.52747344970703 382.7259826660156 59.4434700012207 382.2442321777344 C 58.22600173950195 381.7032165527344 57.40173721313477 380.9067687988281 56.92358779907227 379.8093566894531 C 56.46797180175781 378.7637329101563 56.56500244140625 377.6419067382813 57.22023773193359 376.3796691894531 C 57.78414916992188 375.2933654785156 58.76885223388672 374.1384582519531 59.99297332763672 373.1277465820313 C 61.90559005737305 371.5496826171875 64.14932250976563 370.6403198242188 66.67185211181641 369.6969299316406 L 70.01838684082031 368.4453430175781 L 66.78135681152344 366.9329528808594 C 63.32814788818359 365.319580078125 60.20364761352539 362.9967041015625 57.4946174621582 360.02880859375 C 54.9137077331543 357.2012634277344 52.78394317626953 353.8768005371094 51.16450119018555 350.1477966308594 C 49.58150100708008 346.5027770996094 48.55697250366211 342.6407775878906 48.119384765625 338.6690673828125 C 47.67841339111328 334.6668701171875 47.8566780090332 330.7552795410156 48.64926528930664 327.0429077148438 C 50.34735488891602 319.0902099609375 54.46735382080078 311.4802856445313 60.89482498168945 304.4246826171875 C 66.34262084960938 298.4444885253906 73.31435394287109 292.9743041992188 81.61635589599609 288.1661376953125 C 89.69691467285156 283.4860229492188 98.80867767333984 279.3468322753906 108.6985626220703 275.8634948730469 C 117.4467926025391 272.7822265625 126.8597946166992 270.1607666015625 137.4754180908203 267.8492431640625 C 158.8799743652344 263.1878356933594 180.8745269775391 260.2771606445313 199.5667877197266 258.0446472167969 C 210.60888671875 256.7237243652344 221.5359497070313 255.6649475097656 232.0447998046875 254.897705078125 C 232.7422943115234 254.8468322753906 233.4401550292969 254.7951812744141 234.1382141113281 254.7435607910156 C 238.7058868408203 254.4056854248047 243.4290618896484 254.0562744140625 248.0608520507813 253.9250335693359 C 248.4318542480469 253.9145660400391 248.8068542480469 253.9092712402344 249.1751708984375 253.9092712402344 C 251.9088897705078 253.9092712402344 254.4617004394531 254.19091796875 256.7627258300781 254.7463531494141 C 259.3948059082031 255.3817138671875 261.6377258300781 256.3664855957031 263.4293212890625 257.6732482910156 C 263.9593811035156 258.0602416992188 264.3341979980469 258.707275390625 264.3614196777344 259.2828674316406 C 264.3794860839844 259.6652221679688 264.2484741210938 259.9669189453125 263.9490661621094 260.2322998046875 C 263.8113098144531 260.3543090820313 263.6758422851563 260.4757080078125 263.5419616699219 260.595703125 C 262.5683288574219 261.4684448242188 261.7992858886719 262.1577758789063 260.7156982421875 262.5925598144531 C 260.1018371582031 262.8391418457031 259.464111328125 263.0795593261719 258.8474426269531 263.3120727539063 C 258.3576965332031 263.4966735839844 257.8512878417969 263.6875915527344 257.3519897460938 263.8832702636719 C 257.1206970214844 263.9739074707031 256.8899230957031 264.0660400390625 256.6590270996094 264.1581726074219 C 255.7756500244141 264.5107727050781 254.9412689208984 264.8438110351563 254.0870361328125 265.0943908691406 C 252.5815277099609 265.5370178222656 251.0305633544922 265.6810302734375 249.3885345458984 265.8334655761719 L 249.2591552734375 265.8455200195313 C 244.4951477050781 266.2924194335938 239.6469421386719 266.7113342285156 234.9583892822266 267.116455078125 C 228.9559936523438 267.6350708007813 222.749267578125 268.1713562011719 216.6461181640625 268.7726135253906 C 211.0874786376953 269.3188171386719 205.9850311279297 269.8606262207031 201.0475006103516 270.4289855957031 C 198.2355346679688 270.7530822753906 195.306640625 271.1054077148438 192.3420257568359 271.4761962890625 C 190.7722625732422 271.674072265625 189.4641418457031 271.8413391113281 188.2237701416016 272.0028076171875 C 187.9189758300781 272.0421752929688 187.6133270263672 272.0821838378906 187.3076782226563 272.1222229003906 C 187.0042114257813 272.1619262695313 186.7007293701172 272.20166015625 186.3968200683594 272.2409362792969 L 186.589111328125 275.2285766601563 L 185.0931701660156 273.8367309570313 C 185.0367431640625 273.056396484375 185.5943908691406 272.3576049804688 186.3627014160156 272.2459106445313 C 186.3137664794922 272.2530212402344 186.1003265380859 272.2814025878906 185.8984680175781 272.3083190917969 C 185.7512664794922 272.3279418945313 185.6099090576172 272.3468017578125 185.5364074707031 272.3568115234375 C 167.2920837402344 274.8148803710938 146.1268615722656 277.9055480957031 125.8445892333984 283.4924011230469 C 115.7473526000977 286.2735595703125 106.4427642822266 289.5835266113281 98.93673706054688 293.064453125 C 94.29850006103516 295.2145690917969 90.15841674804688 297.3937683105469 86.28017425537109 299.7265319824219 C 84.35679626464844 300.8844604492188 82.49100494384766 302.093505859375 80.73411560058594 303.3203430175781 C 80.00235748291016 303.8305969238281 79.23758697509766 304.3858947753906 78.32826232910156 305.0673522949219 L 78.16579437255859 305.1891174316406 L 78.13983917236328 305.22265625 C 77.96088409423828 305.3673706054688 77.58769989013672 305.6632080078125 77.34635162353516 305.8545532226563 C 76.94219207763672 306.1749572753906 76.76685333251953 306.3142700195313 76.69284057617188 306.3762512207031 C 73.22998809814453 309.251708984375 70.15695953369141 312.3384399414063 67.55918121337891 315.5508117675781 L 67.54770660400391 315.5649719238281 L 67.53659057617188 315.5794067382813 C 67.41812133789063 315.7334594726563 67.19756317138672 316.0201416015625 67.05226898193359 316.2210083007813 C 66.79759216308594 316.5727844238281 66.52547454833984 316.9603576660156 66.22073364257813 317.4055786132813 C 65.60914611816406 318.3035278320313 65.02259063720703 319.2302856445313 64.47537994384766 320.1630249023438 C 63.9819450378418 321.0044250488281 63.5179328918457 321.8585510253906 63.09594345092773 322.7022399902344 C 63.03623580932617 322.820068359375 62.93774795532227 323.0386962890625 62.71338272094727 323.5403137207031 C 62.57659530639648 323.84619140625 62.37107849121094 324.3056640625 62.31439590454102 324.4188232421875 L 62.27117919921875 324.4972534179688 L 62.23408889770508 324.5940246582031 C 61.40320587158203 326.763916015625 60.79682540893555 328.8075866699219 60.38029479980469 330.8418884277344 C 60.33903121948242 331.0459899902344 60.30573654174805 331.239990234375 60.27352905273438 331.4276733398438 C 60.24141311645508 331.6146850585938 60.21112060546875 331.7913208007813 60.17635345458984 331.9591674804688 L 60.14517593383789 332.1096496582031 L 60.14517593383789 332.2633666992188 C 60.14517593383789 332.3188171386719 60.14526748657227 332.3712463378906 60.1436767578125 332.4425659179688 C 60.13711929321289 332.7587280273438 60.12123489379883 333.0743408203125 60.10441207885742 333.4084777832031 C 60.07967758178711 333.8996276855469 60.0540885925293 334.4075317382813 60.05891418457031 334.9313659667969 C 60.06455993652344 335.7722473144531 60.12067794799805 336.5887451171875 60.20320892333984 337.5548706054688 L 63.19524002075195 337.3428649902344 C 63.19879150390625 337.4610290527344 63.18743515014648 337.9608154296875 62.78009033203125 338.3858642578125 L 61.69752883911133 338.8477783203125 C 60.88873672485352 338.8477783203125 60.34011840820313 338.2398376464844 60.23456192016602 337.6677856445313 C 60.24417877197266 337.719970703125 60.27273559570313 337.9161376953125 60.29567718505859 338.07373046875 C 60.35497283935547 338.48095703125 60.42876434326172 338.9877319335938 60.49585342407227 339.3001403808594 C 60.74229431152344 340.4649963378906 61.10382461547852 341.5649719238281 61.45344161987305 342.6287841796875 C 61.65391159057617 343.2386474609375 61.84323501586914 343.814697265625 62.01341247558594 344.4049377441406 L 62.04512023925781 344.5149841308594 L 62.09317779541016 344.618896484375 C 62.11661911010742 344.6695861816406 62.13956069946289 344.7207641601563 62.16259002685547 344.7720642089844 C 62.20961761474609 344.8768005371094 62.25823593139648 344.985107421875 62.31461715698242 345.1007995605469 L 62.3193244934082 345.1104431152344 L 62.32415008544922 345.1199951171875 C 62.39496994018555 345.2601928710938 62.46429443359375 345.4015197753906 62.53370666503906 345.54296875 C 62.64458847045898 345.7688293457031 62.75920867919922 346.0023803710938 62.88217926025391 346.2373046875 C 63.33076477050781 347.0968933105469 63.81400299072266 347.9350280761719 64.31755828857422 348.7268981933594 C 64.65620422363281 349.2593383789063 65.01876831054688 349.7619018554688 65.369384765625 350.2478942871094 L 65.40103149414063 350.2917785644531 L 65.49923706054688 350.4279174804688 L 65.57429504394531 350.494140625 C 65.6546630859375 350.5857238769531 65.84250640869141 350.8104858398438 65.9716796875 350.9650573730469 C 66.25985717773438 351.3099365234375 66.45829772949219 351.5463256835938 66.58623504638672 351.6846923828125 C 67.15167999267578 352.2958984375 67.74629211425781 352.8501892089844 68.32135772705078 353.3861999511719 C 68.47420501708984 353.5286865234375 68.62723541259766 353.6712951660156 68.77973937988281 353.8150634765625 L 68.78659057617188 353.8215026855469 L 68.79353332519531 353.827880859375 C 68.83447265625 353.8655090332031 68.86088562011719 353.8912353515625 68.88858795166016 353.9180908203125 L 68.92555999755859 353.9538879394531 L 69.00102996826172 354.0265502929688 L 69.08585357666016 354.0880737304688 L 69.15020751953125 354.1347351074219 C 69.41764831542969 354.3287963867188 69.69419860839844 354.5294189453125 69.98960113525391 354.7232666015625 C 70.67616271972656 355.1788330078125 71.38568878173828 355.5999450683594 72.09844207763672 355.9749755859375 C 72.41888427734375 356.1440734863281 72.73723602294922 356.2936096191406 73.04508972167969 356.438232421875 L 73.09002685546875 356.4593200683594 L 73.1956787109375 356.5089721679688 L 73.30770874023438 356.5416870117188 L 73.44173431396484 356.580810546875 C 74.17945098876953 356.8006896972656 74.92813110351563 357.0069274902344 75.65217590332031 357.2063903808594 C 76.18385314941406 357.3528137207031 76.73358917236328 357.5042724609375 77.26776885986328 357.6581420898438 L 79.31641387939453 358.2481994628906 L 79.17985534667969 356.1206665039063 C 79.17132568359375 355.9878540039063 79.16476440429688 355.8529357910156 79.15782165527344 355.7101440429688 C 79.14735412597656 355.4949951171875 79.13652801513672 355.2725219726563 79.11803436279297 355.0431823730469 C 79.01994323730469 353.7884216308594 78.80144500732422 352.436767578125 78.590087890625 351.129638671875 C 78.08670806884766 348.0160827636719 77.56617736816406 344.7965393066406 78.51052856445313 342.3899841308594 C 78.96173858642578 341.242919921875 80.18505859375 340.0552978515625 81.45053100585938 340.0552978515625 C 81.86797332763672 340.0552978515625 82.25703430175781 340.1881103515625 82.63988494873047 340.4613952636719 C 84.09255981445313 341.4967041015625 84.94609069824219 342.2633972167969 85.58203125 343.5823059082031 C 86.03765106201172 344.5285949707031 86.482177734375 345.6658935546875 86.94065093994141 347.058349609375 C 87.64521026611328 349.193603515625 88.07841491699219 351.4457702636719 88.49606323242188 353.7578735351563 C 89.10214996337891 357.1115417480469 89.44126892089844 360.5777282714844 89.76923370361328 363.9298400878906 C 89.93753051757813 365.6501159667969 90.11155700683594 367.4290161132813 90.32032775878906 369.1842956542969 C 90.41667938232422 369.992919921875 90.15353393554688 370.9617004394531 89.57944488525391 371.9125671386719 C 89.02626800537109 372.8287658691406 88.22423553466797 373.6336059570313 87.43399810791016 374.0654296875 C 83.15138244628906 376.4059753417969 78.44493865966797 378.2451782226563 73.89350128173828 380.0238647460938 C 73.27988433837891 380.2636108398438 72.667236328125 380.5030517578125 72.05641174316406 380.7433166503906 L 71.71614837646484 380.8772888183594 C 69.07932281494141 381.9161987304688 66.58873748779297 382.8975219726563 63.84049987792969 382.9748229980469 C 63.70635223388672 382.9786376953125 63.57152938842773 382.9805908203125 63.43926620483398 382.9805908203125 Z"/><path class="b" d="M 249.1750793457031 255.4092712402344 L 249.1751098632813 255.4092712402344 C 248.8207855224609 255.4092712402344 248.4600067138672 255.4143371582031 248.1033172607422 255.4243774414063 C 243.5058898925781 255.5546875 238.8002014160156 255.9028015136719 234.2494506835938 256.2394104003906 C 233.5506591796875 256.2911071777344 232.8521118164063 256.3427734375 232.1539764404297 256.3937072753906 C 221.6684875488281 257.1591796875 210.7646026611328 258.2157592773438 199.7446594238281 259.5340576171875 C 181.0876617431641 261.7623291015625 159.137451171875 264.6669006347656 137.7945404052734 269.3149108886719 C 127.240234375 271.6130981445313 117.8858489990234 274.2179565429688 109.1968536376953 277.2782897949219 C 99.39466857910156 280.7307434082031 90.36819458007813 284.8306274414063 82.36813354492188 289.4641418457031 C 74.19938659667969 294.1951293945313 67.34779357910156 299.5684814453125 62.00369262695313 305.4348449707031 C 55.757568359375 312.2913818359375 51.75802612304688 319.6667785644531 50.1162109375 327.3561096191406 C 49.357177734375 330.9113159179688 49.18698120117188 334.6622619628906 49.6103515625 338.5047912597656 C 50.031494140625 342.3269653320313 51.01730346679688 346.043212890625 52.54034423828125 349.55029296875 C 54.09375 353.1272277832031 56.13334655761719 356.3124694824219 58.60247802734375 359.0175476074219 C 61.17762756347656 361.8387756347656 64.14300537109375 364.044677734375 67.41629028320313 365.5739440917969 L 73.89041137695313 368.5987243652344 L 67.19729614257813 371.1018676757813 C 64.80357360839844 371.9971008300781 62.68104553222656 372.8545532226563 60.94798278808594 374.2844543457031 C 59.87576293945313 375.1697387695313 59.02468872070313 376.1592712402344 58.551513671875 377.0707702636719 C 57.90728759765625 378.3118591308594 58.19163513183594 378.9644470214844 58.29872131347656 379.2102355957031 C 58.62457275390625 379.9580383300781 59.18185424804688 380.486572265625 60.05259704589844 380.8735046386719 C 60.94631958007813 381.2706604003906 62.11741638183594 381.4805908203125 63.43925476074219 381.4805908203125 C 63.55738830566406 381.4805908203125 63.67782592773438 381.4788513183594 63.79829406738281 381.4754028320313 C 66.28366088867188 381.405517578125 68.54641723632813 380.5139465332031 71.16647338867188 379.4816589355469 L 71.50732421875 379.3474426269531 C 72.11920166015625 379.1067504882813 72.73294067382813 378.8669128417969 73.34764099121094 378.626708984375 C 77.85516357421875 376.8652038574219 82.51615905761719 375.0437316894531 86.71469116210938 372.7491760253906 C 87.88650512695313 372.1087951660156 88.95448303222656 370.3994140625 88.83082580566406 369.3614196777344 C 88.62022399902344 367.5906982421875 88.44544982910156 365.8040771484375 88.27638244628906 364.0762634277344 C 87.93638610839844 360.6009826660156 87.615234375 357.3184204101563 87.01994323730469 354.0245056152344 C 86.61219787597656 351.7670288085938 86.19038391113281 349.5715942382813 85.51585388183594 347.5274047851563 C 85.07806396484375 346.1976928710938 84.65750122070313 345.1198120117188 84.23088073730469 344.2337341308594 C 83.730224609375 343.1954040527344 83.06716918945313 342.6078491210938 81.76844787597656 341.6822814941406 C 81.59051513671875 341.5552978515625 81.49241638183594 341.5552978515625 81.45054626464844 341.5552978515625 C 80.99766540527344 341.5552978515625 80.20773315429688 342.1730346679688 79.90689086914063 342.9379272460938 C 79.11244201660156 344.9623413085938 79.59970092773438 347.9759216308594 80.07084655761719 350.8902587890625 C 80.28703308105469 352.2273254394531 80.51057434082031 353.6099548339844 80.61375427246094 354.9299011230469 L 80.61375427246094 354.9299011230469 C 80.63381958007813 355.1802673339844 80.64511108398438 355.4125671386719 80.65603637695313 355.6372375488281 C 80.6627197265625 355.7740783691406 80.66900634765625 355.9033508300781 80.67678833007813 356.0245361328125 L 80.94992065429688 360.2796936035156 L 76.85260009765625 359.0995483398438 C 76.32682800292969 358.9480590820313 75.78135681152344 358.7978210449219 75.25381469726563 358.6524963378906 C 74.52235412597656 358.4509887695313 73.76609802246094 358.24267578125 73.013427734375 358.0183410644531 L 72.88804626464844 357.9817810058594 L 72.66357421875 357.9163208007813 L 72.45195007324219 357.81689453125 L 72.4071044921875 357.7957763671875 C 72.08384704589844 357.6439208984375 71.74957275390625 357.4868774414063 71.40010070800781 357.302490234375 C 70.64468383789063 356.905029296875 69.89309692382813 356.4591064453125 69.16596984863281 355.9768981933594 C 68.84222412109375 355.7644653320313 68.55213928222656 355.5540161132813 68.27154541015625 355.3504638671875 L 68.20562744140625 355.3027038574219 L 68.03532409667969 355.1792602539063 L 67.8839111328125 355.0332641601563 L 67.844482421875 354.9950561523438 C 67.8250732421875 354.9762573242188 67.80673217773438 354.9582214355469 67.77810668945313 354.9319152832031 L 67.76445007324219 354.9193420410156 L 67.75094604492188 354.9066467285156 C 67.60054016113281 354.764892578125 67.44963073730469 354.624267578125 67.29891967773438 354.4837646484375 C 66.70379638671875 353.9290161132813 66.08840942382813 353.3553771972656 65.48497009277344 352.703125 C 65.33282470703125 352.53857421875 65.13241577148438 352.300048828125 64.82044982910156 351.9266967773438 C 64.72369384765625 351.8109130859375 64.58993530273438 351.6508178710938 64.50486755371094 351.5509338378906 L 64.38088989257813 351.4415283203125 L 64.18450927734375 351.1692810058594 L 64.15316772460938 351.1258544921875 C 63.78985595703125 350.6222534179688 63.41416931152344 350.1015014648438 63.05181884765625 349.5318298339844 C 62.52554321289063 348.7042541503906 62.02078247070313 347.8288269042969 61.55316162109375 346.9328918457031 C 61.42132568359375 346.6809692382813 61.30244445800781 346.4387512207031 61.18748474121094 346.2044982910156 C 61.12051391601563 346.0680236816406 61.05363464355469 345.931640625 60.98529052734375 345.79638671875 L 60.97557067871094 345.777099609375 L 60.96609497070313 345.7576904296875 C 60.89950561523438 345.6210021972656 60.84359741210938 345.4965515136719 60.79429626464844 345.38671875 C 60.77351379394531 345.3404235839844 60.75282287597656 345.294189453125 60.73162841796875 345.2484130859375 L 60.63554382324219 345.0404968261719 L 60.57206726074219 344.8204040527344 C 60.40960693359375 344.2567443847656 60.22444152832031 343.6934509277344 60.02841186523438 343.0970458984375 C 59.66688537597656 341.9971008300781 59.29312133789063 340.8597717285156 59.02885437011719 339.613037109375 C 58.95710754394531 339.2784729003906 58.89071655273438 338.8350830078125 58.81141662597656 338.2903747558594 C 58.79238891601563 338.1596984863281 58.76632690429688 337.9806518554688 58.75750732421875 337.92919921875 C 58.85137939453125 338.4772033691406 59.14144897460938 339.0413818359375 59.59126281738281 339.48681640625 L 61.69732666015625 339.041259765625 L 61.69711303710938 337.4706115722656 L 58.70863342285156 337.6824645996094 C 58.6231689453125 336.6817016601563 58.56498718261719 335.8322143554688 58.55892944335938 334.9399108886719 C 58.55389404296875 334.3734436035156 58.58052062988281 333.8445739746094 58.60629272460938 333.3330993652344 C 58.62254333496094 333.0103149414063 58.63790893554688 332.7054748535156 58.64407348632813 332.4088745117188 C 58.64535522460938 332.3509521484375 58.64520263671875 332.3084106445313 58.64520263671875 332.2633361816406 L 58.64520263671875 331.9560546875 L 58.70747375488281 331.6551513671875 C 58.73704528808594 331.5125122070313 58.76522827148438 331.3482666015625 58.79507446289063 331.17431640625 C 58.82754516601563 330.985107421875 58.86434936523438 330.7706298828125 58.90922546386719 330.5486145019531 L 58.90997314453125 330.5447998046875 L 58.91075134277344 330.5409851074219 C 59.34388732910156 328.4256896972656 59.97273254394531 326.3049621582031 60.833251953125 324.0576782226563 L 60.90744018554688 323.8639221191406 L 60.98161315917969 323.7293395996094 C 61.04898071289063 323.5877075195313 61.23216247558594 323.1781311035156 61.34451293945313 322.9269714355469 C 61.58067321777344 322.3989562988281 61.68040466308594 322.1778259277344 61.75503540039063 322.0299072265625 C 62.19183349609375 321.15673828125 62.67166137695313 320.2734985351563 63.18156433105469 319.4039611816406 C 63.74563598632813 318.4425659179688 64.35035705566406 317.4870910644531 64.97891235351563 316.564208984375 L 64.98091125488281 316.5612182617188 L 64.98294067382813 316.5582580566406 C 65.29507446289063 316.1023254394531 65.57456970214844 315.7041625976563 65.83712768554688 315.341552734375 C 65.97669982910156 315.1486206054688 66.16500854492188 314.9022827148438 66.34767150878906 314.6648254394531 L 66.36991882324219 314.6359252929688 L 66.392822265625 314.6075744628906 C 69.05165100097656 311.3197937011719 72.19281005859375 308.1636962890625 75.72975158691406 305.2262878417969 C 75.81916809082031 305.1514282226563 75.9840087890625 305.0203857421875 76.41525268554688 304.6784973144531 C 76.60214233398438 304.5303344726563 76.87313842773438 304.3154907226563 77.06173706054688 304.1646728515625 L 77.10346984863281 304.1107177734375 L 77.42872619628906 303.8669738769531 C 78.352294921875 303.1748962402344 79.13023376464844 302.6100463867188 79.87532043457031 302.0905151367188 C 81.66014099121094 300.8441772460938 83.5545654296875 299.6165466308594 85.50700378417969 298.4411315917969 C 89.43153381347656 296.0805053710938 93.6181640625 293.8765869140625 98.3056640625 291.7036437988281 C 105.8854217529297 288.1885681152344 115.2704772949219 284.8490905761719 125.4462585449219 282.0462646484375 C 145.8184509277344 276.4346008300781 167.0431365966797 273.3348693847656 185.3342590332031 270.8704833984375 C 185.4082336425781 270.8604125976563 185.5501708984375 270.8414611816406 185.6982879638672 270.8217163085938 C 185.8894805908203 270.7962341308594 186.091796875 270.7693481445313 186.1495056152344 270.7611389160156 C 184.6073913574219 270.9805603027344 183.4860687255859 272.3770751953125 183.5967254638672 273.9403991699219 L 186.3969116210938 273.7421875 L 186.2045745849609 270.7533264160156 C 186.5103454589844 270.7137756347656 186.8156433105469 270.673828125 187.1209106445313 270.6338500976563 C 187.4246673583984 270.5940856933594 187.7284851074219 270.5543212890625 188.0301971435547 270.5153198242188 C 189.2753601074219 270.353271484375 190.5854187011719 270.1857604980469 192.1558837890625 269.98779296875 C 195.1260375976563 269.6163330078125 198.0597534179688 269.2633972167969 200.8759765625 268.9388122558594 C 205.8204803466797 268.3696594238281 210.9310607910156 267.8269653320313 216.4990386962891 267.2798156738281 C 222.6104125976563 266.6777954101563 228.8209533691406 266.1411743164063 234.8270111083984 265.6221923828125 C 239.5136413574219 265.2172546386719 244.3597869873047 264.7984924316406 249.120361328125 264.3518981933594 L 249.2489776611328 264.3399658203125 C 250.8849182128906 264.1881103515625 252.2977294921875 264.0569458007813 253.6647338867188 263.6550598144531 C 254.4509124755859 263.4244384765625 255.2532653808594 263.1041870117188 256.1027221679688 262.76513671875 C 256.3365783691406 262.6718139648438 256.5703125 262.5785522460938 256.8046569824219 262.4866943359375 C 257.3131103515625 262.2874145507813 257.8242492675781 262.0947265625 258.3185729980469 261.9083557128906 C 258.955810546875 261.6680908203125 259.5577392578125 261.4411926269531 260.1571350097656 261.2004089355469 C 260.9951782226563 260.8641662597656 261.6434936523438 260.2830505371094 262.5408325195313 259.4787292480469 C 262.6336975097656 259.3954467773438 262.7273254394531 259.3115539550781 262.8218078613281 259.2273254394531 C 262.7712097167969 259.1195373535156 262.6760864257813 258.9805297851563 262.5453796386719 258.8851013183594 C 260.9140319824219 257.6951904296875 258.8500366210938 256.7933044433594 256.4107360839844 256.2044982910156 C 254.224853515625 255.6768493652344 251.7904052734375 255.4093017578125 249.1750793457031 255.4092712402344 M 249.1751098632813 252.4092407226563 C 254.3567962646484 252.4093017578125 260.1195983886719 253.4024963378906 264.3132629394531 256.4613647460938 C 265.8224487304688 257.563232421875 266.5788879394531 259.9058227539063 264.9439697265625 261.3548583984375 C 263.7613830566406 262.40234375 262.7759399414063 263.3821411132813 261.2742614746094 263.9846496582031 C 260.1574096679688 264.4332885742188 259.0198974609375 264.8406982421875 257.8992919921875 265.2798461914063 C 256.7786560058594 265.7190856933594 255.6674499511719 266.1939697265625 254.5092620849609 266.5337524414063 C 252.8236694335938 267.029296875 251.1549682617188 267.1757202148438 249.3980102539063 267.3390502929688 C 238.5334777832031 268.3582763671875 227.6539154052734 269.1954345703125 216.7931671142578 270.265380859375 C 211.597412109375 270.7759399414063 206.4054260253906 271.3221435546875 201.2190399169922 271.9191284179688 C 198.3208618164063 272.253173828125 195.4244995117188 272.6023559570313 192.5281982421875 272.964599609375 C 191.1579132080078 273.1373291015625 189.7876281738281 273.3118896484375 188.4173889160156 273.490234375 C 187.8073120117188 273.569091796875 187.1991577148438 273.6497192382813 186.589111328125 273.7285766601563 C 186.6003723144531 273.7285766601563 185.93212890625 273.8167419433594 185.7388000488281 273.8430786132813 C 165.7742004394531 276.532958984375 145.6913452148438 279.5813598632813 126.2429504394531 284.9385375976563 C 116.9476318359375 287.4988403320313 107.4890747070313 290.7517700195313 99.56779479980469 294.4252319335938 C 95.29182434082031 296.4074096679688 91.09466552734375 298.5810241699219 87.05331420898438 301.0119018554688 C 85.19500732421875 302.1306762695313 83.37234497070313 303.3075561523438 81.59288024902344 304.5501708984375 C 80.79325866699219 305.1077270507813 80.00675964355469 305.6839294433594 79.227783203125 306.2677001953125 C 79.19587707519531 306.3089294433594 77.80870056152344 307.3977661132813 77.65478515625 307.5272216796875 C 74.40370178222656 310.2264404296875 71.38348388671875 313.207275390625 68.72550964355469 316.4940185546875 C 68.59413146972656 316.664794921875 68.39517211914063 316.9238891601563 68.26750183105469 317.1002807617188 C 67.99160766601563 317.4813842773438 67.72315979003906 317.8662109375 67.45848083496094 318.2528686523438 C 66.8653564453125 319.123779296875 66.30220031738281 320.0134887695313 65.76913452148438 320.9220581054688 C 65.2979736328125 321.7254638671875 64.85122680664063 322.5457153320313 64.43450927734375 323.379150390625 C 64.32754516601563 323.58935546875 63.73625183105469 324.946533203125 63.6348876953125 325.1304321289063 C 62.88594055175781 327.0863647460938 62.270263671875 329.0892333984375 61.84979248046875 331.1427612304688 C 61.77468872070313 331.514404296875 61.72213745117188 331.8917236328125 61.64520263671875 332.2633361816406 C 61.64520263671875 332.3290405273438 61.64520263671875 332.3910522460938 61.64332580566406 332.4754638671875 C 61.62641906738281 333.2901000976563 61.55131530761719 334.1010131835938 61.55885314941406 334.9175415039063 C 61.56448364257813 335.7584228515625 61.62641906738281 336.5918579101563 61.69775390625 337.4271850585938 C 61.69467163085938 337.3723449707031 61.69476318359375 337.3477783203125 61.69752502441406 337.3477783203125 C 61.71656799316406 337.3477783203125 61.86239624023438 338.5195007324219 61.96241760253906 338.9851684570313 C 62.32656860351563 340.7064208984375 62.97041320800781 342.3095092773438 63.45469665527344 343.9894409179688 C 63.52413940429688 344.1396179199219 63.58985900878906 344.2935180664063 63.66304016113281 344.4437255859375 C 63.84701538085938 344.8079223632813 64.02157592773438 345.1795654296875 64.21113586425781 345.541748046875 C 64.6353759765625 346.3546142578125 65.09150695800781 347.1486206054688 65.58328247070313 347.9219360351563 C 65.90803527832031 348.4324951171875 66.26278686523438 348.9224243164063 66.61756896972656 349.4142456054688 C 66.71328735351563 349.4987182617188 67.45660400390625 350.4165649414063 67.68751525878906 350.666259765625 C 68.35951232910156 351.3926391601563 69.08966064453125 352.0458679199219 69.80860900878906 352.7235107421875 C 69.87803649902344 352.787353515625 69.91560363769531 352.8248291015625 69.96626281738281 352.8736572265625 C 70.2459716796875 353.076416015625 70.525634765625 353.281005859375 70.814697265625 353.4705810546875 C 71.4566650390625 353.896728515625 72.11550903320313 354.2890014648438 72.79692077636719 354.6475219726563 C 73.10289001464844 354.8089294433594 73.41635131835938 354.955322265625 73.72795104980469 355.1017456054688 L 73.86306762695313 355.1411743164063 C 75.12823486328125 355.5184326171875 76.41217041015625 355.8507080078125 77.68295288085938 356.2167358398438 C 77.66041564941406 355.86572265625 77.65104675292969 355.5128784179688 77.62287902832031 355.1636962890625 C 77.2962646484375 350.9852905273438 75.58059692382813 345.7501220703125 77.11419677734375 341.842041015625 C 77.79647827148438 340.107421875 79.56549072265625 338.5552978515625 81.45053100585938 338.5552978515625 C 82.1376953125 338.5552978515625 82.84031677246094 338.7615966796875 83.51129150390625 339.240478515625 C 85.00729370117188 340.306640625 86.12042236328125 341.2451782226563 86.93316650390625 342.9307861328125 C 87.49256896972656 344.0926513671875 87.96182250976563 345.3634643554688 88.36538696289063 346.5892333984375 C 89.1011962890625 348.8191528320313 89.55548095703125 351.184326171875 89.97216796875 353.4912719726563 C 90.90132141113281 358.632568359375 91.19416809082031 363.8301391601563 91.809814453125 369.0071411132813 C 92.10078430175781 371.44921875 90.21432495117188 374.2554321289063 88.15328979492188 375.3817138671875 C 83.21095275878906 378.0828247070313 77.84060668945313 380.0800170898438 72.60545349121094 382.1392211914063 C 69.72789001464844 383.2710571289063 67.01737976074219 384.3860473632813 63.88265991210938 384.4742431640625 C 63.73568725585938 384.4783935546875 63.58781433105469 384.4805603027344 63.43925476074219 384.4805603027344 C 60.32061767578125 384.4805603027344 56.90835571289063 383.5297241210938 55.54844665527344 380.4085083007813 C 54.12936401367188 377.1517944335938 56.71223449707031 373.8912963867188 59.03791809082031 371.9710693359375 C 61.16279602050781 370.2178955078125 63.62176513671875 369.2361450195313 66.14640808105469 368.2919311523438 C 51.1485595703125 361.2848510742188 43.84487915039063 342.362060546875 47.18231201171875 326.729736328125 C 50.97589111328125 308.963134765625 65.77101135253906 295.6096801757813 80.86460876464844 286.8681030273438 C 98.22941589355469 276.8107299804688 117.6309204101563 270.6351928710938 137.1562652587891 266.3836059570313 C 157.6614837646484 261.9180297851563 178.5646057128906 259.0423583984375 199.3888854980469 256.5552368164063 C 210.2158813476563 255.260009765625 221.0597839355469 254.1956481933594 231.935546875 253.4016723632813 C 237.287109375 253.0112915039063 242.6536560058594 252.57763671875 248.0183563232422 252.4255981445313 C 248.4002075195313 252.4148559570313 248.7857818603516 252.4092407226563 249.1751098632813 252.4092407226563 Z"/></g></svg>