<svg xmlns="http://www.w3.org/2000/svg" width="227.028" height="125.297" viewBox="0 0 227.028 125.297"><defs><style>.a,.b{stroke:none;}.b{fill:#f8f8f8;}</style></defs><g transform="matrix(0.999, 0.035, -0.035, 0.999, -322.923, -206.108)"><path class="a" d="M 349.3771057128906 310.6533508300781 C 346.3209838867188 310.6533508300781 342.7739562988281 310.5327758789063 339.6383666992188 309.6383056640625 C 337.9895935058594 309.1695556640625 336.1169128417969 307.7037963867188 335.7254028320313 305.8086853027344 C 335.457275390625 304.5055541992188 335.4508056640625 303.6416320800781 335.7024841308594 302.7284545898438 C 336.2298583984375 300.8244323730469 337.8419799804688 299.1830139160156 339.5352783203125 298.8273315429688 C 341.6430969238281 298.3856811523438 344.040283203125 298.179931640625 347.0786437988281 298.179931640625 C 348.7073364257813 298.179931640625 350.3793640136719 298.23681640625 351.9963073730469 298.2918395996094 C 353.6065063476563 298.3466796875 355.271484375 298.4033203125 356.8871765136719 298.4033203125 C 357.06201171875 298.4033203125 357.2366333007813 298.4026794433594 357.4107360839844 298.4012756347656 C 363.591796875 298.351318359375 369.0768127441406 298.2250366210938 374.1795654296875 298.0152587890625 C 385.2910461425781 297.5584716796875 396.5459594726563 296.6598510742188 407.6316528320313 295.3443908691406 C 412.5861206054688 294.7577514648438 416.17333984375 294.2646179199219 421.339599609375 293.4598693847656 C 426.2631225585938 292.6930541992188 431.2403564453125 291.8298950195313 436.1330261230469 290.8945007324219 C 445.7934265136719 289.0499572753906 455.5007934570313 286.8528442382813 464.985107421875 284.3642272949219 C 474.6466369628906 281.8285827636719 484.3236694335938 278.9286499023438 493.7475280761719 275.7449340820313 C 498.4759216308594 274.1464538574219 502.7498474121094 272.6188049316406 506.8138427734375 271.0746765136719 C 507.8476867675781 270.6822814941406 508.959228515625 270.2572937011719 510.0795288085938 269.8095703125 C 510.3299255371094 269.7087707519531 510.5755615234375 269.6087951660156 510.8209838867188 269.5089111328125 C 511.0015869140625 269.4353942871094 511.1820983886719 269.3619079589844 511.3629455566406 269.2887573242188 C 511.4486389160156 269.2562255859375 511.5503234863281 269.2129821777344 511.6718139648438 269.1609191894531 C 513.53125 268.3637084960938 515.1647338867188 267.6239624023438 516.6658935546875 266.8993530273438 C 520.5970458984375 265.0057067871094 524.0187377929688 263.0867919921875 527.1254272460938 261.0335388183594 C 528.098876953125 260.3890686035156 529.0504150390625 259.7096557617188 529.9706420898438 259.0526123046875 L 529.9778442382813 259.0474853515625 L 529.9849243164063 259.0422668457031 C 530.097412109375 258.9599304199219 530.3345336914063 258.7776489257813 530.404541015625 258.7237548828125 L 530.4139404296875 258.7165222167969 L 530.4232177734375 258.7091674804688 C 530.7207641601563 258.4725036621094 530.9618530273438 258.2778625488281 531.18212890625 258.0966186523438 C 532.5521850585938 256.9632568359375 533.9658813476563 255.7938842773438 535.32861328125 254.5456085205078 C 536.3051147460938 253.6514434814453 537.0853271484375 252.8639984130859 537.7833862304688 252.0681304931641 C 537.91259765625 251.9221954345703 538.1468505859375 251.6335296630859 538.4891357421875 251.210205078125 C 538.6435546875 251.0191650390625 538.8526611328125 250.7605438232422 538.9158935546875 250.6865844726563 L 538.967041015625 250.6326141357422 L 539.0239868164063 250.5546112060547 C 540.118896484375 249.0544738769531 541.0418701171875 247.6170501708984 541.8456420898438 246.1602325439453 C 542.8341064453125 244.3705596923828 543.6716918945313 242.6472015380859 544.3347778320313 241.0386505126953 L 541.6795043945313 239.6664123535156 C 541.9464721679688 239.2433471679688 542.427734375 238.9805603027344 542.935546875 238.9805603027344 L 544.1060180664063 239.5436706542969 C 544.5379638671875 240.0845489501953 544.4219360351563 240.6665496826172 544.4072875976563 240.7311401367188 C 544.4398803710938 240.587646484375 544.62109375 239.9994659423828 544.7081909179688 239.716796875 C 544.8009643554688 239.4156951904297 544.8466186523438 239.2668762207031 544.8704223632813 239.17578125 C 545.0903930664063 238.3486633300781 545.2838134765625 237.4908447265625 545.4453125 236.6259002685547 C 545.4558715820313 236.5722045898438 545.4660034179688 236.5056915283203 545.511474609375 236.2027282714844 C 545.53564453125 236.0417938232422 545.5796508789063 235.7488098144531 545.6072387695313 235.5763244628906 L 545.6304931640625 235.5226135253906 L 545.6543579101563 235.2936706542969 C 545.6619873046875 235.2209014892578 545.6697998046875 235.1479949951172 545.677734375 235.0750579833984 C 545.6995239257813 234.8729400634766 545.7220458984375 234.6639099121094 545.7399291992188 234.4500579833984 C 545.8189086914063 233.4936676025391 545.84912109375 232.5504150390625 545.8666381835938 231.8353271484375 C 545.912841796875 229.9521484375 545.8617553710938 228.2449340820313 545.71044921875 226.6162261962891 C 545.6946411132813 226.4447326660156 545.681884765625 226.3038177490234 545.6712646484375 226.1863708496094 C 545.614501953125 225.559326171875 545.6079711914063 225.5009307861328 545.51513671875 225.0455780029297 C 545.4827880859375 224.8869018554688 545.4384765625 224.6696166992188 545.3712768554688 224.3172302246094 C 545.2138671875 223.4853820800781 545.021484375 222.6200866699219 544.7997436523438 221.7473754882813 C 544.4043579101563 220.2031707763672 543.9013671875 218.3990020751953 543.1630859375 216.7046966552734 C 540.286376953125 210.0885009765625 534.3968505859375 204.580322265625 529.9628295898438 201.124755859375 C 528.9058837890625 200.3007965087891 529.0552978515625 198.2983551025391 529.8837890625 197.1898803710938 C 530.447265625 196.4358825683594 531.1796875 196.0693511962891 532.122802734375 196.0693511962891 C 532.7036743164063 196.0693511962891 533.3562622070313 196.2156677246094 534.0101928710938 196.4924926757813 C 542.8678588867188 200.2416076660156 548.292724609375 208.66552734375 551.283935546875 215.0721435546875 C 553.2725830078125 219.3302001953125 554.58740234375 223.7286071777344 555.1917724609375 228.1453552246094 C 555.8109741210938 232.6700897216797 555.6875 237.2428131103516 554.8247680664063 241.7365264892578 C 553.3165893554688 249.5973815917969 549.38720703125 256.8608093261719 543.1458129882813 263.3252258300781 C 537.785400390625 268.8771057128906 530.8408203125 273.7507019042969 522.5049438476563 277.8106384277344 C 513.78173828125 282.05859375 504.6510925292969 285.2868347167969 496.0835571289063 288.1426696777344 C 486.14501953125 291.4567565917969 475.9521484375 294.4448852539063 465.7878723144531 297.0241394042969 C 445.7735595703125 302.1030578613281 424.7692260742188 305.8455810546875 403.3583374023438 308.1477966308594 C 392.9198303222656 309.26904296875 382.3245239257813 310.0186462402344 371.8668823242188 310.3756713867188 C 367.2663879394531 310.53271484375 362.986328125 310.6091003417969 358.7835388183594 310.6091003417969 C 358.7825317382813 310.6091003417969 358.7821350097656 310.6091003417969 358.7811279296875 310.6091003417969 C 357.880859375 310.6091003417969 356.9753112792969 310.60546875 356.0896911621094 310.5982360839844 C 355.8576049804688 310.5963745117188 355.6247253417969 310.5955505371094 355.3904418945313 310.5955505371094 C 354.4191284179688 310.5955505371094 353.4101257324219 310.6100463867188 352.4343566894531 310.6240844726563 C 351.4335632324219 310.6384582519531 350.3987121582031 310.6533508300781 349.3771057128906 310.6533508300781 Z"/><path class="b" d="M 532.1226806640625 197.5693664550781 C 531.6549682617188 197.5693664550781 531.3641357421875 197.7147521972656 531.085205078125 198.0878295898438 C 530.8970947265625 198.339599609375 530.7103881835938 198.8250732421875 530.7174072265625 199.3421630859375 C 530.7212524414063 199.6256103515625 530.7886962890625 199.8666687011719 530.8848876953125 199.9416198730469 C 535.4563598632813 203.5042724609375 541.5361328125 209.2008666992188 544.5382080078125 216.1054992675781 C 545.3187866210938 217.89697265625 545.8426513671875 219.7733154296875 546.252197265625 221.3724670410156 L 546.2529296875 221.3752746582031 L 546.2536010742188 221.3780822753906 C 546.4827880859375 222.2803344726563 546.6819458007813 223.1760559082031 546.8447265625 224.0362854003906 C 546.9100952148438 224.3791809082031 546.953369140625 224.5910949707031 546.98486328125 224.7458190917969 C 547.093505859375 225.2784423828125 547.1063232421875 225.4013671875 547.1651000976563 226.0509643554688 C 547.1756591796875 226.1676025390625 547.1883544921875 226.3076171875 547.2041015625 226.4774780273438 C 547.36083984375 228.1651916503906 547.413818359375 229.9298400878906 547.3662109375 231.8721618652344 C 547.34814453125 232.6076965332031 547.3169555664063 233.5793762207031 547.2347412109375 234.5746154785156 C 547.2153930664063 234.8063354492188 547.19189453125 235.0242309570313 547.169189453125 235.2349548339844 C 547.1614379882813 235.3064270019531 547.1536865234375 235.3778686523438 547.1463012695313 235.4491577148438 L 547.0985107421875 235.9073486328125 L 547.0596923828125 235.9968872070313 C 547.036865234375 236.1457824707031 547.0110473632813 236.3177795410156 546.994873046875 236.42529296875 C 546.9483642578125 236.735107421875 546.9351806640625 236.8228454589844 546.91845703125 236.90869140625 C 546.750244140625 237.8082580566406 546.5488891601563 238.7008056640625 546.31982421875 239.5620422363281 C 546.2882080078125 239.6821899414063 546.2442626953125 239.82568359375 546.1417236328125 240.158447265625 C 546.0640869140625 240.4103698730469 545.902587890625 240.9345397949219 545.86572265625 241.081787109375 C 545.9714965820313 240.6589965820313 545.97412109375 240.0382385253906 545.7373046875 239.4133605957031 L 544.666015625 239.1282348632813 L 543.173828125 240.2943725585938 L 545.7215576171875 241.6103210449219 C 545.0367431640625 243.2715148925781 544.17431640625 245.0465698242188 543.158935546875 246.8848571777344 C 542.3242797851563 248.3976745605469 541.3680419921875 249.8872985839844 540.235595703125 251.4389038085938 L 540.121826171875 251.5948638916016 L 540.0358276367188 251.6854858398438 C 539.96044921875 251.7762298583984 539.786376953125 251.9914398193359 539.6553955078125 252.1534576416016 C 539.295654296875 252.5983734130859 539.064208984375 252.883544921875 538.9136962890625 253.0542907714844 C 538.1778564453125 253.8933715820313 537.3604125976563 254.7189483642578 536.341796875 255.6517181396484 C 534.951416015625 256.92529296875 533.5228271484375 258.1070556640625 532.1412353515625 259.2499389648438 L 532.1380615234375 259.2525634765625 L 532.1348876953125 259.2552185058594 C 531.9063720703125 259.4431762695313 531.6591796875 259.6427001953125 531.35693359375 259.8830871582031 L 531.3385009765625 259.8977355957031 L 531.31982421875 259.912109375 C 531.2259521484375 259.9844665527344 530.9940795898438 260.1625366210938 530.8706665039063 260.2528076171875 L 530.8565063476563 260.2631530761719 L 530.84228515625 260.2733764648438 C 529.9114379882813 260.9379577636719 528.948974609375 261.6251831054688 527.9525146484375 262.284912109375 C 524.7889404296875 264.3757934570313 521.3096313476563 266.327392578125 517.3179321289063 268.2502136230469 C 515.7952880859375 268.9851684570313 514.1417846679688 269.7340087890625 512.2637939453125 270.5391540527344 C 512.1373291015625 270.5933837890625 512.0218505859375 270.6424865722656 511.9125671386719 270.6845092773438 C 511.7382202148438 270.7550659179688 511.5641479492188 270.825927734375 511.3899536132813 270.8967895507813 C 511.1416015625 270.9978942871094 510.8930358886719 271.0990295410156 510.6432800292969 271.1995849609375 L 510.6397705078125 271.2010192871094 L 510.63623046875 271.2024230957031 C 509.5039367675781 271.6549682617188 508.3855590820313 272.0825805664063 507.3466796875 272.4768371582031 C 503.2646179199219 274.0278625488281 498.9735107421875 275.5616760253906 494.2276000976563 277.166015625 C 484.7713012695313 280.3606872558594 475.0608520507813 283.2706298828125 465.3657836914063 285.8151550292969 C 455.8487243652344 288.3123168945313 446.1079406738281 290.5169982910156 436.4147033691406 292.3677978515625 C 431.5046997070313 293.3065185546875 426.5103454589844 294.172607421875 421.5704650878906 294.9419860839844 C 416.384521484375 295.7498168945313 412.7830200195313 296.2449035644531 407.808349609375 296.8339233398438 C 396.6846008300781 298.1539306640625 385.3909606933594 299.0556030273438 374.2411499023438 299.5139770507813 C 369.121337890625 299.7244567871094 363.6201171875 299.8511352539063 357.422607421875 299.9012451171875 C 357.2445678710938 299.9026489257813 357.0657348632813 299.9033203125 356.886962890625 299.9033203125 C 355.2457885742188 299.9033203125 353.5679321289063 299.84619140625 351.9452514648438 299.7909851074219 C 350.3408813476563 299.7363891601563 348.6818237304688 299.679931640625 347.0785522460938 299.679931640625 C 344.146240234375 299.679931640625 341.8468017578125 299.8755493164063 339.8436889648438 300.2952270507813 C 338.7059936523438 300.5342407226563 337.5217895507813 301.7796630859375 337.1485595703125 303.1271362304688 C 336.9634399414063 303.7985534667969 336.9760131835938 304.4437255859375 337.1943969726563 305.5052795410156 C 337.4255981445313 306.62451171875 338.6787719726563 307.8060302734375 340.0498046875 308.1958312988281 C 343.0077514648438 309.0395812988281 346.4247436523438 309.1533203125 349.3772583007813 309.1533203125 C 350.3880004882813 309.1533203125 351.4172973632813 309.1385498046875 352.4127807617188 309.1242370605469 C 353.3937377929688 309.1101684570313 354.4081420898438 309.0955505371094 355.3902587890625 309.0955505371094 C 355.6285400390625 309.0955505371094 355.8656005859375 309.0964050292969 356.1019287109375 309.0982666015625 C 356.9830932617188 309.1054992675781 357.8844604492188 309.109130859375 358.7811279296875 309.109130859375 C 362.9672241210938 309.109130859375 367.2308959960938 309.0330505371094 371.815673828125 308.8765258789063 C 382.237060546875 308.520751953125 392.7957153320313 307.7737731933594 403.1979675292969 306.6563720703125 C 424.5386352539063 304.3616943359375 445.4728088378906 300.6318054199219 465.4189453125 295.5701904296875 C 475.5482177734375 292.9998168945313 485.70556640625 290.0220947265625 495.6091918945313 286.7196655273438 C 504.1282958984375 283.8799438476563 513.203369140625 280.671875 521.84814453125 276.4620971679688 C 530.02587890625 272.4791259765625 536.8284301757813 267.708740234375 542.066650390625 262.2833251953125 C 548.1024780273438 256.0319213867188 551.8992919921875 249.0239562988281 553.3516845703125 241.4537048339844 C 554.18359375 237.12060546875 554.3026733398438 232.7114562988281 553.7056274414063 228.3487243652344 C 553.1217041015625 224.0814819335938 551.8496704101563 219.8282165527344 549.9248046875 215.7067260742188 C 547.0447998046875 209.5382690429688 541.8445434570313 201.4372863769531 533.4254150390625 197.8738098144531 C 532.9549560546875 197.6746520996094 532.5045166015625 197.5693664550781 532.122802734375 197.5693664550781 L 532.1226806640625 197.5693664550781 M 532.122802734375 194.5693664550781 C 532.938720703125 194.5693664550781 533.7830810546875 194.7674865722656 534.594970703125 195.1111755371094 C 542.985595703125 198.66259765625 548.8702392578125 206.3567504882813 552.64306640625 214.4375610351563 C 556.7108154296875 223.147216796875 558.11669921875 232.5457153320313 556.2978515625 242.0193481445313 C 552.9302978515625 259.5718994140625 538.5162353515625 271.680908203125 523.1617431640625 279.1592102050781 C 514.589111328125 283.3338317871094 505.5904235839844 286.5548706054688 496.5578918457031 289.5657043457031 C 486.5381164550781 292.9069213867188 476.3943176269531 295.8802185058594 466.1568298339844 298.4780578613281 C 445.5783996582031 303.7000732421875 424.6245422363281 307.3697509765625 403.5187072753906 309.63916015625 C 393.0164489746094 310.7673034667969 382.4748229980469 311.5143737792969 371.9180908203125 311.874755859375 C 367.5402221679688 312.0242309570313 363.1615600585938 312.109130859375 358.7811279296875 312.109130859375 C 357.880126953125 312.109130859375 356.9784545898438 312.1055297851563 356.077392578125 312.0981750488281 C 355.849609375 312.0963745117188 355.6205444335938 312.0955505371094 355.3901977539063 312.0955505371094 C 353.44580078125 312.0955505371094 351.4174194335938 312.1533203125 349.3772583007813 312.1533203125 C 345.9048461914063 312.1533203125 342.3997192382813 311.9858093261719 339.2269287109375 311.0807800292969 C 336.9556884765625 310.4350280761719 334.751953125 308.5110473632813 334.2564697265625 306.1121215820313 C 333.988037109375 304.8075866699219 333.8978271484375 303.6307067871094 334.2564697265625 302.329833984375 C 334.8870849609375 300.0529174804688 336.8411865234375 297.8605346679688 339.2269287109375 297.3593139648438 C 341.768310546875 296.8268737792969 344.4122924804688 296.679931640625 347.0785522460938 296.679931640625 C 350.3654174804688 296.679931640625 353.6856079101563 296.9033203125 356.886962890625 296.9033203125 C 357.0578002929688 296.9033203125 357.228759765625 296.9026794433594 357.39892578125 296.9013366699219 C 362.973876953125 296.8562622070313 368.546875 296.7455444335938 374.117919921875 296.5164794921875 C 385.2584533691406 296.0585327148438 396.3820495605469 295.1687622070313 407.4548645019531 293.8548583984375 C 412.4010314941406 293.2691650390625 415.9148864746094 292.7867736816406 421.1087341308594 291.9777221679688 C 426.0379943847656 291.2100219726563 430.9521789550781 290.3578491210938 435.8513488769531 289.4211730957031 C 445.5051574707031 287.577880859375 455.0970764160156 285.4079895019531 464.6044006347656 282.9133605957031 C 474.2525939941406 280.3811645507813 483.8163146972656 277.5167236328125 493.2674255371094 274.3238525390625 C 497.6316833496094 272.8485107421875 501.9732971191406 271.3092651367188 506.2810974121094 269.6724548339844 C 507.3642883300781 269.2613525390625 508.4473571777344 268.8465270996094 509.5228576660156 268.4166870117188 C 509.9565124511719 268.2420654296875 510.3863830566406 268.065673828125 510.8180847167969 267.8910827636719 C 510.8744201660156 267.8704223632813 510.9757385253906 267.8273010253906 511.080810546875 267.7822265625 C 512.740234375 267.07080078125 514.3883056640625 266.3331298828125 516.0137939453125 265.5484924316406 C 519.555908203125 263.8422241210938 523.0152587890625 261.9520263671875 526.29833984375 259.7821655273438 C 527.2481689453125 259.1533203125 528.173583984375 258.4925842285156 529.0989990234375 257.8318481445313 C 529.1759033203125 257.7755737304688 529.3504638671875 257.6422729492188 529.4893798828125 257.5352783203125 C 529.7371826171875 257.3381958007813 529.98486328125 257.1392211914063 530.22900390625 256.9383544921875 C 531.608642578125 255.7970886230469 532.9957275390625 254.6483001708984 534.3154296875 253.4394989013672 C 535.137451171875 252.686767578125 535.9259033203125 251.9115295410156 536.6597900390625 251.0743713378906 C 536.87939453125 250.8265533447266 537.7091064453125 249.7791748046875 537.8123779296875 249.6703186035156 C 538.801513671875 248.3150634765625 539.7213134765625 246.9053955078125 540.5322265625 245.4356079101563 C 541.4124755859375 243.8419799804688 542.2515869140625 242.1563720703125 542.947998046875 240.4669799804688 C 542.942138671875 240.4761962890625 542.9381103515625 240.4805603027344 542.935546875 240.4805603027344 C 542.888671875 240.4805603027344 543.36572265625 239.0011291503906 543.419189453125 238.7964172363281 C 543.635009765625 237.9855041503906 543.8189697265625 237.1651916503906 543.972900390625 236.3393249511719 C 543.986083984375 236.2754821777344 544.143798828125 235.18115234375 544.1624755859375 235.1380004882813 C 544.190673828125 234.86767578125 544.2225341796875 234.5955200195313 544.2451171875 234.3251342773438 C 544.3145751953125 233.4842529296875 544.346435546875 232.6414794921875 544.3670654296875 231.7986450195313 C 544.408447265625 230.113037109375 544.372802734375 228.4330749511719 544.2169189453125 226.7549743652344 C 544.08740234375 225.3546447753906 544.166259765625 226.0059814453125 543.8978271484375 224.5981750488281 C 543.7401123046875 223.7647705078125 543.5543212890625 222.9369812011719 543.345947265625 222.1166687011719 C 542.93115234375 220.4967651367188 542.4561767578125 218.8374328613281 541.7879638671875 217.3038635253906 C 539.34033203125 211.6744995117188 534.3565673828125 206.4506225585938 529.040771484375 202.3078918457031 C 527.2181396484375 200.8869323730469 527.4547119140625 197.9342956542969 528.6822509765625 196.2918701171875 C 529.593505859375 195.0726318359375 530.8221435546875 194.5693359375 532.122802734375 194.5693664550781 Z"/></g></svg>