<svg xmlns="http://www.w3.org/2000/svg" width="130.081" height="105.604" viewBox="0 0 130.081 105.604"><defs><style>.a,.b{stroke:none;}.b{fill:#fafafa;}</style></defs><g transform="matrix(0.883, 0.469, -0.469, 0.883, -143.127, -160.339)"><path class="a" d="M 308.989501953125 117.7315902709961 C 308.9893798828125 117.7315902709961 308.9893493652344 117.7315902709961 308.9891967773438 117.7315902709961 C 306.7882995605469 117.731575012207 305.1695556640625 117.1795883178711 303.7405395507813 115.9418563842773 C 302.8939819335938 115.2090530395508 302.5045471191406 114.2397537231445 302.5827026367188 113.0605545043945 C 302.6558532714844 111.9570465087891 303.1404113769531 110.7509155273438 303.9137573242188 109.7445755004883 C 304.1430358886719 109.5078430175781 305.0257873535156 108.7260055541992 305.3266906738281 108.52685546875 L 305.614013671875 108.4067916870117 L 305.8533020019531 108.1080093383789 C 306.7269897460938 107.01708984375 308.0171203613281 106.1149215698242 309.3738403320313 105.2105026245117 C 311.0158386230469 104.114501953125 312.762939453125 103.0695190429688 314.4524841308594 102.0589370727539 C 315.1256713867188 101.6562881469727 315.82177734375 101.2399215698242 316.5033569335938 100.8250885009766 C 316.5941467285156 100.7699737548828 316.686767578125 100.7151565551758 316.7792358398438 100.6603927612305 C 316.8993530273438 100.5892562866211 317.0192260742188 100.5181884765625 317.1379089355469 100.4454574584961 L 318.9632873535156 99.32691955566406 L 317.2886962890625 97.99315643310547 C 317.193359375 97.91720581054688 317.09765625 97.84198760986328 317.0020141601563 97.76686859130859 C 316.9077453613281 97.69280242919922 316.8135681152344 97.61883544921875 316.7200622558594 97.54425811767578 L 316.7022705078125 97.5264892578125 L 316.6139831542969 97.46003723144531 C 315.0928039550781 96.3231201171875 313.56103515625 95.26120758056641 312.0612487792969 94.30378723144531 C 309.099609375 92.41412353515625 305.8213195800781 90.65102386474609 302.0387878417969 88.91353607177734 L 301.8534545898438 88.82920837402344 C 301.7752075195313 88.79364013671875 301.7115478515625 88.76470184326172 301.6585693359375 88.74040222167969 L 301.6311645507813 88.72783660888672 L 301.6033020019531 88.71639251708984 C 301.2875671386719 88.58673858642578 300.9634399414063 88.45362091064453 300.6385192871094 88.32477569580078 C 300.0178833007813 88.07910919189453 299.3646545410156 87.83106994628906 298.6961364746094 87.58727264404297 C 297.1931762695313 87.03763580322266 295.646240234375 86.52413940429688 294.0995483398438 86.06148529052734 C 290.9153747558594 85.11077117919922 287.6269836425781 84.34464263916016 284.3250732421875 83.78411865234375 C 283.8196716308594 83.6976318359375 283.27880859375 83.61117553710938 282.6257019042969 83.51252746582031 C 282.5382080078125 83.49867248535156 282.3539428710938 83.47427368164063 282.2522888183594 83.46138763427734 L 282.2357177734375 83.45928955078125 L 282.2190856933594 83.45755767822266 C 282.068603515625 83.44188690185547 281.7838134765625 83.41027069091797 281.48583984375 83.37722015380859 C 281.0464172363281 83.32848358154297 280.6311950683594 83.28243255615234 280.4652404785156 83.26679229736328 C 278.8872375488281 83.10946655273438 277.2589111328125 82.99641418457031 275.62548828125 82.93075561523438 C 274.490966796875 82.88477325439453 273.3407897949219 82.86145782470703 272.2073669433594 82.86145782470703 C 270.0009155273438 82.86145782470703 267.7719421386719 82.94972229003906 265.5823364257813 83.12382507324219 C 264.6502685546875 83.19927215576172 263.723388671875 83.28857421875 262.8252563476563 83.389404296875 L 262.8209838867188 83.389892578125 L 262.8167419433594 83.39038848876953 L 262.8114929199219 83.39100646972656 C 262.5399475097656 83.42305755615234 262.2684936523438 83.45512390136719 261.9950866699219 83.48905181884766 L 261.972900390625 83.49180603027344 L 261.9508056640625 83.49522399902344 L 261.695556640625 83.53465270996094 L 261.6919555664063 83.53520202636719 L 261.6883544921875 83.53578948974609 C 259.8475036621094 83.82933807373047 258.3368530273438 84.10523986816406 256.934326171875 84.40407562255859 C 253.7859802246094 85.07572174072266 250.6495056152344 85.94866943359375 247.6116790771484 86.99877166748047 C 246.1460876464844 87.50515747070313 244.6805572509766 88.05454254150391 243.2632751464844 88.58583831787109 C 241.6862335205078 89.17704010009766 240.0554656982422 89.78837585449219 238.4430541992188 90.33268737792969 C 237.9020538330078 90.51564025878906 237.361328125 90.71009063720703 236.8384094238281 90.89812469482422 C 234.7026672363281 91.6661376953125 232.6853485107422 92.39157104492188 230.637939453125 92.39157104492188 C 230.0529937744141 92.39157104492188 229.5003967285156 92.33341979980469 228.9485626220703 92.21382141113281 C 227.2473754882813 91.84358978271484 226.8220520019531 89.87857055664063 227.0637817382813 88.60158538818359 C 227.7281341552734 85.08713531494141 231.6873474121094 82.43093872070313 234.8686218261719 80.29665374755859 C 235.1300354003906 80.12126922607422 235.3860473632813 79.94950866699219 235.6346282958984 79.78108978271484 C 238.9657745361328 77.52670288085938 243.1855773925781 76.10042572021484 247.2221984863281 74.83280181884766 C 255.2346496582031 72.31782531738281 263.74658203125 71.04258728027344 272.5214233398438 71.04258728027344 C 278.3626098632813 71.04258728027344 284.2793579101563 71.61435699462891 290.1073303222656 72.74204254150391 C 296.8605041503906 74.04905700683594 303.7327575683594 76.35712432861328 310.5330810546875 79.60208892822266 C 313.5042724609375 81.02024078369141 316.4146728515625 82.67365264892578 319.1833801269531 84.516357421875 C 319.5431213378906 84.75556945800781 319.9046020507813 84.99134063720703 320.2872924804688 85.24093627929688 C 321.4819030761719 86.02008819580078 322.7171936035156 86.82575225830078 323.8539123535156 87.71263885498047 L 327.3244934082031 90.42042541503906 L 326.2294616699219 86.15685272216797 C 326.1164855957031 85.71705627441406 326.0033874511719 85.2674560546875 325.89404296875 84.83265686035156 C 325.6800537109375 83.98202514648438 325.4587707519531 83.10243988037109 325.2237548828125 82.23651885986328 C 324.8158264160156 80.73472595214844 324.3337707519531 79.20600891113281 323.8675842285156 77.72760772705078 C 322.6598205566406 73.89750671386719 321.4109497070313 69.93701934814453 321.3283386230469 66.07344055175781 C 321.3077697753906 65.12938690185547 321.723388671875 64.50218963623047 322.0756530761719 64.14215850830078 C 322.655517578125 63.54952239990234 323.52294921875 63.19570541381836 324.3960571289063 63.19570541381836 C 324.949951171875 63.19570541381836 325.7559204101563 63.33658981323242 326.4500122070313 64.00780487060547 C 329.9724731445313 67.41773986816406 332.0148315429688 72.40676879882813 333.9899291992188 77.23155212402344 C 334.2718505859375 77.92027282714844 334.5633850097656 78.63243865966797 334.8510131835938 79.31830596923828 C 336.9837646484375 84.40855407714844 338.8374938964844 89.67280578613281 340.5179138183594 95.41150665283203 C 341.3345336914063 98.20149230957031 339.7059020996094 100.7761688232422 337.7295532226563 102.090087890625 C 332.5466918945313 105.5382080078125 326.9685974121094 109.0680541992188 321.14990234375 112.5818405151367 C 320.44287109375 113.0084228515625 319.733154296875 113.4736709594727 318.9817810058594 113.9662246704102 C 316.5532836914063 115.5582046508789 314.0421142578125 117.2043914794922 311.6325988769531 117.5280380249023 C 310.5965881347656 117.666877746582 309.7565002441406 117.7315902709961 308.989501953125 117.7315902709961 Z"/><path class="b" d="M 308.9895324707031 116.2315902709961 C 309.6882934570313 116.2315902709961 310.4649963378906 116.1711196899414 311.432861328125 116.0414123535156 C 313.5046997070313 115.7630996704102 315.9776306152344 114.1420135498047 318.159423828125 112.7117385864258 C 318.8892822265625 112.2332992553711 319.6439514160156 111.7385940551758 320.3744812011719 111.2978134155273 C 326.1745910644531 107.7952651977539 331.7339782714844 104.2772445678711 336.8990783691406 100.8409423828125 C 338.4178771972656 99.83121490478516 339.6807250976563 97.89102935791016 339.0783386230469 95.83303070068359 C 337.4138793945313 90.14874267578125 335.5785217285156 84.93619537353516 333.4676818847656 79.89835357666016 C 333.1776428222656 79.20662689208984 332.8848571777344 78.49146270751953 332.6017761230469 77.79986572265625 C 330.6851806640625 73.11808776855469 328.703369140625 68.27688598632813 325.4072875976563 65.08608245849609 C 325.139404296875 64.82704925537109 324.7991943359375 64.69570159912109 324.3960266113281 64.69570159912109 C 323.9251403808594 64.69570159912109 323.4468688964844 64.88557434082031 323.1477966308594 65.19120788574219 C 322.9219970703125 65.42197418212891 322.8203735351563 65.69174194335938 322.8279724121094 66.04135894775391 C 322.9060363769531 69.69048309326172 324.0679931640625 73.37530517578125 325.2981262207031 77.27650451660156 C 325.7687683105469 78.76905059814453 326.2554321289063 80.31239318847656 326.67138671875 81.84361267089844 C 326.9100036621094 82.72279357910156 327.1329345703125 83.60906982421875 327.3485717773438 84.46614074707031 C 327.4575500488281 84.89936065673828 327.5702209472656 85.34730529785156 327.6823120117188 85.78368377685547 L 329.8724670410156 94.31090545654297 L 322.9312133789063 88.895263671875 C 321.8445739746094 88.04744720458984 320.6363220214844 87.25941467285156 319.4678649902344 86.49732208251953 C 319.0992431640625 86.25691986083984 318.7181091308594 86.00832366943359 318.352294921875 85.76508331298828 C 315.6426391601563 83.96164703369141 312.79443359375 82.34355926513672 309.8870849609375 80.95586395263672 C 303.201416015625 77.76560974121094 296.4506225585938 75.49755859375 289.8223571777344 74.2147216796875 C 284.0880432128906 73.10517883300781 278.2671508789063 72.54257202148438 272.5213928222656 72.54257202148438 C 263.8991394042969 72.54257202148438 255.538330078125 73.79464721679688 247.6716003417969 76.26388549804688 C 243.7409973144531 77.49822998046875 239.6387329101563 78.88249969482422 236.4759674072266 81.02291870117188 C 236.2255554199219 81.19257354736328 235.9676971435547 81.36559295654297 235.7043609619141 81.54226684570313 C 232.7554168701172 83.52066802978516 229.0853576660156 85.98286437988281 228.53759765625 88.88057708740234 C 228.4480133056641 89.35379028320313 228.5137786865234 89.88666534423828 228.709228515625 90.27123260498047 C 228.9123229980469 90.67081451416016 229.153076171875 90.72321319580078 229.2663421630859 90.74786376953125 C 229.7124786376953 90.84457397460938 230.1611328125 90.89157867431641 230.637939453125 90.89157867431641 C 232.4238586425781 90.89157867431641 234.3216400146484 90.20912170410156 236.3308563232422 89.48661041259766 C 236.8603973388672 89.29619598388672 237.407958984375 89.09928131103516 237.9632873535156 88.91148376464844 C 239.5521697998047 88.37509918212891 241.1710968017578 87.76821136474609 242.7367095947266 87.18130493164063 C 244.1629791259766 86.64664459228516 245.6378021240234 86.09377288818359 247.1216125488281 85.58108520507813 C 250.2171325683594 84.51104736328125 253.4131774902344 83.62150573730469 256.6217346191406 82.93699645996094 C 258.0503540039063 82.63261413574219 259.5852355957031 82.35219573974609 261.4521484375 82.05450439453125 L 261.4594116210938 82.05333709716797 L 261.4667053222656 82.05220794677734 L 261.7219543457031 82.01279449462891 L 261.7660827636719 82.00597381591797 L 261.8103637695313 82.00048065185547 C 262.0868835449219 81.96617889404297 262.3614196777344 81.93372344970703 262.6407470703125 81.90074157714844 L 262.6493225097656 81.89971923828125 L 262.6578979492188 81.89875793457031 C 263.5712890625 81.79621124267578 264.5137939453125 81.70541381835938 265.4634399414063 81.6285400390625 C 267.6925048828125 81.45130157470703 269.9614868164063 81.3614501953125 272.207275390625 81.3614501953125 C 273.3607788085938 81.3614501953125 274.5314331054688 81.38519287109375 275.6857604980469 81.43195343017578 C 277.3484191894531 81.49878692626953 279.0061340332031 81.6138916015625 280.6129150390625 81.77407073974609 C 280.7820434570313 81.7901611328125 281.1361999511719 81.82923126220703 281.6523742675781 81.88650512695313 C 281.9459228515625 81.9190673828125 282.226318359375 81.95021057128906 282.3745727539063 81.96564483642578 L 282.40771484375 81.96910095214844 L 282.4407653808594 81.97328186035156 C 282.4695739746094 81.9769287109375 282.7056884765625 82.00698089599609 282.8487548828125 82.02919006347656 C 283.5128784179688 82.1295166015625 284.063232421875 82.21749114990234 284.5761108398438 82.30528259277344 C 287.9379272460938 82.87595367431641 291.2862243652344 83.65606689453125 294.5294494628906 84.62439727783203 C 296.1048583984375 85.09566497802734 297.6804809570313 85.61868286132813 299.2100830078125 86.17804718017578 C 299.8911743164063 86.42644500732422 300.5572204589844 86.67935943603516 301.19140625 86.93039703369141 C 301.5234375 87.06204986572266 301.8504943847656 87.19635772705078 302.1668090820313 87.32624816894531 L 302.1730346679688 87.32881164550781 L 302.2286987304688 87.35166931152344 L 302.2833862304688 87.37673950195313 C 302.3358764648438 87.40079498291016 302.3989868164063 87.42948150634766 302.4767456054688 87.46482849121094 L 302.6563415527344 87.54657745361328 L 302.6606140136719 87.54852294921875 L 302.6648864746094 87.55048370361328 C 306.5105590820313 89.31694030761719 309.8479309082031 91.11226654052734 312.8683776855469 93.0394287109375 C 314.3990478515625 94.01655578613281 315.9613647460938 95.099609375 317.5119934082031 96.25852203369141 L 317.6866760253906 96.38957214355469 L 317.7202453613281 96.42314910888672 C 317.7893981933594 96.47793579101563 317.8588256835938 96.53246307373047 317.9283142089844 96.58706665039063 C 318.0267028808594 96.66433715820313 318.1251525878906 96.74172210693359 318.2232360839844 96.81984710693359 L 321.5722351074219 99.48726654052734 L 317.9217224121094 101.7243728637695 C 317.7965393066406 101.8010864257813 317.670166015625 101.8760452270508 317.5435180664063 101.9510650634766 C 317.455810546875 102.0030288696289 317.367919921875 102.0550308227539 317.283203125 102.1064300537109 C 316.5968017578125 102.5241928100586 315.8983154296875 102.9419937133789 315.2228088378906 103.3460311889648 C 313.5487976074219 104.3473052978516 311.8178100585938 105.3826675415039 310.2058715820313 106.4585952758789 C 308.9510803222656 107.2950668334961 307.7635498046875 108.1223754882813 307.0240783691406 109.0456848144531 L 306.5455322265625 109.643196105957 L 306.0700073242188 109.8419189453125 C 305.794921875 110.0547714233398 305.2781372070313 110.5105285644531 305.0450134277344 110.7356643676758 C 304.4895935058594 111.4865036010742 304.130859375 112.3837432861328 304.0794372558594 113.1597595214844 C 304.018798828125 114.0747222900391 304.3909301757813 114.5209197998047 304.7226257324219 114.8080291748047 C 305.8746032714844 115.8058471679688 307.1506042480469 116.231575012207 308.9894104003906 116.2315902709961 L 308.9895324707031 116.2315902709961 M 308.9892272949219 119.2316055297852 C 306.7464294433594 119.231575012207 304.65625 118.7194290161133 302.7584838867188 117.0756683349609 C 300.1324462890625 114.8025207519531 300.924560546875 111.1403732299805 302.7584838867188 108.7864990234375 C 302.8954467773438 108.6081924438477 304.30517578125 107.328010559082 304.6824951171875 107.1703414916992 C 305.7243041992188 105.869499206543 307.1846313476563 104.8671569824219 308.5418090820313 103.9624099731445 C 310.8731079101563 102.4063186645508 313.3302001953125 101.000373840332 315.7235107421875 99.54375457763672 C 315.9337158203125 99.4161376953125 316.1458740234375 99.29412078857422 316.3541870117188 99.16646575927734 C 316.14208984375 98.99753570556641 315.9281005859375 98.83237457275391 315.7178955078125 98.66342926025391 L 315.7160034179688 98.66153717041016 C 314.266845703125 97.57846832275391 312.7802124023438 96.54232025146484 311.254150390625 95.56812286376953 C 308.1062622070313 93.55964660644531 304.804443359375 91.83460998535156 301.4126586914063 90.27662658691406 C 301.2437133789063 90.19966888427734 301.12353515625 90.14523315429688 301.033447265625 90.10393524169922 C 300.7180786132813 89.97442626953125 300.4027709960938 89.84491729736328 300.0855712890625 89.71913909912109 C 299.4548950195313 89.469482421875 298.8203735351563 89.22920989990234 298.1821899414063 88.99646759033203 C 296.6936645507813 88.45211791992188 295.188232421875 87.95281219482422 293.669677734375 87.49855804443359 C 290.5199584960938 86.55815887451172 287.3138427734375 85.81294250488281 284.0740356445313 85.26297760009766 C 283.5147094726563 85.16722869873047 282.9534301757813 85.07901000976563 282.3941040039063 84.99456024169922 C 282.3602905273438 84.98892211914063 282.2119750976563 84.96828460693359 282.063720703125 84.94950103759766 C 281.7033081054688 84.91195678710938 280.5827026367188 84.78431701660156 280.32177734375 84.75991821289063 C 278.7412719726563 84.60222625732422 277.1532592773438 84.49337768554688 275.5652465820313 84.42954254150391 C 274.4462280273438 84.38419342041016 273.3268737792969 84.3614501953125 272.207275390625 84.3614501953125 C 270.0365905761719 84.3614501953125 267.8659057617188 84.44698333740234 265.7012329101563 84.61910247802734 C 264.7965087890625 84.69233703613281 263.8954467773438 84.77866363525391 262.9926147460938 84.88002777099609 C 262.7222900390625 84.91195678710938 262.4520263671875 84.94386291503906 262.1798095703125 84.97764587402344 L 261.924560546875 85.01706695556641 C 260.3590698242188 85.26670074462891 258.79736328125 85.54079437255859 257.2468872070313 85.87113952636719 C 254.1497039794922 86.53188323974609 251.0938415527344 87.38217163085938 248.1017303466797 88.41646575927734 C 245.0214691162109 89.48075866699219 242.0087738037109 90.71212005615234 238.9228363037109 91.75388336181641 C 236.1891937255859 92.67833709716797 233.4978637695313 93.89157867431641 230.6379547119141 93.89157867431641 C 229.978759765625 93.89157867431641 229.3104858398438 93.82709503173828 228.6308135986328 93.67977905273438 C 226.1812286376953 93.14668273925781 225.17138671875 90.53377532958984 225.5899505615234 88.32259368896484 C 226.4308929443359 83.87393951416016 231.3356781005859 80.88186645507813 234.7932586669922 78.53928375244141 C 238.3296661376953 76.14599609375 242.7201690673828 74.67435455322266 246.7727813720703 73.40170288085938 C 255.1024780273438 70.78713989257813 263.807861328125 69.54257965087891 272.5213928222656 69.54257965087891 C 278.5150451660156 69.54257965087891 284.5135192871094 70.13184356689453 290.3922729492188 71.26935577392578 C 297.598388671875 72.66403198242188 304.5586547851563 75.08921051025391 311.1790771484375 78.24832153320313 C 314.2387084960938 79.70870208740234 317.1912841796875 81.38866424560547 320.0144653320313 83.26764678955078 C 321.5105590820313 84.26248168945313 323.222412109375 85.31739044189453 324.776611328125 86.52999114990234 C 324.4425048828125 85.22917175292969 324.1271362304688 83.92272186279297 323.776123046875 82.62943267822266 C 322.3157958984375 77.25348663330078 319.9487915039063 71.72171783447266 319.8286743164063 66.10549926757813 C 319.77001953125 63.41253280639648 322.0626831054688 61.69570541381836 324.3960571289063 61.69570541381836 C 325.5009155273438 61.69570541381836 326.6150817871094 62.0807991027832 327.4927368164063 62.92950439453125 C 331.7818603515625 67.08161163330078 333.9705810546875 73.33977508544922 336.2343139648438 78.73825073242188 C 338.46240234375 84.05599212646484 340.337646484375 89.45822906494141 341.9574584960938 94.98997497558594 C 342.9129028320313 98.25421142578125 341.2705078125 101.5372085571289 338.5599975585938 103.3392105102539 C 333.1033325195313 106.9695053100586 327.5359497070313 110.4777374267578 321.92529296875 113.8658828735352 C 318.9013671875 115.6903915405273 315.3818359375 118.5379028320313 311.832275390625 119.0147018432617 C 310.8605041503906 119.1449279785156 309.9120178222656 119.2316131591797 308.9892272949219 119.2316055297852 Z"/></g></svg>