<svg xmlns="http://www.w3.org/2000/svg" xmlns:xlink="http://www.w3.org/1999/xlink" width="17.14" height="12.71" viewBox="0 0 17.14 12.71"><defs><style>.a{fill:#065be7;}.b{clip-path:url(#a);}</style><clipPath id="a"><path class="a" d="M13.7,2.094l-.031-.021a2.931,2.931,0,0,0-2.254-.865l-.031-.063.021-.01A2.6,2.6,0,0,0,12.8.563C12.837.4,12.785.3,12.61.281a4.222,4.222,0,0,0-1.081.271C11.941.281,12.1.094,12,0a2.07,2.07,0,0,0-1.3.635c.165-.292.237-.458.2-.479a3,3,0,0,0-.576.49A9.357,9.357,0,0,0,9.481,1.74l-.01.021A9.833,9.833,0,0,0,8.307,4.5l-.082.073-.021.01A4.369,4.369,0,0,0,7,3.532,13.408,13.408,0,0,0,5.023,2.469,16.409,16.409,0,0,0,2.512,1.4,2.563,2.563,0,0,0,3.891,3.688V3.7a3.265,3.265,0,0,0-.947.146c.062.9.69,1.511,1.874,1.844l-.01.021a1.326,1.326,0,0,0-1.143.479A2.065,2.065,0,0,0,5.744,7.3a1.474,1.474,0,0,0-.453.333.711.711,0,0,0-.185.688,1.121,1.121,0,0,0,1.163.542l.031.042-.01.021a4.291,4.291,0,0,1-3.541,1.386l-.021.01A4.486,4.486,0,0,1,0,9.095,8.49,8.49,0,0,0,3.9,12.21a9.144,9.144,0,0,0,5.538.135H9.47a8.819,8.819,0,0,0,4.56-3.23,6.451,6.451,0,0,0,1.081-2.438,2.222,2.222,0,0,0,2.028-.823l-.01-.021a3.943,3.943,0,0,1-1.822-.1v-.1q1.482-.172,1.76-.969a2.707,2.707,0,0,1-2.038.021A4.515,4.515,0,0,0,13.7,2.094" transform="translate(0 0)"/></clipPath></defs><g transform="translate(12)"><g class="b" transform="translate(-12)"><g transform="translate(-1.66 -3.36)"><path class="a" d="M0,0H19.92V20.16H0Z"/></g></g></g></svg>